<?xml version="1.0" encoding="utf-8" standalone="no"?>
<!DOCTYPE svg PUBLIC "-//W3C//DTD SVG 1.1//EN"
  "http://www.w3.org/Graphics/SVG/1.1/DTD/svg11.dtd">
<svg xmlns:xlink="http://www.w3.org/1999/xlink" width="1131.955pt" height="501.075625pt" viewBox="0 0 1131.955 501.075625" xmlns="http://www.w3.org/2000/svg" version="1.1">
 <metadata>
  <rdf:RDF xmlns:dc="http://purl.org/dc/elements/1.1/" xmlns:cc="http://creativecommons.org/ns#" xmlns:rdf="http://www.w3.org/1999/02/22-rdf-syntax-ns#">
   <cc:Work>
    <dc:type rdf:resource="http://purl.org/dc/dcmitype/StillImage"/>
    <dc:date>2026-03-23T11:30:34.473333</dc:date>
    <dc:format>image/svg+xml</dc:format>
    <dc:creator>
     <cc:Agent>
      <dc:title>Matplotlib v3.10.8, https://matplotlib.org/</dc:title>
     </cc:Agent>
    </dc:creator>
   </cc:Work>
  </rdf:RDF>
 </metadata>
 <defs>
  <style type="text/css">*{stroke-linejoin: round; stroke-linecap: butt}</style>
 </defs>
 <g id="figure_1">
  <g id="patch_1">
   <path d="M 0 501.075625 
L 1131.955 501.075625 
L 1131.955 -0 
L 0 -0 
z
" style="fill: #ffffff"/>
  </g>
  <g id="axes_1">
   <g id="patch_2">
    <path d="M 85.7575 329.56 
L 1095.1775 329.56 
L 1095.1775 70.56 
L 85.7575 70.56 
z
" style="fill: #ffffff"/>
   </g>
   <g id="matplotlib.axis_1">
    <g id="xtick_1">
     <g id="text_1">
      <!-- 4K -->
      <g style="fill: #262626" transform="translate(177.655281 347.197812) scale(0.14 -0.14)">
       <defs>
        <path id="DejaVuSans-34" d="M 2419 4116 
L 825 1625 
L 2419 1625 
L 2419 4116 
z
M 2253 4666 
L 3047 4666 
L 3047 1625 
L 3713 1625 
L 3713 1100 
L 3047 1100 
L 3047 0 
L 2419 0 
L 2419 1100 
L 313 1100 
L 313 1709 
L 2253 4666 
z
" transform="scale(0.015625)"/>
        <path id="DejaVuSans-4b" d="M 628 4666 
L 1259 4666 
L 1259 2694 
L 3353 4666 
L 4166 4666 
L 1850 2491 
L 4331 0 
L 3500 0 
L 1259 2247 
L 1259 0 
L 628 0 
L 628 4666 
z
" transform="scale(0.015625)"/>
       </defs>
       <use xlink:href="#DejaVuSans-34"/>
       <use xlink:href="#DejaVuSans-4b" transform="translate(63.623047 0)"/>
      </g>
     </g>
    </g>
    <g id="xtick_2">
     <g id="text_2">
      <!-- 16K -->
      <g style="fill: #262626" transform="translate(375.085531 347.197812) scale(0.14 -0.14)">
       <defs>
        <path id="DejaVuSans-31" d="M 794 531 
L 1825 531 
L 1825 4091 
L 703 3866 
L 703 4441 
L 1819 4666 
L 2450 4666 
L 2450 531 
L 3481 531 
L 3481 0 
L 794 0 
L 794 531 
z
" transform="scale(0.015625)"/>
        <path id="DejaVuSans-36" d="M 2113 2584 
Q 1688 2584 1439 2293 
Q 1191 2003 1191 1497 
Q 1191 994 1439 701 
Q 1688 409 2113 409 
Q 2538 409 2786 701 
Q 3034 994 3034 1497 
Q 3034 2003 2786 2293 
Q 2538 2584 2113 2584 
z
M 3366 4563 
L 3366 3988 
Q 3128 4100 2886 4159 
Q 2644 4219 2406 4219 
Q 1781 4219 1451 3797 
Q 1122 3375 1075 2522 
Q 1259 2794 1537 2939 
Q 1816 3084 2150 3084 
Q 2853 3084 3261 2657 
Q 3669 2231 3669 1497 
Q 3669 778 3244 343 
Q 2819 -91 2113 -91 
Q 1303 -91 875 529 
Q 447 1150 447 2328 
Q 447 3434 972 4092 
Q 1497 4750 2381 4750 
Q 2619 4750 2861 4703 
Q 3103 4656 3366 4563 
z
" transform="scale(0.015625)"/>
       </defs>
       <use xlink:href="#DejaVuSans-31"/>
       <use xlink:href="#DejaVuSans-36" transform="translate(63.623047 0)"/>
       <use xlink:href="#DejaVuSans-4b" transform="translate(127.246094 0)"/>
      </g>
     </g>
    </g>
    <g id="xtick_3">
     <g id="text_3">
      <!-- 1M -->
      <g style="fill: #262626" transform="translate(579.974063 347.197812) scale(0.14 -0.14)">
       <defs>
        <path id="DejaVuSans-4d" d="M 628 4666 
L 1569 4666 
L 2759 1491 
L 3956 4666 
L 4897 4666 
L 4897 0 
L 4281 0 
L 4281 4097 
L 3078 897 
L 2444 897 
L 1241 4097 
L 1241 0 
L 628 0 
L 628 4666 
z
" transform="scale(0.015625)"/>
       </defs>
       <use xlink:href="#DejaVuSans-31"/>
       <use xlink:href="#DejaVuSans-4d" transform="translate(63.623047 0)"/>
      </g>
     </g>
    </g>
    <g id="xtick_4">
     <g id="text_4">
      <!-- 2M -->
      <g style="fill: #262626" transform="translate(781.858063 347.197812) scale(0.14 -0.14)">
       <defs>
        <path id="DejaVuSans-32" d="M 1228 531 
L 3431 531 
L 3431 0 
L 469 0 
L 469 531 
Q 828 903 1448 1529 
Q 2069 2156 2228 2338 
Q 2531 2678 2651 2914 
Q 2772 3150 2772 3378 
Q 2772 3750 2511 3984 
Q 2250 4219 1831 4219 
Q 1534 4219 1204 4116 
Q 875 4013 500 3803 
L 500 4441 
Q 881 4594 1212 4672 
Q 1544 4750 1819 4750 
Q 2544 4750 2975 4387 
Q 3406 4025 3406 3419 
Q 3406 3131 3298 2873 
Q 3191 2616 2906 2266 
Q 2828 2175 2409 1742 
Q 1991 1309 1228 531 
z
" transform="scale(0.015625)"/>
       </defs>
       <use xlink:href="#DejaVuSans-32"/>
       <use xlink:href="#DejaVuSans-4d" transform="translate(63.623047 0)"/>
      </g>
     </g>
    </g>
    <g id="xtick_5">
     <g id="text_5">
      <!-- 4M -->
      <g style="fill: #262626" transform="translate(983.742063 347.197812) scale(0.14 -0.14)">
       <use xlink:href="#DejaVuSans-34"/>
       <use xlink:href="#DejaVuSans-4d" transform="translate(63.623047 0)"/>
      </g>
     </g>
    </g>
    <g id="text_6">
     <!-- Block Size -->
     <g style="fill: #262626" transform="translate(539.714375 369.30625) scale(0.2 -0.2)">
      <defs>
       <path id="DejaVuSans-42" d="M 1259 2228 
L 1259 519 
L 2272 519 
Q 2781 519 3026 730 
Q 3272 941 3272 1375 
Q 3272 1813 3026 2020 
Q 2781 2228 2272 2228 
L 1259 2228 
z
M 1259 4147 
L 1259 2741 
L 2194 2741 
Q 2656 2741 2882 2914 
Q 3109 3088 3109 3444 
Q 3109 3797 2882 3972 
Q 2656 4147 2194 4147 
L 1259 4147 
z
M 628 4666 
L 2241 4666 
Q 2963 4666 3353 4366 
Q 3744 4066 3744 3513 
Q 3744 3084 3544 2831 
Q 3344 2578 2956 2516 
Q 3422 2416 3680 2098 
Q 3938 1781 3938 1306 
Q 3938 681 3513 340 
Q 3088 0 2303 0 
L 628 0 
L 628 4666 
z
" transform="scale(0.015625)"/>
       <path id="DejaVuSans-6c" d="M 603 4863 
L 1178 4863 
L 1178 0 
L 603 0 
L 603 4863 
z
" transform="scale(0.015625)"/>
       <path id="DejaVuSans-6f" d="M 1959 3097 
Q 1497 3097 1228 2736 
Q 959 2375 959 1747 
Q 959 1119 1226 758 
Q 1494 397 1959 397 
Q 2419 397 2687 759 
Q 2956 1122 2956 1747 
Q 2956 2369 2687 2733 
Q 2419 3097 1959 3097 
z
M 1959 3584 
Q 2709 3584 3137 3096 
Q 3566 2609 3566 1747 
Q 3566 888 3137 398 
Q 2709 -91 1959 -91 
Q 1206 -91 779 398 
Q 353 888 353 1747 
Q 353 2609 779 3096 
Q 1206 3584 1959 3584 
z
" transform="scale(0.015625)"/>
       <path id="DejaVuSans-63" d="M 3122 3366 
L 3122 2828 
Q 2878 2963 2633 3030 
Q 2388 3097 2138 3097 
Q 1578 3097 1268 2742 
Q 959 2388 959 1747 
Q 959 1106 1268 751 
Q 1578 397 2138 397 
Q 2388 397 2633 464 
Q 2878 531 3122 666 
L 3122 134 
Q 2881 22 2623 -34 
Q 2366 -91 2075 -91 
Q 1284 -91 818 406 
Q 353 903 353 1747 
Q 353 2603 823 3093 
Q 1294 3584 2113 3584 
Q 2378 3584 2631 3529 
Q 2884 3475 3122 3366 
z
" transform="scale(0.015625)"/>
       <path id="DejaVuSans-6b" d="M 581 4863 
L 1159 4863 
L 1159 1991 
L 2875 3500 
L 3609 3500 
L 1753 1863 
L 3688 0 
L 2938 0 
L 1159 1709 
L 1159 0 
L 581 0 
L 581 4863 
z
" transform="scale(0.015625)"/>
       <path id="DejaVuSans-20" transform="scale(0.015625)"/>
       <path id="DejaVuSans-53" d="M 3425 4513 
L 3425 3897 
Q 3066 4069 2747 4153 
Q 2428 4238 2131 4238 
Q 1616 4238 1336 4038 
Q 1056 3838 1056 3469 
Q 1056 3159 1242 3001 
Q 1428 2844 1947 2747 
L 2328 2669 
Q 3034 2534 3370 2195 
Q 3706 1856 3706 1288 
Q 3706 609 3251 259 
Q 2797 -91 1919 -91 
Q 1588 -91 1214 -16 
Q 841 59 441 206 
L 441 856 
Q 825 641 1194 531 
Q 1563 422 1919 422 
Q 2459 422 2753 634 
Q 3047 847 3047 1241 
Q 3047 1584 2836 1778 
Q 2625 1972 2144 2069 
L 1759 2144 
Q 1053 2284 737 2584 
Q 422 2884 422 3419 
Q 422 4038 858 4394 
Q 1294 4750 2059 4750 
Q 2388 4750 2728 4690 
Q 3069 4631 3425 4513 
z
" transform="scale(0.015625)"/>
       <path id="DejaVuSans-69" d="M 603 3500 
L 1178 3500 
L 1178 0 
L 603 0 
L 603 3500 
z
M 603 4863 
L 1178 4863 
L 1178 4134 
L 603 4134 
L 603 4863 
z
" transform="scale(0.015625)"/>
       <path id="DejaVuSans-7a" d="M 353 3500 
L 3084 3500 
L 3084 2975 
L 922 459 
L 3084 459 
L 3084 0 
L 275 0 
L 275 525 
L 2438 3041 
L 353 3041 
L 353 3500 
z
" transform="scale(0.015625)"/>
       <path id="DejaVuSans-65" d="M 3597 1894 
L 3597 1613 
L 953 1613 
Q 991 1019 1311 708 
Q 1631 397 2203 397 
Q 2534 397 2845 478 
Q 3156 559 3463 722 
L 3463 178 
Q 3153 47 2828 -22 
Q 2503 -91 2169 -91 
Q 1331 -91 842 396 
Q 353 884 353 1716 
Q 353 2575 817 3079 
Q 1281 3584 2069 3584 
Q 2775 3584 3186 3129 
Q 3597 2675 3597 1894 
z
M 3022 2063 
Q 3016 2534 2758 2815 
Q 2500 3097 2075 3097 
Q 1594 3097 1305 2825 
Q 1016 2553 972 2059 
L 3022 2063 
z
" transform="scale(0.015625)"/>
      </defs>
      <use xlink:href="#DejaVuSans-42"/>
      <use xlink:href="#DejaVuSans-6c" transform="translate(68.603516 0)"/>
      <use xlink:href="#DejaVuSans-6f" transform="translate(96.386719 0)"/>
      <use xlink:href="#DejaVuSans-63" transform="translate(157.568359 0)"/>
      <use xlink:href="#DejaVuSans-6b" transform="translate(212.548828 0)"/>
      <use xlink:href="#DejaVuSans-20" transform="translate(270.458984 0)"/>
      <use xlink:href="#DejaVuSans-53" transform="translate(302.246094 0)"/>
      <use xlink:href="#DejaVuSans-69" transform="translate(365.722656 0)"/>
      <use xlink:href="#DejaVuSans-7a" transform="translate(393.505859 0)"/>
      <use xlink:href="#DejaVuSans-65" transform="translate(445.996094 0)"/>
     </g>
    </g>
   </g>
   <g id="matplotlib.axis_2">
    <g id="ytick_1">
     <g id="line2d_1">
      <path d="M 85.7575 329.56 
L 1095.1775 329.56 
" clip-path="url(#p496d7f206e)" style="fill: none; stroke: #cccccc; stroke-width: 0.8; stroke-linecap: round"/>
     </g>
     <g id="text_7">
      <!-- 0 -->
      <g style="fill: #262626" transform="translate(69.85 334.878906) scale(0.14 -0.14)">
       <defs>
        <path id="DejaVuSans-30" d="M 2034 4250 
Q 1547 4250 1301 3770 
Q 1056 3291 1056 2328 
Q 1056 1369 1301 889 
Q 1547 409 2034 409 
Q 2525 409 2770 889 
Q 3016 1369 3016 2328 
Q 3016 3291 2770 3770 
Q 2525 4250 2034 4250 
z
M 2034 4750 
Q 2819 4750 3233 4129 
Q 3647 3509 3647 2328 
Q 3647 1150 3233 529 
Q 2819 -91 2034 -91 
Q 1250 -91 836 529 
Q 422 1150 422 2328 
Q 422 3509 836 4129 
Q 1250 4750 2034 4750 
z
" transform="scale(0.015625)"/>
       </defs>
       <use xlink:href="#DejaVuSans-30"/>
      </g>
     </g>
    </g>
    <g id="ytick_2">
     <g id="line2d_2">
      <path d="M 85.7575 285.30525 
L 1095.1775 285.30525 
" clip-path="url(#p496d7f206e)" style="fill: none; stroke: #cccccc; stroke-width: 0.8; stroke-linecap: round"/>
     </g>
     <g id="text_8">
      <!-- 2 -->
      <g style="fill: #262626" transform="translate(69.85 290.624156) scale(0.14 -0.14)">
       <use xlink:href="#DejaVuSans-32"/>
      </g>
     </g>
    </g>
    <g id="ytick_3">
     <g id="line2d_3">
      <path d="M 85.7575 241.0505 
L 1095.1775 241.0505 
" clip-path="url(#p496d7f206e)" style="fill: none; stroke: #cccccc; stroke-width: 0.8; stroke-linecap: round"/>
     </g>
     <g id="text_9">
      <!-- 4 -->
      <g style="fill: #262626" transform="translate(69.85 246.369407) scale(0.14 -0.14)">
       <use xlink:href="#DejaVuSans-34"/>
      </g>
     </g>
    </g>
    <g id="ytick_4">
     <g id="line2d_4">
      <path d="M 85.7575 196.795751 
L 1095.1775 196.795751 
" clip-path="url(#p496d7f206e)" style="fill: none; stroke: #cccccc; stroke-width: 0.8; stroke-linecap: round"/>
     </g>
     <g id="text_10">
      <!-- 6 -->
      <g style="fill: #262626" transform="translate(69.85 202.114657) scale(0.14 -0.14)">
       <use xlink:href="#DejaVuSans-36"/>
      </g>
     </g>
    </g>
    <g id="ytick_5">
     <g id="line2d_5">
      <path d="M 85.7575 152.541001 
L 1095.1775 152.541001 
" clip-path="url(#p496d7f206e)" style="fill: none; stroke: #cccccc; stroke-width: 0.8; stroke-linecap: round"/>
     </g>
     <g id="text_11">
      <!-- 8 -->
      <g style="fill: #262626" transform="translate(69.85 157.859907) scale(0.14 -0.14)">
       <defs>
        <path id="DejaVuSans-38" d="M 2034 2216 
Q 1584 2216 1326 1975 
Q 1069 1734 1069 1313 
Q 1069 891 1326 650 
Q 1584 409 2034 409 
Q 2484 409 2743 651 
Q 3003 894 3003 1313 
Q 3003 1734 2745 1975 
Q 2488 2216 2034 2216 
z
M 1403 2484 
Q 997 2584 770 2862 
Q 544 3141 544 3541 
Q 544 4100 942 4425 
Q 1341 4750 2034 4750 
Q 2731 4750 3128 4425 
Q 3525 4100 3525 3541 
Q 3525 3141 3298 2862 
Q 3072 2584 2669 2484 
Q 3125 2378 3379 2068 
Q 3634 1759 3634 1313 
Q 3634 634 3220 271 
Q 2806 -91 2034 -91 
Q 1263 -91 848 271 
Q 434 634 434 1313 
Q 434 1759 690 2068 
Q 947 2378 1403 2484 
z
M 1172 3481 
Q 1172 3119 1398 2916 
Q 1625 2713 2034 2713 
Q 2441 2713 2670 2916 
Q 2900 3119 2900 3481 
Q 2900 3844 2670 4047 
Q 2441 4250 2034 4250 
Q 1625 4250 1398 4047 
Q 1172 3844 1172 3481 
z
" transform="scale(0.015625)"/>
       </defs>
       <use xlink:href="#DejaVuSans-38"/>
      </g>
     </g>
    </g>
    <g id="ytick_6">
     <g id="line2d_6">
      <path d="M 85.7575 108.286251 
L 1095.1775 108.286251 
" clip-path="url(#p496d7f206e)" style="fill: none; stroke: #cccccc; stroke-width: 0.8; stroke-linecap: round"/>
     </g>
     <g id="text_12">
      <!-- 10 -->
      <g style="fill: #262626" transform="translate(60.9425 113.605157) scale(0.14 -0.14)">
       <use xlink:href="#DejaVuSans-31"/>
       <use xlink:href="#DejaVuSans-30" transform="translate(63.623047 0)"/>
      </g>
     </g>
    </g>
    <g id="text_13">
     <!-- Mean Bandwidth (GiB/s) -->
     <g style="fill: #262626" transform="translate(52.783125 320.669375) rotate(-90) scale(0.2 -0.2)">
      <defs>
       <path id="DejaVuSans-61" d="M 2194 1759 
Q 1497 1759 1228 1600 
Q 959 1441 959 1056 
Q 959 750 1161 570 
Q 1363 391 1709 391 
Q 2188 391 2477 730 
Q 2766 1069 2766 1631 
L 2766 1759 
L 2194 1759 
z
M 3341 1997 
L 3341 0 
L 2766 0 
L 2766 531 
Q 2569 213 2275 61 
Q 1981 -91 1556 -91 
Q 1019 -91 701 211 
Q 384 513 384 1019 
Q 384 1609 779 1909 
Q 1175 2209 1959 2209 
L 2766 2209 
L 2766 2266 
Q 2766 2663 2505 2880 
Q 2244 3097 1772 3097 
Q 1472 3097 1187 3025 
Q 903 2953 641 2809 
L 641 3341 
Q 956 3463 1253 3523 
Q 1550 3584 1831 3584 
Q 2591 3584 2966 3190 
Q 3341 2797 3341 1997 
z
" transform="scale(0.015625)"/>
       <path id="DejaVuSans-6e" d="M 3513 2113 
L 3513 0 
L 2938 0 
L 2938 2094 
Q 2938 2591 2744 2837 
Q 2550 3084 2163 3084 
Q 1697 3084 1428 2787 
Q 1159 2491 1159 1978 
L 1159 0 
L 581 0 
L 581 3500 
L 1159 3500 
L 1159 2956 
Q 1366 3272 1645 3428 
Q 1925 3584 2291 3584 
Q 2894 3584 3203 3211 
Q 3513 2838 3513 2113 
z
" transform="scale(0.015625)"/>
       <path id="DejaVuSans-64" d="M 2906 2969 
L 2906 4863 
L 3481 4863 
L 3481 0 
L 2906 0 
L 2906 525 
Q 2725 213 2448 61 
Q 2172 -91 1784 -91 
Q 1150 -91 751 415 
Q 353 922 353 1747 
Q 353 2572 751 3078 
Q 1150 3584 1784 3584 
Q 2172 3584 2448 3432 
Q 2725 3281 2906 2969 
z
M 947 1747 
Q 947 1113 1208 752 
Q 1469 391 1925 391 
Q 2381 391 2643 752 
Q 2906 1113 2906 1747 
Q 2906 2381 2643 2742 
Q 2381 3103 1925 3103 
Q 1469 3103 1208 2742 
Q 947 2381 947 1747 
z
" transform="scale(0.015625)"/>
       <path id="DejaVuSans-77" d="M 269 3500 
L 844 3500 
L 1563 769 
L 2278 3500 
L 2956 3500 
L 3675 769 
L 4391 3500 
L 4966 3500 
L 4050 0 
L 3372 0 
L 2619 2869 
L 1863 0 
L 1184 0 
L 269 3500 
z
" transform="scale(0.015625)"/>
       <path id="DejaVuSans-74" d="M 1172 4494 
L 1172 3500 
L 2356 3500 
L 2356 3053 
L 1172 3053 
L 1172 1153 
Q 1172 725 1289 603 
Q 1406 481 1766 481 
L 2356 481 
L 2356 0 
L 1766 0 
Q 1100 0 847 248 
Q 594 497 594 1153 
L 594 3053 
L 172 3053 
L 172 3500 
L 594 3500 
L 594 4494 
L 1172 4494 
z
" transform="scale(0.015625)"/>
       <path id="DejaVuSans-68" d="M 3513 2113 
L 3513 0 
L 2938 0 
L 2938 2094 
Q 2938 2591 2744 2837 
Q 2550 3084 2163 3084 
Q 1697 3084 1428 2787 
Q 1159 2491 1159 1978 
L 1159 0 
L 581 0 
L 581 4863 
L 1159 4863 
L 1159 2956 
Q 1366 3272 1645 3428 
Q 1925 3584 2291 3584 
Q 2894 3584 3203 3211 
Q 3513 2838 3513 2113 
z
" transform="scale(0.015625)"/>
       <path id="DejaVuSans-28" d="M 1984 4856 
Q 1566 4138 1362 3434 
Q 1159 2731 1159 2009 
Q 1159 1288 1364 580 
Q 1569 -128 1984 -844 
L 1484 -844 
Q 1016 -109 783 600 
Q 550 1309 550 2009 
Q 550 2706 781 3412 
Q 1013 4119 1484 4856 
L 1984 4856 
z
" transform="scale(0.015625)"/>
       <path id="DejaVuSans-47" d="M 3809 666 
L 3809 1919 
L 2778 1919 
L 2778 2438 
L 4434 2438 
L 4434 434 
Q 4069 175 3628 42 
Q 3188 -91 2688 -91 
Q 1594 -91 976 548 
Q 359 1188 359 2328 
Q 359 3472 976 4111 
Q 1594 4750 2688 4750 
Q 3144 4750 3555 4637 
Q 3966 4525 4313 4306 
L 4313 3634 
Q 3963 3931 3569 4081 
Q 3175 4231 2741 4231 
Q 1884 4231 1454 3753 
Q 1025 3275 1025 2328 
Q 1025 1384 1454 906 
Q 1884 428 2741 428 
Q 3075 428 3337 486 
Q 3600 544 3809 666 
z
" transform="scale(0.015625)"/>
       <path id="DejaVuSans-2f" d="M 1625 4666 
L 2156 4666 
L 531 -594 
L 0 -594 
L 1625 4666 
z
" transform="scale(0.015625)"/>
       <path id="DejaVuSans-73" d="M 2834 3397 
L 2834 2853 
Q 2591 2978 2328 3040 
Q 2066 3103 1784 3103 
Q 1356 3103 1142 2972 
Q 928 2841 928 2578 
Q 928 2378 1081 2264 
Q 1234 2150 1697 2047 
L 1894 2003 
Q 2506 1872 2764 1633 
Q 3022 1394 3022 966 
Q 3022 478 2636 193 
Q 2250 -91 1575 -91 
Q 1294 -91 989 -36 
Q 684 19 347 128 
L 347 722 
Q 666 556 975 473 
Q 1284 391 1588 391 
Q 1994 391 2212 530 
Q 2431 669 2431 922 
Q 2431 1156 2273 1281 
Q 2116 1406 1581 1522 
L 1381 1569 
Q 847 1681 609 1914 
Q 372 2147 372 2553 
Q 372 3047 722 3315 
Q 1072 3584 1716 3584 
Q 2034 3584 2315 3537 
Q 2597 3491 2834 3397 
z
" transform="scale(0.015625)"/>
       <path id="DejaVuSans-29" d="M 513 4856 
L 1013 4856 
Q 1481 4119 1714 3412 
Q 1947 2706 1947 2009 
Q 1947 1309 1714 600 
Q 1481 -109 1013 -844 
L 513 -844 
Q 928 -128 1133 580 
Q 1338 1288 1338 2009 
Q 1338 2731 1133 3434 
Q 928 4138 513 4856 
z
" transform="scale(0.015625)"/>
      </defs>
      <use xlink:href="#DejaVuSans-4d"/>
      <use xlink:href="#DejaVuSans-65" transform="translate(86.279297 0)"/>
      <use xlink:href="#DejaVuSans-61" transform="translate(147.802734 0)"/>
      <use xlink:href="#DejaVuSans-6e" transform="translate(209.082031 0)"/>
      <use xlink:href="#DejaVuSans-20" transform="translate(272.460938 0)"/>
      <use xlink:href="#DejaVuSans-42" transform="translate(304.248047 0)"/>
      <use xlink:href="#DejaVuSans-61" transform="translate(372.851562 0)"/>
      <use xlink:href="#DejaVuSans-6e" transform="translate(434.130859 0)"/>
      <use xlink:href="#DejaVuSans-64" transform="translate(497.509766 0)"/>
      <use xlink:href="#DejaVuSans-77" transform="translate(560.986328 0)"/>
      <use xlink:href="#DejaVuSans-69" transform="translate(642.773438 0)"/>
      <use xlink:href="#DejaVuSans-64" transform="translate(670.556641 0)"/>
      <use xlink:href="#DejaVuSans-74" transform="translate(734.033203 0)"/>
      <use xlink:href="#DejaVuSans-68" transform="translate(773.242188 0)"/>
      <use xlink:href="#DejaVuSans-20" transform="translate(836.621094 0)"/>
      <use xlink:href="#DejaVuSans-28" transform="translate(868.408203 0)"/>
      <use xlink:href="#DejaVuSans-47" transform="translate(907.421875 0)"/>
      <use xlink:href="#DejaVuSans-69" transform="translate(984.912109 0)"/>
      <use xlink:href="#DejaVuSans-42" transform="translate(1012.695312 0)"/>
      <use xlink:href="#DejaVuSans-2f" transform="translate(1081.298828 0)"/>
      <use xlink:href="#DejaVuSans-73" transform="translate(1114.990234 0)"/>
      <use xlink:href="#DejaVuSans-29" transform="translate(1167.089844 0)"/>
     </g>
    </g>
   </g>
   <g id="patch_3">
    <path d="M 105.9459 329.56 
L 122.09662 329.56 
L 122.09662 326.078159 
L 105.9459 326.078159 
z
" clip-path="url(#p496d7f206e)" style="fill: #5a1591; stroke: #ffffff; stroke-linejoin: miter"/>
   </g>
   <g id="patch_4">
    <path d="M 307.8299 329.56 
L 323.98062 329.56 
L 323.98062 315.91684 
L 307.8299 315.91684 
z
" clip-path="url(#p496d7f206e)" style="fill: #5a1591; stroke: #ffffff; stroke-linejoin: miter"/>
   </g>
   <g id="patch_5">
    <path d="M 509.7139 329.56 
L 525.86462 329.56 
L 525.86462 250.269413 
L 509.7139 250.269413 
z
" clip-path="url(#p496d7f206e)" style="fill: #5a1591; stroke: #ffffff; stroke-linejoin: miter"/>
   </g>
   <g id="patch_6">
    <path d="M 711.5979 329.56 
L 727.74862 329.56 
L 727.74862 236.196963 
L 711.5979 236.196963 
z
" clip-path="url(#p496d7f206e)" style="fill: #5a1591; stroke: #ffffff; stroke-linejoin: miter"/>
   </g>
   <g id="patch_7">
    <path d="M 913.4819 329.56 
L 929.63262 329.56 
L 929.63262 248.527641 
L 913.4819 248.527641 
z
" clip-path="url(#p496d7f206e)" style="fill: #5a1591; stroke: #ffffff; stroke-linejoin: miter"/>
   </g>
   <g id="patch_8">
    <path d="M 122.09662 329.56 
L 138.24734 329.56 
L 138.24734 325.606435 
L 122.09662 325.606435 
z
" clip-path="url(#p496d7f206e)" style="fill: #8b288d; stroke: #ffffff; stroke-linejoin: miter"/>
   </g>
   <g id="patch_9">
    <path d="M 323.98062 329.56 
L 340.13134 329.56 
L 340.13134 315.324663 
L 323.98062 315.324663 
z
" clip-path="url(#p496d7f206e)" style="fill: #8b288d; stroke: #ffffff; stroke-linejoin: miter"/>
   </g>
   <g id="patch_10">
    <path d="M 525.86462 329.56 
L 542.01534 329.56 
L 542.01534 224.780583 
L 525.86462 224.780583 
z
" clip-path="url(#p496d7f206e)" style="fill: #8b288d; stroke: #ffffff; stroke-linejoin: miter"/>
   </g>
   <g id="patch_11">
    <path d="M 727.74862 329.56 
L 743.89934 329.56 
L 743.89934 254.519084 
L 727.74862 254.519084 
z
" clip-path="url(#p496d7f206e)" style="fill: #8b288d; stroke: #ffffff; stroke-linejoin: miter"/>
   </g>
   <g id="patch_12">
    <path d="M 929.63262 329.56 
L 945.78334 329.56 
L 945.78334 259.008392 
L 929.63262 259.008392 
z
" clip-path="url(#p496d7f206e)" style="fill: #8b288d; stroke: #ffffff; stroke-linejoin: miter"/>
   </g>
   <g id="patch_13">
    <path d="M 138.24734 329.56 
L 154.39806 329.56 
L 154.39806 324.738325 
L 138.24734 324.738325 
z
" clip-path="url(#p496d7f206e)" style="fill: #bb587c; stroke: #ffffff; stroke-linejoin: miter"/>
   </g>
   <g id="patch_14">
    <path d="M 340.13134 329.56 
L 356.28206 329.56 
L 356.28206 314.124195 
L 340.13134 314.124195 
z
" clip-path="url(#p496d7f206e)" style="fill: #bb587c; stroke: #ffffff; stroke-linejoin: miter"/>
   </g>
   <g id="patch_15">
    <path d="M 542.01534 329.56 
L 558.16606 329.56 
L 558.16606 233.421913 
L 542.01534 233.421913 
z
" clip-path="url(#p496d7f206e)" style="fill: #bb587c; stroke: #ffffff; stroke-linejoin: miter"/>
   </g>
   <g id="patch_16">
    <path d="M 743.89934 329.56 
L 760.05006 329.56 
L 760.05006 223.205942 
L 743.89934 223.205942 
z
" clip-path="url(#p496d7f206e)" style="fill: #bb587c; stroke: #ffffff; stroke-linejoin: miter"/>
   </g>
   <g id="patch_17">
    <path d="M 945.78334 329.56 
L 961.93406 329.56 
L 961.93406 239.769302 
L 945.78334 239.769302 
z
" clip-path="url(#p496d7f206e)" style="fill: #bb587c; stroke: #ffffff; stroke-linejoin: miter"/>
   </g>
   <g id="patch_18">
    <path d="M 154.39806 329.56 
L 170.54878 329.56 
L 170.54878 324.969407 
L 154.39806 324.969407 
z
" clip-path="url(#p496d7f206e)" style="fill: #da8266; stroke: #ffffff; stroke-linejoin: miter"/>
   </g>
   <g id="patch_19">
    <path d="M 356.28206 329.56 
L 372.43278 329.56 
L 372.43278 311.029957 
L 356.28206 311.029957 
z
" clip-path="url(#p496d7f206e)" style="fill: #da8266; stroke: #ffffff; stroke-linejoin: miter"/>
   </g>
   <g id="patch_20">
    <path d="M 558.16606 329.56 
L 574.31678 329.56 
L 574.31678 197.064253 
L 558.16606 197.064253 
z
" clip-path="url(#p496d7f206e)" style="fill: #da8266; stroke: #ffffff; stroke-linejoin: miter"/>
   </g>
   <g id="patch_21">
    <path d="M 760.05006 329.56 
L 776.20078 329.56 
L 776.20078 183.103246 
L 760.05006 183.103246 
z
" clip-path="url(#p496d7f206e)" style="fill: #da8266; stroke: #ffffff; stroke-linejoin: miter"/>
   </g>
   <g id="patch_22">
    <path d="M 961.93406 329.56 
L 978.08478 329.56 
L 978.08478 191.198252 
L 961.93406 191.198252 
z
" clip-path="url(#p496d7f206e)" style="fill: #da8266; stroke: #ffffff; stroke-linejoin: miter"/>
   </g>
   <g id="patch_23">
    <path d="M 170.54878 329.56 
L 186.6995 329.56 
L 186.6995 324.546353 
L 170.54878 324.546353 
z
" clip-path="url(#p496d7f206e)" style="fill: #e4ac49; stroke: #ffffff; stroke-linejoin: miter"/>
   </g>
   <g id="patch_24">
    <path d="M 372.43278 329.56 
L 388.5835 329.56 
L 388.5835 310.44345 
L 372.43278 310.44345 
z
" clip-path="url(#p496d7f206e)" style="fill: #e4ac49; stroke: #ffffff; stroke-linejoin: miter"/>
   </g>
   <g id="patch_25">
    <path d="M 574.31678 329.56 
L 590.4675 329.56 
L 590.4675 115.740057 
L 574.31678 115.740057 
z
" clip-path="url(#p496d7f206e)" style="fill: #e4ac49; stroke: #ffffff; stroke-linejoin: miter"/>
   </g>
   <g id="patch_26">
    <path d="M 776.20078 329.56 
L 792.3515 329.56 
L 792.3515 100.346144 
L 776.20078 100.346144 
z
" clip-path="url(#p496d7f206e)" style="fill: #e4ac49; stroke: #ffffff; stroke-linejoin: miter"/>
   </g>
   <g id="patch_27">
    <path d="M 978.08478 329.56 
L 994.2355 329.56 
L 994.2355 111.299461 
L 978.08478 111.299461 
z
" clip-path="url(#p496d7f206e)" style="fill: #e4ac49; stroke: #ffffff; stroke-linejoin: miter"/>
   </g>
   <g id="patch_28">
    <path d="M 186.6995 329.56 
L 202.85022 329.56 
L 202.85022 325.966152 
L 186.6995 325.966152 
z
" clip-path="url(#p496d7f206e)" style="fill: #332741; stroke: #ffffff; stroke-linejoin: miter"/>
   </g>
   <g id="patch_29">
    <path d="M 388.5835 329.56 
L 404.73422 329.56 
L 404.73422 315.809216 
L 388.5835 315.809216 
z
" clip-path="url(#p496d7f206e)" style="fill: #332741; stroke: #ffffff; stroke-linejoin: miter"/>
   </g>
   <g id="patch_30">
    <path d="M 590.4675 329.56 
L 606.61822 329.56 
L 606.61822 223.773747 
L 590.4675 223.773747 
z
" clip-path="url(#p496d7f206e)" style="fill: #332741; stroke: #ffffff; stroke-linejoin: miter"/>
   </g>
   <g id="patch_31">
    <path d="M 792.3515 329.56 
L 808.50222 329.56 
L 808.50222 226.843287 
L 792.3515 226.843287 
z
" clip-path="url(#p496d7f206e)" style="fill: #332741; stroke: #ffffff; stroke-linejoin: miter"/>
   </g>
   <g id="patch_32">
    <path d="M 994.2355 329.56 
L 1010.38622 329.56 
L 1010.38622 239.589094 
L 994.2355 239.589094 
z
" clip-path="url(#p496d7f206e)" style="fill: #332741; stroke: #ffffff; stroke-linejoin: miter"/>
   </g>
   <g id="patch_33">
    <path d="M 202.85022 329.56 
L 219.00094 329.56 
L 219.00094 325.579001 
L 202.85022 325.579001 
z
" clip-path="url(#p496d7f206e)" style="fill: #495084; stroke: #ffffff; stroke-linejoin: miter"/>
   </g>
   <g id="patch_34">
    <path d="M 404.73422 329.56 
L 420.88494 329.56 
L 420.88494 315.163562 
L 404.73422 315.163562 
z
" clip-path="url(#p496d7f206e)" style="fill: #495084; stroke: #ffffff; stroke-linejoin: miter"/>
   </g>
   <g id="patch_35">
    <path d="M 606.61822 329.56 
L 622.76894 329.56 
L 622.76894 258.346671 
L 606.61822 258.346671 
z
" clip-path="url(#p496d7f206e)" style="fill: #495084; stroke: #ffffff; stroke-linejoin: miter"/>
   </g>
   <g id="patch_36">
    <path d="M 808.50222 329.56 
L 824.65294 329.56 
L 824.65294 236.692055 
L 808.50222 236.692055 
z
" clip-path="url(#p496d7f206e)" style="fill: #495084; stroke: #ffffff; stroke-linejoin: miter"/>
   </g>
   <g id="patch_37">
    <path d="M 1010.38622 329.56 
L 1026.53694 329.56 
L 1026.53694 247.180586 
L 1010.38622 247.180586 
z
" clip-path="url(#p496d7f206e)" style="fill: #495084; stroke: #ffffff; stroke-linejoin: miter"/>
   </g>
   <g id="patch_38">
    <path d="M 219.00094 329.56 
L 235.15166 329.56 
L 235.15166 325.80233 
L 219.00094 325.80233 
z
" clip-path="url(#p496d7f206e)" style="fill: #437795; stroke: #ffffff; stroke-linejoin: miter"/>
   </g>
   <g id="patch_39">
    <path d="M 420.88494 329.56 
L 437.03566 329.56 
L 437.03566 313.458363 
L 420.88494 313.458363 
z
" clip-path="url(#p496d7f206e)" style="fill: #437795; stroke: #ffffff; stroke-linejoin: miter"/>
   </g>
   <g id="patch_40">
    <path d="M 622.76894 329.56 
L 638.91966 329.56 
L 638.91966 220.937631 
L 622.76894 220.937631 
z
" clip-path="url(#p496d7f206e)" style="fill: #437795; stroke: #ffffff; stroke-linejoin: miter"/>
   </g>
   <g id="patch_41">
    <path d="M 824.65294 329.56 
L 840.80366 329.56 
L 840.80366 229.364127 
L 824.65294 229.364127 
z
" clip-path="url(#p496d7f206e)" style="fill: #437795; stroke: #ffffff; stroke-linejoin: miter"/>
   </g>
   <g id="patch_42">
    <path d="M 1026.53694 329.56 
L 1042.68766 329.56 
L 1042.68766 226.371726 
L 1026.53694 226.371726 
z
" clip-path="url(#p496d7f206e)" style="fill: #437795; stroke: #ffffff; stroke-linejoin: miter"/>
   </g>
   <g id="patch_43">
    <path d="M 235.15166 329.56 
L 251.30238 329.56 
L 251.30238 325.006852 
L 235.15166 325.006852 
z
" clip-path="url(#p496d7f206e)" style="fill: #479c9e; stroke: #ffffff; stroke-linejoin: miter"/>
   </g>
   <g id="patch_44">
    <path d="M 437.03566 329.56 
L 453.18638 329.56 
L 453.18638 313.087561 
L 437.03566 313.087561 
z
" clip-path="url(#p496d7f206e)" style="fill: #479c9e; stroke: #ffffff; stroke-linejoin: miter"/>
   </g>
   <g id="patch_45">
    <path d="M 638.91966 329.56 
L 655.07038 329.56 
L 655.07038 197.753123 
L 638.91966 197.753123 
z
" clip-path="url(#p496d7f206e)" style="fill: #479c9e; stroke: #ffffff; stroke-linejoin: miter"/>
   </g>
   <g id="patch_46">
    <path d="M 840.80366 329.56 
L 856.95438 329.56 
L 856.95438 199.391333 
L 840.80366 199.391333 
z
" clip-path="url(#p496d7f206e)" style="fill: #479c9e; stroke: #ffffff; stroke-linejoin: miter"/>
   </g>
   <g id="patch_47">
    <path d="M 1042.68766 329.56 
L 1058.83838 329.56 
L 1058.83838 197.639842 
L 1042.68766 197.639842 
z
" clip-path="url(#p496d7f206e)" style="fill: #479c9e; stroke: #ffffff; stroke-linejoin: miter"/>
   </g>
   <g id="patch_48">
    <path d="M 251.30238 329.56 
L 267.4531 329.56 
L 267.4531 323.87391 
L 251.30238 323.87391 
z
" clip-path="url(#p496d7f206e)" style="fill: #85caad; stroke: #ffffff; stroke-linejoin: miter"/>
   </g>
   <g id="patch_49">
    <path d="M 453.18638 329.56 
L 469.3371 329.56 
L 469.3371 312.257151 
L 453.18638 312.257151 
z
" clip-path="url(#p496d7f206e)" style="fill: #85caad; stroke: #ffffff; stroke-linejoin: miter"/>
   </g>
   <g id="patch_50">
    <path d="M 655.07038 329.56 
L 671.2211 329.56 
L 671.2211 86.250182 
L 655.07038 86.250182 
z
" clip-path="url(#p496d7f206e)" style="fill: #85caad; stroke: #ffffff; stroke-linejoin: miter"/>
   </g>
   <g id="patch_51">
    <path d="M 856.95438 329.56 
L 873.1051 329.56 
L 873.1051 85.402476 
L 856.95438 85.402476 
z
" clip-path="url(#p496d7f206e)" style="fill: #85caad; stroke: #ffffff; stroke-linejoin: miter"/>
   </g>
   <g id="patch_52">
    <path d="M 1058.83838 329.56 
L 1074.9891 329.56 
L 1074.9891 82.893333 
L 1058.83838 82.893333 
z
" clip-path="url(#p496d7f206e)" style="fill: #85caad; stroke: #ffffff; stroke-linejoin: miter"/>
   </g>
   <g id="patch_53">
    <path d="M 186.6995 329.56 
L 186.6995 329.56 
L 186.6995 329.56 
L 186.6995 329.56 
z
" clip-path="url(#p496d7f206e)" style="fill: #5a1591; stroke: #ffffff; stroke-linejoin: miter"/>
   </g>
   <g id="patch_54">
    <path d="M 186.6995 329.56 
L 186.6995 329.56 
L 186.6995 329.56 
L 186.6995 329.56 
z
" clip-path="url(#p496d7f206e)" style="fill: #8b288d; stroke: #ffffff; stroke-linejoin: miter"/>
   </g>
   <g id="patch_55">
    <path d="M 186.6995 329.56 
L 186.6995 329.56 
L 186.6995 329.56 
L 186.6995 329.56 
z
" clip-path="url(#p496d7f206e)" style="fill: #bb587c; stroke: #ffffff; stroke-linejoin: miter"/>
   </g>
   <g id="patch_56">
    <path d="M 186.6995 329.56 
L 186.6995 329.56 
L 186.6995 329.56 
L 186.6995 329.56 
z
" clip-path="url(#p496d7f206e)" style="fill: #da8266; stroke: #ffffff; stroke-linejoin: miter"/>
   </g>
   <g id="patch_57">
    <path d="M 186.6995 329.56 
L 186.6995 329.56 
L 186.6995 329.56 
L 186.6995 329.56 
z
" clip-path="url(#p496d7f206e)" style="fill: #e4ac49; stroke: #ffffff; stroke-linejoin: miter"/>
   </g>
   <g id="patch_58">
    <path d="M 186.6995 329.56 
L 186.6995 329.56 
L 186.6995 329.56 
L 186.6995 329.56 
z
" clip-path="url(#p496d7f206e)" style="fill: #332741; stroke: #ffffff; stroke-linejoin: miter"/>
   </g>
   <g id="patch_59">
    <path d="M 186.6995 329.56 
L 186.6995 329.56 
L 186.6995 329.56 
L 186.6995 329.56 
z
" clip-path="url(#p496d7f206e)" style="fill: #495084; stroke: #ffffff; stroke-linejoin: miter"/>
   </g>
   <g id="patch_60">
    <path d="M 186.6995 329.56 
L 186.6995 329.56 
L 186.6995 329.56 
L 186.6995 329.56 
z
" clip-path="url(#p496d7f206e)" style="fill: #437795; stroke: #ffffff; stroke-linejoin: miter"/>
   </g>
   <g id="patch_61">
    <path d="M 186.6995 329.56 
L 186.6995 329.56 
L 186.6995 329.56 
L 186.6995 329.56 
z
" clip-path="url(#p496d7f206e)" style="fill: #479c9e; stroke: #ffffff; stroke-linejoin: miter"/>
   </g>
   <g id="patch_62">
    <path d="M 186.6995 329.56 
L 186.6995 329.56 
L 186.6995 329.56 
L 186.6995 329.56 
z
" clip-path="url(#p496d7f206e)" style="fill: #85caad; stroke: #ffffff; stroke-linejoin: miter"/>
   </g>
   <g id="patch_63">
    <path d="M 85.7575 329.56 
L 85.7575 70.56 
" style="fill: none; stroke: #cccccc; stroke-width: 0.8; stroke-linejoin: miter; stroke-linecap: square"/>
   </g>
   <g id="patch_64">
    <path d="M 1095.1775 329.56 
L 1095.1775 70.56 
" style="fill: none; stroke: #cccccc; stroke-width: 0.8; stroke-linejoin: miter; stroke-linecap: square"/>
   </g>
   <g id="patch_65">
    <path d="M 85.7575 329.56 
L 1095.1775 329.56 
" style="fill: none; stroke: #cccccc; stroke-width: 0.8; stroke-linejoin: miter; stroke-linecap: square"/>
   </g>
   <g id="patch_66">
    <path d="M 85.7575 70.56 
L 1095.1775 70.56 
" style="fill: none; stroke: #cccccc; stroke-width: 0.8; stroke-linejoin: miter; stroke-linecap: square"/>
   </g>
  </g>
  <g id="text_14">
   <!-- Single Client Bandwidth vs Block Size -->
   <g style="fill: #262626" transform="translate(340.9475 25.43625) scale(0.24 -0.24)">
    <defs>
     <path id="DejaVuSans-67" d="M 2906 1791 
Q 2906 2416 2648 2759 
Q 2391 3103 1925 3103 
Q 1463 3103 1205 2759 
Q 947 2416 947 1791 
Q 947 1169 1205 825 
Q 1463 481 1925 481 
Q 2391 481 2648 825 
Q 2906 1169 2906 1791 
z
M 3481 434 
Q 3481 -459 3084 -895 
Q 2688 -1331 1869 -1331 
Q 1566 -1331 1297 -1286 
Q 1028 -1241 775 -1147 
L 775 -588 
Q 1028 -725 1275 -790 
Q 1522 -856 1778 -856 
Q 2344 -856 2625 -561 
Q 2906 -266 2906 331 
L 2906 616 
Q 2728 306 2450 153 
Q 2172 0 1784 0 
Q 1141 0 747 490 
Q 353 981 353 1791 
Q 353 2603 747 3093 
Q 1141 3584 1784 3584 
Q 2172 3584 2450 3431 
Q 2728 3278 2906 2969 
L 2906 3500 
L 3481 3500 
L 3481 434 
z
" transform="scale(0.015625)"/>
     <path id="DejaVuSans-43" d="M 4122 4306 
L 4122 3641 
Q 3803 3938 3442 4084 
Q 3081 4231 2675 4231 
Q 1875 4231 1450 3742 
Q 1025 3253 1025 2328 
Q 1025 1406 1450 917 
Q 1875 428 2675 428 
Q 3081 428 3442 575 
Q 3803 722 4122 1019 
L 4122 359 
Q 3791 134 3420 21 
Q 3050 -91 2638 -91 
Q 1578 -91 968 557 
Q 359 1206 359 2328 
Q 359 3453 968 4101 
Q 1578 4750 2638 4750 
Q 3056 4750 3426 4639 
Q 3797 4528 4122 4306 
z
" transform="scale(0.015625)"/>
     <path id="DejaVuSans-76" d="M 191 3500 
L 800 3500 
L 1894 563 
L 2988 3500 
L 3597 3500 
L 2284 0 
L 1503 0 
L 191 3500 
z
" transform="scale(0.015625)"/>
    </defs>
    <use xlink:href="#DejaVuSans-53"/>
    <use xlink:href="#DejaVuSans-69" transform="translate(63.476562 0)"/>
    <use xlink:href="#DejaVuSans-6e" transform="translate(91.259766 0)"/>
    <use xlink:href="#DejaVuSans-67" transform="translate(154.638672 0)"/>
    <use xlink:href="#DejaVuSans-6c" transform="translate(218.115234 0)"/>
    <use xlink:href="#DejaVuSans-65" transform="translate(245.898438 0)"/>
    <use xlink:href="#DejaVuSans-20" transform="translate(307.421875 0)"/>
    <use xlink:href="#DejaVuSans-43" transform="translate(339.208984 0)"/>
    <use xlink:href="#DejaVuSans-6c" transform="translate(409.033203 0)"/>
    <use xlink:href="#DejaVuSans-69" transform="translate(436.816406 0)"/>
    <use xlink:href="#DejaVuSans-65" transform="translate(464.599609 0)"/>
    <use xlink:href="#DejaVuSans-6e" transform="translate(526.123047 0)"/>
    <use xlink:href="#DejaVuSans-74" transform="translate(589.501953 0)"/>
    <use xlink:href="#DejaVuSans-20" transform="translate(628.710938 0)"/>
    <use xlink:href="#DejaVuSans-42" transform="translate(660.498047 0)"/>
    <use xlink:href="#DejaVuSans-61" transform="translate(729.101562 0)"/>
    <use xlink:href="#DejaVuSans-6e" transform="translate(790.380859 0)"/>
    <use xlink:href="#DejaVuSans-64" transform="translate(853.759766 0)"/>
    <use xlink:href="#DejaVuSans-77" transform="translate(917.236328 0)"/>
    <use xlink:href="#DejaVuSans-69" transform="translate(999.023438 0)"/>
    <use xlink:href="#DejaVuSans-64" transform="translate(1026.806641 0)"/>
    <use xlink:href="#DejaVuSans-74" transform="translate(1090.283203 0)"/>
    <use xlink:href="#DejaVuSans-68" transform="translate(1129.492188 0)"/>
    <use xlink:href="#DejaVuSans-20" transform="translate(1192.871094 0)"/>
    <use xlink:href="#DejaVuSans-76" transform="translate(1224.658203 0)"/>
    <use xlink:href="#DejaVuSans-73" transform="translate(1283.837891 0)"/>
    <use xlink:href="#DejaVuSans-20" transform="translate(1335.9375 0)"/>
    <use xlink:href="#DejaVuSans-42" transform="translate(1367.724609 0)"/>
    <use xlink:href="#DejaVuSans-6c" transform="translate(1436.328125 0)"/>
    <use xlink:href="#DejaVuSans-6f" transform="translate(1464.111328 0)"/>
    <use xlink:href="#DejaVuSans-63" transform="translate(1525.292969 0)"/>
    <use xlink:href="#DejaVuSans-6b" transform="translate(1580.273438 0)"/>
    <use xlink:href="#DejaVuSans-20" transform="translate(1638.183594 0)"/>
    <use xlink:href="#DejaVuSans-53" transform="translate(1669.970703 0)"/>
    <use xlink:href="#DejaVuSans-69" transform="translate(1733.447266 0)"/>
    <use xlink:href="#DejaVuSans-7a" transform="translate(1761.230469 0)"/>
    <use xlink:href="#DejaVuSans-65" transform="translate(1813.720703 0)"/>
   </g>
  </g>
  <g id="text_15">
   <!-- Number of Jobs = 16, IO Depth = 16 -->
   <g style="fill: #262626; opacity: 0.75" transform="translate(429.079063 49.980469) scale(0.15 -0.15)">
    <defs>
     <path id="DejaVuSans-4e" d="M 628 4666 
L 1478 4666 
L 3547 763 
L 3547 4666 
L 4159 4666 
L 4159 0 
L 3309 0 
L 1241 3903 
L 1241 0 
L 628 0 
L 628 4666 
z
" transform="scale(0.015625)"/>
     <path id="DejaVuSans-75" d="M 544 1381 
L 544 3500 
L 1119 3500 
L 1119 1403 
Q 1119 906 1312 657 
Q 1506 409 1894 409 
Q 2359 409 2629 706 
Q 2900 1003 2900 1516 
L 2900 3500 
L 3475 3500 
L 3475 0 
L 2900 0 
L 2900 538 
Q 2691 219 2414 64 
Q 2138 -91 1772 -91 
Q 1169 -91 856 284 
Q 544 659 544 1381 
z
M 1991 3584 
L 1991 3584 
z
" transform="scale(0.015625)"/>
     <path id="DejaVuSans-6d" d="M 3328 2828 
Q 3544 3216 3844 3400 
Q 4144 3584 4550 3584 
Q 5097 3584 5394 3201 
Q 5691 2819 5691 2113 
L 5691 0 
L 5113 0 
L 5113 2094 
Q 5113 2597 4934 2840 
Q 4756 3084 4391 3084 
Q 3944 3084 3684 2787 
Q 3425 2491 3425 1978 
L 3425 0 
L 2847 0 
L 2847 2094 
Q 2847 2600 2669 2842 
Q 2491 3084 2119 3084 
Q 1678 3084 1418 2786 
Q 1159 2488 1159 1978 
L 1159 0 
L 581 0 
L 581 3500 
L 1159 3500 
L 1159 2956 
Q 1356 3278 1631 3431 
Q 1906 3584 2284 3584 
Q 2666 3584 2933 3390 
Q 3200 3197 3328 2828 
z
" transform="scale(0.015625)"/>
     <path id="DejaVuSans-62" d="M 3116 1747 
Q 3116 2381 2855 2742 
Q 2594 3103 2138 3103 
Q 1681 3103 1420 2742 
Q 1159 2381 1159 1747 
Q 1159 1113 1420 752 
Q 1681 391 2138 391 
Q 2594 391 2855 752 
Q 3116 1113 3116 1747 
z
M 1159 2969 
Q 1341 3281 1617 3432 
Q 1894 3584 2278 3584 
Q 2916 3584 3314 3078 
Q 3713 2572 3713 1747 
Q 3713 922 3314 415 
Q 2916 -91 2278 -91 
Q 1894 -91 1617 61 
Q 1341 213 1159 525 
L 1159 0 
L 581 0 
L 581 4863 
L 1159 4863 
L 1159 2969 
z
" transform="scale(0.015625)"/>
     <path id="DejaVuSans-72" d="M 2631 2963 
Q 2534 3019 2420 3045 
Q 2306 3072 2169 3072 
Q 1681 3072 1420 2755 
Q 1159 2438 1159 1844 
L 1159 0 
L 581 0 
L 581 3500 
L 1159 3500 
L 1159 2956 
Q 1341 3275 1631 3429 
Q 1922 3584 2338 3584 
Q 2397 3584 2469 3576 
Q 2541 3569 2628 3553 
L 2631 2963 
z
" transform="scale(0.015625)"/>
     <path id="DejaVuSans-66" d="M 2375 4863 
L 2375 4384 
L 1825 4384 
Q 1516 4384 1395 4259 
Q 1275 4134 1275 3809 
L 1275 3500 
L 2222 3500 
L 2222 3053 
L 1275 3053 
L 1275 0 
L 697 0 
L 697 3053 
L 147 3053 
L 147 3500 
L 697 3500 
L 697 3744 
Q 697 4328 969 4595 
Q 1241 4863 1831 4863 
L 2375 4863 
z
" transform="scale(0.015625)"/>
     <path id="DejaVuSans-4a" d="M 628 4666 
L 1259 4666 
L 1259 325 
Q 1259 -519 939 -900 
Q 619 -1281 -91 -1281 
L -331 -1281 
L -331 -750 
L -134 -750 
Q 284 -750 456 -515 
Q 628 -281 628 325 
L 628 4666 
z
" transform="scale(0.015625)"/>
     <path id="DejaVuSans-3d" d="M 678 2906 
L 4684 2906 
L 4684 2381 
L 678 2381 
L 678 2906 
z
M 678 1631 
L 4684 1631 
L 4684 1100 
L 678 1100 
L 678 1631 
z
" transform="scale(0.015625)"/>
     <path id="DejaVuSans-2c" d="M 750 794 
L 1409 794 
L 1409 256 
L 897 -744 
L 494 -744 
L 750 256 
L 750 794 
z
" transform="scale(0.015625)"/>
     <path id="DejaVuSans-49" d="M 628 4666 
L 1259 4666 
L 1259 0 
L 628 0 
L 628 4666 
z
" transform="scale(0.015625)"/>
     <path id="DejaVuSans-4f" d="M 2522 4238 
Q 1834 4238 1429 3725 
Q 1025 3213 1025 2328 
Q 1025 1447 1429 934 
Q 1834 422 2522 422 
Q 3209 422 3611 934 
Q 4013 1447 4013 2328 
Q 4013 3213 3611 3725 
Q 3209 4238 2522 4238 
z
M 2522 4750 
Q 3503 4750 4090 4092 
Q 4678 3434 4678 2328 
Q 4678 1225 4090 567 
Q 3503 -91 2522 -91 
Q 1538 -91 948 565 
Q 359 1222 359 2328 
Q 359 3434 948 4092 
Q 1538 4750 2522 4750 
z
" transform="scale(0.015625)"/>
     <path id="DejaVuSans-44" d="M 1259 4147 
L 1259 519 
L 2022 519 
Q 2988 519 3436 956 
Q 3884 1394 3884 2338 
Q 3884 3275 3436 3711 
Q 2988 4147 2022 4147 
L 1259 4147 
z
M 628 4666 
L 1925 4666 
Q 3281 4666 3915 4102 
Q 4550 3538 4550 2338 
Q 4550 1131 3912 565 
Q 3275 0 1925 0 
L 628 0 
L 628 4666 
z
" transform="scale(0.015625)"/>
     <path id="DejaVuSans-70" d="M 1159 525 
L 1159 -1331 
L 581 -1331 
L 581 3500 
L 1159 3500 
L 1159 2969 
Q 1341 3281 1617 3432 
Q 1894 3584 2278 3584 
Q 2916 3584 3314 3078 
Q 3713 2572 3713 1747 
Q 3713 922 3314 415 
Q 2916 -91 2278 -91 
Q 1894 -91 1617 61 
Q 1341 213 1159 525 
z
M 3116 1747 
Q 3116 2381 2855 2742 
Q 2594 3103 2138 3103 
Q 1681 3103 1420 2742 
Q 1159 2381 1159 1747 
Q 1159 1113 1420 752 
Q 1681 391 2138 391 
Q 2594 391 2855 752 
Q 3116 1113 3116 1747 
z
" transform="scale(0.015625)"/>
    </defs>
    <use xlink:href="#DejaVuSans-4e"/>
    <use xlink:href="#DejaVuSans-75" transform="translate(74.804688 0)"/>
    <use xlink:href="#DejaVuSans-6d" transform="translate(138.183594 0)"/>
    <use xlink:href="#DejaVuSans-62" transform="translate(235.595703 0)"/>
    <use xlink:href="#DejaVuSans-65" transform="translate(299.072266 0)"/>
    <use xlink:href="#DejaVuSans-72" transform="translate(360.595703 0)"/>
    <use xlink:href="#DejaVuSans-20" transform="translate(401.708984 0)"/>
    <use xlink:href="#DejaVuSans-6f" transform="translate(433.496094 0)"/>
    <use xlink:href="#DejaVuSans-66" transform="translate(494.677734 0)"/>
    <use xlink:href="#DejaVuSans-20" transform="translate(529.882812 0)"/>
    <use xlink:href="#DejaVuSans-4a" transform="translate(561.669922 0)"/>
    <use xlink:href="#DejaVuSans-6f" transform="translate(591.162109 0)"/>
    <use xlink:href="#DejaVuSans-62" transform="translate(652.34375 0)"/>
    <use xlink:href="#DejaVuSans-73" transform="translate(715.820312 0)"/>
    <use xlink:href="#DejaVuSans-20" transform="translate(767.919922 0)"/>
    <use xlink:href="#DejaVuSans-3d" transform="translate(799.707031 0)"/>
    <use xlink:href="#DejaVuSans-20" transform="translate(883.496094 0)"/>
    <use xlink:href="#DejaVuSans-31" transform="translate(915.283203 0)"/>
    <use xlink:href="#DejaVuSans-36" transform="translate(978.90625 0)"/>
    <use xlink:href="#DejaVuSans-2c" transform="translate(1042.529297 0)"/>
    <use xlink:href="#DejaVuSans-20" transform="translate(1074.316406 0)"/>
    <use xlink:href="#DejaVuSans-49" transform="translate(1106.103516 0)"/>
    <use xlink:href="#DejaVuSans-4f" transform="translate(1135.595703 0)"/>
    <use xlink:href="#DejaVuSans-20" transform="translate(1214.306641 0)"/>
    <use xlink:href="#DejaVuSans-44" transform="translate(1246.09375 0)"/>
    <use xlink:href="#DejaVuSans-65" transform="translate(1323.095703 0)"/>
    <use xlink:href="#DejaVuSans-70" transform="translate(1384.619141 0)"/>
    <use xlink:href="#DejaVuSans-74" transform="translate(1448.095703 0)"/>
    <use xlink:href="#DejaVuSans-68" transform="translate(1487.304688 0)"/>
    <use xlink:href="#DejaVuSans-20" transform="translate(1550.683594 0)"/>
    <use xlink:href="#DejaVuSans-3d" transform="translate(1582.470703 0)"/>
    <use xlink:href="#DejaVuSans-20" transform="translate(1666.259766 0)"/>
    <use xlink:href="#DejaVuSans-31" transform="translate(1698.046875 0)"/>
    <use xlink:href="#DejaVuSans-36" transform="translate(1761.669922 0)"/>
   </g>
  </g>
  <g id="legend_1">
   <g id="patch_67">
    <path d="M 10.4 493.875625 
L 1121.555 493.875625 
Q 1124.755 493.875625 1124.755 490.675625 
L 1124.755 396.4 
Q 1124.755 393.2 1121.555 393.2 
L 10.4 393.2 
Q 7.2 393.2 7.2 396.4 
L 7.2 490.675625 
Q 7.2 493.875625 10.4 493.875625 
z
" style="fill: #ffffff; opacity: 0.8; stroke: #cccccc; stroke-linejoin: miter"/>
   </g>
   <g id="text_16">
    <!-- Read-Write Type -->
    <g style="fill: #262626" transform="translate(493.185781 413.277187) scale(0.18 -0.18)">
     <defs>
      <path id="DejaVuSans-52" d="M 2841 2188 
Q 3044 2119 3236 1894 
Q 3428 1669 3622 1275 
L 4263 0 
L 3584 0 
L 2988 1197 
Q 2756 1666 2539 1819 
Q 2322 1972 1947 1972 
L 1259 1972 
L 1259 0 
L 628 0 
L 628 4666 
L 2053 4666 
Q 2853 4666 3247 4331 
Q 3641 3997 3641 3322 
Q 3641 2881 3436 2590 
Q 3231 2300 2841 2188 
z
M 1259 4147 
L 1259 2491 
L 2053 2491 
Q 2509 2491 2742 2702 
Q 2975 2913 2975 3322 
Q 2975 3731 2742 3939 
Q 2509 4147 2053 4147 
L 1259 4147 
z
" transform="scale(0.015625)"/>
      <path id="DejaVuSans-2d" d="M 313 2009 
L 1997 2009 
L 1997 1497 
L 313 1497 
L 313 2009 
z
" transform="scale(0.015625)"/>
      <path id="DejaVuSans-57" d="M 213 4666 
L 850 4666 
L 1831 722 
L 2809 4666 
L 3519 4666 
L 4500 722 
L 5478 4666 
L 6119 4666 
L 4947 0 
L 4153 0 
L 3169 4050 
L 2175 0 
L 1381 0 
L 213 4666 
z
" transform="scale(0.015625)"/>
      <path id="DejaVuSans-54" d="M -19 4666 
L 3928 4666 
L 3928 4134 
L 2272 4134 
L 2272 0 
L 1638 0 
L 1638 4134 
L -19 4134 
L -19 4666 
z
" transform="scale(0.015625)"/>
      <path id="DejaVuSans-79" d="M 2059 -325 
Q 1816 -950 1584 -1140 
Q 1353 -1331 966 -1331 
L 506 -1331 
L 506 -850 
L 844 -850 
Q 1081 -850 1212 -737 
Q 1344 -625 1503 -206 
L 1606 56 
L 191 3500 
L 800 3500 
L 1894 763 
L 2988 3500 
L 3597 3500 
L 2059 -325 
z
" transform="scale(0.015625)"/>
     </defs>
     <use xlink:href="#DejaVuSans-52"/>
     <use xlink:href="#DejaVuSans-65" transform="translate(64.982422 0)"/>
     <use xlink:href="#DejaVuSans-61" transform="translate(126.505859 0)"/>
     <use xlink:href="#DejaVuSans-64" transform="translate(187.785156 0)"/>
     <use xlink:href="#DejaVuSans-2d" transform="translate(251.261719 0)"/>
     <use xlink:href="#DejaVuSans-57" transform="translate(283.345703 0)"/>
     <use xlink:href="#DejaVuSans-72" transform="translate(377.722656 0)"/>
     <use xlink:href="#DejaVuSans-69" transform="translate(418.835938 0)"/>
     <use xlink:href="#DejaVuSans-74" transform="translate(446.619141 0)"/>
     <use xlink:href="#DejaVuSans-65" transform="translate(485.828125 0)"/>
     <use xlink:href="#DejaVuSans-20" transform="translate(547.351562 0)"/>
     <use xlink:href="#DejaVuSans-54" transform="translate(579.138672 0)"/>
     <use xlink:href="#DejaVuSans-79" transform="translate(624.597656 0)"/>
     <use xlink:href="#DejaVuSans-70" transform="translate(683.777344 0)"/>
     <use xlink:href="#DejaVuSans-65" transform="translate(747.253906 0)"/>
    </g>
   </g>
   <g id="patch_68">
    <path d="M 13.6 437.178125 
L 45.6 437.178125 
L 45.6 425.978125 
L 13.6 425.978125 
z
" style="fill: #5a1591; stroke: #ffffff; stroke-linejoin: miter"/>
   </g>
   <g id="text_17">
    <!-- Sequential Read-only -->
    <g style="fill: #262626" transform="translate(58.4 437.178125) scale(0.16 -0.16)">
     <defs>
      <path id="DejaVuSans-71" d="M 947 1747 
Q 947 1113 1208 752 
Q 1469 391 1925 391 
Q 2381 391 2643 752 
Q 2906 1113 2906 1747 
Q 2906 2381 2643 2742 
Q 2381 3103 1925 3103 
Q 1469 3103 1208 2742 
Q 947 2381 947 1747 
z
M 2906 525 
Q 2725 213 2448 61 
Q 2172 -91 1784 -91 
Q 1150 -91 751 415 
Q 353 922 353 1747 
Q 353 2572 751 3078 
Q 1150 3584 1784 3584 
Q 2172 3584 2448 3432 
Q 2725 3281 2906 2969 
L 2906 3500 
L 3481 3500 
L 3481 -1331 
L 2906 -1331 
L 2906 525 
z
" transform="scale(0.015625)"/>
     </defs>
     <use xlink:href="#DejaVuSans-53"/>
     <use xlink:href="#DejaVuSans-65" transform="translate(63.476562 0)"/>
     <use xlink:href="#DejaVuSans-71" transform="translate(125 0)"/>
     <use xlink:href="#DejaVuSans-75" transform="translate(188.476562 0)"/>
     <use xlink:href="#DejaVuSans-65" transform="translate(251.855469 0)"/>
     <use xlink:href="#DejaVuSans-6e" transform="translate(313.378906 0)"/>
     <use xlink:href="#DejaVuSans-74" transform="translate(376.757812 0)"/>
     <use xlink:href="#DejaVuSans-69" transform="translate(415.966797 0)"/>
     <use xlink:href="#DejaVuSans-61" transform="translate(443.75 0)"/>
     <use xlink:href="#DejaVuSans-6c" transform="translate(505.029297 0)"/>
     <use xlink:href="#DejaVuSans-20" transform="translate(532.8125 0)"/>
     <use xlink:href="#DejaVuSans-52" transform="translate(564.599609 0)"/>
     <use xlink:href="#DejaVuSans-65" transform="translate(629.582031 0)"/>
     <use xlink:href="#DejaVuSans-61" transform="translate(691.105469 0)"/>
     <use xlink:href="#DejaVuSans-64" transform="translate(752.384766 0)"/>
     <use xlink:href="#DejaVuSans-2d" transform="translate(815.861328 0)"/>
     <use xlink:href="#DejaVuSans-6f" transform="translate(853.820312 0)"/>
     <use xlink:href="#DejaVuSans-6e" transform="translate(915.001953 0)"/>
     <use xlink:href="#DejaVuSans-6c" transform="translate(978.380859 0)"/>
     <use xlink:href="#DejaVuSans-79" transform="translate(1006.164062 0)"/>
    </g>
   </g>
   <g id="patch_69">
    <path d="M 13.6 460.663125 
L 45.6 460.663125 
L 45.6 449.463125 
L 13.6 449.463125 
z
" style="fill: #8b288d; stroke: #ffffff; stroke-linejoin: miter"/>
   </g>
   <g id="text_18">
    <!-- Sequential Read-heavy 4:1 -->
    <g style="fill: #262626" transform="translate(58.4 460.663125) scale(0.16 -0.16)">
     <defs>
      <path id="DejaVuSans-3a" d="M 750 794 
L 1409 794 
L 1409 0 
L 750 0 
L 750 794 
z
M 750 3309 
L 1409 3309 
L 1409 2516 
L 750 2516 
L 750 3309 
z
" transform="scale(0.015625)"/>
     </defs>
     <use xlink:href="#DejaVuSans-53"/>
     <use xlink:href="#DejaVuSans-65" transform="translate(63.476562 0)"/>
     <use xlink:href="#DejaVuSans-71" transform="translate(125 0)"/>
     <use xlink:href="#DejaVuSans-75" transform="translate(188.476562 0)"/>
     <use xlink:href="#DejaVuSans-65" transform="translate(251.855469 0)"/>
     <use xlink:href="#DejaVuSans-6e" transform="translate(313.378906 0)"/>
     <use xlink:href="#DejaVuSans-74" transform="translate(376.757812 0)"/>
     <use xlink:href="#DejaVuSans-69" transform="translate(415.966797 0)"/>
     <use xlink:href="#DejaVuSans-61" transform="translate(443.75 0)"/>
     <use xlink:href="#DejaVuSans-6c" transform="translate(505.029297 0)"/>
     <use xlink:href="#DejaVuSans-20" transform="translate(532.8125 0)"/>
     <use xlink:href="#DejaVuSans-52" transform="translate(564.599609 0)"/>
     <use xlink:href="#DejaVuSans-65" transform="translate(629.582031 0)"/>
     <use xlink:href="#DejaVuSans-61" transform="translate(691.105469 0)"/>
     <use xlink:href="#DejaVuSans-64" transform="translate(752.384766 0)"/>
     <use xlink:href="#DejaVuSans-2d" transform="translate(815.861328 0)"/>
     <use xlink:href="#DejaVuSans-68" transform="translate(851.945312 0)"/>
     <use xlink:href="#DejaVuSans-65" transform="translate(915.324219 0)"/>
     <use xlink:href="#DejaVuSans-61" transform="translate(976.847656 0)"/>
     <use xlink:href="#DejaVuSans-76" transform="translate(1038.126953 0)"/>
     <use xlink:href="#DejaVuSans-79" transform="translate(1097.306641 0)"/>
     <use xlink:href="#DejaVuSans-20" transform="translate(1156.486328 0)"/>
     <use xlink:href="#DejaVuSans-34" transform="translate(1188.273438 0)"/>
     <use xlink:href="#DejaVuSans-3a" transform="translate(1251.896484 0)"/>
     <use xlink:href="#DejaVuSans-31" transform="translate(1285.587891 0)"/>
    </g>
   </g>
   <g id="patch_70">
    <path d="M 13.6 484.148125 
L 45.6 484.148125 
L 45.6 472.948125 
L 13.6 472.948125 
z
" style="fill: #bb587c; stroke: #ffffff; stroke-linejoin: miter"/>
   </g>
   <g id="text_19">
    <!-- Sequential Balanced 1:1 -->
    <g style="fill: #262626" transform="translate(58.4 484.148125) scale(0.16 -0.16)">
     <use xlink:href="#DejaVuSans-53"/>
     <use xlink:href="#DejaVuSans-65" transform="translate(63.476562 0)"/>
     <use xlink:href="#DejaVuSans-71" transform="translate(125 0)"/>
     <use xlink:href="#DejaVuSans-75" transform="translate(188.476562 0)"/>
     <use xlink:href="#DejaVuSans-65" transform="translate(251.855469 0)"/>
     <use xlink:href="#DejaVuSans-6e" transform="translate(313.378906 0)"/>
     <use xlink:href="#DejaVuSans-74" transform="translate(376.757812 0)"/>
     <use xlink:href="#DejaVuSans-69" transform="translate(415.966797 0)"/>
     <use xlink:href="#DejaVuSans-61" transform="translate(443.75 0)"/>
     <use xlink:href="#DejaVuSans-6c" transform="translate(505.029297 0)"/>
     <use xlink:href="#DejaVuSans-20" transform="translate(532.8125 0)"/>
     <use xlink:href="#DejaVuSans-42" transform="translate(564.599609 0)"/>
     <use xlink:href="#DejaVuSans-61" transform="translate(633.203125 0)"/>
     <use xlink:href="#DejaVuSans-6c" transform="translate(694.482422 0)"/>
     <use xlink:href="#DejaVuSans-61" transform="translate(722.265625 0)"/>
     <use xlink:href="#DejaVuSans-6e" transform="translate(783.544922 0)"/>
     <use xlink:href="#DejaVuSans-63" transform="translate(846.923828 0)"/>
     <use xlink:href="#DejaVuSans-65" transform="translate(901.904297 0)"/>
     <use xlink:href="#DejaVuSans-64" transform="translate(963.427734 0)"/>
     <use xlink:href="#DejaVuSans-20" transform="translate(1026.904297 0)"/>
     <use xlink:href="#DejaVuSans-31" transform="translate(1058.691406 0)"/>
     <use xlink:href="#DejaVuSans-3a" transform="translate(1122.314453 0)"/>
     <use xlink:href="#DejaVuSans-31" transform="translate(1156.005859 0)"/>
    </g>
   </g>
   <g id="patch_71">
    <path d="M 306.28 437.178125 
L 338.28 437.178125 
L 338.28 425.978125 
L 306.28 425.978125 
z
" style="fill: #da8266; stroke: #ffffff; stroke-linejoin: miter"/>
   </g>
   <g id="text_20">
    <!-- Sequential Write-heavy 1:4 -->
    <g style="fill: #262626" transform="translate(351.08 437.178125) scale(0.16 -0.16)">
     <use xlink:href="#DejaVuSans-53"/>
     <use xlink:href="#DejaVuSans-65" transform="translate(63.476562 0)"/>
     <use xlink:href="#DejaVuSans-71" transform="translate(125 0)"/>
     <use xlink:href="#DejaVuSans-75" transform="translate(188.476562 0)"/>
     <use xlink:href="#DejaVuSans-65" transform="translate(251.855469 0)"/>
     <use xlink:href="#DejaVuSans-6e" transform="translate(313.378906 0)"/>
     <use xlink:href="#DejaVuSans-74" transform="translate(376.757812 0)"/>
     <use xlink:href="#DejaVuSans-69" transform="translate(415.966797 0)"/>
     <use xlink:href="#DejaVuSans-61" transform="translate(443.75 0)"/>
     <use xlink:href="#DejaVuSans-6c" transform="translate(505.029297 0)"/>
     <use xlink:href="#DejaVuSans-20" transform="translate(532.8125 0)"/>
     <use xlink:href="#DejaVuSans-57" transform="translate(564.599609 0)"/>
     <use xlink:href="#DejaVuSans-72" transform="translate(658.976562 0)"/>
     <use xlink:href="#DejaVuSans-69" transform="translate(700.089844 0)"/>
     <use xlink:href="#DejaVuSans-74" transform="translate(727.873047 0)"/>
     <use xlink:href="#DejaVuSans-65" transform="translate(767.082031 0)"/>
     <use xlink:href="#DejaVuSans-2d" transform="translate(828.605469 0)"/>
     <use xlink:href="#DejaVuSans-68" transform="translate(864.689453 0)"/>
     <use xlink:href="#DejaVuSans-65" transform="translate(928.068359 0)"/>
     <use xlink:href="#DejaVuSans-61" transform="translate(989.591797 0)"/>
     <use xlink:href="#DejaVuSans-76" transform="translate(1050.871094 0)"/>
     <use xlink:href="#DejaVuSans-79" transform="translate(1110.050781 0)"/>
     <use xlink:href="#DejaVuSans-20" transform="translate(1169.230469 0)"/>
     <use xlink:href="#DejaVuSans-31" transform="translate(1201.017578 0)"/>
     <use xlink:href="#DejaVuSans-3a" transform="translate(1264.640625 0)"/>
     <use xlink:href="#DejaVuSans-34" transform="translate(1298.332031 0)"/>
    </g>
   </g>
   <g id="patch_72">
    <path d="M 306.28 460.663125 
L 338.28 460.663125 
L 338.28 449.463125 
L 306.28 449.463125 
z
" style="fill: #e4ac49; stroke: #ffffff; stroke-linejoin: miter"/>
   </g>
   <g id="text_21">
    <!-- Sequential Write-only -->
    <g style="fill: #262626" transform="translate(351.08 460.663125) scale(0.16 -0.16)">
     <use xlink:href="#DejaVuSans-53"/>
     <use xlink:href="#DejaVuSans-65" transform="translate(63.476562 0)"/>
     <use xlink:href="#DejaVuSans-71" transform="translate(125 0)"/>
     <use xlink:href="#DejaVuSans-75" transform="translate(188.476562 0)"/>
     <use xlink:href="#DejaVuSans-65" transform="translate(251.855469 0)"/>
     <use xlink:href="#DejaVuSans-6e" transform="translate(313.378906 0)"/>
     <use xlink:href="#DejaVuSans-74" transform="translate(376.757812 0)"/>
     <use xlink:href="#DejaVuSans-69" transform="translate(415.966797 0)"/>
     <use xlink:href="#DejaVuSans-61" transform="translate(443.75 0)"/>
     <use xlink:href="#DejaVuSans-6c" transform="translate(505.029297 0)"/>
     <use xlink:href="#DejaVuSans-20" transform="translate(532.8125 0)"/>
     <use xlink:href="#DejaVuSans-57" transform="translate(564.599609 0)"/>
     <use xlink:href="#DejaVuSans-72" transform="translate(658.976562 0)"/>
     <use xlink:href="#DejaVuSans-69" transform="translate(700.089844 0)"/>
     <use xlink:href="#DejaVuSans-74" transform="translate(727.873047 0)"/>
     <use xlink:href="#DejaVuSans-65" transform="translate(767.082031 0)"/>
     <use xlink:href="#DejaVuSans-2d" transform="translate(828.605469 0)"/>
     <use xlink:href="#DejaVuSans-6f" transform="translate(866.564453 0)"/>
     <use xlink:href="#DejaVuSans-6e" transform="translate(927.746094 0)"/>
     <use xlink:href="#DejaVuSans-6c" transform="translate(991.125 0)"/>
     <use xlink:href="#DejaVuSans-79" transform="translate(1018.908203 0)"/>
    </g>
   </g>
   <g id="patch_73">
    <path d="M 306.28 484.148125 
L 338.28 484.148125 
L 338.28 472.948125 
L 306.28 472.948125 
L 306.28 484.148125 
z
" style="fill: none"/>
   </g>
   <g id="patch_74">
    <path d="M 600.995 437.178125 
L 632.995 437.178125 
L 632.995 425.978125 
L 600.995 425.978125 
z
" style="fill: #332741; stroke: #ffffff; stroke-linejoin: miter"/>
   </g>
   <g id="text_22">
    <!-- Random Read-only -->
    <g style="fill: #262626" transform="translate(645.795 437.178125) scale(0.16 -0.16)">
     <use xlink:href="#DejaVuSans-52"/>
     <use xlink:href="#DejaVuSans-61" transform="translate(67.232422 0)"/>
     <use xlink:href="#DejaVuSans-6e" transform="translate(128.511719 0)"/>
     <use xlink:href="#DejaVuSans-64" transform="translate(191.890625 0)"/>
     <use xlink:href="#DejaVuSans-6f" transform="translate(255.367188 0)"/>
     <use xlink:href="#DejaVuSans-6d" transform="translate(316.548828 0)"/>
     <use xlink:href="#DejaVuSans-20" transform="translate(413.960938 0)"/>
     <use xlink:href="#DejaVuSans-52" transform="translate(445.748047 0)"/>
     <use xlink:href="#DejaVuSans-65" transform="translate(510.730469 0)"/>
     <use xlink:href="#DejaVuSans-61" transform="translate(572.253906 0)"/>
     <use xlink:href="#DejaVuSans-64" transform="translate(633.533203 0)"/>
     <use xlink:href="#DejaVuSans-2d" transform="translate(697.009766 0)"/>
     <use xlink:href="#DejaVuSans-6f" transform="translate(734.96875 0)"/>
     <use xlink:href="#DejaVuSans-6e" transform="translate(796.150391 0)"/>
     <use xlink:href="#DejaVuSans-6c" transform="translate(859.529297 0)"/>
     <use xlink:href="#DejaVuSans-79" transform="translate(887.3125 0)"/>
    </g>
   </g>
   <g id="patch_75">
    <path d="M 600.995 460.663125 
L 632.995 460.663125 
L 632.995 449.463125 
L 600.995 449.463125 
z
" style="fill: #495084; stroke: #ffffff; stroke-linejoin: miter"/>
   </g>
   <g id="text_23">
    <!-- Random Read-heavy 4:1 -->
    <g style="fill: #262626" transform="translate(645.795 460.663125) scale(0.16 -0.16)">
     <use xlink:href="#DejaVuSans-52"/>
     <use xlink:href="#DejaVuSans-61" transform="translate(67.232422 0)"/>
     <use xlink:href="#DejaVuSans-6e" transform="translate(128.511719 0)"/>
     <use xlink:href="#DejaVuSans-64" transform="translate(191.890625 0)"/>
     <use xlink:href="#DejaVuSans-6f" transform="translate(255.367188 0)"/>
     <use xlink:href="#DejaVuSans-6d" transform="translate(316.548828 0)"/>
     <use xlink:href="#DejaVuSans-20" transform="translate(413.960938 0)"/>
     <use xlink:href="#DejaVuSans-52" transform="translate(445.748047 0)"/>
     <use xlink:href="#DejaVuSans-65" transform="translate(510.730469 0)"/>
     <use xlink:href="#DejaVuSans-61" transform="translate(572.253906 0)"/>
     <use xlink:href="#DejaVuSans-64" transform="translate(633.533203 0)"/>
     <use xlink:href="#DejaVuSans-2d" transform="translate(697.009766 0)"/>
     <use xlink:href="#DejaVuSans-68" transform="translate(733.09375 0)"/>
     <use xlink:href="#DejaVuSans-65" transform="translate(796.472656 0)"/>
     <use xlink:href="#DejaVuSans-61" transform="translate(857.996094 0)"/>
     <use xlink:href="#DejaVuSans-76" transform="translate(919.275391 0)"/>
     <use xlink:href="#DejaVuSans-79" transform="translate(978.455078 0)"/>
     <use xlink:href="#DejaVuSans-20" transform="translate(1037.634766 0)"/>
     <use xlink:href="#DejaVuSans-34" transform="translate(1069.421875 0)"/>
     <use xlink:href="#DejaVuSans-3a" transform="translate(1133.044922 0)"/>
     <use xlink:href="#DejaVuSans-31" transform="translate(1166.736328 0)"/>
    </g>
   </g>
   <g id="patch_76">
    <path d="M 600.995 484.148125 
L 632.995 484.148125 
L 632.995 472.948125 
L 600.995 472.948125 
z
" style="fill: #437795; stroke: #ffffff; stroke-linejoin: miter"/>
   </g>
   <g id="text_24">
    <!-- Random Balanced 1:1 -->
    <g style="fill: #262626" transform="translate(645.795 484.148125) scale(0.16 -0.16)">
     <use xlink:href="#DejaVuSans-52"/>
     <use xlink:href="#DejaVuSans-61" transform="translate(67.232422 0)"/>
     <use xlink:href="#DejaVuSans-6e" transform="translate(128.511719 0)"/>
     <use xlink:href="#DejaVuSans-64" transform="translate(191.890625 0)"/>
     <use xlink:href="#DejaVuSans-6f" transform="translate(255.367188 0)"/>
     <use xlink:href="#DejaVuSans-6d" transform="translate(316.548828 0)"/>
     <use xlink:href="#DejaVuSans-20" transform="translate(413.960938 0)"/>
     <use xlink:href="#DejaVuSans-42" transform="translate(445.748047 0)"/>
     <use xlink:href="#DejaVuSans-61" transform="translate(514.351562 0)"/>
     <use xlink:href="#DejaVuSans-6c" transform="translate(575.630859 0)"/>
     <use xlink:href="#DejaVuSans-61" transform="translate(603.414062 0)"/>
     <use xlink:href="#DejaVuSans-6e" transform="translate(664.693359 0)"/>
     <use xlink:href="#DejaVuSans-63" transform="translate(728.072266 0)"/>
     <use xlink:href="#DejaVuSans-65" transform="translate(783.052734 0)"/>
     <use xlink:href="#DejaVuSans-64" transform="translate(844.576172 0)"/>
     <use xlink:href="#DejaVuSans-20" transform="translate(908.052734 0)"/>
     <use xlink:href="#DejaVuSans-31" transform="translate(939.839844 0)"/>
     <use xlink:href="#DejaVuSans-3a" transform="translate(1003.462891 0)"/>
     <use xlink:href="#DejaVuSans-31" transform="translate(1037.154297 0)"/>
    </g>
   </g>
   <g id="patch_77">
    <path d="M 874.6575 437.178125 
L 906.6575 437.178125 
L 906.6575 425.978125 
L 874.6575 425.978125 
z
" style="fill: #479c9e; stroke: #ffffff; stroke-linejoin: miter"/>
   </g>
   <g id="text_25">
    <!-- Random Write-heavy 1:4 -->
    <g style="fill: #262626" transform="translate(919.4575 437.178125) scale(0.16 -0.16)">
     <use xlink:href="#DejaVuSans-52"/>
     <use xlink:href="#DejaVuSans-61" transform="translate(67.232422 0)"/>
     <use xlink:href="#DejaVuSans-6e" transform="translate(128.511719 0)"/>
     <use xlink:href="#DejaVuSans-64" transform="translate(191.890625 0)"/>
     <use xlink:href="#DejaVuSans-6f" transform="translate(255.367188 0)"/>
     <use xlink:href="#DejaVuSans-6d" transform="translate(316.548828 0)"/>
     <use xlink:href="#DejaVuSans-20" transform="translate(413.960938 0)"/>
     <use xlink:href="#DejaVuSans-57" transform="translate(445.748047 0)"/>
     <use xlink:href="#DejaVuSans-72" transform="translate(540.125 0)"/>
     <use xlink:href="#DejaVuSans-69" transform="translate(581.238281 0)"/>
     <use xlink:href="#DejaVuSans-74" transform="translate(609.021484 0)"/>
     <use xlink:href="#DejaVuSans-65" transform="translate(648.230469 0)"/>
     <use xlink:href="#DejaVuSans-2d" transform="translate(709.753906 0)"/>
     <use xlink:href="#DejaVuSans-68" transform="translate(745.837891 0)"/>
     <use xlink:href="#DejaVuSans-65" transform="translate(809.216797 0)"/>
     <use xlink:href="#DejaVuSans-61" transform="translate(870.740234 0)"/>
     <use xlink:href="#DejaVuSans-76" transform="translate(932.019531 0)"/>
     <use xlink:href="#DejaVuSans-79" transform="translate(991.199219 0)"/>
     <use xlink:href="#DejaVuSans-20" transform="translate(1050.378906 0)"/>
     <use xlink:href="#DejaVuSans-31" transform="translate(1082.166016 0)"/>
     <use xlink:href="#DejaVuSans-3a" transform="translate(1145.789062 0)"/>
     <use xlink:href="#DejaVuSans-34" transform="translate(1179.480469 0)"/>
    </g>
   </g>
   <g id="patch_78">
    <path d="M 874.6575 460.663125 
L 906.6575 460.663125 
L 906.6575 449.463125 
L 874.6575 449.463125 
z
" style="fill: #85caad; stroke: #ffffff; stroke-linejoin: miter"/>
   </g>
   <g id="text_26">
    <!-- Random Write-only -->
    <g style="fill: #262626" transform="translate(919.4575 460.663125) scale(0.16 -0.16)">
     <use xlink:href="#DejaVuSans-52"/>
     <use xlink:href="#DejaVuSans-61" transform="translate(67.232422 0)"/>
     <use xlink:href="#DejaVuSans-6e" transform="translate(128.511719 0)"/>
     <use xlink:href="#DejaVuSans-64" transform="translate(191.890625 0)"/>
     <use xlink:href="#DejaVuSans-6f" transform="translate(255.367188 0)"/>
     <use xlink:href="#DejaVuSans-6d" transform="translate(316.548828 0)"/>
     <use xlink:href="#DejaVuSans-20" transform="translate(413.960938 0)"/>
     <use xlink:href="#DejaVuSans-57" transform="translate(445.748047 0)"/>
     <use xlink:href="#DejaVuSans-72" transform="translate(540.125 0)"/>
     <use xlink:href="#DejaVuSans-69" transform="translate(581.238281 0)"/>
     <use xlink:href="#DejaVuSans-74" transform="translate(609.021484 0)"/>
     <use xlink:href="#DejaVuSans-65" transform="translate(648.230469 0)"/>
     <use xlink:href="#DejaVuSans-2d" transform="translate(709.753906 0)"/>
     <use xlink:href="#DejaVuSans-6f" transform="translate(747.712891 0)"/>
     <use xlink:href="#DejaVuSans-6e" transform="translate(808.894531 0)"/>
     <use xlink:href="#DejaVuSans-6c" transform="translate(872.273438 0)"/>
     <use xlink:href="#DejaVuSans-79" transform="translate(900.056641 0)"/>
    </g>
   </g>
  </g>
 </g>
 <defs>
  <clipPath id="p496d7f206e">
   <rect x="85.7575" y="70.56" width="1009.42" height="259"/>
  </clipPath>
 </defs>
</svg>
