<?xml version="1.0" encoding="utf-8" standalone="no"?>
<!DOCTYPE svg PUBLIC "-//W3C//DTD SVG 1.1//EN"
  "http://www.w3.org/Graphics/SVG/1.1/DTD/svg11.dtd">
<svg xmlns:xlink="http://www.w3.org/1999/xlink" width="1131.955pt" height="627.075625pt" viewBox="0 0 1131.955 627.075625" xmlns="http://www.w3.org/2000/svg" version="1.1">
 <metadata>
  <rdf:RDF xmlns:dc="http://purl.org/dc/elements/1.1/" xmlns:cc="http://creativecommons.org/ns#" xmlns:rdf="http://www.w3.org/1999/02/22-rdf-syntax-ns#">
   <cc:Work>
    <dc:type rdf:resource="http://purl.org/dc/dcmitype/StillImage"/>
    <dc:date>2026-03-22T11:03:57.317868</dc:date>
    <dc:format>image/svg+xml</dc:format>
    <dc:creator>
     <cc:Agent>
      <dc:title>Matplotlib v3.10.8, https://matplotlib.org/</dc:title>
     </cc:Agent>
    </dc:creator>
   </cc:Work>
  </rdf:RDF>
 </metadata>
 <defs>
  <style type="text/css">*{stroke-linejoin: round; stroke-linecap: butt}</style>
 </defs>
 <g id="figure_1">
  <g id="patch_1">
   <path d="M 0 627.075625 
L 1131.955 627.075625 
L 1131.955 0 
L 0 0 
z
" style="fill: #ffffff"/>
  </g>
  <g id="axes_1">
   <g id="patch_2">
    <path d="M 85.7575 455.56 
L 572.6575 455.56 
L 572.6575 74.4 
L 85.7575 74.4 
z
" style="fill: #ffffff"/>
   </g>
   <g id="matplotlib.axis_1">
    <g id="xtick_1">
     <g id="text_1">
      <!-- 4K -->
      <g style="fill: #262626" transform="translate(125.403281 473.197813) scale(0.14 -0.14)">
       <defs>
        <path id="DejaVuSans-34" d="M 2419 4116 
L 825 1625 
L 2419 1625 
L 2419 4116 
z
M 2253 4666 
L 3047 4666 
L 3047 1625 
L 3713 1625 
L 3713 1100 
L 3047 1100 
L 3047 0 
L 2419 0 
L 2419 1100 
L 313 1100 
L 313 1709 
L 2253 4666 
z
" transform="scale(0.015625)"/>
        <path id="DejaVuSans-4b" d="M 628 4666 
L 1259 4666 
L 1259 2694 
L 3353 4666 
L 4166 4666 
L 1850 2491 
L 4331 0 
L 3500 0 
L 1259 2247 
L 1259 0 
L 628 0 
L 628 4666 
z
" transform="scale(0.015625)"/>
       </defs>
       <use xlink:href="#DejaVuSans-34"/>
       <use xlink:href="#DejaVuSans-4b" transform="translate(63.623047 0)"/>
      </g>
     </g>
    </g>
    <g id="xtick_2">
     <g id="text_2">
      <!-- 16K -->
      <g style="fill: #262626" transform="translate(218.329531 473.197813) scale(0.14 -0.14)">
       <defs>
        <path id="DejaVuSans-31" d="M 794 531 
L 1825 531 
L 1825 4091 
L 703 3866 
L 703 4441 
L 1819 4666 
L 2450 4666 
L 2450 531 
L 3481 531 
L 3481 0 
L 794 0 
L 794 531 
z
" transform="scale(0.015625)"/>
        <path id="DejaVuSans-36" d="M 2113 2584 
Q 1688 2584 1439 2293 
Q 1191 2003 1191 1497 
Q 1191 994 1439 701 
Q 1688 409 2113 409 
Q 2538 409 2786 701 
Q 3034 994 3034 1497 
Q 3034 2003 2786 2293 
Q 2538 2584 2113 2584 
z
M 3366 4563 
L 3366 3988 
Q 3128 4100 2886 4159 
Q 2644 4219 2406 4219 
Q 1781 4219 1451 3797 
Q 1122 3375 1075 2522 
Q 1259 2794 1537 2939 
Q 1816 3084 2150 3084 
Q 2853 3084 3261 2657 
Q 3669 2231 3669 1497 
Q 3669 778 3244 343 
Q 2819 -91 2113 -91 
Q 1303 -91 875 529 
Q 447 1150 447 2328 
Q 447 3434 972 4092 
Q 1497 4750 2381 4750 
Q 2619 4750 2861 4703 
Q 3103 4656 3366 4563 
z
" transform="scale(0.015625)"/>
       </defs>
       <use xlink:href="#DejaVuSans-31"/>
       <use xlink:href="#DejaVuSans-36" transform="translate(63.623047 0)"/>
       <use xlink:href="#DejaVuSans-4b" transform="translate(127.246094 0)"/>
      </g>
     </g>
    </g>
    <g id="xtick_3">
     <g id="text_3">
      <!-- 1M -->
      <g style="fill: #262626" transform="translate(318.714063 473.197813) scale(0.14 -0.14)">
       <defs>
        <path id="DejaVuSans-4d" d="M 628 4666 
L 1569 4666 
L 2759 1491 
L 3956 4666 
L 4897 4666 
L 4897 0 
L 4281 0 
L 4281 4097 
L 3078 897 
L 2444 897 
L 1241 4097 
L 1241 0 
L 628 0 
L 628 4666 
z
" transform="scale(0.015625)"/>
       </defs>
       <use xlink:href="#DejaVuSans-31"/>
       <use xlink:href="#DejaVuSans-4d" transform="translate(63.623047 0)"/>
      </g>
     </g>
    </g>
    <g id="xtick_4">
     <g id="text_4">
      <!-- 2M -->
      <g style="fill: #262626" transform="translate(416.094063 473.197813) scale(0.14 -0.14)">
       <defs>
        <path id="DejaVuSans-32" d="M 1228 531 
L 3431 531 
L 3431 0 
L 469 0 
L 469 531 
Q 828 903 1448 1529 
Q 2069 2156 2228 2338 
Q 2531 2678 2651 2914 
Q 2772 3150 2772 3378 
Q 2772 3750 2511 3984 
Q 2250 4219 1831 4219 
Q 1534 4219 1204 4116 
Q 875 4013 500 3803 
L 500 4441 
Q 881 4594 1212 4672 
Q 1544 4750 1819 4750 
Q 2544 4750 2975 4387 
Q 3406 4025 3406 3419 
Q 3406 3131 3298 2873 
Q 3191 2616 2906 2266 
Q 2828 2175 2409 1742 
Q 1991 1309 1228 531 
z
" transform="scale(0.015625)"/>
       </defs>
       <use xlink:href="#DejaVuSans-32"/>
       <use xlink:href="#DejaVuSans-4d" transform="translate(63.623047 0)"/>
      </g>
     </g>
    </g>
    <g id="xtick_5">
     <g id="text_5">
      <!-- 4M -->
      <g style="fill: #262626" transform="translate(513.474063 473.197813) scale(0.14 -0.14)">
       <use xlink:href="#DejaVuSans-34"/>
       <use xlink:href="#DejaVuSans-4d" transform="translate(63.623047 0)"/>
      </g>
     </g>
    </g>
    <g id="text_6">
     <!-- Block Size -->
     <g style="fill: #262626" transform="translate(278.454375 495.30625) scale(0.2 -0.2)">
      <defs>
       <path id="DejaVuSans-42" d="M 1259 2228 
L 1259 519 
L 2272 519 
Q 2781 519 3026 730 
Q 3272 941 3272 1375 
Q 3272 1813 3026 2020 
Q 2781 2228 2272 2228 
L 1259 2228 
z
M 1259 4147 
L 1259 2741 
L 2194 2741 
Q 2656 2741 2882 2914 
Q 3109 3088 3109 3444 
Q 3109 3797 2882 3972 
Q 2656 4147 2194 4147 
L 1259 4147 
z
M 628 4666 
L 2241 4666 
Q 2963 4666 3353 4366 
Q 3744 4066 3744 3513 
Q 3744 3084 3544 2831 
Q 3344 2578 2956 2516 
Q 3422 2416 3680 2098 
Q 3938 1781 3938 1306 
Q 3938 681 3513 340 
Q 3088 0 2303 0 
L 628 0 
L 628 4666 
z
" transform="scale(0.015625)"/>
       <path id="DejaVuSans-6c" d="M 603 4863 
L 1178 4863 
L 1178 0 
L 603 0 
L 603 4863 
z
" transform="scale(0.015625)"/>
       <path id="DejaVuSans-6f" d="M 1959 3097 
Q 1497 3097 1228 2736 
Q 959 2375 959 1747 
Q 959 1119 1226 758 
Q 1494 397 1959 397 
Q 2419 397 2687 759 
Q 2956 1122 2956 1747 
Q 2956 2369 2687 2733 
Q 2419 3097 1959 3097 
z
M 1959 3584 
Q 2709 3584 3137 3096 
Q 3566 2609 3566 1747 
Q 3566 888 3137 398 
Q 2709 -91 1959 -91 
Q 1206 -91 779 398 
Q 353 888 353 1747 
Q 353 2609 779 3096 
Q 1206 3584 1959 3584 
z
" transform="scale(0.015625)"/>
       <path id="DejaVuSans-63" d="M 3122 3366 
L 3122 2828 
Q 2878 2963 2633 3030 
Q 2388 3097 2138 3097 
Q 1578 3097 1268 2742 
Q 959 2388 959 1747 
Q 959 1106 1268 751 
Q 1578 397 2138 397 
Q 2388 397 2633 464 
Q 2878 531 3122 666 
L 3122 134 
Q 2881 22 2623 -34 
Q 2366 -91 2075 -91 
Q 1284 -91 818 406 
Q 353 903 353 1747 
Q 353 2603 823 3093 
Q 1294 3584 2113 3584 
Q 2378 3584 2631 3529 
Q 2884 3475 3122 3366 
z
" transform="scale(0.015625)"/>
       <path id="DejaVuSans-6b" d="M 581 4863 
L 1159 4863 
L 1159 1991 
L 2875 3500 
L 3609 3500 
L 1753 1863 
L 3688 0 
L 2938 0 
L 1159 1709 
L 1159 0 
L 581 0 
L 581 4863 
z
" transform="scale(0.015625)"/>
       <path id="DejaVuSans-20" transform="scale(0.015625)"/>
       <path id="DejaVuSans-53" d="M 3425 4513 
L 3425 3897 
Q 3066 4069 2747 4153 
Q 2428 4238 2131 4238 
Q 1616 4238 1336 4038 
Q 1056 3838 1056 3469 
Q 1056 3159 1242 3001 
Q 1428 2844 1947 2747 
L 2328 2669 
Q 3034 2534 3370 2195 
Q 3706 1856 3706 1288 
Q 3706 609 3251 259 
Q 2797 -91 1919 -91 
Q 1588 -91 1214 -16 
Q 841 59 441 206 
L 441 856 
Q 825 641 1194 531 
Q 1563 422 1919 422 
Q 2459 422 2753 634 
Q 3047 847 3047 1241 
Q 3047 1584 2836 1778 
Q 2625 1972 2144 2069 
L 1759 2144 
Q 1053 2284 737 2584 
Q 422 2884 422 3419 
Q 422 4038 858 4394 
Q 1294 4750 2059 4750 
Q 2388 4750 2728 4690 
Q 3069 4631 3425 4513 
z
" transform="scale(0.015625)"/>
       <path id="DejaVuSans-69" d="M 603 3500 
L 1178 3500 
L 1178 0 
L 603 0 
L 603 3500 
z
M 603 4863 
L 1178 4863 
L 1178 4134 
L 603 4134 
L 603 4863 
z
" transform="scale(0.015625)"/>
       <path id="DejaVuSans-7a" d="M 353 3500 
L 3084 3500 
L 3084 2975 
L 922 459 
L 3084 459 
L 3084 0 
L 275 0 
L 275 525 
L 2438 3041 
L 353 3041 
L 353 3500 
z
" transform="scale(0.015625)"/>
       <path id="DejaVuSans-65" d="M 3597 1894 
L 3597 1613 
L 953 1613 
Q 991 1019 1311 708 
Q 1631 397 2203 397 
Q 2534 397 2845 478 
Q 3156 559 3463 722 
L 3463 178 
Q 3153 47 2828 -22 
Q 2503 -91 2169 -91 
Q 1331 -91 842 396 
Q 353 884 353 1716 
Q 353 2575 817 3079 
Q 1281 3584 2069 3584 
Q 2775 3584 3186 3129 
Q 3597 2675 3597 1894 
z
M 3022 2063 
Q 3016 2534 2758 2815 
Q 2500 3097 2075 3097 
Q 1594 3097 1305 2825 
Q 1016 2553 972 2059 
L 3022 2063 
z
" transform="scale(0.015625)"/>
      </defs>
      <use xlink:href="#DejaVuSans-42"/>
      <use xlink:href="#DejaVuSans-6c" transform="translate(68.603516 0)"/>
      <use xlink:href="#DejaVuSans-6f" transform="translate(96.386719 0)"/>
      <use xlink:href="#DejaVuSans-63" transform="translate(157.568359 0)"/>
      <use xlink:href="#DejaVuSans-6b" transform="translate(212.548828 0)"/>
      <use xlink:href="#DejaVuSans-20" transform="translate(270.458984 0)"/>
      <use xlink:href="#DejaVuSans-53" transform="translate(302.246094 0)"/>
      <use xlink:href="#DejaVuSans-69" transform="translate(365.722656 0)"/>
      <use xlink:href="#DejaVuSans-7a" transform="translate(393.505859 0)"/>
      <use xlink:href="#DejaVuSans-65" transform="translate(445.996094 0)"/>
     </g>
    </g>
   </g>
   <g id="matplotlib.axis_2">
    <g id="ytick_1">
     <g id="line2d_1">
      <path d="M 85.7575 455.56 
L 572.6575 455.56 
" clip-path="url(#paaf7f96aaa)" style="fill: none; stroke: #cccccc; stroke-width: 0.8; stroke-linecap: round"/>
     </g>
     <g id="text_7">
      <!-- 0 -->
      <g style="fill: #262626" transform="translate(69.85 460.878906) scale(0.14 -0.14)">
       <defs>
        <path id="DejaVuSans-30" d="M 2034 4250 
Q 1547 4250 1301 3770 
Q 1056 3291 1056 2328 
Q 1056 1369 1301 889 
Q 1547 409 2034 409 
Q 2525 409 2770 889 
Q 3016 1369 3016 2328 
Q 3016 3291 2770 3770 
Q 2525 4250 2034 4250 
z
M 2034 4750 
Q 2819 4750 3233 4129 
Q 3647 3509 3647 2328 
Q 3647 1150 3233 529 
Q 2819 -91 2034 -91 
Q 1250 -91 836 529 
Q 422 1150 422 2328 
Q 422 3509 836 4129 
Q 1250 4750 2034 4750 
z
" transform="scale(0.015625)"/>
       </defs>
       <use xlink:href="#DejaVuSans-30"/>
      </g>
     </g>
    </g>
    <g id="ytick_2">
     <g id="line2d_2">
      <path d="M 85.7575 390.432045 
L 572.6575 390.432045 
" clip-path="url(#paaf7f96aaa)" style="fill: none; stroke: #cccccc; stroke-width: 0.8; stroke-linecap: round"/>
     </g>
     <g id="text_8">
      <!-- 2 -->
      <g style="fill: #262626" transform="translate(69.85 395.750951) scale(0.14 -0.14)">
       <use xlink:href="#DejaVuSans-32"/>
      </g>
     </g>
    </g>
    <g id="ytick_3">
     <g id="line2d_3">
      <path d="M 85.7575 325.304089 
L 572.6575 325.304089 
" clip-path="url(#paaf7f96aaa)" style="fill: none; stroke: #cccccc; stroke-width: 0.8; stroke-linecap: round"/>
     </g>
     <g id="text_9">
      <!-- 4 -->
      <g style="fill: #262626" transform="translate(69.85 330.622995) scale(0.14 -0.14)">
       <use xlink:href="#DejaVuSans-34"/>
      </g>
     </g>
    </g>
    <g id="ytick_4">
     <g id="line2d_4">
      <path d="M 85.7575 260.176134 
L 572.6575 260.176134 
" clip-path="url(#paaf7f96aaa)" style="fill: none; stroke: #cccccc; stroke-width: 0.8; stroke-linecap: round"/>
     </g>
     <g id="text_10">
      <!-- 6 -->
      <g style="fill: #262626" transform="translate(69.85 265.49504) scale(0.14 -0.14)">
       <use xlink:href="#DejaVuSans-36"/>
      </g>
     </g>
    </g>
    <g id="ytick_5">
     <g id="line2d_5">
      <path d="M 85.7575 195.048178 
L 572.6575 195.048178 
" clip-path="url(#paaf7f96aaa)" style="fill: none; stroke: #cccccc; stroke-width: 0.8; stroke-linecap: round"/>
     </g>
     <g id="text_11">
      <!-- 8 -->
      <g style="fill: #262626" transform="translate(69.85 200.367085) scale(0.14 -0.14)">
       <defs>
        <path id="DejaVuSans-38" d="M 2034 2216 
Q 1584 2216 1326 1975 
Q 1069 1734 1069 1313 
Q 1069 891 1326 650 
Q 1584 409 2034 409 
Q 2484 409 2743 651 
Q 3003 894 3003 1313 
Q 3003 1734 2745 1975 
Q 2488 2216 2034 2216 
z
M 1403 2484 
Q 997 2584 770 2862 
Q 544 3141 544 3541 
Q 544 4100 942 4425 
Q 1341 4750 2034 4750 
Q 2731 4750 3128 4425 
Q 3525 4100 3525 3541 
Q 3525 3141 3298 2862 
Q 3072 2584 2669 2484 
Q 3125 2378 3379 2068 
Q 3634 1759 3634 1313 
Q 3634 634 3220 271 
Q 2806 -91 2034 -91 
Q 1263 -91 848 271 
Q 434 634 434 1313 
Q 434 1759 690 2068 
Q 947 2378 1403 2484 
z
M 1172 3481 
Q 1172 3119 1398 2916 
Q 1625 2713 2034 2713 
Q 2441 2713 2670 2916 
Q 2900 3119 2900 3481 
Q 2900 3844 2670 4047 
Q 2441 4250 2034 4250 
Q 1625 4250 1398 4047 
Q 1172 3844 1172 3481 
z
" transform="scale(0.015625)"/>
       </defs>
       <use xlink:href="#DejaVuSans-38"/>
      </g>
     </g>
    </g>
    <g id="ytick_6">
     <g id="line2d_6">
      <path d="M 85.7575 129.920223 
L 572.6575 129.920223 
" clip-path="url(#paaf7f96aaa)" style="fill: none; stroke: #cccccc; stroke-width: 0.8; stroke-linecap: round"/>
     </g>
     <g id="text_12">
      <!-- 10 -->
      <g style="fill: #262626" transform="translate(60.9425 135.239129) scale(0.14 -0.14)">
       <use xlink:href="#DejaVuSans-31"/>
       <use xlink:href="#DejaVuSans-30" transform="translate(63.623047 0)"/>
      </g>
     </g>
    </g>
    <g id="text_13">
     <!-- Mean Bandwidth (GiB/s) -->
     <g style="fill: #262626" transform="translate(52.783125 385.589375) rotate(-90) scale(0.2 -0.2)">
      <defs>
       <path id="DejaVuSans-61" d="M 2194 1759 
Q 1497 1759 1228 1600 
Q 959 1441 959 1056 
Q 959 750 1161 570 
Q 1363 391 1709 391 
Q 2188 391 2477 730 
Q 2766 1069 2766 1631 
L 2766 1759 
L 2194 1759 
z
M 3341 1997 
L 3341 0 
L 2766 0 
L 2766 531 
Q 2569 213 2275 61 
Q 1981 -91 1556 -91 
Q 1019 -91 701 211 
Q 384 513 384 1019 
Q 384 1609 779 1909 
Q 1175 2209 1959 2209 
L 2766 2209 
L 2766 2266 
Q 2766 2663 2505 2880 
Q 2244 3097 1772 3097 
Q 1472 3097 1187 3025 
Q 903 2953 641 2809 
L 641 3341 
Q 956 3463 1253 3523 
Q 1550 3584 1831 3584 
Q 2591 3584 2966 3190 
Q 3341 2797 3341 1997 
z
" transform="scale(0.015625)"/>
       <path id="DejaVuSans-6e" d="M 3513 2113 
L 3513 0 
L 2938 0 
L 2938 2094 
Q 2938 2591 2744 2837 
Q 2550 3084 2163 3084 
Q 1697 3084 1428 2787 
Q 1159 2491 1159 1978 
L 1159 0 
L 581 0 
L 581 3500 
L 1159 3500 
L 1159 2956 
Q 1366 3272 1645 3428 
Q 1925 3584 2291 3584 
Q 2894 3584 3203 3211 
Q 3513 2838 3513 2113 
z
" transform="scale(0.015625)"/>
       <path id="DejaVuSans-64" d="M 2906 2969 
L 2906 4863 
L 3481 4863 
L 3481 0 
L 2906 0 
L 2906 525 
Q 2725 213 2448 61 
Q 2172 -91 1784 -91 
Q 1150 -91 751 415 
Q 353 922 353 1747 
Q 353 2572 751 3078 
Q 1150 3584 1784 3584 
Q 2172 3584 2448 3432 
Q 2725 3281 2906 2969 
z
M 947 1747 
Q 947 1113 1208 752 
Q 1469 391 1925 391 
Q 2381 391 2643 752 
Q 2906 1113 2906 1747 
Q 2906 2381 2643 2742 
Q 2381 3103 1925 3103 
Q 1469 3103 1208 2742 
Q 947 2381 947 1747 
z
" transform="scale(0.015625)"/>
       <path id="DejaVuSans-77" d="M 269 3500 
L 844 3500 
L 1563 769 
L 2278 3500 
L 2956 3500 
L 3675 769 
L 4391 3500 
L 4966 3500 
L 4050 0 
L 3372 0 
L 2619 2869 
L 1863 0 
L 1184 0 
L 269 3500 
z
" transform="scale(0.015625)"/>
       <path id="DejaVuSans-74" d="M 1172 4494 
L 1172 3500 
L 2356 3500 
L 2356 3053 
L 1172 3053 
L 1172 1153 
Q 1172 725 1289 603 
Q 1406 481 1766 481 
L 2356 481 
L 2356 0 
L 1766 0 
Q 1100 0 847 248 
Q 594 497 594 1153 
L 594 3053 
L 172 3053 
L 172 3500 
L 594 3500 
L 594 4494 
L 1172 4494 
z
" transform="scale(0.015625)"/>
       <path id="DejaVuSans-68" d="M 3513 2113 
L 3513 0 
L 2938 0 
L 2938 2094 
Q 2938 2591 2744 2837 
Q 2550 3084 2163 3084 
Q 1697 3084 1428 2787 
Q 1159 2491 1159 1978 
L 1159 0 
L 581 0 
L 581 4863 
L 1159 4863 
L 1159 2956 
Q 1366 3272 1645 3428 
Q 1925 3584 2291 3584 
Q 2894 3584 3203 3211 
Q 3513 2838 3513 2113 
z
" transform="scale(0.015625)"/>
       <path id="DejaVuSans-28" d="M 1984 4856 
Q 1566 4138 1362 3434 
Q 1159 2731 1159 2009 
Q 1159 1288 1364 580 
Q 1569 -128 1984 -844 
L 1484 -844 
Q 1016 -109 783 600 
Q 550 1309 550 2009 
Q 550 2706 781 3412 
Q 1013 4119 1484 4856 
L 1984 4856 
z
" transform="scale(0.015625)"/>
       <path id="DejaVuSans-47" d="M 3809 666 
L 3809 1919 
L 2778 1919 
L 2778 2438 
L 4434 2438 
L 4434 434 
Q 4069 175 3628 42 
Q 3188 -91 2688 -91 
Q 1594 -91 976 548 
Q 359 1188 359 2328 
Q 359 3472 976 4111 
Q 1594 4750 2688 4750 
Q 3144 4750 3555 4637 
Q 3966 4525 4313 4306 
L 4313 3634 
Q 3963 3931 3569 4081 
Q 3175 4231 2741 4231 
Q 1884 4231 1454 3753 
Q 1025 3275 1025 2328 
Q 1025 1384 1454 906 
Q 1884 428 2741 428 
Q 3075 428 3337 486 
Q 3600 544 3809 666 
z
" transform="scale(0.015625)"/>
       <path id="DejaVuSans-2f" d="M 1625 4666 
L 2156 4666 
L 531 -594 
L 0 -594 
L 1625 4666 
z
" transform="scale(0.015625)"/>
       <path id="DejaVuSans-73" d="M 2834 3397 
L 2834 2853 
Q 2591 2978 2328 3040 
Q 2066 3103 1784 3103 
Q 1356 3103 1142 2972 
Q 928 2841 928 2578 
Q 928 2378 1081 2264 
Q 1234 2150 1697 2047 
L 1894 2003 
Q 2506 1872 2764 1633 
Q 3022 1394 3022 966 
Q 3022 478 2636 193 
Q 2250 -91 1575 -91 
Q 1294 -91 989 -36 
Q 684 19 347 128 
L 347 722 
Q 666 556 975 473 
Q 1284 391 1588 391 
Q 1994 391 2212 530 
Q 2431 669 2431 922 
Q 2431 1156 2273 1281 
Q 2116 1406 1581 1522 
L 1381 1569 
Q 847 1681 609 1914 
Q 372 2147 372 2553 
Q 372 3047 722 3315 
Q 1072 3584 1716 3584 
Q 2034 3584 2315 3537 
Q 2597 3491 2834 3397 
z
" transform="scale(0.015625)"/>
       <path id="DejaVuSans-29" d="M 513 4856 
L 1013 4856 
Q 1481 4119 1714 3412 
Q 1947 2706 1947 2009 
Q 1947 1309 1714 600 
Q 1481 -109 1013 -844 
L 513 -844 
Q 928 -128 1133 580 
Q 1338 1288 1338 2009 
Q 1338 2731 1133 3434 
Q 928 4138 513 4856 
z
" transform="scale(0.015625)"/>
      </defs>
      <use xlink:href="#DejaVuSans-4d"/>
      <use xlink:href="#DejaVuSans-65" transform="translate(86.279297 0)"/>
      <use xlink:href="#DejaVuSans-61" transform="translate(147.802734 0)"/>
      <use xlink:href="#DejaVuSans-6e" transform="translate(209.082031 0)"/>
      <use xlink:href="#DejaVuSans-20" transform="translate(272.460938 0)"/>
      <use xlink:href="#DejaVuSans-42" transform="translate(304.248047 0)"/>
      <use xlink:href="#DejaVuSans-61" transform="translate(372.851562 0)"/>
      <use xlink:href="#DejaVuSans-6e" transform="translate(434.130859 0)"/>
      <use xlink:href="#DejaVuSans-64" transform="translate(497.509766 0)"/>
      <use xlink:href="#DejaVuSans-77" transform="translate(560.986328 0)"/>
      <use xlink:href="#DejaVuSans-69" transform="translate(642.773438 0)"/>
      <use xlink:href="#DejaVuSans-64" transform="translate(670.556641 0)"/>
      <use xlink:href="#DejaVuSans-74" transform="translate(734.033203 0)"/>
      <use xlink:href="#DejaVuSans-68" transform="translate(773.242188 0)"/>
      <use xlink:href="#DejaVuSans-20" transform="translate(836.621094 0)"/>
      <use xlink:href="#DejaVuSans-28" transform="translate(868.408203 0)"/>
      <use xlink:href="#DejaVuSans-47" transform="translate(907.421875 0)"/>
      <use xlink:href="#DejaVuSans-69" transform="translate(984.912109 0)"/>
      <use xlink:href="#DejaVuSans-42" transform="translate(1012.695312 0)"/>
      <use xlink:href="#DejaVuSans-2f" transform="translate(1081.298828 0)"/>
      <use xlink:href="#DejaVuSans-73" transform="translate(1114.990234 0)"/>
      <use xlink:href="#DejaVuSans-29" transform="translate(1167.089844 0)"/>
     </g>
    </g>
   </g>
   <g id="patch_3">
    <path d="M 95.4955 455.56 
L 111.0763 455.56 
L 111.0763 450.435914 
L 95.4955 450.435914 
z
" clip-path="url(#paaf7f96aaa)" style="fill: #5a1591; stroke: #ffffff; stroke-linejoin: miter"/>
   </g>
   <g id="patch_4">
    <path d="M 192.8755 455.56 
L 208.4563 455.56 
L 208.4563 435.481904 
L 192.8755 435.481904 
z
" clip-path="url(#paaf7f96aaa)" style="fill: #5a1591; stroke: #ffffff; stroke-linejoin: miter"/>
   </g>
   <g id="patch_5">
    <path d="M 290.2555 455.56 
L 305.8363 455.56 
L 305.8363 338.871196 
L 290.2555 338.871196 
z
" clip-path="url(#paaf7f96aaa)" style="fill: #5a1591; stroke: #ffffff; stroke-linejoin: miter"/>
   </g>
   <g id="patch_6">
    <path d="M 387.6355 455.56 
L 403.2163 455.56 
L 403.2163 318.161331 
L 387.6355 318.161331 
z
" clip-path="url(#paaf7f96aaa)" style="fill: #5a1591; stroke: #ffffff; stroke-linejoin: miter"/>
   </g>
   <g id="patch_7">
    <path d="M 485.0155 455.56 
L 500.5963 455.56 
L 500.5963 336.3079 
L 485.0155 336.3079 
z
" clip-path="url(#paaf7f96aaa)" style="fill: #5a1591; stroke: #ffffff; stroke-linejoin: miter"/>
   </g>
   <g id="patch_8">
    <path d="M 111.0763 455.56 
L 126.6571 455.56 
L 126.6571 449.741695 
L 111.0763 449.741695 
z
" clip-path="url(#paaf7f96aaa)" style="fill: #8b288d; stroke: #ffffff; stroke-linejoin: miter"/>
   </g>
   <g id="patch_9">
    <path d="M 208.4563 455.56 
L 224.0371 455.56 
L 224.0371 434.610421 
L 208.4563 434.610421 
z
" clip-path="url(#paaf7f96aaa)" style="fill: #8b288d; stroke: #ffffff; stroke-linejoin: miter"/>
   </g>
   <g id="patch_10">
    <path d="M 305.8363 455.56 
L 321.4171 455.56 
L 321.4171 301.360299 
L 305.8363 301.360299 
z
" clip-path="url(#paaf7f96aaa)" style="fill: #8b288d; stroke: #ffffff; stroke-linejoin: miter"/>
   </g>
   <g id="patch_11">
    <path d="M 403.2163 455.56 
L 418.7971 455.56 
L 418.7971 345.125268 
L 403.2163 345.125268 
z
" clip-path="url(#paaf7f96aaa)" style="fill: #8b288d; stroke: #ffffff; stroke-linejoin: miter"/>
   </g>
   <g id="patch_12">
    <path d="M 500.5963 455.56 
L 516.1771 455.56 
L 516.1771 351.732004 
L 500.5963 351.732004 
z
" clip-path="url(#paaf7f96aaa)" style="fill: #8b288d; stroke: #ffffff; stroke-linejoin: miter"/>
   </g>
   <g id="patch_13">
    <path d="M 126.6571 455.56 
L 142.2379 455.56 
L 142.2379 448.464133 
L 126.6571 448.464133 
z
" clip-path="url(#paaf7f96aaa)" style="fill: #bb587c; stroke: #ffffff; stroke-linejoin: miter"/>
   </g>
   <g id="patch_14">
    <path d="M 224.0371 455.56 
L 239.6179 455.56 
L 239.6179 432.84374 
L 224.0371 432.84374 
z
" clip-path="url(#paaf7f96aaa)" style="fill: #bb587c; stroke: #ffffff; stroke-linejoin: miter"/>
   </g>
   <g id="patch_15">
    <path d="M 321.4171 455.56 
L 336.9979 455.56 
L 336.9979 314.077401 
L 321.4171 314.077401 
z
" clip-path="url(#paaf7f96aaa)" style="fill: #bb587c; stroke: #ffffff; stroke-linejoin: miter"/>
   </g>
   <g id="patch_16">
    <path d="M 418.7971 455.56 
L 434.3779 455.56 
L 434.3779 299.042963 
L 418.7971 299.042963 
z
" clip-path="url(#paaf7f96aaa)" style="fill: #bb587c; stroke: #ffffff; stroke-linejoin: miter"/>
   </g>
   <g id="patch_17">
    <path d="M 516.1771 455.56 
L 531.7579 455.56 
L 531.7579 323.418601 
L 516.1771 323.418601 
z
" clip-path="url(#paaf7f96aaa)" style="fill: #bb587c; stroke: #ffffff; stroke-linejoin: miter"/>
   </g>
   <g id="patch_18">
    <path d="M 142.2379 455.56 
L 157.8187 455.56 
L 157.8187 448.804207 
L 142.2379 448.804207 
z
" clip-path="url(#paaf7f96aaa)" style="fill: #da8266; stroke: #ffffff; stroke-linejoin: miter"/>
   </g>
   <g id="patch_19">
    <path d="M 239.6179 455.56 
L 255.1987 455.56 
L 255.1987 428.290072 
L 239.6179 428.290072 
z
" clip-path="url(#paaf7f96aaa)" style="fill: #da8266; stroke: #ffffff; stroke-linejoin: miter"/>
   </g>
   <g id="patch_20">
    <path d="M 336.9979 455.56 
L 352.5787 455.56 
L 352.5787 260.571279 
L 336.9979 260.571279 
z
" clip-path="url(#paaf7f96aaa)" style="fill: #da8266; stroke: #ffffff; stroke-linejoin: miter"/>
   </g>
   <g id="patch_21">
    <path d="M 434.3779 455.56 
L 449.9587 455.56 
L 449.9587 240.025419 
L 434.3779 240.025419 
z
" clip-path="url(#paaf7f96aaa)" style="fill: #da8266; stroke: #ffffff; stroke-linejoin: miter"/>
   </g>
   <g id="patch_22">
    <path d="M 531.7579 455.56 
L 547.3387 455.56 
L 547.3387 251.938518 
L 531.7579 251.938518 
z
" clip-path="url(#paaf7f96aaa)" style="fill: #da8266; stroke: #ffffff; stroke-linejoin: miter"/>
   </g>
   <g id="patch_23">
    <path d="M 157.8187 455.56 
L 173.3995 455.56 
L 173.3995 448.181615 
L 157.8187 448.181615 
z
" clip-path="url(#paaf7f96aaa)" style="fill: #e4ac49; stroke: #ffffff; stroke-linejoin: miter"/>
   </g>
   <g id="patch_24">
    <path d="M 255.1987 455.56 
L 270.7795 455.56 
L 270.7795 427.426934 
L 255.1987 427.426934 
z
" clip-path="url(#paaf7f96aaa)" style="fill: #e4ac49; stroke: #ffffff; stroke-linejoin: miter"/>
   </g>
   <g id="patch_25">
    <path d="M 352.5787 455.56 
L 368.1595 455.56 
L 368.1595 140.889694 
L 352.5787 140.889694 
z
" clip-path="url(#paaf7f96aaa)" style="fill: #e4ac49; stroke: #ffffff; stroke-linejoin: miter"/>
   </g>
   <g id="patch_26">
    <path d="M 449.9587 455.56 
L 465.5395 455.56 
L 465.5395 118.235083 
L 449.9587 118.235083 
z
" clip-path="url(#paaf7f96aaa)" style="fill: #e4ac49; stroke: #ffffff; stroke-linejoin: miter"/>
   </g>
   <g id="patch_27">
    <path d="M 547.3387 455.56 
L 562.9195 455.56 
L 562.9195 134.354644 
L 547.3387 134.354644 
z
" clip-path="url(#paaf7f96aaa)" style="fill: #e4ac49; stroke: #ffffff; stroke-linejoin: miter"/>
   </g>
   <g id="patch_28">
    <path d="M 134.4475 455.56 
L 134.4475 455.56 
L 134.4475 455.56 
L 134.4475 455.56 
z
" clip-path="url(#paaf7f96aaa)" style="fill: #5a1591; stroke: #ffffff; stroke-linejoin: miter"/>
   </g>
   <g id="patch_29">
    <path d="M 134.4475 455.56 
L 134.4475 455.56 
L 134.4475 455.56 
L 134.4475 455.56 
z
" clip-path="url(#paaf7f96aaa)" style="fill: #8b288d; stroke: #ffffff; stroke-linejoin: miter"/>
   </g>
   <g id="patch_30">
    <path d="M 134.4475 455.56 
L 134.4475 455.56 
L 134.4475 455.56 
L 134.4475 455.56 
z
" clip-path="url(#paaf7f96aaa)" style="fill: #bb587c; stroke: #ffffff; stroke-linejoin: miter"/>
   </g>
   <g id="patch_31">
    <path d="M 134.4475 455.56 
L 134.4475 455.56 
L 134.4475 455.56 
L 134.4475 455.56 
z
" clip-path="url(#paaf7f96aaa)" style="fill: #da8266; stroke: #ffffff; stroke-linejoin: miter"/>
   </g>
   <g id="patch_32">
    <path d="M 134.4475 455.56 
L 134.4475 455.56 
L 134.4475 455.56 
L 134.4475 455.56 
z
" clip-path="url(#paaf7f96aaa)" style="fill: #e4ac49; stroke: #ffffff; stroke-linejoin: miter"/>
   </g>
   <g id="patch_33">
    <path d="M 85.7575 455.56 
L 85.7575 74.4 
" style="fill: none; stroke: #cccccc; stroke-width: 0.8; stroke-linejoin: miter; stroke-linecap: square"/>
   </g>
   <g id="patch_34">
    <path d="M 572.6575 455.56 
L 572.6575 74.4 
" style="fill: none; stroke: #cccccc; stroke-width: 0.8; stroke-linejoin: miter; stroke-linecap: square"/>
   </g>
   <g id="patch_35">
    <path d="M 85.7575 455.56 
L 572.6575 455.56 
" style="fill: none; stroke: #cccccc; stroke-width: 0.8; stroke-linejoin: miter; stroke-linecap: square"/>
   </g>
   <g id="patch_36">
    <path d="M 85.7575 74.4 
L 572.6575 74.4 
" style="fill: none; stroke: #cccccc; stroke-width: 0.8; stroke-linejoin: miter; stroke-linecap: square"/>
   </g>
   <g id="text_14">
    <!-- Sequential -->
    <g style="fill: #262626" transform="translate(275.924688 68.4) scale(0.2 -0.2)">
     <defs>
      <path id="DejaVuSans-71" d="M 947 1747 
Q 947 1113 1208 752 
Q 1469 391 1925 391 
Q 2381 391 2643 752 
Q 2906 1113 2906 1747 
Q 2906 2381 2643 2742 
Q 2381 3103 1925 3103 
Q 1469 3103 1208 2742 
Q 947 2381 947 1747 
z
M 2906 525 
Q 2725 213 2448 61 
Q 2172 -91 1784 -91 
Q 1150 -91 751 415 
Q 353 922 353 1747 
Q 353 2572 751 3078 
Q 1150 3584 1784 3584 
Q 2172 3584 2448 3432 
Q 2725 3281 2906 2969 
L 2906 3500 
L 3481 3500 
L 3481 -1331 
L 2906 -1331 
L 2906 525 
z
" transform="scale(0.015625)"/>
      <path id="DejaVuSans-75" d="M 544 1381 
L 544 3500 
L 1119 3500 
L 1119 1403 
Q 1119 906 1312 657 
Q 1506 409 1894 409 
Q 2359 409 2629 706 
Q 2900 1003 2900 1516 
L 2900 3500 
L 3475 3500 
L 3475 0 
L 2900 0 
L 2900 538 
Q 2691 219 2414 64 
Q 2138 -91 1772 -91 
Q 1169 -91 856 284 
Q 544 659 544 1381 
z
M 1991 3584 
L 1991 3584 
z
" transform="scale(0.015625)"/>
     </defs>
     <use xlink:href="#DejaVuSans-53"/>
     <use xlink:href="#DejaVuSans-65" transform="translate(63.476562 0)"/>
     <use xlink:href="#DejaVuSans-71" transform="translate(125 0)"/>
     <use xlink:href="#DejaVuSans-75" transform="translate(188.476562 0)"/>
     <use xlink:href="#DejaVuSans-65" transform="translate(251.855469 0)"/>
     <use xlink:href="#DejaVuSans-6e" transform="translate(313.378906 0)"/>
     <use xlink:href="#DejaVuSans-74" transform="translate(376.757812 0)"/>
     <use xlink:href="#DejaVuSans-69" transform="translate(415.966797 0)"/>
     <use xlink:href="#DejaVuSans-61" transform="translate(443.75 0)"/>
     <use xlink:href="#DejaVuSans-6c" transform="translate(505.029297 0)"/>
    </g>
   </g>
  </g>
  <g id="axes_2">
   <g id="patch_37">
    <path d="M 608.2775 455.56 
L 1095.1775 455.56 
L 1095.1775 74.4 
L 608.2775 74.4 
z
" style="fill: #ffffff"/>
   </g>
   <g id="matplotlib.axis_3">
    <g id="xtick_6">
     <g id="text_15">
      <!-- 4K -->
      <g style="fill: #262626" transform="translate(647.923281 473.197813) scale(0.14 -0.14)">
       <use xlink:href="#DejaVuSans-34"/>
       <use xlink:href="#DejaVuSans-4b" transform="translate(63.623047 0)"/>
      </g>
     </g>
    </g>
    <g id="xtick_7">
     <g id="text_16">
      <!-- 16K -->
      <g style="fill: #262626" transform="translate(740.849531 473.197813) scale(0.14 -0.14)">
       <use xlink:href="#DejaVuSans-31"/>
       <use xlink:href="#DejaVuSans-36" transform="translate(63.623047 0)"/>
       <use xlink:href="#DejaVuSans-4b" transform="translate(127.246094 0)"/>
      </g>
     </g>
    </g>
    <g id="xtick_8">
     <g id="text_17">
      <!-- 1M -->
      <g style="fill: #262626" transform="translate(841.234063 473.197813) scale(0.14 -0.14)">
       <use xlink:href="#DejaVuSans-31"/>
       <use xlink:href="#DejaVuSans-4d" transform="translate(63.623047 0)"/>
      </g>
     </g>
    </g>
    <g id="xtick_9">
     <g id="text_18">
      <!-- 2M -->
      <g style="fill: #262626" transform="translate(938.614063 473.197813) scale(0.14 -0.14)">
       <use xlink:href="#DejaVuSans-32"/>
       <use xlink:href="#DejaVuSans-4d" transform="translate(63.623047 0)"/>
      </g>
     </g>
    </g>
    <g id="xtick_10">
     <g id="text_19">
      <!-- 4M -->
      <g style="fill: #262626" transform="translate(1035.994062 473.197813) scale(0.14 -0.14)">
       <use xlink:href="#DejaVuSans-34"/>
       <use xlink:href="#DejaVuSans-4d" transform="translate(63.623047 0)"/>
      </g>
     </g>
    </g>
    <g id="text_20">
     <!-- Block Size -->
     <g style="fill: #262626" transform="translate(800.974375 495.30625) scale(0.2 -0.2)">
      <use xlink:href="#DejaVuSans-42"/>
      <use xlink:href="#DejaVuSans-6c" transform="translate(68.603516 0)"/>
      <use xlink:href="#DejaVuSans-6f" transform="translate(96.386719 0)"/>
      <use xlink:href="#DejaVuSans-63" transform="translate(157.568359 0)"/>
      <use xlink:href="#DejaVuSans-6b" transform="translate(212.548828 0)"/>
      <use xlink:href="#DejaVuSans-20" transform="translate(270.458984 0)"/>
      <use xlink:href="#DejaVuSans-53" transform="translate(302.246094 0)"/>
      <use xlink:href="#DejaVuSans-69" transform="translate(365.722656 0)"/>
      <use xlink:href="#DejaVuSans-7a" transform="translate(393.505859 0)"/>
      <use xlink:href="#DejaVuSans-65" transform="translate(445.996094 0)"/>
     </g>
    </g>
   </g>
   <g id="matplotlib.axis_4">
    <g id="ytick_7">
     <g id="line2d_7">
      <path d="M 608.2775 455.56 
L 1095.1775 455.56 
" clip-path="url(#p04c4833220)" style="fill: none; stroke: #cccccc; stroke-width: 0.8; stroke-linecap: round"/>
     </g>
     <g id="text_21">
      <!-- 0 -->
      <g style="fill: #262626" transform="translate(592.37 460.878906) scale(0.14 -0.14)">
       <use xlink:href="#DejaVuSans-30"/>
      </g>
     </g>
    </g>
    <g id="ytick_8">
     <g id="line2d_8">
      <path d="M 608.2775 390.432045 
L 1095.1775 390.432045 
" clip-path="url(#p04c4833220)" style="fill: none; stroke: #cccccc; stroke-width: 0.8; stroke-linecap: round"/>
     </g>
     <g id="text_22">
      <!-- 2 -->
      <g style="fill: #262626" transform="translate(592.37 395.750951) scale(0.14 -0.14)">
       <use xlink:href="#DejaVuSans-32"/>
      </g>
     </g>
    </g>
    <g id="ytick_9">
     <g id="line2d_9">
      <path d="M 608.2775 325.304089 
L 1095.1775 325.304089 
" clip-path="url(#p04c4833220)" style="fill: none; stroke: #cccccc; stroke-width: 0.8; stroke-linecap: round"/>
     </g>
     <g id="text_23">
      <!-- 4 -->
      <g style="fill: #262626" transform="translate(592.37 330.622995) scale(0.14 -0.14)">
       <use xlink:href="#DejaVuSans-34"/>
      </g>
     </g>
    </g>
    <g id="ytick_10">
     <g id="line2d_10">
      <path d="M 608.2775 260.176134 
L 1095.1775 260.176134 
" clip-path="url(#p04c4833220)" style="fill: none; stroke: #cccccc; stroke-width: 0.8; stroke-linecap: round"/>
     </g>
     <g id="text_24">
      <!-- 6 -->
      <g style="fill: #262626" transform="translate(592.37 265.49504) scale(0.14 -0.14)">
       <use xlink:href="#DejaVuSans-36"/>
      </g>
     </g>
    </g>
    <g id="ytick_11">
     <g id="line2d_11">
      <path d="M 608.2775 195.048178 
L 1095.1775 195.048178 
" clip-path="url(#p04c4833220)" style="fill: none; stroke: #cccccc; stroke-width: 0.8; stroke-linecap: round"/>
     </g>
     <g id="text_25">
      <!-- 8 -->
      <g style="fill: #262626" transform="translate(592.37 200.367085) scale(0.14 -0.14)">
       <use xlink:href="#DejaVuSans-38"/>
      </g>
     </g>
    </g>
    <g id="ytick_12">
     <g id="line2d_12">
      <path d="M 608.2775 129.920223 
L 1095.1775 129.920223 
" clip-path="url(#p04c4833220)" style="fill: none; stroke: #cccccc; stroke-width: 0.8; stroke-linecap: round"/>
     </g>
     <g id="text_26">
      <!-- 10 -->
      <g style="fill: #262626" transform="translate(583.4625 135.239129) scale(0.14 -0.14)">
       <use xlink:href="#DejaVuSans-31"/>
       <use xlink:href="#DejaVuSans-30" transform="translate(63.623047 0)"/>
      </g>
     </g>
    </g>
   </g>
   <g id="patch_38">
    <path d="M 618.0155 455.56 
L 633.5963 455.56 
L 633.5963 450.271076 
L 618.0155 450.271076 
z
" clip-path="url(#p04c4833220)" style="fill: #332741; stroke: #ffffff; stroke-linejoin: miter"/>
   </g>
   <g id="patch_39">
    <path d="M 715.3955 455.56 
L 730.9763 455.56 
L 730.9763 435.323518 
L 715.3955 435.323518 
z
" clip-path="url(#p04c4833220)" style="fill: #332741; stroke: #ffffff; stroke-linejoin: miter"/>
   </g>
   <g id="patch_40">
    <path d="M 812.7755 455.56 
L 828.3563 455.56 
L 828.3563 299.878579 
L 812.7755 299.878579 
z
" clip-path="url(#p04c4833220)" style="fill: #332741; stroke: #ffffff; stroke-linejoin: miter"/>
   </g>
   <g id="patch_41">
    <path d="M 910.1555 455.56 
L 925.7363 455.56 
L 925.7363 304.395899 
L 910.1555 304.395899 
z
" clip-path="url(#p04c4833220)" style="fill: #332741; stroke: #ffffff; stroke-linejoin: miter"/>
   </g>
   <g id="patch_42">
    <path d="M 1007.5355 455.56 
L 1023.1163 455.56 
L 1023.1163 323.153396 
L 1007.5355 323.153396 
z
" clip-path="url(#p04c4833220)" style="fill: #332741; stroke: #ffffff; stroke-linejoin: miter"/>
   </g>
   <g id="patch_43">
    <path d="M 633.5963 455.56 
L 649.1771 455.56 
L 649.1771 449.701322 
L 633.5963 449.701322 
z
" clip-path="url(#p04c4833220)" style="fill: #495084; stroke: #ffffff; stroke-linejoin: miter"/>
   </g>
   <g id="patch_44">
    <path d="M 730.9763 455.56 
L 746.5571 455.56 
L 746.5571 434.373334 
L 730.9763 434.373334 
z
" clip-path="url(#p04c4833220)" style="fill: #495084; stroke: #ffffff; stroke-linejoin: miter"/>
   </g>
   <g id="patch_45">
    <path d="M 828.3563 455.56 
L 843.9371 455.56 
L 843.9371 350.758175 
L 828.3563 350.758175 
z
" clip-path="url(#p04c4833220)" style="fill: #495084; stroke: #ffffff; stroke-linejoin: miter"/>
   </g>
   <g id="patch_46">
    <path d="M 925.7363 455.56 
L 941.3171 455.56 
L 941.3171 318.889938 
L 925.7363 318.889938 
z
" clip-path="url(#p04c4833220)" style="fill: #495084; stroke: #ffffff; stroke-linejoin: miter"/>
   </g>
   <g id="patch_47">
    <path d="M 1023.1163 455.56 
L 1038.6971 455.56 
L 1038.6971 334.325492 
L 1023.1163 334.325492 
z
" clip-path="url(#p04c4833220)" style="fill: #495084; stroke: #ffffff; stroke-linejoin: miter"/>
   </g>
   <g id="patch_48">
    <path d="M 649.1771 455.56 
L 664.7579 455.56 
L 664.7579 450.029987 
L 649.1771 450.029987 
z
" clip-path="url(#p04c4833220)" style="fill: #437795; stroke: #ffffff; stroke-linejoin: miter"/>
   </g>
   <g id="patch_49">
    <path d="M 746.5571 455.56 
L 762.1379 455.56 
L 762.1379 431.86386 
L 746.5571 431.86386 
z
" clip-path="url(#p04c4833220)" style="fill: #437795; stroke: #ffffff; stroke-linejoin: miter"/>
   </g>
   <g id="patch_50">
    <path d="M 843.9371 455.56 
L 859.5179 455.56 
L 859.5179 295.704779 
L 843.9371 295.704779 
z
" clip-path="url(#p04c4833220)" style="fill: #437795; stroke: #ffffff; stroke-linejoin: miter"/>
   </g>
   <g id="patch_51">
    <path d="M 941.3171 455.56 
L 956.8979 455.56 
L 956.8979 308.105718 
L 941.3171 308.105718 
z
" clip-path="url(#p04c4833220)" style="fill: #437795; stroke: #ffffff; stroke-linejoin: miter"/>
   </g>
   <g id="patch_52">
    <path d="M 1038.6971 455.56 
L 1054.2779 455.56 
L 1054.2779 303.701921 
L 1038.6971 303.701921 
z
" clip-path="url(#p04c4833220)" style="fill: #437795; stroke: #ffffff; stroke-linejoin: miter"/>
   </g>
   <g id="patch_53">
    <path d="M 664.7579 455.56 
L 680.3387 455.56 
L 680.3387 448.859313 
L 664.7579 448.859313 
z
" clip-path="url(#p04c4833220)" style="fill: #479c9e; stroke: #ffffff; stroke-linejoin: miter"/>
   </g>
   <g id="patch_54">
    <path d="M 762.1379 455.56 
L 777.7187 455.56 
L 777.7187 431.318167 
L 762.1379 431.318167 
z
" clip-path="url(#p04c4833220)" style="fill: #479c9e; stroke: #ffffff; stroke-linejoin: miter"/>
   </g>
   <g id="patch_55">
    <path d="M 859.5179 455.56 
L 875.0987 455.56 
L 875.0987 261.585061 
L 859.5179 261.585061 
z
" clip-path="url(#p04c4833220)" style="fill: #479c9e; stroke: #ffffff; stroke-linejoin: miter"/>
   </g>
   <g id="patch_56">
    <path d="M 956.8979 455.56 
L 972.4787 455.56 
L 972.4787 263.995949 
L 956.8979 263.995949 
z
" clip-path="url(#p04c4833220)" style="fill: #479c9e; stroke: #ffffff; stroke-linejoin: miter"/>
   </g>
   <g id="patch_57">
    <path d="M 1054.2779 455.56 
L 1069.8587 455.56 
L 1069.8587 261.418349 
L 1054.2779 261.418349 
z
" clip-path="url(#p04c4833220)" style="fill: #479c9e; stroke: #ffffff; stroke-linejoin: miter"/>
   </g>
   <g id="patch_58">
    <path d="M 680.3387 455.56 
L 695.9195 455.56 
L 695.9195 447.192008 
L 680.3387 447.192008 
z
" clip-path="url(#p04c4833220)" style="fill: #85caad; stroke: #ffffff; stroke-linejoin: miter"/>
   </g>
   <g id="patch_59">
    <path d="M 777.7187 455.56 
L 793.2995 455.56 
L 793.2995 430.096085 
L 777.7187 430.096085 
z
" clip-path="url(#p04c4833220)" style="fill: #85caad; stroke: #ffffff; stroke-linejoin: miter"/>
   </g>
   <g id="patch_60">
    <path d="M 875.0987 455.56 
L 890.6795 455.56 
L 890.6795 97.490618 
L 875.0987 97.490618 
z
" clip-path="url(#p04c4833220)" style="fill: #85caad; stroke: #ffffff; stroke-linejoin: miter"/>
   </g>
   <g id="patch_61">
    <path d="M 972.4787 455.56 
L 988.0595 455.56 
L 988.0595 96.243082 
L 972.4787 96.243082 
z
" clip-path="url(#p04c4833220)" style="fill: #85caad; stroke: #ffffff; stroke-linejoin: miter"/>
   </g>
   <g id="patch_62">
    <path d="M 1069.8587 455.56 
L 1085.4395 455.56 
L 1085.4395 92.550476 
L 1069.8587 92.550476 
z
" clip-path="url(#p04c4833220)" style="fill: #85caad; stroke: #ffffff; stroke-linejoin: miter"/>
   </g>
   <g id="patch_63">
    <path d="M 656.9675 455.56 
L 656.9675 455.56 
L 656.9675 455.56 
L 656.9675 455.56 
z
" clip-path="url(#p04c4833220)" style="fill: #332741; stroke: #ffffff; stroke-linejoin: miter"/>
   </g>
   <g id="patch_64">
    <path d="M 656.9675 455.56 
L 656.9675 455.56 
L 656.9675 455.56 
L 656.9675 455.56 
z
" clip-path="url(#p04c4833220)" style="fill: #495084; stroke: #ffffff; stroke-linejoin: miter"/>
   </g>
   <g id="patch_65">
    <path d="M 656.9675 455.56 
L 656.9675 455.56 
L 656.9675 455.56 
L 656.9675 455.56 
z
" clip-path="url(#p04c4833220)" style="fill: #437795; stroke: #ffffff; stroke-linejoin: miter"/>
   </g>
   <g id="patch_66">
    <path d="M 656.9675 455.56 
L 656.9675 455.56 
L 656.9675 455.56 
L 656.9675 455.56 
z
" clip-path="url(#p04c4833220)" style="fill: #479c9e; stroke: #ffffff; stroke-linejoin: miter"/>
   </g>
   <g id="patch_67">
    <path d="M 656.9675 455.56 
L 656.9675 455.56 
L 656.9675 455.56 
L 656.9675 455.56 
z
" clip-path="url(#p04c4833220)" style="fill: #85caad; stroke: #ffffff; stroke-linejoin: miter"/>
   </g>
   <g id="patch_68">
    <path d="M 608.2775 455.56 
L 608.2775 74.4 
" style="fill: none; stroke: #cccccc; stroke-width: 0.8; stroke-linejoin: miter; stroke-linecap: square"/>
   </g>
   <g id="patch_69">
    <path d="M 1095.1775 455.56 
L 1095.1775 74.4 
" style="fill: none; stroke: #cccccc; stroke-width: 0.8; stroke-linejoin: miter; stroke-linecap: square"/>
   </g>
   <g id="patch_70">
    <path d="M 608.2775 455.56 
L 1095.1775 455.56 
" style="fill: none; stroke: #cccccc; stroke-width: 0.8; stroke-linejoin: miter; stroke-linecap: square"/>
   </g>
   <g id="patch_71">
    <path d="M 608.2775 74.4 
L 1095.1775 74.4 
" style="fill: none; stroke: #cccccc; stroke-width: 0.8; stroke-linejoin: miter; stroke-linecap: square"/>
   </g>
   <g id="text_27">
    <!-- Random -->
    <g style="fill: #262626" transform="translate(810.330625 68.4) scale(0.2 -0.2)">
     <defs>
      <path id="DejaVuSans-52" d="M 2841 2188 
Q 3044 2119 3236 1894 
Q 3428 1669 3622 1275 
L 4263 0 
L 3584 0 
L 2988 1197 
Q 2756 1666 2539 1819 
Q 2322 1972 1947 1972 
L 1259 1972 
L 1259 0 
L 628 0 
L 628 4666 
L 2053 4666 
Q 2853 4666 3247 4331 
Q 3641 3997 3641 3322 
Q 3641 2881 3436 2590 
Q 3231 2300 2841 2188 
z
M 1259 4147 
L 1259 2491 
L 2053 2491 
Q 2509 2491 2742 2702 
Q 2975 2913 2975 3322 
Q 2975 3731 2742 3939 
Q 2509 4147 2053 4147 
L 1259 4147 
z
" transform="scale(0.015625)"/>
      <path id="DejaVuSans-6d" d="M 3328 2828 
Q 3544 3216 3844 3400 
Q 4144 3584 4550 3584 
Q 5097 3584 5394 3201 
Q 5691 2819 5691 2113 
L 5691 0 
L 5113 0 
L 5113 2094 
Q 5113 2597 4934 2840 
Q 4756 3084 4391 3084 
Q 3944 3084 3684 2787 
Q 3425 2491 3425 1978 
L 3425 0 
L 2847 0 
L 2847 2094 
Q 2847 2600 2669 2842 
Q 2491 3084 2119 3084 
Q 1678 3084 1418 2786 
Q 1159 2488 1159 1978 
L 1159 0 
L 581 0 
L 581 3500 
L 1159 3500 
L 1159 2956 
Q 1356 3278 1631 3431 
Q 1906 3584 2284 3584 
Q 2666 3584 2933 3390 
Q 3200 3197 3328 2828 
z
" transform="scale(0.015625)"/>
     </defs>
     <use xlink:href="#DejaVuSans-52"/>
     <use xlink:href="#DejaVuSans-61" transform="translate(67.232422 0)"/>
     <use xlink:href="#DejaVuSans-6e" transform="translate(128.511719 0)"/>
     <use xlink:href="#DejaVuSans-64" transform="translate(191.890625 0)"/>
     <use xlink:href="#DejaVuSans-6f" transform="translate(255.367188 0)"/>
     <use xlink:href="#DejaVuSans-6d" transform="translate(316.548828 0)"/>
    </g>
   </g>
  </g>
  <g id="text_28">
   <!-- Mean Bandwidth vs Block Size -->
   <g style="fill: #262626" transform="translate(360.659375 25.43625) scale(0.24 -0.24)">
    <defs>
     <path id="DejaVuSans-Bold-4d" d="M 588 4666 
L 2119 4666 
L 3181 2169 
L 4250 4666 
L 5778 4666 
L 5778 0 
L 4641 0 
L 4641 3413 
L 3566 897 
L 2803 897 
L 1728 3413 
L 1728 0 
L 588 0 
L 588 4666 
z
" transform="scale(0.015625)"/>
     <path id="DejaVuSans-Bold-65" d="M 4031 1759 
L 4031 1441 
L 1416 1441 
Q 1456 1047 1700 850 
Q 1944 653 2381 653 
Q 2734 653 3104 758 
Q 3475 863 3866 1075 
L 3866 213 
Q 3469 63 3072 -14 
Q 2675 -91 2278 -91 
Q 1328 -91 801 392 
Q 275 875 275 1747 
Q 275 2603 792 3093 
Q 1309 3584 2216 3584 
Q 3041 3584 3536 3087 
Q 4031 2591 4031 1759 
z
M 2881 2131 
Q 2881 2450 2695 2645 
Q 2509 2841 2209 2841 
Q 1884 2841 1681 2658 
Q 1478 2475 1428 2131 
L 2881 2131 
z
" transform="scale(0.015625)"/>
     <path id="DejaVuSans-Bold-61" d="M 2106 1575 
Q 1756 1575 1579 1456 
Q 1403 1338 1403 1106 
Q 1403 894 1545 773 
Q 1688 653 1941 653 
Q 2256 653 2472 879 
Q 2688 1106 2688 1447 
L 2688 1575 
L 2106 1575 
z
M 3816 1997 
L 3816 0 
L 2688 0 
L 2688 519 
Q 2463 200 2181 54 
Q 1900 -91 1497 -91 
Q 953 -91 614 226 
Q 275 544 275 1050 
Q 275 1666 698 1953 
Q 1122 2241 2028 2241 
L 2688 2241 
L 2688 2328 
Q 2688 2594 2478 2717 
Q 2269 2841 1825 2841 
Q 1466 2841 1156 2769 
Q 847 2697 581 2553 
L 581 3406 
Q 941 3494 1303 3539 
Q 1666 3584 2028 3584 
Q 2975 3584 3395 3211 
Q 3816 2838 3816 1997 
z
" transform="scale(0.015625)"/>
     <path id="DejaVuSans-Bold-6e" d="M 4056 2131 
L 4056 0 
L 2931 0 
L 2931 347 
L 2931 1631 
Q 2931 2084 2911 2256 
Q 2891 2428 2841 2509 
Q 2775 2619 2662 2680 
Q 2550 2741 2406 2741 
Q 2056 2741 1856 2470 
Q 1656 2200 1656 1722 
L 1656 0 
L 538 0 
L 538 3500 
L 1656 3500 
L 1656 2988 
Q 1909 3294 2193 3439 
Q 2478 3584 2822 3584 
Q 3428 3584 3742 3212 
Q 4056 2841 4056 2131 
z
" transform="scale(0.015625)"/>
     <path id="DejaVuSans-Bold-20" transform="scale(0.015625)"/>
     <path id="DejaVuSans-Bold-42" d="M 2456 2859 
Q 2741 2859 2887 2984 
Q 3034 3109 3034 3353 
Q 3034 3594 2887 3720 
Q 2741 3847 2456 3847 
L 1791 3847 
L 1791 2859 
L 2456 2859 
z
M 2497 819 
Q 2859 819 3042 972 
Q 3225 1125 3225 1434 
Q 3225 1738 3044 1889 
Q 2863 2041 2497 2041 
L 1791 2041 
L 1791 819 
L 2497 819 
z
M 3616 2497 
Q 4003 2384 4215 2081 
Q 4428 1778 4428 1338 
Q 4428 663 3972 331 
Q 3516 0 2584 0 
L 588 0 
L 588 4666 
L 2394 4666 
Q 3366 4666 3802 4372 
Q 4238 4078 4238 3431 
Q 4238 3091 4078 2852 
Q 3919 2613 3616 2497 
z
" transform="scale(0.015625)"/>
     <path id="DejaVuSans-Bold-64" d="M 2919 2988 
L 2919 4863 
L 4044 4863 
L 4044 0 
L 2919 0 
L 2919 506 
Q 2688 197 2409 53 
Q 2131 -91 1766 -91 
Q 1119 -91 703 423 
Q 288 938 288 1747 
Q 288 2556 703 3070 
Q 1119 3584 1766 3584 
Q 2128 3584 2408 3439 
Q 2688 3294 2919 2988 
z
M 2181 722 
Q 2541 722 2730 984 
Q 2919 1247 2919 1747 
Q 2919 2247 2730 2509 
Q 2541 2772 2181 2772 
Q 1825 2772 1636 2509 
Q 1447 2247 1447 1747 
Q 1447 1247 1636 984 
Q 1825 722 2181 722 
z
" transform="scale(0.015625)"/>
     <path id="DejaVuSans-Bold-77" d="M 225 3500 
L 1313 3500 
L 1900 1088 
L 2491 3500 
L 3425 3500 
L 4013 1113 
L 4603 3500 
L 5691 3500 
L 4769 0 
L 3547 0 
L 2956 2406 
L 2369 0 
L 1147 0 
L 225 3500 
z
" transform="scale(0.015625)"/>
     <path id="DejaVuSans-Bold-69" d="M 538 3500 
L 1656 3500 
L 1656 0 
L 538 0 
L 538 3500 
z
M 538 4863 
L 1656 4863 
L 1656 3950 
L 538 3950 
L 538 4863 
z
" transform="scale(0.015625)"/>
     <path id="DejaVuSans-Bold-74" d="M 1759 4494 
L 1759 3500 
L 2913 3500 
L 2913 2700 
L 1759 2700 
L 1759 1216 
Q 1759 972 1856 886 
Q 1953 800 2241 800 
L 2816 800 
L 2816 0 
L 1856 0 
Q 1194 0 917 276 
Q 641 553 641 1216 
L 641 2700 
L 84 2700 
L 84 3500 
L 641 3500 
L 641 4494 
L 1759 4494 
z
" transform="scale(0.015625)"/>
     <path id="DejaVuSans-Bold-68" d="M 4056 2131 
L 4056 0 
L 2931 0 
L 2931 347 
L 2931 1625 
Q 2931 2084 2911 2256 
Q 2891 2428 2841 2509 
Q 2775 2619 2662 2680 
Q 2550 2741 2406 2741 
Q 2056 2741 1856 2470 
Q 1656 2200 1656 1722 
L 1656 0 
L 538 0 
L 538 4863 
L 1656 4863 
L 1656 2988 
Q 1909 3294 2193 3439 
Q 2478 3584 2822 3584 
Q 3428 3584 3742 3212 
Q 4056 2841 4056 2131 
z
" transform="scale(0.015625)"/>
     <path id="DejaVuSans-Bold-76" d="M 97 3500 
L 1216 3500 
L 2088 1081 
L 2956 3500 
L 4078 3500 
L 2700 0 
L 1472 0 
L 97 3500 
z
" transform="scale(0.015625)"/>
     <path id="DejaVuSans-Bold-73" d="M 3272 3391 
L 3272 2541 
Q 2913 2691 2578 2766 
Q 2244 2841 1947 2841 
Q 1628 2841 1473 2761 
Q 1319 2681 1319 2516 
Q 1319 2381 1436 2309 
Q 1553 2238 1856 2203 
L 2053 2175 
Q 2913 2066 3209 1816 
Q 3506 1566 3506 1031 
Q 3506 472 3093 190 
Q 2681 -91 1863 -91 
Q 1516 -91 1145 -36 
Q 775 19 384 128 
L 384 978 
Q 719 816 1070 734 
Q 1422 653 1784 653 
Q 2113 653 2278 743 
Q 2444 834 2444 1013 
Q 2444 1163 2330 1236 
Q 2216 1309 1875 1350 
L 1678 1375 
Q 931 1469 631 1722 
Q 331 1975 331 2491 
Q 331 3047 712 3315 
Q 1094 3584 1881 3584 
Q 2191 3584 2531 3537 
Q 2872 3491 3272 3391 
z
" transform="scale(0.015625)"/>
     <path id="DejaVuSans-Bold-6c" d="M 538 4863 
L 1656 4863 
L 1656 0 
L 538 0 
L 538 4863 
z
" transform="scale(0.015625)"/>
     <path id="DejaVuSans-Bold-6f" d="M 2203 2784 
Q 1831 2784 1636 2517 
Q 1441 2250 1441 1747 
Q 1441 1244 1636 976 
Q 1831 709 2203 709 
Q 2569 709 2762 976 
Q 2956 1244 2956 1747 
Q 2956 2250 2762 2517 
Q 2569 2784 2203 2784 
z
M 2203 3584 
Q 3106 3584 3614 3096 
Q 4122 2609 4122 1747 
Q 4122 884 3614 396 
Q 3106 -91 2203 -91 
Q 1297 -91 786 396 
Q 275 884 275 1747 
Q 275 2609 786 3096 
Q 1297 3584 2203 3584 
z
" transform="scale(0.015625)"/>
     <path id="DejaVuSans-Bold-63" d="M 3366 3391 
L 3366 2478 
Q 3138 2634 2908 2709 
Q 2678 2784 2431 2784 
Q 1963 2784 1702 2511 
Q 1441 2238 1441 1747 
Q 1441 1256 1702 982 
Q 1963 709 2431 709 
Q 2694 709 2930 787 
Q 3166 866 3366 1019 
L 3366 103 
Q 3103 6 2833 -42 
Q 2563 -91 2291 -91 
Q 1344 -91 809 395 
Q 275 881 275 1747 
Q 275 2613 809 3098 
Q 1344 3584 2291 3584 
Q 2566 3584 2833 3536 
Q 3100 3488 3366 3391 
z
" transform="scale(0.015625)"/>
     <path id="DejaVuSans-Bold-6b" d="M 538 4863 
L 1656 4863 
L 1656 2216 
L 2944 3500 
L 4244 3500 
L 2534 1894 
L 4378 0 
L 3022 0 
L 1656 1459 
L 1656 0 
L 538 0 
L 538 4863 
z
" transform="scale(0.015625)"/>
     <path id="DejaVuSans-Bold-53" d="M 3834 4519 
L 3834 3531 
Q 3450 3703 3084 3790 
Q 2719 3878 2394 3878 
Q 1963 3878 1756 3759 
Q 1550 3641 1550 3391 
Q 1550 3203 1689 3098 
Q 1828 2994 2194 2919 
L 2706 2816 
Q 3484 2659 3812 2340 
Q 4141 2022 4141 1434 
Q 4141 663 3683 286 
Q 3225 -91 2284 -91 
Q 1841 -91 1394 -6 
Q 947 78 500 244 
L 500 1259 
Q 947 1022 1364 901 
Q 1781 781 2169 781 
Q 2563 781 2772 912 
Q 2981 1044 2981 1288 
Q 2981 1506 2839 1625 
Q 2697 1744 2272 1838 
L 1806 1941 
Q 1106 2091 782 2419 
Q 459 2747 459 3303 
Q 459 4000 909 4375 
Q 1359 4750 2203 4750 
Q 2588 4750 2994 4692 
Q 3400 4634 3834 4519 
z
" transform="scale(0.015625)"/>
     <path id="DejaVuSans-Bold-7a" d="M 366 3500 
L 3419 3500 
L 3419 2719 
L 1575 800 
L 3419 800 
L 3419 0 
L 288 0 
L 288 781 
L 2131 2700 
L 366 2700 
L 366 3500 
z
" transform="scale(0.015625)"/>
    </defs>
    <use xlink:href="#DejaVuSans-Bold-4d"/>
    <use xlink:href="#DejaVuSans-Bold-65" transform="translate(99.511719 0)"/>
    <use xlink:href="#DejaVuSans-Bold-61" transform="translate(167.333984 0)"/>
    <use xlink:href="#DejaVuSans-Bold-6e" transform="translate(234.814453 0)"/>
    <use xlink:href="#DejaVuSans-Bold-20" transform="translate(306.005859 0)"/>
    <use xlink:href="#DejaVuSans-Bold-42" transform="translate(340.820312 0)"/>
    <use xlink:href="#DejaVuSans-Bold-61" transform="translate(417.041016 0)"/>
    <use xlink:href="#DejaVuSans-Bold-6e" transform="translate(484.521484 0)"/>
    <use xlink:href="#DejaVuSans-Bold-64" transform="translate(555.712891 0)"/>
    <use xlink:href="#DejaVuSans-Bold-77" transform="translate(627.294922 0)"/>
    <use xlink:href="#DejaVuSans-Bold-69" transform="translate(719.677734 0)"/>
    <use xlink:href="#DejaVuSans-Bold-64" transform="translate(753.955078 0)"/>
    <use xlink:href="#DejaVuSans-Bold-74" transform="translate(825.537109 0)"/>
    <use xlink:href="#DejaVuSans-Bold-68" transform="translate(873.339844 0)"/>
    <use xlink:href="#DejaVuSans-Bold-20" transform="translate(944.53125 0)"/>
    <use xlink:href="#DejaVuSans-Bold-76" transform="translate(979.345703 0)"/>
    <use xlink:href="#DejaVuSans-Bold-73" transform="translate(1044.53125 0)"/>
    <use xlink:href="#DejaVuSans-Bold-20" transform="translate(1104.052734 0)"/>
    <use xlink:href="#DejaVuSans-Bold-42" transform="translate(1138.867188 0)"/>
    <use xlink:href="#DejaVuSans-Bold-6c" transform="translate(1215.087891 0)"/>
    <use xlink:href="#DejaVuSans-Bold-6f" transform="translate(1249.365234 0)"/>
    <use xlink:href="#DejaVuSans-Bold-63" transform="translate(1318.066406 0)"/>
    <use xlink:href="#DejaVuSans-Bold-6b" transform="translate(1377.34375 0)"/>
    <use xlink:href="#DejaVuSans-Bold-20" transform="translate(1443.847656 0)"/>
    <use xlink:href="#DejaVuSans-Bold-53" transform="translate(1478.662109 0)"/>
    <use xlink:href="#DejaVuSans-Bold-69" transform="translate(1550.683594 0)"/>
    <use xlink:href="#DejaVuSans-Bold-7a" transform="translate(1584.960938 0)"/>
    <use xlink:href="#DejaVuSans-Bold-65" transform="translate(1643.164062 0)"/>
   </g>
  </g>
  <g id="text_29">
   <!-- Number of Jobs = 16, IO Depth = 16 -->
   <g style="fill: #262626; opacity: 0.75" transform="translate(438.205625 43.348438) scale(0.14 -0.14)">
    <defs>
     <path id="DejaVuSans-4e" d="M 628 4666 
L 1478 4666 
L 3547 763 
L 3547 4666 
L 4159 4666 
L 4159 0 
L 3309 0 
L 1241 3903 
L 1241 0 
L 628 0 
L 628 4666 
z
" transform="scale(0.015625)"/>
     <path id="DejaVuSans-62" d="M 3116 1747 
Q 3116 2381 2855 2742 
Q 2594 3103 2138 3103 
Q 1681 3103 1420 2742 
Q 1159 2381 1159 1747 
Q 1159 1113 1420 752 
Q 1681 391 2138 391 
Q 2594 391 2855 752 
Q 3116 1113 3116 1747 
z
M 1159 2969 
Q 1341 3281 1617 3432 
Q 1894 3584 2278 3584 
Q 2916 3584 3314 3078 
Q 3713 2572 3713 1747 
Q 3713 922 3314 415 
Q 2916 -91 2278 -91 
Q 1894 -91 1617 61 
Q 1341 213 1159 525 
L 1159 0 
L 581 0 
L 581 4863 
L 1159 4863 
L 1159 2969 
z
" transform="scale(0.015625)"/>
     <path id="DejaVuSans-72" d="M 2631 2963 
Q 2534 3019 2420 3045 
Q 2306 3072 2169 3072 
Q 1681 3072 1420 2755 
Q 1159 2438 1159 1844 
L 1159 0 
L 581 0 
L 581 3500 
L 1159 3500 
L 1159 2956 
Q 1341 3275 1631 3429 
Q 1922 3584 2338 3584 
Q 2397 3584 2469 3576 
Q 2541 3569 2628 3553 
L 2631 2963 
z
" transform="scale(0.015625)"/>
     <path id="DejaVuSans-66" d="M 2375 4863 
L 2375 4384 
L 1825 4384 
Q 1516 4384 1395 4259 
Q 1275 4134 1275 3809 
L 1275 3500 
L 2222 3500 
L 2222 3053 
L 1275 3053 
L 1275 0 
L 697 0 
L 697 3053 
L 147 3053 
L 147 3500 
L 697 3500 
L 697 3744 
Q 697 4328 969 4595 
Q 1241 4863 1831 4863 
L 2375 4863 
z
" transform="scale(0.015625)"/>
     <path id="DejaVuSans-4a" d="M 628 4666 
L 1259 4666 
L 1259 325 
Q 1259 -519 939 -900 
Q 619 -1281 -91 -1281 
L -331 -1281 
L -331 -750 
L -134 -750 
Q 284 -750 456 -515 
Q 628 -281 628 325 
L 628 4666 
z
" transform="scale(0.015625)"/>
     <path id="DejaVuSans-3d" d="M 678 2906 
L 4684 2906 
L 4684 2381 
L 678 2381 
L 678 2906 
z
M 678 1631 
L 4684 1631 
L 4684 1100 
L 678 1100 
L 678 1631 
z
" transform="scale(0.015625)"/>
     <path id="DejaVuSans-2c" d="M 750 794 
L 1409 794 
L 1409 256 
L 897 -744 
L 494 -744 
L 750 256 
L 750 794 
z
" transform="scale(0.015625)"/>
     <path id="DejaVuSans-49" d="M 628 4666 
L 1259 4666 
L 1259 0 
L 628 0 
L 628 4666 
z
" transform="scale(0.015625)"/>
     <path id="DejaVuSans-4f" d="M 2522 4238 
Q 1834 4238 1429 3725 
Q 1025 3213 1025 2328 
Q 1025 1447 1429 934 
Q 1834 422 2522 422 
Q 3209 422 3611 934 
Q 4013 1447 4013 2328 
Q 4013 3213 3611 3725 
Q 3209 4238 2522 4238 
z
M 2522 4750 
Q 3503 4750 4090 4092 
Q 4678 3434 4678 2328 
Q 4678 1225 4090 567 
Q 3503 -91 2522 -91 
Q 1538 -91 948 565 
Q 359 1222 359 2328 
Q 359 3434 948 4092 
Q 1538 4750 2522 4750 
z
" transform="scale(0.015625)"/>
     <path id="DejaVuSans-44" d="M 1259 4147 
L 1259 519 
L 2022 519 
Q 2988 519 3436 956 
Q 3884 1394 3884 2338 
Q 3884 3275 3436 3711 
Q 2988 4147 2022 4147 
L 1259 4147 
z
M 628 4666 
L 1925 4666 
Q 3281 4666 3915 4102 
Q 4550 3538 4550 2338 
Q 4550 1131 3912 565 
Q 3275 0 1925 0 
L 628 0 
L 628 4666 
z
" transform="scale(0.015625)"/>
     <path id="DejaVuSans-70" d="M 1159 525 
L 1159 -1331 
L 581 -1331 
L 581 3500 
L 1159 3500 
L 1159 2969 
Q 1341 3281 1617 3432 
Q 1894 3584 2278 3584 
Q 2916 3584 3314 3078 
Q 3713 2572 3713 1747 
Q 3713 922 3314 415 
Q 2916 -91 2278 -91 
Q 1894 -91 1617 61 
Q 1341 213 1159 525 
z
M 3116 1747 
Q 3116 2381 2855 2742 
Q 2594 3103 2138 3103 
Q 1681 3103 1420 2742 
Q 1159 2381 1159 1747 
Q 1159 1113 1420 752 
Q 1681 391 2138 391 
Q 2594 391 2855 752 
Q 3116 1113 3116 1747 
z
" transform="scale(0.015625)"/>
    </defs>
    <use xlink:href="#DejaVuSans-4e"/>
    <use xlink:href="#DejaVuSans-75" transform="translate(74.804688 0)"/>
    <use xlink:href="#DejaVuSans-6d" transform="translate(138.183594 0)"/>
    <use xlink:href="#DejaVuSans-62" transform="translate(235.595703 0)"/>
    <use xlink:href="#DejaVuSans-65" transform="translate(299.072266 0)"/>
    <use xlink:href="#DejaVuSans-72" transform="translate(360.595703 0)"/>
    <use xlink:href="#DejaVuSans-20" transform="translate(401.708984 0)"/>
    <use xlink:href="#DejaVuSans-6f" transform="translate(433.496094 0)"/>
    <use xlink:href="#DejaVuSans-66" transform="translate(494.677734 0)"/>
    <use xlink:href="#DejaVuSans-20" transform="translate(529.882812 0)"/>
    <use xlink:href="#DejaVuSans-4a" transform="translate(561.669922 0)"/>
    <use xlink:href="#DejaVuSans-6f" transform="translate(591.162109 0)"/>
    <use xlink:href="#DejaVuSans-62" transform="translate(652.34375 0)"/>
    <use xlink:href="#DejaVuSans-73" transform="translate(715.820312 0)"/>
    <use xlink:href="#DejaVuSans-20" transform="translate(767.919922 0)"/>
    <use xlink:href="#DejaVuSans-3d" transform="translate(799.707031 0)"/>
    <use xlink:href="#DejaVuSans-20" transform="translate(883.496094 0)"/>
    <use xlink:href="#DejaVuSans-31" transform="translate(915.283203 0)"/>
    <use xlink:href="#DejaVuSans-36" transform="translate(978.90625 0)"/>
    <use xlink:href="#DejaVuSans-2c" transform="translate(1042.529297 0)"/>
    <use xlink:href="#DejaVuSans-20" transform="translate(1074.316406 0)"/>
    <use xlink:href="#DejaVuSans-49" transform="translate(1106.103516 0)"/>
    <use xlink:href="#DejaVuSans-4f" transform="translate(1135.595703 0)"/>
    <use xlink:href="#DejaVuSans-20" transform="translate(1214.306641 0)"/>
    <use xlink:href="#DejaVuSans-44" transform="translate(1246.09375 0)"/>
    <use xlink:href="#DejaVuSans-65" transform="translate(1323.095703 0)"/>
    <use xlink:href="#DejaVuSans-70" transform="translate(1384.619141 0)"/>
    <use xlink:href="#DejaVuSans-74" transform="translate(1448.095703 0)"/>
    <use xlink:href="#DejaVuSans-68" transform="translate(1487.304688 0)"/>
    <use xlink:href="#DejaVuSans-20" transform="translate(1550.683594 0)"/>
    <use xlink:href="#DejaVuSans-3d" transform="translate(1582.470703 0)"/>
    <use xlink:href="#DejaVuSans-20" transform="translate(1666.259766 0)"/>
    <use xlink:href="#DejaVuSans-31" transform="translate(1698.046875 0)"/>
    <use xlink:href="#DejaVuSans-36" transform="translate(1761.669922 0)"/>
   </g>
  </g>
  <g id="legend_1">
   <g id="patch_72">
    <path d="M 10.4 619.875625 
L 1121.555 619.875625 
Q 1124.755 619.875625 1124.755 616.675625 
L 1124.755 522.4 
Q 1124.755 519.2 1121.555 519.2 
L 10.4 519.2 
Q 7.2 519.2 7.2 522.4 
L 7.2 616.675625 
Q 7.2 619.875625 10.4 619.875625 
z
" style="fill: #ffffff; opacity: 0.8; stroke: #cccccc; stroke-linejoin: miter"/>
   </g>
   <g id="text_30">
    <!-- Read-Write Type -->
    <g style="fill: #262626" transform="translate(493.185781 539.277188) scale(0.18 -0.18)">
     <defs>
      <path id="DejaVuSans-2d" d="M 313 2009 
L 1997 2009 
L 1997 1497 
L 313 1497 
L 313 2009 
z
" transform="scale(0.015625)"/>
      <path id="DejaVuSans-57" d="M 213 4666 
L 850 4666 
L 1831 722 
L 2809 4666 
L 3519 4666 
L 4500 722 
L 5478 4666 
L 6119 4666 
L 4947 0 
L 4153 0 
L 3169 4050 
L 2175 0 
L 1381 0 
L 213 4666 
z
" transform="scale(0.015625)"/>
      <path id="DejaVuSans-54" d="M -19 4666 
L 3928 4666 
L 3928 4134 
L 2272 4134 
L 2272 0 
L 1638 0 
L 1638 4134 
L -19 4134 
L -19 4666 
z
" transform="scale(0.015625)"/>
      <path id="DejaVuSans-79" d="M 2059 -325 
Q 1816 -950 1584 -1140 
Q 1353 -1331 966 -1331 
L 506 -1331 
L 506 -850 
L 844 -850 
Q 1081 -850 1212 -737 
Q 1344 -625 1503 -206 
L 1606 56 
L 191 3500 
L 800 3500 
L 1894 763 
L 2988 3500 
L 3597 3500 
L 2059 -325 
z
" transform="scale(0.015625)"/>
     </defs>
     <use xlink:href="#DejaVuSans-52"/>
     <use xlink:href="#DejaVuSans-65" transform="translate(64.982422 0)"/>
     <use xlink:href="#DejaVuSans-61" transform="translate(126.505859 0)"/>
     <use xlink:href="#DejaVuSans-64" transform="translate(187.785156 0)"/>
     <use xlink:href="#DejaVuSans-2d" transform="translate(251.261719 0)"/>
     <use xlink:href="#DejaVuSans-57" transform="translate(283.345703 0)"/>
     <use xlink:href="#DejaVuSans-72" transform="translate(377.722656 0)"/>
     <use xlink:href="#DejaVuSans-69" transform="translate(418.835938 0)"/>
     <use xlink:href="#DejaVuSans-74" transform="translate(446.619141 0)"/>
     <use xlink:href="#DejaVuSans-65" transform="translate(485.828125 0)"/>
     <use xlink:href="#DejaVuSans-20" transform="translate(547.351562 0)"/>
     <use xlink:href="#DejaVuSans-54" transform="translate(579.138672 0)"/>
     <use xlink:href="#DejaVuSans-79" transform="translate(624.597656 0)"/>
     <use xlink:href="#DejaVuSans-70" transform="translate(683.777344 0)"/>
     <use xlink:href="#DejaVuSans-65" transform="translate(747.253906 0)"/>
    </g>
   </g>
   <g id="patch_73">
    <path d="M 13.6 563.178125 
L 45.6 563.178125 
L 45.6 551.978125 
L 13.6 551.978125 
z
" style="fill: #5a1591; stroke: #ffffff; stroke-linejoin: miter"/>
   </g>
   <g id="text_31">
    <!-- Sequential Read-only -->
    <g style="fill: #262626" transform="translate(58.4 563.178125) scale(0.16 -0.16)">
     <use xlink:href="#DejaVuSans-53"/>
     <use xlink:href="#DejaVuSans-65" transform="translate(63.476562 0)"/>
     <use xlink:href="#DejaVuSans-71" transform="translate(125 0)"/>
     <use xlink:href="#DejaVuSans-75" transform="translate(188.476562 0)"/>
     <use xlink:href="#DejaVuSans-65" transform="translate(251.855469 0)"/>
     <use xlink:href="#DejaVuSans-6e" transform="translate(313.378906 0)"/>
     <use xlink:href="#DejaVuSans-74" transform="translate(376.757812 0)"/>
     <use xlink:href="#DejaVuSans-69" transform="translate(415.966797 0)"/>
     <use xlink:href="#DejaVuSans-61" transform="translate(443.75 0)"/>
     <use xlink:href="#DejaVuSans-6c" transform="translate(505.029297 0)"/>
     <use xlink:href="#DejaVuSans-20" transform="translate(532.8125 0)"/>
     <use xlink:href="#DejaVuSans-52" transform="translate(564.599609 0)"/>
     <use xlink:href="#DejaVuSans-65" transform="translate(629.582031 0)"/>
     <use xlink:href="#DejaVuSans-61" transform="translate(691.105469 0)"/>
     <use xlink:href="#DejaVuSans-64" transform="translate(752.384766 0)"/>
     <use xlink:href="#DejaVuSans-2d" transform="translate(815.861328 0)"/>
     <use xlink:href="#DejaVuSans-6f" transform="translate(853.820312 0)"/>
     <use xlink:href="#DejaVuSans-6e" transform="translate(915.001953 0)"/>
     <use xlink:href="#DejaVuSans-6c" transform="translate(978.380859 0)"/>
     <use xlink:href="#DejaVuSans-79" transform="translate(1006.164062 0)"/>
    </g>
   </g>
   <g id="patch_74">
    <path d="M 13.6 586.663125 
L 45.6 586.663125 
L 45.6 575.463125 
L 13.6 575.463125 
z
" style="fill: #8b288d; stroke: #ffffff; stroke-linejoin: miter"/>
   </g>
   <g id="text_32">
    <!-- Sequential Read-heavy 4:1 -->
    <g style="fill: #262626" transform="translate(58.4 586.663125) scale(0.16 -0.16)">
     <defs>
      <path id="DejaVuSans-76" d="M 191 3500 
L 800 3500 
L 1894 563 
L 2988 3500 
L 3597 3500 
L 2284 0 
L 1503 0 
L 191 3500 
z
" transform="scale(0.015625)"/>
      <path id="DejaVuSans-3a" d="M 750 794 
L 1409 794 
L 1409 0 
L 750 0 
L 750 794 
z
M 750 3309 
L 1409 3309 
L 1409 2516 
L 750 2516 
L 750 3309 
z
" transform="scale(0.015625)"/>
     </defs>
     <use xlink:href="#DejaVuSans-53"/>
     <use xlink:href="#DejaVuSans-65" transform="translate(63.476562 0)"/>
     <use xlink:href="#DejaVuSans-71" transform="translate(125 0)"/>
     <use xlink:href="#DejaVuSans-75" transform="translate(188.476562 0)"/>
     <use xlink:href="#DejaVuSans-65" transform="translate(251.855469 0)"/>
     <use xlink:href="#DejaVuSans-6e" transform="translate(313.378906 0)"/>
     <use xlink:href="#DejaVuSans-74" transform="translate(376.757812 0)"/>
     <use xlink:href="#DejaVuSans-69" transform="translate(415.966797 0)"/>
     <use xlink:href="#DejaVuSans-61" transform="translate(443.75 0)"/>
     <use xlink:href="#DejaVuSans-6c" transform="translate(505.029297 0)"/>
     <use xlink:href="#DejaVuSans-20" transform="translate(532.8125 0)"/>
     <use xlink:href="#DejaVuSans-52" transform="translate(564.599609 0)"/>
     <use xlink:href="#DejaVuSans-65" transform="translate(629.582031 0)"/>
     <use xlink:href="#DejaVuSans-61" transform="translate(691.105469 0)"/>
     <use xlink:href="#DejaVuSans-64" transform="translate(752.384766 0)"/>
     <use xlink:href="#DejaVuSans-2d" transform="translate(815.861328 0)"/>
     <use xlink:href="#DejaVuSans-68" transform="translate(851.945312 0)"/>
     <use xlink:href="#DejaVuSans-65" transform="translate(915.324219 0)"/>
     <use xlink:href="#DejaVuSans-61" transform="translate(976.847656 0)"/>
     <use xlink:href="#DejaVuSans-76" transform="translate(1038.126953 0)"/>
     <use xlink:href="#DejaVuSans-79" transform="translate(1097.306641 0)"/>
     <use xlink:href="#DejaVuSans-20" transform="translate(1156.486328 0)"/>
     <use xlink:href="#DejaVuSans-34" transform="translate(1188.273438 0)"/>
     <use xlink:href="#DejaVuSans-3a" transform="translate(1251.896484 0)"/>
     <use xlink:href="#DejaVuSans-31" transform="translate(1285.587891 0)"/>
    </g>
   </g>
   <g id="patch_75">
    <path d="M 13.6 610.148125 
L 45.6 610.148125 
L 45.6 598.948125 
L 13.6 598.948125 
z
" style="fill: #bb587c; stroke: #ffffff; stroke-linejoin: miter"/>
   </g>
   <g id="text_33">
    <!-- Sequential Balanced 1:1 -->
    <g style="fill: #262626" transform="translate(58.4 610.148125) scale(0.16 -0.16)">
     <use xlink:href="#DejaVuSans-53"/>
     <use xlink:href="#DejaVuSans-65" transform="translate(63.476562 0)"/>
     <use xlink:href="#DejaVuSans-71" transform="translate(125 0)"/>
     <use xlink:href="#DejaVuSans-75" transform="translate(188.476562 0)"/>
     <use xlink:href="#DejaVuSans-65" transform="translate(251.855469 0)"/>
     <use xlink:href="#DejaVuSans-6e" transform="translate(313.378906 0)"/>
     <use xlink:href="#DejaVuSans-74" transform="translate(376.757812 0)"/>
     <use xlink:href="#DejaVuSans-69" transform="translate(415.966797 0)"/>
     <use xlink:href="#DejaVuSans-61" transform="translate(443.75 0)"/>
     <use xlink:href="#DejaVuSans-6c" transform="translate(505.029297 0)"/>
     <use xlink:href="#DejaVuSans-20" transform="translate(532.8125 0)"/>
     <use xlink:href="#DejaVuSans-42" transform="translate(564.599609 0)"/>
     <use xlink:href="#DejaVuSans-61" transform="translate(633.203125 0)"/>
     <use xlink:href="#DejaVuSans-6c" transform="translate(694.482422 0)"/>
     <use xlink:href="#DejaVuSans-61" transform="translate(722.265625 0)"/>
     <use xlink:href="#DejaVuSans-6e" transform="translate(783.544922 0)"/>
     <use xlink:href="#DejaVuSans-63" transform="translate(846.923828 0)"/>
     <use xlink:href="#DejaVuSans-65" transform="translate(901.904297 0)"/>
     <use xlink:href="#DejaVuSans-64" transform="translate(963.427734 0)"/>
     <use xlink:href="#DejaVuSans-20" transform="translate(1026.904297 0)"/>
     <use xlink:href="#DejaVuSans-31" transform="translate(1058.691406 0)"/>
     <use xlink:href="#DejaVuSans-3a" transform="translate(1122.314453 0)"/>
     <use xlink:href="#DejaVuSans-31" transform="translate(1156.005859 0)"/>
    </g>
   </g>
   <g id="patch_76">
    <path d="M 306.28 563.178125 
L 338.28 563.178125 
L 338.28 551.978125 
L 306.28 551.978125 
z
" style="fill: #da8266; stroke: #ffffff; stroke-linejoin: miter"/>
   </g>
   <g id="text_34">
    <!-- Sequential Write-heavy 1:4 -->
    <g style="fill: #262626" transform="translate(351.08 563.178125) scale(0.16 -0.16)">
     <use xlink:href="#DejaVuSans-53"/>
     <use xlink:href="#DejaVuSans-65" transform="translate(63.476562 0)"/>
     <use xlink:href="#DejaVuSans-71" transform="translate(125 0)"/>
     <use xlink:href="#DejaVuSans-75" transform="translate(188.476562 0)"/>
     <use xlink:href="#DejaVuSans-65" transform="translate(251.855469 0)"/>
     <use xlink:href="#DejaVuSans-6e" transform="translate(313.378906 0)"/>
     <use xlink:href="#DejaVuSans-74" transform="translate(376.757812 0)"/>
     <use xlink:href="#DejaVuSans-69" transform="translate(415.966797 0)"/>
     <use xlink:href="#DejaVuSans-61" transform="translate(443.75 0)"/>
     <use xlink:href="#DejaVuSans-6c" transform="translate(505.029297 0)"/>
     <use xlink:href="#DejaVuSans-20" transform="translate(532.8125 0)"/>
     <use xlink:href="#DejaVuSans-57" transform="translate(564.599609 0)"/>
     <use xlink:href="#DejaVuSans-72" transform="translate(658.976562 0)"/>
     <use xlink:href="#DejaVuSans-69" transform="translate(700.089844 0)"/>
     <use xlink:href="#DejaVuSans-74" transform="translate(727.873047 0)"/>
     <use xlink:href="#DejaVuSans-65" transform="translate(767.082031 0)"/>
     <use xlink:href="#DejaVuSans-2d" transform="translate(828.605469 0)"/>
     <use xlink:href="#DejaVuSans-68" transform="translate(864.689453 0)"/>
     <use xlink:href="#DejaVuSans-65" transform="translate(928.068359 0)"/>
     <use xlink:href="#DejaVuSans-61" transform="translate(989.591797 0)"/>
     <use xlink:href="#DejaVuSans-76" transform="translate(1050.871094 0)"/>
     <use xlink:href="#DejaVuSans-79" transform="translate(1110.050781 0)"/>
     <use xlink:href="#DejaVuSans-20" transform="translate(1169.230469 0)"/>
     <use xlink:href="#DejaVuSans-31" transform="translate(1201.017578 0)"/>
     <use xlink:href="#DejaVuSans-3a" transform="translate(1264.640625 0)"/>
     <use xlink:href="#DejaVuSans-34" transform="translate(1298.332031 0)"/>
    </g>
   </g>
   <g id="patch_77">
    <path d="M 306.28 586.663125 
L 338.28 586.663125 
L 338.28 575.463125 
L 306.28 575.463125 
z
" style="fill: #e4ac49; stroke: #ffffff; stroke-linejoin: miter"/>
   </g>
   <g id="text_35">
    <!-- Sequential Write-only -->
    <g style="fill: #262626" transform="translate(351.08 586.663125) scale(0.16 -0.16)">
     <use xlink:href="#DejaVuSans-53"/>
     <use xlink:href="#DejaVuSans-65" transform="translate(63.476562 0)"/>
     <use xlink:href="#DejaVuSans-71" transform="translate(125 0)"/>
     <use xlink:href="#DejaVuSans-75" transform="translate(188.476562 0)"/>
     <use xlink:href="#DejaVuSans-65" transform="translate(251.855469 0)"/>
     <use xlink:href="#DejaVuSans-6e" transform="translate(313.378906 0)"/>
     <use xlink:href="#DejaVuSans-74" transform="translate(376.757812 0)"/>
     <use xlink:href="#DejaVuSans-69" transform="translate(415.966797 0)"/>
     <use xlink:href="#DejaVuSans-61" transform="translate(443.75 0)"/>
     <use xlink:href="#DejaVuSans-6c" transform="translate(505.029297 0)"/>
     <use xlink:href="#DejaVuSans-20" transform="translate(532.8125 0)"/>
     <use xlink:href="#DejaVuSans-57" transform="translate(564.599609 0)"/>
     <use xlink:href="#DejaVuSans-72" transform="translate(658.976562 0)"/>
     <use xlink:href="#DejaVuSans-69" transform="translate(700.089844 0)"/>
     <use xlink:href="#DejaVuSans-74" transform="translate(727.873047 0)"/>
     <use xlink:href="#DejaVuSans-65" transform="translate(767.082031 0)"/>
     <use xlink:href="#DejaVuSans-2d" transform="translate(828.605469 0)"/>
     <use xlink:href="#DejaVuSans-6f" transform="translate(866.564453 0)"/>
     <use xlink:href="#DejaVuSans-6e" transform="translate(927.746094 0)"/>
     <use xlink:href="#DejaVuSans-6c" transform="translate(991.125 0)"/>
     <use xlink:href="#DejaVuSans-79" transform="translate(1018.908203 0)"/>
    </g>
   </g>
   <g id="patch_78">
    <path d="M 306.28 610.148125 
L 338.28 610.148125 
L 338.28 598.948125 
L 306.28 598.948125 
z
" style="fill: #332741; stroke: #ffffff; stroke-linejoin: miter"/>
   </g>
   <g id="text_36">
    <!-- Random Read-only -->
    <g style="fill: #262626" transform="translate(351.08 610.148125) scale(0.16 -0.16)">
     <use xlink:href="#DejaVuSans-52"/>
     <use xlink:href="#DejaVuSans-61" transform="translate(67.232422 0)"/>
     <use xlink:href="#DejaVuSans-6e" transform="translate(128.511719 0)"/>
     <use xlink:href="#DejaVuSans-64" transform="translate(191.890625 0)"/>
     <use xlink:href="#DejaVuSans-6f" transform="translate(255.367188 0)"/>
     <use xlink:href="#DejaVuSans-6d" transform="translate(316.548828 0)"/>
     <use xlink:href="#DejaVuSans-20" transform="translate(413.960938 0)"/>
     <use xlink:href="#DejaVuSans-52" transform="translate(445.748047 0)"/>
     <use xlink:href="#DejaVuSans-65" transform="translate(510.730469 0)"/>
     <use xlink:href="#DejaVuSans-61" transform="translate(572.253906 0)"/>
     <use xlink:href="#DejaVuSans-64" transform="translate(633.533203 0)"/>
     <use xlink:href="#DejaVuSans-2d" transform="translate(697.009766 0)"/>
     <use xlink:href="#DejaVuSans-6f" transform="translate(734.96875 0)"/>
     <use xlink:href="#DejaVuSans-6e" transform="translate(796.150391 0)"/>
     <use xlink:href="#DejaVuSans-6c" transform="translate(859.529297 0)"/>
     <use xlink:href="#DejaVuSans-79" transform="translate(887.3125 0)"/>
    </g>
   </g>
   <g id="patch_79">
    <path d="M 600.995 563.178125 
L 632.995 563.178125 
L 632.995 551.978125 
L 600.995 551.978125 
z
" style="fill: #495084; stroke: #ffffff; stroke-linejoin: miter"/>
   </g>
   <g id="text_37">
    <!-- Random Read-heavy 4:1 -->
    <g style="fill: #262626" transform="translate(645.795 563.178125) scale(0.16 -0.16)">
     <use xlink:href="#DejaVuSans-52"/>
     <use xlink:href="#DejaVuSans-61" transform="translate(67.232422 0)"/>
     <use xlink:href="#DejaVuSans-6e" transform="translate(128.511719 0)"/>
     <use xlink:href="#DejaVuSans-64" transform="translate(191.890625 0)"/>
     <use xlink:href="#DejaVuSans-6f" transform="translate(255.367188 0)"/>
     <use xlink:href="#DejaVuSans-6d" transform="translate(316.548828 0)"/>
     <use xlink:href="#DejaVuSans-20" transform="translate(413.960938 0)"/>
     <use xlink:href="#DejaVuSans-52" transform="translate(445.748047 0)"/>
     <use xlink:href="#DejaVuSans-65" transform="translate(510.730469 0)"/>
     <use xlink:href="#DejaVuSans-61" transform="translate(572.253906 0)"/>
     <use xlink:href="#DejaVuSans-64" transform="translate(633.533203 0)"/>
     <use xlink:href="#DejaVuSans-2d" transform="translate(697.009766 0)"/>
     <use xlink:href="#DejaVuSans-68" transform="translate(733.09375 0)"/>
     <use xlink:href="#DejaVuSans-65" transform="translate(796.472656 0)"/>
     <use xlink:href="#DejaVuSans-61" transform="translate(857.996094 0)"/>
     <use xlink:href="#DejaVuSans-76" transform="translate(919.275391 0)"/>
     <use xlink:href="#DejaVuSans-79" transform="translate(978.455078 0)"/>
     <use xlink:href="#DejaVuSans-20" transform="translate(1037.634766 0)"/>
     <use xlink:href="#DejaVuSans-34" transform="translate(1069.421875 0)"/>
     <use xlink:href="#DejaVuSans-3a" transform="translate(1133.044922 0)"/>
     <use xlink:href="#DejaVuSans-31" transform="translate(1166.736328 0)"/>
    </g>
   </g>
   <g id="patch_80">
    <path d="M 600.995 586.663125 
L 632.995 586.663125 
L 632.995 575.463125 
L 600.995 575.463125 
z
" style="fill: #437795; stroke: #ffffff; stroke-linejoin: miter"/>
   </g>
   <g id="text_38">
    <!-- Random Balanced 1:1 -->
    <g style="fill: #262626" transform="translate(645.795 586.663125) scale(0.16 -0.16)">
     <use xlink:href="#DejaVuSans-52"/>
     <use xlink:href="#DejaVuSans-61" transform="translate(67.232422 0)"/>
     <use xlink:href="#DejaVuSans-6e" transform="translate(128.511719 0)"/>
     <use xlink:href="#DejaVuSans-64" transform="translate(191.890625 0)"/>
     <use xlink:href="#DejaVuSans-6f" transform="translate(255.367188 0)"/>
     <use xlink:href="#DejaVuSans-6d" transform="translate(316.548828 0)"/>
     <use xlink:href="#DejaVuSans-20" transform="translate(413.960938 0)"/>
     <use xlink:href="#DejaVuSans-42" transform="translate(445.748047 0)"/>
     <use xlink:href="#DejaVuSans-61" transform="translate(514.351562 0)"/>
     <use xlink:href="#DejaVuSans-6c" transform="translate(575.630859 0)"/>
     <use xlink:href="#DejaVuSans-61" transform="translate(603.414062 0)"/>
     <use xlink:href="#DejaVuSans-6e" transform="translate(664.693359 0)"/>
     <use xlink:href="#DejaVuSans-63" transform="translate(728.072266 0)"/>
     <use xlink:href="#DejaVuSans-65" transform="translate(783.052734 0)"/>
     <use xlink:href="#DejaVuSans-64" transform="translate(844.576172 0)"/>
     <use xlink:href="#DejaVuSans-20" transform="translate(908.052734 0)"/>
     <use xlink:href="#DejaVuSans-31" transform="translate(939.839844 0)"/>
     <use xlink:href="#DejaVuSans-3a" transform="translate(1003.462891 0)"/>
     <use xlink:href="#DejaVuSans-31" transform="translate(1037.154297 0)"/>
    </g>
   </g>
   <g id="patch_81">
    <path d="M 874.6575 563.178125 
L 906.6575 563.178125 
L 906.6575 551.978125 
L 874.6575 551.978125 
z
" style="fill: #479c9e; stroke: #ffffff; stroke-linejoin: miter"/>
   </g>
   <g id="text_39">
    <!-- Random Write-heavy 1:4 -->
    <g style="fill: #262626" transform="translate(919.4575 563.178125) scale(0.16 -0.16)">
     <use xlink:href="#DejaVuSans-52"/>
     <use xlink:href="#DejaVuSans-61" transform="translate(67.232422 0)"/>
     <use xlink:href="#DejaVuSans-6e" transform="translate(128.511719 0)"/>
     <use xlink:href="#DejaVuSans-64" transform="translate(191.890625 0)"/>
     <use xlink:href="#DejaVuSans-6f" transform="translate(255.367188 0)"/>
     <use xlink:href="#DejaVuSans-6d" transform="translate(316.548828 0)"/>
     <use xlink:href="#DejaVuSans-20" transform="translate(413.960938 0)"/>
     <use xlink:href="#DejaVuSans-57" transform="translate(445.748047 0)"/>
     <use xlink:href="#DejaVuSans-72" transform="translate(540.125 0)"/>
     <use xlink:href="#DejaVuSans-69" transform="translate(581.238281 0)"/>
     <use xlink:href="#DejaVuSans-74" transform="translate(609.021484 0)"/>
     <use xlink:href="#DejaVuSans-65" transform="translate(648.230469 0)"/>
     <use xlink:href="#DejaVuSans-2d" transform="translate(709.753906 0)"/>
     <use xlink:href="#DejaVuSans-68" transform="translate(745.837891 0)"/>
     <use xlink:href="#DejaVuSans-65" transform="translate(809.216797 0)"/>
     <use xlink:href="#DejaVuSans-61" transform="translate(870.740234 0)"/>
     <use xlink:href="#DejaVuSans-76" transform="translate(932.019531 0)"/>
     <use xlink:href="#DejaVuSans-79" transform="translate(991.199219 0)"/>
     <use xlink:href="#DejaVuSans-20" transform="translate(1050.378906 0)"/>
     <use xlink:href="#DejaVuSans-31" transform="translate(1082.166016 0)"/>
     <use xlink:href="#DejaVuSans-3a" transform="translate(1145.789062 0)"/>
     <use xlink:href="#DejaVuSans-34" transform="translate(1179.480469 0)"/>
    </g>
   </g>
   <g id="patch_82">
    <path d="M 874.6575 586.663125 
L 906.6575 586.663125 
L 906.6575 575.463125 
L 874.6575 575.463125 
z
" style="fill: #85caad; stroke: #ffffff; stroke-linejoin: miter"/>
   </g>
   <g id="text_40">
    <!-- Random Write-only -->
    <g style="fill: #262626" transform="translate(919.4575 586.663125) scale(0.16 -0.16)">
     <use xlink:href="#DejaVuSans-52"/>
     <use xlink:href="#DejaVuSans-61" transform="translate(67.232422 0)"/>
     <use xlink:href="#DejaVuSans-6e" transform="translate(128.511719 0)"/>
     <use xlink:href="#DejaVuSans-64" transform="translate(191.890625 0)"/>
     <use xlink:href="#DejaVuSans-6f" transform="translate(255.367188 0)"/>
     <use xlink:href="#DejaVuSans-6d" transform="translate(316.548828 0)"/>
     <use xlink:href="#DejaVuSans-20" transform="translate(413.960938 0)"/>
     <use xlink:href="#DejaVuSans-57" transform="translate(445.748047 0)"/>
     <use xlink:href="#DejaVuSans-72" transform="translate(540.125 0)"/>
     <use xlink:href="#DejaVuSans-69" transform="translate(581.238281 0)"/>
     <use xlink:href="#DejaVuSans-74" transform="translate(609.021484 0)"/>
     <use xlink:href="#DejaVuSans-65" transform="translate(648.230469 0)"/>
     <use xlink:href="#DejaVuSans-2d" transform="translate(709.753906 0)"/>
     <use xlink:href="#DejaVuSans-6f" transform="translate(747.712891 0)"/>
     <use xlink:href="#DejaVuSans-6e" transform="translate(808.894531 0)"/>
     <use xlink:href="#DejaVuSans-6c" transform="translate(872.273438 0)"/>
     <use xlink:href="#DejaVuSans-79" transform="translate(900.056641 0)"/>
    </g>
   </g>
  </g>
 </g>
 <defs>
  <clipPath id="paaf7f96aaa">
   <rect x="85.7575" y="74.4" width="486.9" height="381.16"/>
  </clipPath>
  <clipPath id="p04c4833220">
   <rect x="608.2775" y="74.4" width="486.9" height="381.16"/>
  </clipPath>
 </defs>
</svg>
