<?xml version="1.0" encoding="utf-8" standalone="no"?>
<!DOCTYPE svg PUBLIC "-//W3C//DTD SVG 1.1//EN"
  "http://www.w3.org/Graphics/SVG/1.1/DTD/svg11.dtd">
<svg xmlns:xlink="http://www.w3.org/1999/xlink" width="1062.934232pt" height="397.077969pt" viewBox="0 0 1062.934232 397.077969" xmlns="http://www.w3.org/2000/svg" version="1.1">
 <metadata>
  <rdf:RDF xmlns:dc="http://purl.org/dc/elements/1.1/" xmlns:cc="http://creativecommons.org/ns#" xmlns:rdf="http://www.w3.org/1999/02/22-rdf-syntax-ns#">
   <cc:Work>
    <dc:type rdf:resource="http://purl.org/dc/dcmitype/StillImage"/>
    <dc:date>2026-03-20T21:05:01.436246</dc:date>
    <dc:format>image/svg+xml</dc:format>
    <dc:creator>
     <cc:Agent>
      <dc:title>Matplotlib v3.10.8, https://matplotlib.org/</dc:title>
     </cc:Agent>
    </dc:creator>
   </cc:Work>
  </rdf:RDF>
 </metadata>
 <defs>
  <style type="text/css">*{stroke-linejoin: round; stroke-linecap: butt}</style>
 </defs>
 <g id="figure_1">
  <g id="patch_1">
   <path d="M 0 397.077969 
L 1062.934232 397.077969 
L 1062.934232 0 
L 0 0 
z
" style="fill: #ffffff"/>
  </g>
  <g id="axes_1">
   <g id="patch_2">
    <path d="M 64.30875 290.577969 
L 547.024232 290.577969 
L 547.024232 25.077969 
L 64.30875 25.077969 
z
" style="fill: #fafafa"/>
   </g>
   <g id="matplotlib.axis_1">
    <g id="xtick_1">
     <g id="line2d_1">
      <path d="M 86.250363 290.577969 
L 86.250363 25.077969 
" clip-path="url(#pc413adc16d)" style="fill: none; stroke: #e0e0e0; stroke-width: 0.8; stroke-linecap: round"/>
     </g>
     <g id="line2d_2">
      <defs>
       <path id="mce09bf063c" d="M 0 0 
L 0 4 
" style="stroke: #aaaaaa"/>
      </defs>
      <g>
       <use xlink:href="#mce09bf063c" x="86.250363" y="290.577969" style="fill: #aaaaaa; stroke: #aaaaaa"/>
      </g>
     </g>
     <g id="text_1">
      <!-- 6 -->
      <g style="fill: #262626" transform="translate(82.750988 306.43625) scale(0.11 -0.11)">
       <defs>
        <path id="DejaVuSans-36" d="M 2113 2584 
Q 1688 2584 1439 2293 
Q 1191 2003 1191 1497 
Q 1191 994 1439 701 
Q 1688 409 2113 409 
Q 2538 409 2786 701 
Q 3034 994 3034 1497 
Q 3034 2003 2786 2293 
Q 2538 2584 2113 2584 
z
M 3366 4563 
L 3366 3988 
Q 3128 4100 2886 4159 
Q 2644 4219 2406 4219 
Q 1781 4219 1451 3797 
Q 1122 3375 1075 2522 
Q 1259 2794 1537 2939 
Q 1816 3084 2150 3084 
Q 2853 3084 3261 2657 
Q 3669 2231 3669 1497 
Q 3669 778 3244 343 
Q 2819 -91 2113 -91 
Q 1303 -91 875 529 
Q 447 1150 447 2328 
Q 447 3434 972 4092 
Q 1497 4750 2381 4750 
Q 2619 4750 2861 4703 
Q 3103 4656 3366 4563 
z
" transform="scale(0.015625)"/>
       </defs>
       <use xlink:href="#DejaVuSans-36"/>
      </g>
     </g>
    </g>
    <g id="xtick_2">
     <g id="line2d_3">
      <path d="M 107.147137 290.577969 
L 107.147137 25.077969 
" clip-path="url(#pc413adc16d)" style="fill: none; stroke: #e0e0e0; stroke-width: 0.8; stroke-linecap: round"/>
     </g>
     <g id="line2d_4">
      <g>
       <use xlink:href="#mce09bf063c" x="107.147137" y="290.577969" style="fill: #aaaaaa; stroke: #aaaaaa"/>
      </g>
     </g>
     <g id="text_2">
      <!-- 8 -->
      <g style="fill: #262626" transform="translate(103.647762 306.43625) scale(0.11 -0.11)">
       <defs>
        <path id="DejaVuSans-38" d="M 2034 2216 
Q 1584 2216 1326 1975 
Q 1069 1734 1069 1313 
Q 1069 891 1326 650 
Q 1584 409 2034 409 
Q 2484 409 2743 651 
Q 3003 894 3003 1313 
Q 3003 1734 2745 1975 
Q 2488 2216 2034 2216 
z
M 1403 2484 
Q 997 2584 770 2862 
Q 544 3141 544 3541 
Q 544 4100 942 4425 
Q 1341 4750 2034 4750 
Q 2731 4750 3128 4425 
Q 3525 4100 3525 3541 
Q 3525 3141 3298 2862 
Q 3072 2584 2669 2484 
Q 3125 2378 3379 2068 
Q 3634 1759 3634 1313 
Q 3634 634 3220 271 
Q 2806 -91 2034 -91 
Q 1263 -91 848 271 
Q 434 634 434 1313 
Q 434 1759 690 2068 
Q 947 2378 1403 2484 
z
M 1172 3481 
Q 1172 3119 1398 2916 
Q 1625 2713 2034 2713 
Q 2441 2713 2670 2916 
Q 2900 3119 2900 3481 
Q 2900 3844 2670 4047 
Q 2441 4250 2034 4250 
Q 1625 4250 1398 4047 
Q 1172 3844 1172 3481 
z
" transform="scale(0.015625)"/>
       </defs>
       <use xlink:href="#DejaVuSans-38"/>
      </g>
     </g>
    </g>
    <g id="xtick_3">
     <g id="line2d_5">
      <path d="M 190.734233 290.577969 
L 190.734233 25.077969 
" clip-path="url(#pc413adc16d)" style="fill: none; stroke: #e0e0e0; stroke-width: 0.8; stroke-linecap: round"/>
     </g>
     <g id="line2d_6">
      <g>
       <use xlink:href="#mce09bf063c" x="190.734233" y="290.577969" style="fill: #aaaaaa; stroke: #aaaaaa"/>
      </g>
     </g>
     <g id="text_3">
      <!-- 16 -->
      <g style="fill: #262626" transform="translate(183.735483 306.43625) scale(0.11 -0.11)">
       <defs>
        <path id="DejaVuSans-31" d="M 794 531 
L 1825 531 
L 1825 4091 
L 703 3866 
L 703 4441 
L 1819 4666 
L 2450 4666 
L 2450 531 
L 3481 531 
L 3481 0 
L 794 0 
L 794 531 
z
" transform="scale(0.015625)"/>
       </defs>
       <use xlink:href="#DejaVuSans-31"/>
       <use xlink:href="#DejaVuSans-36" transform="translate(63.623047 0)"/>
      </g>
     </g>
    </g>
    <g id="xtick_4">
     <g id="line2d_7">
      <path d="M 357.908426 290.577969 
L 357.908426 25.077969 
" clip-path="url(#pc413adc16d)" style="fill: none; stroke: #e0e0e0; stroke-width: 0.8; stroke-linecap: round"/>
     </g>
     <g id="line2d_8">
      <g>
       <use xlink:href="#mce09bf063c" x="357.908426" y="290.577969" style="fill: #aaaaaa; stroke: #aaaaaa"/>
      </g>
     </g>
     <g id="text_4">
      <!-- 32 -->
      <g style="fill: #262626" transform="translate(350.909676 306.43625) scale(0.11 -0.11)">
       <defs>
        <path id="DejaVuSans-33" d="M 2597 2516 
Q 3050 2419 3304 2112 
Q 3559 1806 3559 1356 
Q 3559 666 3084 287 
Q 2609 -91 1734 -91 
Q 1441 -91 1130 -33 
Q 819 25 488 141 
L 488 750 
Q 750 597 1062 519 
Q 1375 441 1716 441 
Q 2309 441 2620 675 
Q 2931 909 2931 1356 
Q 2931 1769 2642 2001 
Q 2353 2234 1838 2234 
L 1294 2234 
L 1294 2753 
L 1863 2753 
Q 2328 2753 2575 2939 
Q 2822 3125 2822 3475 
Q 2822 3834 2567 4026 
Q 2313 4219 1838 4219 
Q 1578 4219 1281 4162 
Q 984 4106 628 3988 
L 628 4550 
Q 988 4650 1302 4700 
Q 1616 4750 1894 4750 
Q 2613 4750 3031 4423 
Q 3450 4097 3450 3541 
Q 3450 3153 3228 2886 
Q 3006 2619 2597 2516 
z
" transform="scale(0.015625)"/>
        <path id="DejaVuSans-32" d="M 1228 531 
L 3431 531 
L 3431 0 
L 469 0 
L 469 531 
Q 828 903 1448 1529 
Q 2069 2156 2228 2338 
Q 2531 2678 2651 2914 
Q 2772 3150 2772 3378 
Q 2772 3750 2511 3984 
Q 2250 4219 1831 4219 
Q 1534 4219 1204 4116 
Q 875 4013 500 3803 
L 500 4441 
Q 881 4594 1212 4672 
Q 1544 4750 1819 4750 
Q 2544 4750 2975 4387 
Q 3406 4025 3406 3419 
Q 3406 3131 3298 2873 
Q 3191 2616 2906 2266 
Q 2828 2175 2409 1742 
Q 1991 1309 1228 531 
z
" transform="scale(0.015625)"/>
       </defs>
       <use xlink:href="#DejaVuSans-33"/>
       <use xlink:href="#DejaVuSans-32" transform="translate(63.623047 0)"/>
      </g>
     </g>
    </g>
    <g id="xtick_5">
     <g id="line2d_9">
      <path d="M 525.082619 290.577969 
L 525.082619 25.077969 
" clip-path="url(#pc413adc16d)" style="fill: none; stroke: #e0e0e0; stroke-width: 0.8; stroke-linecap: round"/>
     </g>
     <g id="line2d_10">
      <g>
       <use xlink:href="#mce09bf063c" x="525.082619" y="290.577969" style="fill: #aaaaaa; stroke: #aaaaaa"/>
      </g>
     </g>
     <g id="text_5">
      <!-- 48 -->
      <g style="fill: #262626" transform="translate(518.083869 306.43625) scale(0.11 -0.11)">
       <defs>
        <path id="DejaVuSans-34" d="M 2419 4116 
L 825 1625 
L 2419 1625 
L 2419 4116 
z
M 2253 4666 
L 3047 4666 
L 3047 1625 
L 3713 1625 
L 3713 1100 
L 3047 1100 
L 3047 0 
L 2419 0 
L 2419 1100 
L 313 1100 
L 313 1709 
L 2253 4666 
z
" transform="scale(0.015625)"/>
       </defs>
       <use xlink:href="#DejaVuSans-34"/>
       <use xlink:href="#DejaVuSans-38" transform="translate(63.623047 0)"/>
      </g>
     </g>
    </g>
    <g id="text_6">
     <!-- Tasks per Node -->
     <g style="fill: #262626" transform="translate(260.147116 327.842031) scale(0.12 -0.12)">
      <defs>
       <path id="DejaVuSans-54" d="M -19 4666 
L 3928 4666 
L 3928 4134 
L 2272 4134 
L 2272 0 
L 1638 0 
L 1638 4134 
L -19 4134 
L -19 4666 
z
" transform="scale(0.015625)"/>
       <path id="DejaVuSans-61" d="M 2194 1759 
Q 1497 1759 1228 1600 
Q 959 1441 959 1056 
Q 959 750 1161 570 
Q 1363 391 1709 391 
Q 2188 391 2477 730 
Q 2766 1069 2766 1631 
L 2766 1759 
L 2194 1759 
z
M 3341 1997 
L 3341 0 
L 2766 0 
L 2766 531 
Q 2569 213 2275 61 
Q 1981 -91 1556 -91 
Q 1019 -91 701 211 
Q 384 513 384 1019 
Q 384 1609 779 1909 
Q 1175 2209 1959 2209 
L 2766 2209 
L 2766 2266 
Q 2766 2663 2505 2880 
Q 2244 3097 1772 3097 
Q 1472 3097 1187 3025 
Q 903 2953 641 2809 
L 641 3341 
Q 956 3463 1253 3523 
Q 1550 3584 1831 3584 
Q 2591 3584 2966 3190 
Q 3341 2797 3341 1997 
z
" transform="scale(0.015625)"/>
       <path id="DejaVuSans-73" d="M 2834 3397 
L 2834 2853 
Q 2591 2978 2328 3040 
Q 2066 3103 1784 3103 
Q 1356 3103 1142 2972 
Q 928 2841 928 2578 
Q 928 2378 1081 2264 
Q 1234 2150 1697 2047 
L 1894 2003 
Q 2506 1872 2764 1633 
Q 3022 1394 3022 966 
Q 3022 478 2636 193 
Q 2250 -91 1575 -91 
Q 1294 -91 989 -36 
Q 684 19 347 128 
L 347 722 
Q 666 556 975 473 
Q 1284 391 1588 391 
Q 1994 391 2212 530 
Q 2431 669 2431 922 
Q 2431 1156 2273 1281 
Q 2116 1406 1581 1522 
L 1381 1569 
Q 847 1681 609 1914 
Q 372 2147 372 2553 
Q 372 3047 722 3315 
Q 1072 3584 1716 3584 
Q 2034 3584 2315 3537 
Q 2597 3491 2834 3397 
z
" transform="scale(0.015625)"/>
       <path id="DejaVuSans-6b" d="M 581 4863 
L 1159 4863 
L 1159 1991 
L 2875 3500 
L 3609 3500 
L 1753 1863 
L 3688 0 
L 2938 0 
L 1159 1709 
L 1159 0 
L 581 0 
L 581 4863 
z
" transform="scale(0.015625)"/>
       <path id="DejaVuSans-20" transform="scale(0.015625)"/>
       <path id="DejaVuSans-70" d="M 1159 525 
L 1159 -1331 
L 581 -1331 
L 581 3500 
L 1159 3500 
L 1159 2969 
Q 1341 3281 1617 3432 
Q 1894 3584 2278 3584 
Q 2916 3584 3314 3078 
Q 3713 2572 3713 1747 
Q 3713 922 3314 415 
Q 2916 -91 2278 -91 
Q 1894 -91 1617 61 
Q 1341 213 1159 525 
z
M 3116 1747 
Q 3116 2381 2855 2742 
Q 2594 3103 2138 3103 
Q 1681 3103 1420 2742 
Q 1159 2381 1159 1747 
Q 1159 1113 1420 752 
Q 1681 391 2138 391 
Q 2594 391 2855 752 
Q 3116 1113 3116 1747 
z
" transform="scale(0.015625)"/>
       <path id="DejaVuSans-65" d="M 3597 1894 
L 3597 1613 
L 953 1613 
Q 991 1019 1311 708 
Q 1631 397 2203 397 
Q 2534 397 2845 478 
Q 3156 559 3463 722 
L 3463 178 
Q 3153 47 2828 -22 
Q 2503 -91 2169 -91 
Q 1331 -91 842 396 
Q 353 884 353 1716 
Q 353 2575 817 3079 
Q 1281 3584 2069 3584 
Q 2775 3584 3186 3129 
Q 3597 2675 3597 1894 
z
M 3022 2063 
Q 3016 2534 2758 2815 
Q 2500 3097 2075 3097 
Q 1594 3097 1305 2825 
Q 1016 2553 972 2059 
L 3022 2063 
z
" transform="scale(0.015625)"/>
       <path id="DejaVuSans-72" d="M 2631 2963 
Q 2534 3019 2420 3045 
Q 2306 3072 2169 3072 
Q 1681 3072 1420 2755 
Q 1159 2438 1159 1844 
L 1159 0 
L 581 0 
L 581 3500 
L 1159 3500 
L 1159 2956 
Q 1341 3275 1631 3429 
Q 1922 3584 2338 3584 
Q 2397 3584 2469 3576 
Q 2541 3569 2628 3553 
L 2631 2963 
z
" transform="scale(0.015625)"/>
       <path id="DejaVuSans-4e" d="M 628 4666 
L 1478 4666 
L 3547 763 
L 3547 4666 
L 4159 4666 
L 4159 0 
L 3309 0 
L 1241 3903 
L 1241 0 
L 628 0 
L 628 4666 
z
" transform="scale(0.015625)"/>
       <path id="DejaVuSans-6f" d="M 1959 3097 
Q 1497 3097 1228 2736 
Q 959 2375 959 1747 
Q 959 1119 1226 758 
Q 1494 397 1959 397 
Q 2419 397 2687 759 
Q 2956 1122 2956 1747 
Q 2956 2369 2687 2733 
Q 2419 3097 1959 3097 
z
M 1959 3584 
Q 2709 3584 3137 3096 
Q 3566 2609 3566 1747 
Q 3566 888 3137 398 
Q 2709 -91 1959 -91 
Q 1206 -91 779 398 
Q 353 888 353 1747 
Q 353 2609 779 3096 
Q 1206 3584 1959 3584 
z
" transform="scale(0.015625)"/>
       <path id="DejaVuSans-64" d="M 2906 2969 
L 2906 4863 
L 3481 4863 
L 3481 0 
L 2906 0 
L 2906 525 
Q 2725 213 2448 61 
Q 2172 -91 1784 -91 
Q 1150 -91 751 415 
Q 353 922 353 1747 
Q 353 2572 751 3078 
Q 1150 3584 1784 3584 
Q 2172 3584 2448 3432 
Q 2725 3281 2906 2969 
z
M 947 1747 
Q 947 1113 1208 752 
Q 1469 391 1925 391 
Q 2381 391 2643 752 
Q 2906 1113 2906 1747 
Q 2906 2381 2643 2742 
Q 2381 3103 1925 3103 
Q 1469 3103 1208 2742 
Q 947 2381 947 1747 
z
" transform="scale(0.015625)"/>
      </defs>
      <use xlink:href="#DejaVuSans-54"/>
      <use xlink:href="#DejaVuSans-61" transform="translate(44.583984 0)"/>
      <use xlink:href="#DejaVuSans-73" transform="translate(105.863281 0)"/>
      <use xlink:href="#DejaVuSans-6b" transform="translate(157.962891 0)"/>
      <use xlink:href="#DejaVuSans-73" transform="translate(215.873047 0)"/>
      <use xlink:href="#DejaVuSans-20" transform="translate(267.972656 0)"/>
      <use xlink:href="#DejaVuSans-70" transform="translate(299.759766 0)"/>
      <use xlink:href="#DejaVuSans-65" transform="translate(363.236328 0)"/>
      <use xlink:href="#DejaVuSans-72" transform="translate(424.759766 0)"/>
      <use xlink:href="#DejaVuSans-20" transform="translate(465.873047 0)"/>
      <use xlink:href="#DejaVuSans-4e" transform="translate(497.660156 0)"/>
      <use xlink:href="#DejaVuSans-6f" transform="translate(572.464844 0)"/>
      <use xlink:href="#DejaVuSans-64" transform="translate(633.646484 0)"/>
      <use xlink:href="#DejaVuSans-65" transform="translate(697.123047 0)"/>
     </g>
    </g>
   </g>
   <g id="matplotlib.axis_2">
    <g id="ytick_1">
     <g id="line2d_11">
      <path d="M 64.30875 280.47321 
L 547.024232 280.47321 
" clip-path="url(#pc413adc16d)" style="fill: none; stroke: #e0e0e0; stroke-width: 0.8; stroke-linecap: round"/>
     </g>
     <g id="line2d_12">
      <defs>
       <path id="m853926ea39" d="M 0 0 
L -4 0 
" style="stroke: #aaaaaa"/>
      </defs>
      <g>
       <use xlink:href="#m853926ea39" x="64.30875" y="280.47321" style="fill: #aaaaaa; stroke: #aaaaaa"/>
      </g>
     </g>
     <g id="text_7">
      <!-- 0 -->
      <g style="fill: #262626" transform="translate(49.81 284.65235) scale(0.11 -0.11)">
       <defs>
        <path id="DejaVuSans-30" d="M 2034 4250 
Q 1547 4250 1301 3770 
Q 1056 3291 1056 2328 
Q 1056 1369 1301 889 
Q 1547 409 2034 409 
Q 2525 409 2770 889 
Q 3016 1369 3016 2328 
Q 3016 3291 2770 3770 
Q 2525 4250 2034 4250 
z
M 2034 4750 
Q 2819 4750 3233 4129 
Q 3647 3509 3647 2328 
Q 3647 1150 3233 529 
Q 2819 -91 2034 -91 
Q 1250 -91 836 529 
Q 422 1150 422 2328 
Q 422 3509 836 4129 
Q 1250 4750 2034 4750 
z
" transform="scale(0.015625)"/>
       </defs>
       <use xlink:href="#DejaVuSans-30"/>
      </g>
     </g>
    </g>
    <g id="ytick_2">
     <g id="line2d_13">
      <path d="M 64.30875 222.426099 
L 547.024232 222.426099 
" clip-path="url(#pc413adc16d)" style="fill: none; stroke: #e0e0e0; stroke-width: 0.8; stroke-linecap: round"/>
     </g>
     <g id="line2d_14">
      <g>
       <use xlink:href="#m853926ea39" x="64.30875" y="222.426099" style="fill: #aaaaaa; stroke: #aaaaaa"/>
      </g>
     </g>
     <g id="text_8">
      <!-- 500 -->
      <g style="fill: #262626" transform="translate(35.8125 226.60524) scale(0.11 -0.11)">
       <defs>
        <path id="DejaVuSans-35" d="M 691 4666 
L 3169 4666 
L 3169 4134 
L 1269 4134 
L 1269 2991 
Q 1406 3038 1543 3061 
Q 1681 3084 1819 3084 
Q 2600 3084 3056 2656 
Q 3513 2228 3513 1497 
Q 3513 744 3044 326 
Q 2575 -91 1722 -91 
Q 1428 -91 1123 -41 
Q 819 9 494 109 
L 494 744 
Q 775 591 1075 516 
Q 1375 441 1709 441 
Q 2250 441 2565 725 
Q 2881 1009 2881 1497 
Q 2881 1984 2565 2268 
Q 2250 2553 1709 2553 
Q 1456 2553 1204 2497 
Q 953 2441 691 2322 
L 691 4666 
z
" transform="scale(0.015625)"/>
       </defs>
       <use xlink:href="#DejaVuSans-35"/>
       <use xlink:href="#DejaVuSans-30" transform="translate(63.623047 0)"/>
       <use xlink:href="#DejaVuSans-30" transform="translate(127.246094 0)"/>
      </g>
     </g>
    </g>
    <g id="ytick_3">
     <g id="line2d_15">
      <path d="M 64.30875 164.378989 
L 547.024232 164.378989 
" clip-path="url(#pc413adc16d)" style="fill: none; stroke: #e0e0e0; stroke-width: 0.8; stroke-linecap: round"/>
     </g>
     <g id="line2d_16">
      <g>
       <use xlink:href="#m853926ea39" x="64.30875" y="164.378989" style="fill: #aaaaaa; stroke: #aaaaaa"/>
      </g>
     </g>
     <g id="text_9">
      <!-- 1000 -->
      <g style="fill: #262626" transform="translate(28.81375 168.558129) scale(0.11 -0.11)">
       <use xlink:href="#DejaVuSans-31"/>
       <use xlink:href="#DejaVuSans-30" transform="translate(63.623047 0)"/>
       <use xlink:href="#DejaVuSans-30" transform="translate(127.246094 0)"/>
       <use xlink:href="#DejaVuSans-30" transform="translate(190.869141 0)"/>
      </g>
     </g>
    </g>
    <g id="ytick_4">
     <g id="line2d_17">
      <path d="M 64.30875 106.331878 
L 547.024232 106.331878 
" clip-path="url(#pc413adc16d)" style="fill: none; stroke: #e0e0e0; stroke-width: 0.8; stroke-linecap: round"/>
     </g>
     <g id="line2d_18">
      <g>
       <use xlink:href="#m853926ea39" x="64.30875" y="106.331878" style="fill: #aaaaaa; stroke: #aaaaaa"/>
      </g>
     </g>
     <g id="text_10">
      <!-- 1500 -->
      <g style="fill: #262626" transform="translate(28.81375 110.511019) scale(0.11 -0.11)">
       <use xlink:href="#DejaVuSans-31"/>
       <use xlink:href="#DejaVuSans-35" transform="translate(63.623047 0)"/>
       <use xlink:href="#DejaVuSans-30" transform="translate(127.246094 0)"/>
       <use xlink:href="#DejaVuSans-30" transform="translate(190.869141 0)"/>
      </g>
     </g>
    </g>
    <g id="ytick_5">
     <g id="line2d_19">
      <path d="M 64.30875 48.284768 
L 547.024232 48.284768 
" clip-path="url(#pc413adc16d)" style="fill: none; stroke: #e0e0e0; stroke-width: 0.8; stroke-linecap: round"/>
     </g>
     <g id="line2d_20">
      <g>
       <use xlink:href="#m853926ea39" x="64.30875" y="48.284768" style="fill: #aaaaaa; stroke: #aaaaaa"/>
      </g>
     </g>
     <g id="text_11">
      <!-- 2000 -->
      <g style="fill: #262626" transform="translate(28.81375 52.463908) scale(0.11 -0.11)">
       <use xlink:href="#DejaVuSans-32"/>
       <use xlink:href="#DejaVuSans-30" transform="translate(63.623047 0)"/>
       <use xlink:href="#DejaVuSans-30" transform="translate(127.246094 0)"/>
       <use xlink:href="#DejaVuSans-30" transform="translate(190.869141 0)"/>
      </g>
     </g>
    </g>
    <g id="text_12">
     <!-- Bandwidth (GiB/s) -->
     <g style="fill: #262626" transform="translate(16.318125 211.938594) rotate(-90) scale(0.12 -0.12)">
      <defs>
       <path id="DejaVuSans-42" d="M 1259 2228 
L 1259 519 
L 2272 519 
Q 2781 519 3026 730 
Q 3272 941 3272 1375 
Q 3272 1813 3026 2020 
Q 2781 2228 2272 2228 
L 1259 2228 
z
M 1259 4147 
L 1259 2741 
L 2194 2741 
Q 2656 2741 2882 2914 
Q 3109 3088 3109 3444 
Q 3109 3797 2882 3972 
Q 2656 4147 2194 4147 
L 1259 4147 
z
M 628 4666 
L 2241 4666 
Q 2963 4666 3353 4366 
Q 3744 4066 3744 3513 
Q 3744 3084 3544 2831 
Q 3344 2578 2956 2516 
Q 3422 2416 3680 2098 
Q 3938 1781 3938 1306 
Q 3938 681 3513 340 
Q 3088 0 2303 0 
L 628 0 
L 628 4666 
z
" transform="scale(0.015625)"/>
       <path id="DejaVuSans-6e" d="M 3513 2113 
L 3513 0 
L 2938 0 
L 2938 2094 
Q 2938 2591 2744 2837 
Q 2550 3084 2163 3084 
Q 1697 3084 1428 2787 
Q 1159 2491 1159 1978 
L 1159 0 
L 581 0 
L 581 3500 
L 1159 3500 
L 1159 2956 
Q 1366 3272 1645 3428 
Q 1925 3584 2291 3584 
Q 2894 3584 3203 3211 
Q 3513 2838 3513 2113 
z
" transform="scale(0.015625)"/>
       <path id="DejaVuSans-77" d="M 269 3500 
L 844 3500 
L 1563 769 
L 2278 3500 
L 2956 3500 
L 3675 769 
L 4391 3500 
L 4966 3500 
L 4050 0 
L 3372 0 
L 2619 2869 
L 1863 0 
L 1184 0 
L 269 3500 
z
" transform="scale(0.015625)"/>
       <path id="DejaVuSans-69" d="M 603 3500 
L 1178 3500 
L 1178 0 
L 603 0 
L 603 3500 
z
M 603 4863 
L 1178 4863 
L 1178 4134 
L 603 4134 
L 603 4863 
z
" transform="scale(0.015625)"/>
       <path id="DejaVuSans-74" d="M 1172 4494 
L 1172 3500 
L 2356 3500 
L 2356 3053 
L 1172 3053 
L 1172 1153 
Q 1172 725 1289 603 
Q 1406 481 1766 481 
L 2356 481 
L 2356 0 
L 1766 0 
Q 1100 0 847 248 
Q 594 497 594 1153 
L 594 3053 
L 172 3053 
L 172 3500 
L 594 3500 
L 594 4494 
L 1172 4494 
z
" transform="scale(0.015625)"/>
       <path id="DejaVuSans-68" d="M 3513 2113 
L 3513 0 
L 2938 0 
L 2938 2094 
Q 2938 2591 2744 2837 
Q 2550 3084 2163 3084 
Q 1697 3084 1428 2787 
Q 1159 2491 1159 1978 
L 1159 0 
L 581 0 
L 581 4863 
L 1159 4863 
L 1159 2956 
Q 1366 3272 1645 3428 
Q 1925 3584 2291 3584 
Q 2894 3584 3203 3211 
Q 3513 2838 3513 2113 
z
" transform="scale(0.015625)"/>
       <path id="DejaVuSans-28" d="M 1984 4856 
Q 1566 4138 1362 3434 
Q 1159 2731 1159 2009 
Q 1159 1288 1364 580 
Q 1569 -128 1984 -844 
L 1484 -844 
Q 1016 -109 783 600 
Q 550 1309 550 2009 
Q 550 2706 781 3412 
Q 1013 4119 1484 4856 
L 1984 4856 
z
" transform="scale(0.015625)"/>
       <path id="DejaVuSans-47" d="M 3809 666 
L 3809 1919 
L 2778 1919 
L 2778 2438 
L 4434 2438 
L 4434 434 
Q 4069 175 3628 42 
Q 3188 -91 2688 -91 
Q 1594 -91 976 548 
Q 359 1188 359 2328 
Q 359 3472 976 4111 
Q 1594 4750 2688 4750 
Q 3144 4750 3555 4637 
Q 3966 4525 4313 4306 
L 4313 3634 
Q 3963 3931 3569 4081 
Q 3175 4231 2741 4231 
Q 1884 4231 1454 3753 
Q 1025 3275 1025 2328 
Q 1025 1384 1454 906 
Q 1884 428 2741 428 
Q 3075 428 3337 486 
Q 3600 544 3809 666 
z
" transform="scale(0.015625)"/>
       <path id="DejaVuSans-2f" d="M 1625 4666 
L 2156 4666 
L 531 -594 
L 0 -594 
L 1625 4666 
z
" transform="scale(0.015625)"/>
       <path id="DejaVuSans-29" d="M 513 4856 
L 1013 4856 
Q 1481 4119 1714 3412 
Q 1947 2706 1947 2009 
Q 1947 1309 1714 600 
Q 1481 -109 1013 -844 
L 513 -844 
Q 928 -128 1133 580 
Q 1338 1288 1338 2009 
Q 1338 2731 1133 3434 
Q 928 4138 513 4856 
z
" transform="scale(0.015625)"/>
      </defs>
      <use xlink:href="#DejaVuSans-42"/>
      <use xlink:href="#DejaVuSans-61" transform="translate(68.603516 0)"/>
      <use xlink:href="#DejaVuSans-6e" transform="translate(129.882812 0)"/>
      <use xlink:href="#DejaVuSans-64" transform="translate(193.261719 0)"/>
      <use xlink:href="#DejaVuSans-77" transform="translate(256.738281 0)"/>
      <use xlink:href="#DejaVuSans-69" transform="translate(338.525391 0)"/>
      <use xlink:href="#DejaVuSans-64" transform="translate(366.308594 0)"/>
      <use xlink:href="#DejaVuSans-74" transform="translate(429.785156 0)"/>
      <use xlink:href="#DejaVuSans-68" transform="translate(468.994141 0)"/>
      <use xlink:href="#DejaVuSans-20" transform="translate(532.373047 0)"/>
      <use xlink:href="#DejaVuSans-28" transform="translate(564.160156 0)"/>
      <use xlink:href="#DejaVuSans-47" transform="translate(603.173828 0)"/>
      <use xlink:href="#DejaVuSans-69" transform="translate(680.664062 0)"/>
      <use xlink:href="#DejaVuSans-42" transform="translate(708.447266 0)"/>
      <use xlink:href="#DejaVuSans-2f" transform="translate(777.050781 0)"/>
      <use xlink:href="#DejaVuSans-73" transform="translate(810.742188 0)"/>
      <use xlink:href="#DejaVuSans-29" transform="translate(862.841797 0)"/>
     </g>
    </g>
   </g>
   <g id="FillBetweenPolyCollection_1"/>
   <g id="FillBetweenPolyCollection_2"/>
   <g id="FillBetweenPolyCollection_3"/>
   <g id="FillBetweenPolyCollection_4"/>
   <g id="FillBetweenPolyCollection_5"/>
   <g id="FillBetweenPolyCollection_6"/>
   <g id="line2d_21">
    <path d="M 86.250363 278.509787 
L 107.147137 277.866617 
L 190.734233 275.178552 
L 357.908426 270.97083 
L 525.082619 268.638735 
" clip-path="url(#pc413adc16d)" style="fill: none; stroke: #e98d6b; stroke-width: 2.8; stroke-linecap: round"/>
    <defs>
     <path id="m25a7badaad" d="M 0 3 
C 0.795609 3 1.55874 2.683901 2.12132 2.12132 
C 2.683901 1.55874 3 0.795609 3 0 
C 3 -0.795609 2.683901 -1.55874 2.12132 -2.12132 
C 1.55874 -2.683901 0.795609 -3 0 -3 
C -0.795609 -3 -1.55874 -2.683901 -2.12132 -2.12132 
C -2.683901 -1.55874 -3 -0.795609 -3 0 
C -3 0.795609 -2.683901 1.55874 -2.12132 2.12132 
C -1.55874 2.683901 -0.795609 3 0 3 
z
" style="stroke: #ffffff; stroke-width: 0.75"/>
    </defs>
    <g clip-path="url(#pc413adc16d)">
     <use xlink:href="#m25a7badaad" x="86.250363" y="278.509787" style="fill: #e98d6b; stroke: #ffffff; stroke-width: 0.75"/>
     <use xlink:href="#m25a7badaad" x="107.147137" y="277.866617" style="fill: #e98d6b; stroke: #ffffff; stroke-width: 0.75"/>
     <use xlink:href="#m25a7badaad" x="190.734233" y="275.178552" style="fill: #e98d6b; stroke: #ffffff; stroke-width: 0.75"/>
     <use xlink:href="#m25a7badaad" x="357.908426" y="270.97083" style="fill: #e98d6b; stroke: #ffffff; stroke-width: 0.75"/>
     <use xlink:href="#m25a7badaad" x="525.082619" y="268.638735" style="fill: #e98d6b; stroke: #ffffff; stroke-width: 0.75"/>
    </g>
   </g>
   <g id="line2d_22">
    <path d="M 86.250363 276.758209 
L 107.147137 275.43314 
L 190.734233 269.981351 
L 357.908426 261.156016 
L 525.082619 256.177896 
" clip-path="url(#pc413adc16d)" style="fill: none; stroke: #e3685c; stroke-width: 2.8; stroke-linecap: round"/>
    <defs>
     <path id="m1db9282c24" d="M 0 3 
C 0.795609 3 1.55874 2.683901 2.12132 2.12132 
C 2.683901 1.55874 3 0.795609 3 0 
C 3 -0.795609 2.683901 -1.55874 2.12132 -2.12132 
C 1.55874 -2.683901 0.795609 -3 0 -3 
C -0.795609 -3 -1.55874 -2.683901 -2.12132 -2.12132 
C -2.683901 -1.55874 -3 -0.795609 -3 0 
C -3 0.795609 -2.683901 1.55874 -2.12132 2.12132 
C -1.55874 2.683901 -0.795609 3 0 3 
z
" style="stroke: #ffffff; stroke-width: 0.75"/>
    </defs>
    <g clip-path="url(#pc413adc16d)">
     <use xlink:href="#m1db9282c24" x="86.250363" y="276.758209" style="fill: #e3685c; stroke: #ffffff; stroke-width: 0.75"/>
     <use xlink:href="#m1db9282c24" x="107.147137" y="275.43314" style="fill: #e3685c; stroke: #ffffff; stroke-width: 0.75"/>
     <use xlink:href="#m1db9282c24" x="190.734233" y="269.981351" style="fill: #e3685c; stroke: #ffffff; stroke-width: 0.75"/>
     <use xlink:href="#m1db9282c24" x="357.908426" y="261.156016" style="fill: #e3685c; stroke: #ffffff; stroke-width: 0.75"/>
     <use xlink:href="#m1db9282c24" x="525.082619" y="256.177896" style="fill: #e3685c; stroke: #ffffff; stroke-width: 0.75"/>
    </g>
   </g>
   <g id="line2d_23">
    <path d="M 86.250363 272.901821 
L 107.147137 270.149199 
L 190.734233 260.111912 
L 357.908426 242.584033 
L 525.082619 233.217704 
" clip-path="url(#pc413adc16d)" style="fill: none; stroke: #d14a61; stroke-width: 2.8; stroke-linecap: round"/>
    <defs>
     <path id="m32dd78d0fb" d="M 0 3 
C 0.795609 3 1.55874 2.683901 2.12132 2.12132 
C 2.683901 1.55874 3 0.795609 3 0 
C 3 -0.795609 2.683901 -1.55874 2.12132 -2.12132 
C 1.55874 -2.683901 0.795609 -3 0 -3 
C -0.795609 -3 -1.55874 -2.683901 -2.12132 -2.12132 
C -2.683901 -1.55874 -3 -0.795609 -3 0 
C -3 0.795609 -2.683901 1.55874 -2.12132 2.12132 
C -1.55874 2.683901 -0.795609 3 0 3 
z
" style="stroke: #ffffff; stroke-width: 0.75"/>
    </defs>
    <g clip-path="url(#pc413adc16d)">
     <use xlink:href="#m32dd78d0fb" x="86.250363" y="272.901821" style="fill: #d14a61; stroke: #ffffff; stroke-width: 0.75"/>
     <use xlink:href="#m32dd78d0fb" x="107.147137" y="270.149199" style="fill: #d14a61; stroke: #ffffff; stroke-width: 0.75"/>
     <use xlink:href="#m32dd78d0fb" x="190.734233" y="260.111912" style="fill: #d14a61; stroke: #ffffff; stroke-width: 0.75"/>
     <use xlink:href="#m32dd78d0fb" x="357.908426" y="242.584033" style="fill: #d14a61; stroke: #ffffff; stroke-width: 0.75"/>
     <use xlink:href="#m32dd78d0fb" x="525.082619" y="233.217704" style="fill: #d14a61; stroke: #ffffff; stroke-width: 0.75"/>
    </g>
   </g>
   <g id="line2d_24">
    <path d="M 86.250363 265.665991 
L 107.147137 260.044076 
L 190.734233 242.22436 
L 357.908426 207.311846 
L 525.082619 191.246912 
" clip-path="url(#pc413adc16d)" style="fill: none; stroke: #b13c6c; stroke-width: 2.8; stroke-linecap: round"/>
    <defs>
     <path id="mad5664a5c0" d="M 0 3 
C 0.795609 3 1.55874 2.683901 2.12132 2.12132 
C 2.683901 1.55874 3 0.795609 3 0 
C 3 -0.795609 2.683901 -1.55874 2.12132 -2.12132 
C 1.55874 -2.683901 0.795609 -3 0 -3 
C -0.795609 -3 -1.55874 -2.683901 -2.12132 -2.12132 
C -2.683901 -1.55874 -3 -0.795609 -3 0 
C -3 0.795609 -2.683901 1.55874 -2.12132 2.12132 
C -1.55874 2.683901 -0.795609 3 0 3 
z
" style="stroke: #ffffff; stroke-width: 0.75"/>
    </defs>
    <g clip-path="url(#pc413adc16d)">
     <use xlink:href="#mad5664a5c0" x="86.250363" y="265.665991" style="fill: #b13c6c; stroke: #ffffff; stroke-width: 0.75"/>
     <use xlink:href="#mad5664a5c0" x="107.147137" y="260.044076" style="fill: #b13c6c; stroke: #ffffff; stroke-width: 0.75"/>
     <use xlink:href="#mad5664a5c0" x="190.734233" y="242.22436" style="fill: #b13c6c; stroke: #ffffff; stroke-width: 0.75"/>
     <use xlink:href="#mad5664a5c0" x="357.908426" y="207.311846" style="fill: #b13c6c; stroke: #ffffff; stroke-width: 0.75"/>
     <use xlink:href="#mad5664a5c0" x="525.082619" y="191.246912" style="fill: #b13c6c; stroke: #ffffff; stroke-width: 0.75"/>
    </g>
   </g>
   <g id="line2d_25">
    <path d="M 86.250363 247.577176 
L 107.147137 238.12835 
L 190.734233 201.752393 
L 357.908426 146.089408 
L 525.082619 131.028678 
" clip-path="url(#pc413adc16d)" style="fill: none; stroke: #8f3371; stroke-width: 2.8; stroke-linecap: round"/>
    <defs>
     <path id="m46f4c1ecbf" d="M 0 3 
C 0.795609 3 1.55874 2.683901 2.12132 2.12132 
C 2.683901 1.55874 3 0.795609 3 0 
C 3 -0.795609 2.683901 -1.55874 2.12132 -2.12132 
C 1.55874 -2.683901 0.795609 -3 0 -3 
C -0.795609 -3 -1.55874 -2.683901 -2.12132 -2.12132 
C -2.683901 -1.55874 -3 -0.795609 -3 0 
C -3 0.795609 -2.683901 1.55874 -2.12132 2.12132 
C -1.55874 2.683901 -0.795609 3 0 3 
z
" style="stroke: #ffffff; stroke-width: 0.75"/>
    </defs>
    <g clip-path="url(#pc413adc16d)">
     <use xlink:href="#m46f4c1ecbf" x="86.250363" y="247.577176" style="fill: #8f3371; stroke: #ffffff; stroke-width: 0.75"/>
     <use xlink:href="#m46f4c1ecbf" x="107.147137" y="238.12835" style="fill: #8f3371; stroke: #ffffff; stroke-width: 0.75"/>
     <use xlink:href="#m46f4c1ecbf" x="190.734233" y="201.752393" style="fill: #8f3371; stroke: #ffffff; stroke-width: 0.75"/>
     <use xlink:href="#m46f4c1ecbf" x="357.908426" y="146.089408" style="fill: #8f3371; stroke: #ffffff; stroke-width: 0.75"/>
     <use xlink:href="#m46f4c1ecbf" x="525.082619" y="131.028678" style="fill: #8f3371; stroke: #ffffff; stroke-width: 0.75"/>
    </g>
   </g>
   <g id="line2d_26">
    <path d="M 86.250363 210.946438 
L 107.147137 190.496352 
L 190.734233 186.726686 
L 357.908426 117.36674 
L 525.082619 168.78098 
" clip-path="url(#pc413adc16d)" style="fill: none; stroke: #6c2b6d; stroke-width: 2.8; stroke-linecap: round"/>
    <defs>
     <path id="mf7405aea81" d="M 0 3 
C 0.795609 3 1.55874 2.683901 2.12132 2.12132 
C 2.683901 1.55874 3 0.795609 3 0 
C 3 -0.795609 2.683901 -1.55874 2.12132 -2.12132 
C 1.55874 -2.683901 0.795609 -3 0 -3 
C -0.795609 -3 -1.55874 -2.683901 -2.12132 -2.12132 
C -2.683901 -1.55874 -3 -0.795609 -3 0 
C -3 0.795609 -2.683901 1.55874 -2.12132 2.12132 
C -1.55874 2.683901 -0.795609 3 0 3 
z
" style="stroke: #ffffff; stroke-width: 0.75"/>
    </defs>
    <g clip-path="url(#pc413adc16d)">
     <use xlink:href="#mf7405aea81" x="86.250363" y="210.946438" style="fill: #6c2b6d; stroke: #ffffff; stroke-width: 0.75"/>
     <use xlink:href="#mf7405aea81" x="107.147137" y="190.496352" style="fill: #6c2b6d; stroke: #ffffff; stroke-width: 0.75"/>
     <use xlink:href="#mf7405aea81" x="190.734233" y="186.726686" style="fill: #6c2b6d; stroke: #ffffff; stroke-width: 0.75"/>
     <use xlink:href="#mf7405aea81" x="357.908426" y="117.36674" style="fill: #6c2b6d; stroke: #ffffff; stroke-width: 0.75"/>
     <use xlink:href="#mf7405aea81" x="525.082619" y="168.78098" style="fill: #6c2b6d; stroke: #ffffff; stroke-width: 0.75"/>
    </g>
   </g>
   <g id="line2d_27"/>
   <g id="line2d_28"/>
   <g id="line2d_29"/>
   <g id="line2d_30"/>
   <g id="line2d_31"/>
   <g id="line2d_32"/>
   <g id="text_13">
    <path d="M 151.940152 278.549878 
L 153.711268 278.492921 
L 153.514598 272.377333 
L 151.599587 272.825836 
L 151.567821 271.838065 
L 153.472525 271.389894 
L 154.556496 271.355034 
L 154.784932 278.458394 
L 156.556047 278.401436 
L 156.585382 279.313621 
L 151.969487 279.462063 
L 151.940152 278.549878 
z
" clip-path="url(#pc413adc16d)" style="fill: #e98d6b; stroke: #fafafa; stroke-width: 5"/>
    <path d="M 151.940152 278.549878 
L 153.711268 278.492921 
L 153.514598 272.377333 
L 151.599587 272.825836 
L 151.567821 271.838065 
L 153.472525 271.389894 
L 154.556496 271.355034 
L 154.784932 278.458394 
L 156.556047 278.401436 
L 156.585382 279.313621 
L 151.969487 279.462063 
L 151.940152 278.549878 
z
" clip-path="url(#pc413adc16d)" style="fill: #e98d6b"/>
   </g>
   <g id="text_14">
    <path d="M 214.790954 270.836979 
L 218.572095 270.637367 
L 218.620208 271.548755 
L 213.53635 271.817138 
L 213.488237 270.905751 
Q 214.070704 270.234736 215.078126 269.104117 
Q 216.087174 267.971692 216.343584 267.644907 
Q 216.832834 267.03389 217.017414 266.617956 
Q 217.20371 266.201932 217.183051 265.810602 
Q 217.149344 265.172116 216.680172 264.794136 
Q 216.210909 264.414441 215.491754 264.452406 
Q 214.981995 264.479317 214.424929 264.686003 
Q 213.869579 264.892598 213.244972 265.287012 
L 213.187164 264.191974 
Q 213.827234 263.894849 214.388281 263.730982 
Q 214.951045 263.567023 215.423044 263.542106 
Q 216.667405 263.476415 217.440048 264.060401 
Q 218.212599 264.642671 218.267508 265.682785 
Q 218.293603 266.177097 218.131614 266.629703 
Q 217.971249 267.080503 217.5138 267.707052 
Q 217.388169 267.870309 216.708248 268.651458 
Q 216.030043 269.432516 214.790954 270.836979 
z
" clip-path="url(#pc413adc16d)" style="fill: #e3685c; stroke: #fafafa; stroke-width: 5"/>
    <path d="M 214.790954 270.836979 
L 218.572095 270.637367 
L 218.620208 271.548755 
L 213.53635 271.817138 
L 213.488237 270.905751 
Q 214.070704 270.234736 215.078126 269.104117 
Q 216.087174 267.971692 216.343584 267.644907 
Q 216.832834 267.03389 217.017414 266.617956 
Q 217.20371 266.201932 217.183051 265.810602 
Q 217.149344 265.172116 216.680172 264.794136 
Q 216.210909 264.414441 215.491754 264.452406 
Q 214.981995 264.479317 214.424929 264.686003 
Q 213.869579 264.892598 213.244972 265.287012 
L 213.187164 264.191974 
Q 213.827234 263.894849 214.388281 263.730982 
Q 214.951045 263.567023 215.423044 263.542106 
Q 216.667405 263.476415 217.440048 264.060401 
Q 218.212599 264.642671 218.267508 265.682785 
Q 218.293603 266.177097 218.131614 266.629703 
Q 217.971249 267.080503 217.5138 267.707052 
Q 217.388169 267.870309 216.708248 268.651458 
Q 216.030043 269.432516 214.790954 270.836979 
z
" clip-path="url(#pc413adc16d)" style="fill: #e3685c"/>
   </g>
   <g id="text_15">
    <path d="M 278.348593 246.86452 
L 276.07029 251.40827 
L 278.795042 251.122585 
L 278.348593 246.86452 
z
M 277.966262 245.954112 
L 279.323509 245.811807 
L 279.868533 251.010032 
L 281.00698 250.890668 
L 281.101073 251.788092 
L 279.962626 251.907456 
L 280.159774 253.787774 
L 279.086283 253.900328 
L 278.889135 252.02001 
L 275.289181 252.397458 
L 275.180033 251.356445 
L 277.966262 245.954112 
z
" clip-path="url(#pc413adc16d)" style="fill: #d14a61; stroke: #fafafa; stroke-width: 5"/>
    <path d="M 278.348593 246.86452 
L 276.07029 251.40827 
L 278.795042 251.122585 
L 278.348593 246.86452 
z
M 277.966262 245.954112 
L 279.323509 245.811807 
L 279.868533 251.010032 
L 281.00698 250.890668 
L 281.101073 251.788092 
L 279.962626 251.907456 
L 280.159774 253.787774 
L 279.086283 253.900328 
L 278.889135 252.02001 
L 275.289181 252.397458 
L 275.180033 251.356445 
L 277.966262 245.954112 
z
" clip-path="url(#pc413adc16d)" style="fill: #d14a61"/>
   </g>
   <g id="text_16">
    <path d="M 339.962196 210.269598 
Q 339.205092 210.427711 338.855698 210.923833 
Q 338.507986 211.419604 338.655909 212.127917 
Q 338.804184 212.837912 339.321252 213.153083 
Q 339.840003 213.467902 340.597107 213.309789 
Q 341.35421 213.151677 341.704936 212.65352 
Q 342.056993 212.15333 341.909772 211.448383 
Q 341.761849 210.74007 341.243098 210.42525 
Q 340.726029 210.110079 339.962196 210.269598 
z
M 338.806403 210.04041 
Q 338.088191 210.014818 337.608596 209.626855 
Q 337.130332 209.236858 336.989787 208.563877 
Q 336.793376 207.623387 337.348799 206.936747 
Q 337.905905 206.249757 339.071845 206.006263 
Q 340.244514 205.761364 341.02664 206.16867 
Q 341.808767 206.575977 342.005178 207.516468 
Q 342.145723 208.189449 341.861836 208.738612 
Q 341.57928 209.285742 340.936388 209.595586 
Q 341.740831 209.613705 342.277096 210.046019 
Q 342.814692 210.476299 342.9714 211.226673 
Q 343.209974 212.369058 342.640983 213.125253 
Q 342.071641 213.879764 340.772788 214.151016 
Q 339.475617 214.421916 338.650206 213.958683 
Q 337.826126 213.493417 337.587552 212.351031 
Q 337.430844 211.600658 337.752981 210.990831 
Q 338.076449 210.378971 338.806403 210.04041 
z
M 338.067449 208.444169 
Q 338.194642 209.053217 338.646203 209.315347 
Q 339.099446 209.577126 339.787569 209.433419 
Q 340.472327 209.290415 340.786282 208.868415 
Q 341.10192 208.446064 340.974727 207.837016 
Q 340.847182 207.226286 340.388892 206.965561 
Q 339.932284 206.704485 339.247526 206.847489 
Q 338.559403 206.991196 338.248812 207.412493 
Q 337.939905 207.833439 338.067449 208.444169 
z
" clip-path="url(#pc413adc16d)" style="fill: #b13c6c; stroke: #fafafa; stroke-width: 5"/>
    <path d="M 339.962196 210.269598 
Q 339.205092 210.427711 338.855698 210.923833 
Q 338.507986 211.419604 338.655909 212.127917 
Q 338.804184 212.837912 339.321252 213.153083 
Q 339.840003 213.467902 340.597107 213.309789 
Q 341.35421 213.151677 341.704936 212.65352 
Q 342.056993 212.15333 341.909772 211.448383 
Q 341.761849 210.74007 341.243098 210.42525 
Q 340.726029 210.110079 339.962196 210.269598 
z
M 338.806403 210.04041 
Q 338.088191 210.014818 337.608596 209.626855 
Q 337.130332 209.236858 336.989787 208.563877 
Q 336.793376 207.623387 337.348799 206.936747 
Q 337.905905 206.249757 339.071845 206.006263 
Q 340.244514 205.761364 341.02664 206.16867 
Q 341.808767 206.575977 342.005178 207.516468 
Q 342.145723 208.189449 341.861836 208.738612 
Q 341.57928 209.285742 340.936388 209.595586 
Q 341.740831 209.613705 342.277096 210.046019 
Q 342.814692 210.476299 342.9714 211.226673 
Q 343.209974 212.369058 342.640983 213.125253 
Q 342.071641 213.879764 340.772788 214.151016 
Q 339.475617 214.421916 338.650206 213.958683 
Q 337.826126 213.493417 337.587552 212.351031 
Q 337.430844 211.600658 337.752981 210.990831 
Q 338.076449 210.378971 338.806403 210.04041 
z
M 338.067449 208.444169 
Q 338.194642 209.053217 338.646203 209.315347 
Q 339.099446 209.577126 339.787569 209.433419 
Q 340.472327 209.290415 340.786282 208.868415 
Q 341.10192 208.446064 340.974727 207.837016 
Q 340.847182 207.226286 340.388892 206.965561 
Q 339.932284 206.704485 339.247526 206.847489 
Q 338.559403 206.991196 338.248812 207.412493 
Q 337.939905 207.833439 338.067449 208.444169 
z
" clip-path="url(#pc413adc16d)" style="fill: #b13c6c"/>
   </g>
   <g id="text_17">
    <path d="M 400.311261 144.400588 
L 402.076145 144.241589 
L 401.52713 138.14752 
L 399.64117 138.705711 
L 399.552495 137.721416 
L 401.428184 137.16415 
L 402.50834 137.066839 
L 403.146031 144.145203 
L 404.910914 143.986205 
L 404.992804 144.89518 
L 400.393151 145.309563 
L 400.311261 144.400588 
z
M 409.222845 140.054859 
Q 408.495323 140.120401 408.113958 140.65694 
Q 407.73415 141.191613 407.812184 142.057793 
Q 407.889756 142.918837 408.359472 143.382153 
Q 408.830746 143.843604 409.558269 143.778061 
Q 410.285791 143.712519 410.66529 143.174422 
Q 411.044635 142.634614 410.967064 141.773569 
Q 410.88903 140.90739 410.419776 140.449209 
Q 409.950368 139.989316 409.222845 140.054859 
z
M 411.062556 136.473937 
L 411.151231 137.458232 
Q 410.726546 137.303213 410.303187 137.239536 
Q 409.879674 137.174148 409.472262 137.210852 
Q 408.402376 137.307238 407.902556 138.080516 
Q 407.404448 138.853641 407.45554 140.321069 
Q 407.728568 139.827079 408.182091 139.535993 
Q 408.637327 139.244753 409.209074 139.193244 
Q 410.412481 139.084829 411.176754 139.752854 
Q 411.940872 140.419167 412.054068 141.675641 
Q 412.16495 142.906438 411.504513 143.716621 
Q 410.843921 144.525092 409.635378 144.63397 
Q 408.248806 144.758886 407.420533 143.763565 
Q 406.592106 142.766531 406.410437 140.75001 
Q 406.239873 138.856741 407.037102 137.6494 
Q 407.83433 136.44206 409.347577 136.305732 
Q 409.754989 136.269028 410.176497 136.312163 
Q 410.598005 136.355298 411.062556 136.473937 
z
" clip-path="url(#pc413adc16d)" style="fill: #8f3371; stroke: #fafafa; stroke-width: 5"/>
    <path d="M 400.311261 144.400588 
L 402.076145 144.241589 
L 401.52713 138.14752 
L 399.64117 138.705711 
L 399.552495 137.721416 
L 401.428184 137.16415 
L 402.50834 137.066839 
L 403.146031 144.145203 
L 404.910914 143.986205 
L 404.992804 144.89518 
L 400.393151 145.309563 
L 400.311261 144.400588 
z
M 409.222845 140.054859 
Q 408.495323 140.120401 408.113958 140.65694 
Q 407.73415 141.191613 407.812184 142.057793 
Q 407.889756 142.918837 408.359472 143.382153 
Q 408.830746 143.843604 409.558269 143.778061 
Q 410.285791 143.712519 410.66529 143.174422 
Q 411.044635 142.634614 410.967064 141.773569 
Q 410.88903 140.90739 410.419776 140.449209 
Q 409.950368 139.989316 409.222845 140.054859 
z
M 411.062556 136.473937 
L 411.151231 137.458232 
Q 410.726546 137.303213 410.303187 137.239536 
Q 409.879674 137.174148 409.472262 137.210852 
Q 408.402376 137.307238 407.902556 138.080516 
Q 407.404448 138.853641 407.45554 140.321069 
Q 407.728568 139.827079 408.182091 139.535993 
Q 408.637327 139.244753 409.209074 139.193244 
Q 410.412481 139.084829 411.176754 139.752854 
Q 411.940872 140.419167 412.054068 141.675641 
Q 412.16495 142.906438 411.504513 143.716621 
Q 410.843921 144.525092 409.635378 144.63397 
Q 408.248806 144.758886 407.420533 143.763565 
Q 406.592106 142.766531 406.410437 140.75001 
Q 406.239873 138.856741 407.037102 137.6494 
Q 407.83433 136.44206 409.347577 136.305732 
Q 409.754989 136.269028 410.176497 136.312163 
Q 410.598005 136.355298 411.062556 136.473937 
z
" clip-path="url(#pc413adc16d)" style="fill: #8f3371"/>
   </g>
   <g id="text_18">
    <path d="M 465.470353 149.098644 
Q 466.165538 149.486872 466.427702 150.119548 
Q 466.692014 150.751085 466.464654 151.49035 
Q 466.116035 152.62389 465.144212 153.006525 
Q 464.172894 153.387516 462.735434 152.945427 
Q 462.25409 152.79739 461.77248 152.544976 
Q 461.29087 152.292562 460.805708 151.934759 
L 461.113402 150.934287 
Q 461.466516 151.318012 461.939664 151.603787 
Q 462.414455 151.890068 462.974653 152.062357 
Q 463.948841 152.361967 464.577982 152.13468 
Q 465.207124 151.907393 465.432968 151.173057 
Q 465.641634 150.494576 465.284079 149.967428 
Q 464.927028 149.438637 464.08098 149.178436 
L 463.187291 148.903582 
L 463.449513 148.050963 
L 464.384273 148.338448 
Q 465.14818 148.573387 465.64793 148.392619 
Q 466.14768 148.211852 466.324516 147.636868 
Q 466.505898 147.047098 466.183989 146.602841 
Q 465.864227 146.157446 465.083891 145.917455 
Q 464.65676 145.786091 464.140046 145.729674 
Q 463.623838 145.671614 462.979378 145.685598 
L 463.263326 144.762338 
Q 463.905262 144.779945 464.446367 144.856452 
Q 464.987472 144.932958 465.444174 145.073416 
Q 466.625355 145.436687 467.146835 146.185079 
Q 467.670463 146.932333 467.389547 147.845736 
Q 467.193512 148.483147 466.693908 148.809613 
Q 466.194303 149.136079 465.470353 149.098644 
z
M 468.907756 153.725238 
L 472.526869 154.838292 
L 472.258584 155.710625 
L 467.392577 154.21409 
L 467.660862 153.341757 
Q 468.438583 152.912014 469.773409 152.196866 
Q 471.110383 151.48058 471.463545 151.261923 
Q 472.1331 150.856456 472.449475 150.529382 
Q 472.767493 150.202813 472.882689 149.828252 
Q 473.07064 149.217126 472.760093 148.700839 
Q 472.450052 148.18291 471.761714 147.971212 
Q 471.273799 147.821155 470.679631 147.823633 
Q 470.087106 147.826617 469.36495 147.982141 
L 469.687297 146.934027 
Q 470.39051 146.875175 470.97369 146.914272 
Q 471.558512 146.953874 472.010286 147.092816 
Q 473.201324 147.459119 473.725972 148.27322 
Q 474.251125 149.085678 473.944946 150.081222 
Q 473.799436 150.554352 473.491659 150.923631 
Q 473.18603 151.291772 472.540993 151.722761 
Q 472.366877 151.832848 471.459768 152.332488 
Q 470.554302 152.832633 468.907756 153.725238 
z
" clip-path="url(#pc413adc16d)" style="fill: #6c2b6d; stroke: #fafafa; stroke-width: 5"/>
    <path d="M 465.470353 149.098644 
Q 466.165538 149.486872 466.427702 150.119548 
Q 466.692014 150.751085 466.464654 151.49035 
Q 466.116035 152.62389 465.144212 153.006525 
Q 464.172894 153.387516 462.735434 152.945427 
Q 462.25409 152.79739 461.77248 152.544976 
Q 461.29087 152.292562 460.805708 151.934759 
L 461.113402 150.934287 
Q 461.466516 151.318012 461.939664 151.603787 
Q 462.414455 151.890068 462.974653 152.062357 
Q 463.948841 152.361967 464.577982 152.13468 
Q 465.207124 151.907393 465.432968 151.173057 
Q 465.641634 150.494576 465.284079 149.967428 
Q 464.927028 149.438637 464.08098 149.178436 
L 463.187291 148.903582 
L 463.449513 148.050963 
L 464.384273 148.338448 
Q 465.14818 148.573387 465.64793 148.392619 
Q 466.14768 148.211852 466.324516 147.636868 
Q 466.505898 147.047098 466.183989 146.602841 
Q 465.864227 146.157446 465.083891 145.917455 
Q 464.65676 145.786091 464.140046 145.729674 
Q 463.623838 145.671614 462.979378 145.685598 
L 463.263326 144.762338 
Q 463.905262 144.779945 464.446367 144.856452 
Q 464.987472 144.932958 465.444174 145.073416 
Q 466.625355 145.436687 467.146835 146.185079 
Q 467.670463 146.932333 467.389547 147.845736 
Q 467.193512 148.483147 466.693908 148.809613 
Q 466.194303 149.136079 465.470353 149.098644 
z
M 468.907756 153.725238 
L 472.526869 154.838292 
L 472.258584 155.710625 
L 467.392577 154.21409 
L 467.660862 153.341757 
Q 468.438583 152.912014 469.773409 152.196866 
Q 471.110383 151.48058 471.463545 151.261923 
Q 472.1331 150.856456 472.449475 150.529382 
Q 472.767493 150.202813 472.882689 149.828252 
Q 473.07064 149.217126 472.760093 148.700839 
Q 472.450052 148.18291 471.761714 147.971212 
Q 471.273799 147.821155 470.679631 147.823633 
Q 470.087106 147.826617 469.36495 147.982141 
L 469.687297 146.934027 
Q 470.39051 146.875175 470.97369 146.914272 
Q 471.558512 146.953874 472.010286 147.092816 
Q 473.201324 147.459119 473.725972 148.27322 
Q 474.251125 149.085678 473.944946 150.081222 
Q 473.799436 150.554352 473.491659 150.923631 
Q 473.18603 151.291772 472.540993 151.722761 
Q 472.366877 151.832848 471.459768 152.332488 
Q 470.554302 152.832633 468.907756 153.725238 
z
" clip-path="url(#pc413adc16d)" style="fill: #6c2b6d"/>
   </g>
   <g id="patch_3">
    <path d="M 64.30875 290.577969 
L 64.30875 25.077969 
" style="fill: none; stroke: #bbbbbb; stroke-linejoin: miter; stroke-linecap: square"/>
   </g>
   <g id="patch_4">
    <path d="M 64.30875 290.577969 
L 547.024232 290.577969 
" style="fill: none; stroke: #bbbbbb; stroke-linejoin: miter; stroke-linecap: square"/>
   </g>
   <g id="text_19">
    <!-- Write -->
    <g style="fill: #262626" transform="translate(285.661725 17.077969) scale(0.13 -0.13)">
     <defs>
      <path id="DejaVuSans-Bold-57" d="M 191 4666 
L 1344 4666 
L 2150 1275 
L 2950 4666 
L 4109 4666 
L 4909 1275 
L 5716 4666 
L 6859 4666 
L 5759 0 
L 4372 0 
L 3525 3547 
L 2688 0 
L 1300 0 
L 191 4666 
z
" transform="scale(0.015625)"/>
      <path id="DejaVuSans-Bold-72" d="M 3138 2547 
Q 2991 2616 2845 2648 
Q 2700 2681 2553 2681 
Q 2122 2681 1889 2404 
Q 1656 2128 1656 1613 
L 1656 0 
L 538 0 
L 538 3500 
L 1656 3500 
L 1656 2925 
Q 1872 3269 2151 3426 
Q 2431 3584 2822 3584 
Q 2878 3584 2943 3579 
Q 3009 3575 3134 3559 
L 3138 2547 
z
" transform="scale(0.015625)"/>
      <path id="DejaVuSans-Bold-69" d="M 538 3500 
L 1656 3500 
L 1656 0 
L 538 0 
L 538 3500 
z
M 538 4863 
L 1656 4863 
L 1656 3950 
L 538 3950 
L 538 4863 
z
" transform="scale(0.015625)"/>
      <path id="DejaVuSans-Bold-74" d="M 1759 4494 
L 1759 3500 
L 2913 3500 
L 2913 2700 
L 1759 2700 
L 1759 1216 
Q 1759 972 1856 886 
Q 1953 800 2241 800 
L 2816 800 
L 2816 0 
L 1856 0 
Q 1194 0 917 276 
Q 641 553 641 1216 
L 641 2700 
L 84 2700 
L 84 3500 
L 641 3500 
L 641 4494 
L 1759 4494 
z
" transform="scale(0.015625)"/>
      <path id="DejaVuSans-Bold-65" d="M 4031 1759 
L 4031 1441 
L 1416 1441 
Q 1456 1047 1700 850 
Q 1944 653 2381 653 
Q 2734 653 3104 758 
Q 3475 863 3866 1075 
L 3866 213 
Q 3469 63 3072 -14 
Q 2675 -91 2278 -91 
Q 1328 -91 801 392 
Q 275 875 275 1747 
Q 275 2603 792 3093 
Q 1309 3584 2216 3584 
Q 3041 3584 3536 3087 
Q 4031 2591 4031 1759 
z
M 2881 2131 
Q 2881 2450 2695 2645 
Q 2509 2841 2209 2841 
Q 1884 2841 1681 2658 
Q 1478 2475 1428 2131 
L 2881 2131 
z
" transform="scale(0.015625)"/>
     </defs>
     <use xlink:href="#DejaVuSans-Bold-57"/>
     <use xlink:href="#DejaVuSans-Bold-72" transform="translate(108.552734 0)"/>
     <use xlink:href="#DejaVuSans-Bold-69" transform="translate(157.869141 0)"/>
     <use xlink:href="#DejaVuSans-Bold-74" transform="translate(192.146484 0)"/>
     <use xlink:href="#DejaVuSans-Bold-65" transform="translate(239.949219 0)"/>
    </g>
   </g>
  </g>
  <g id="axes_2">
   <g id="patch_5">
    <path d="M 573.01875 290.577969 
L 1055.734232 290.577969 
L 1055.734232 25.077969 
L 573.01875 25.077969 
z
" style="fill: #fafafa"/>
   </g>
   <g id="matplotlib.axis_3">
    <g id="xtick_6">
     <g id="line2d_33">
      <path d="M 594.960363 290.577969 
L 594.960363 25.077969 
" clip-path="url(#pb36cccbabe)" style="fill: none; stroke: #e0e0e0; stroke-width: 0.8; stroke-linecap: round"/>
     </g>
     <g id="line2d_34">
      <g>
       <use xlink:href="#mce09bf063c" x="594.960363" y="290.577969" style="fill: #aaaaaa; stroke: #aaaaaa"/>
      </g>
     </g>
     <g id="text_20">
      <!-- 6 -->
      <g style="fill: #262626" transform="translate(591.460988 306.43625) scale(0.11 -0.11)">
       <use xlink:href="#DejaVuSans-36"/>
      </g>
     </g>
    </g>
    <g id="xtick_7">
     <g id="line2d_35">
      <path d="M 615.857137 290.577969 
L 615.857137 25.077969 
" clip-path="url(#pb36cccbabe)" style="fill: none; stroke: #e0e0e0; stroke-width: 0.8; stroke-linecap: round"/>
     </g>
     <g id="line2d_36">
      <g>
       <use xlink:href="#mce09bf063c" x="615.857137" y="290.577969" style="fill: #aaaaaa; stroke: #aaaaaa"/>
      </g>
     </g>
     <g id="text_21">
      <!-- 8 -->
      <g style="fill: #262626" transform="translate(612.357762 306.43625) scale(0.11 -0.11)">
       <use xlink:href="#DejaVuSans-38"/>
      </g>
     </g>
    </g>
    <g id="xtick_8">
     <g id="line2d_37">
      <path d="M 699.444233 290.577969 
L 699.444233 25.077969 
" clip-path="url(#pb36cccbabe)" style="fill: none; stroke: #e0e0e0; stroke-width: 0.8; stroke-linecap: round"/>
     </g>
     <g id="line2d_38">
      <g>
       <use xlink:href="#mce09bf063c" x="699.444233" y="290.577969" style="fill: #aaaaaa; stroke: #aaaaaa"/>
      </g>
     </g>
     <g id="text_22">
      <!-- 16 -->
      <g style="fill: #262626" transform="translate(692.445483 306.43625) scale(0.11 -0.11)">
       <use xlink:href="#DejaVuSans-31"/>
       <use xlink:href="#DejaVuSans-36" transform="translate(63.623047 0)"/>
      </g>
     </g>
    </g>
    <g id="xtick_9">
     <g id="line2d_39">
      <path d="M 866.618426 290.577969 
L 866.618426 25.077969 
" clip-path="url(#pb36cccbabe)" style="fill: none; stroke: #e0e0e0; stroke-width: 0.8; stroke-linecap: round"/>
     </g>
     <g id="line2d_40">
      <g>
       <use xlink:href="#mce09bf063c" x="866.618426" y="290.577969" style="fill: #aaaaaa; stroke: #aaaaaa"/>
      </g>
     </g>
     <g id="text_23">
      <!-- 32 -->
      <g style="fill: #262626" transform="translate(859.619676 306.43625) scale(0.11 -0.11)">
       <use xlink:href="#DejaVuSans-33"/>
       <use xlink:href="#DejaVuSans-32" transform="translate(63.623047 0)"/>
      </g>
     </g>
    </g>
    <g id="xtick_10">
     <g id="line2d_41">
      <path d="M 1033.792619 290.577969 
L 1033.792619 25.077969 
" clip-path="url(#pb36cccbabe)" style="fill: none; stroke: #e0e0e0; stroke-width: 0.8; stroke-linecap: round"/>
     </g>
     <g id="line2d_42">
      <g>
       <use xlink:href="#mce09bf063c" x="1033.792619" y="290.577969" style="fill: #aaaaaa; stroke: #aaaaaa"/>
      </g>
     </g>
     <g id="text_24">
      <!-- 48 -->
      <g style="fill: #262626" transform="translate(1026.793869 306.43625) scale(0.11 -0.11)">
       <use xlink:href="#DejaVuSans-34"/>
       <use xlink:href="#DejaVuSans-38" transform="translate(63.623047 0)"/>
      </g>
     </g>
    </g>
    <g id="text_25">
     <!-- Tasks per Node -->
     <g style="fill: #262626" transform="translate(768.857116 327.842031) scale(0.12 -0.12)">
      <use xlink:href="#DejaVuSans-54"/>
      <use xlink:href="#DejaVuSans-61" transform="translate(44.583984 0)"/>
      <use xlink:href="#DejaVuSans-73" transform="translate(105.863281 0)"/>
      <use xlink:href="#DejaVuSans-6b" transform="translate(157.962891 0)"/>
      <use xlink:href="#DejaVuSans-73" transform="translate(215.873047 0)"/>
      <use xlink:href="#DejaVuSans-20" transform="translate(267.972656 0)"/>
      <use xlink:href="#DejaVuSans-70" transform="translate(299.759766 0)"/>
      <use xlink:href="#DejaVuSans-65" transform="translate(363.236328 0)"/>
      <use xlink:href="#DejaVuSans-72" transform="translate(424.759766 0)"/>
      <use xlink:href="#DejaVuSans-20" transform="translate(465.873047 0)"/>
      <use xlink:href="#DejaVuSans-4e" transform="translate(497.660156 0)"/>
      <use xlink:href="#DejaVuSans-6f" transform="translate(572.464844 0)"/>
      <use xlink:href="#DejaVuSans-64" transform="translate(633.646484 0)"/>
      <use xlink:href="#DejaVuSans-65" transform="translate(697.123047 0)"/>
     </g>
    </g>
   </g>
   <g id="matplotlib.axis_4">
    <g id="ytick_6">
     <g id="line2d_43">
      <path d="M 573.01875 280.47321 
L 1055.734232 280.47321 
" clip-path="url(#pb36cccbabe)" style="fill: none; stroke: #e0e0e0; stroke-width: 0.8; stroke-linecap: round"/>
     </g>
     <g id="line2d_44">
      <g>
       <use xlink:href="#m853926ea39" x="573.01875" y="280.47321" style="fill: #aaaaaa; stroke: #aaaaaa"/>
      </g>
     </g>
    </g>
    <g id="ytick_7">
     <g id="line2d_45">
      <path d="M 573.01875 222.426099 
L 1055.734232 222.426099 
" clip-path="url(#pb36cccbabe)" style="fill: none; stroke: #e0e0e0; stroke-width: 0.8; stroke-linecap: round"/>
     </g>
     <g id="line2d_46">
      <g>
       <use xlink:href="#m853926ea39" x="573.01875" y="222.426099" style="fill: #aaaaaa; stroke: #aaaaaa"/>
      </g>
     </g>
    </g>
    <g id="ytick_8">
     <g id="line2d_47">
      <path d="M 573.01875 164.378989 
L 1055.734232 164.378989 
" clip-path="url(#pb36cccbabe)" style="fill: none; stroke: #e0e0e0; stroke-width: 0.8; stroke-linecap: round"/>
     </g>
     <g id="line2d_48">
      <g>
       <use xlink:href="#m853926ea39" x="573.01875" y="164.378989" style="fill: #aaaaaa; stroke: #aaaaaa"/>
      </g>
     </g>
    </g>
    <g id="ytick_9">
     <g id="line2d_49">
      <path d="M 573.01875 106.331878 
L 1055.734232 106.331878 
" clip-path="url(#pb36cccbabe)" style="fill: none; stroke: #e0e0e0; stroke-width: 0.8; stroke-linecap: round"/>
     </g>
     <g id="line2d_50">
      <g>
       <use xlink:href="#m853926ea39" x="573.01875" y="106.331878" style="fill: #aaaaaa; stroke: #aaaaaa"/>
      </g>
     </g>
    </g>
    <g id="ytick_10">
     <g id="line2d_51">
      <path d="M 573.01875 48.284768 
L 1055.734232 48.284768 
" clip-path="url(#pb36cccbabe)" style="fill: none; stroke: #e0e0e0; stroke-width: 0.8; stroke-linecap: round"/>
     </g>
     <g id="line2d_52">
      <g>
       <use xlink:href="#m853926ea39" x="573.01875" y="48.284768" style="fill: #aaaaaa; stroke: #aaaaaa"/>
      </g>
     </g>
    </g>
   </g>
   <g id="FillBetweenPolyCollection_7"/>
   <g id="FillBetweenPolyCollection_8"/>
   <g id="FillBetweenPolyCollection_9"/>
   <g id="FillBetweenPolyCollection_10"/>
   <g id="FillBetweenPolyCollection_11"/>
   <g id="FillBetweenPolyCollection_12"/>
   <g id="line2d_53">
    <path d="M 594.960363 278.148501 
L 615.857137 277.410638 
L 699.444233 274.799573 
L 866.618426 274.707843 
L 1033.792619 275.23376 
" clip-path="url(#pb36cccbabe)" style="fill: none; stroke: #e98d6b; stroke-width: 2.8; stroke-linecap: round"/>
    <g clip-path="url(#pb36cccbabe)">
     <use xlink:href="#m25a7badaad" x="594.960363" y="278.148501" style="fill: #e98d6b; stroke: #ffffff; stroke-width: 0.75"/>
     <use xlink:href="#m25a7badaad" x="615.857137" y="277.410638" style="fill: #e98d6b; stroke: #ffffff; stroke-width: 0.75"/>
     <use xlink:href="#m25a7badaad" x="699.444233" y="274.799573" style="fill: #e98d6b; stroke: #ffffff; stroke-width: 0.75"/>
     <use xlink:href="#m25a7badaad" x="866.618426" y="274.707843" style="fill: #e98d6b; stroke: #ffffff; stroke-width: 0.75"/>
     <use xlink:href="#m25a7badaad" x="1033.792619" y="275.23376" style="fill: #e98d6b; stroke: #ffffff; stroke-width: 0.75"/>
    </g>
   </g>
   <g id="line2d_54">
    <path d="M 594.960363 275.95875 
L 615.857137 274.384612 
L 699.444233 269.539347 
L 866.618426 269.053265 
L 1033.792619 270.041778 
" clip-path="url(#pb36cccbabe)" style="fill: none; stroke: #e3685c; stroke-width: 2.8; stroke-linecap: round"/>
    <g clip-path="url(#pb36cccbabe)">
     <use xlink:href="#m1db9282c24" x="594.960363" y="275.95875" style="fill: #e3685c; stroke: #ffffff; stroke-width: 0.75"/>
     <use xlink:href="#m1db9282c24" x="615.857137" y="274.384612" style="fill: #e3685c; stroke: #ffffff; stroke-width: 0.75"/>
     <use xlink:href="#m1db9282c24" x="699.444233" y="269.539347" style="fill: #e3685c; stroke: #ffffff; stroke-width: 0.75"/>
     <use xlink:href="#m1db9282c24" x="866.618426" y="269.053265" style="fill: #e3685c; stroke: #ffffff; stroke-width: 0.75"/>
     <use xlink:href="#m1db9282c24" x="1033.792619" y="270.041778" style="fill: #e3685c; stroke: #ffffff; stroke-width: 0.75"/>
    </g>
   </g>
   <g id="line2d_55">
    <path d="M 594.960363 271.40762 
L 615.857137 268.128987 
L 699.444233 257.61232 
L 866.618426 252.924467 
L 1033.792619 256.868621 
" clip-path="url(#pb36cccbabe)" style="fill: none; stroke: #d14a61; stroke-width: 2.8; stroke-linecap: round"/>
    <g clip-path="url(#pb36cccbabe)">
     <use xlink:href="#m32dd78d0fb" x="594.960363" y="271.40762" style="fill: #d14a61; stroke: #ffffff; stroke-width: 0.75"/>
     <use xlink:href="#m32dd78d0fb" x="615.857137" y="268.128987" style="fill: #d14a61; stroke: #ffffff; stroke-width: 0.75"/>
     <use xlink:href="#m32dd78d0fb" x="699.444233" y="257.61232" style="fill: #d14a61; stroke: #ffffff; stroke-width: 0.75"/>
     <use xlink:href="#m32dd78d0fb" x="866.618426" y="252.924467" style="fill: #d14a61; stroke: #ffffff; stroke-width: 0.75"/>
     <use xlink:href="#m32dd78d0fb" x="1033.792619" y="256.868621" style="fill: #d14a61; stroke: #ffffff; stroke-width: 0.75"/>
    </g>
   </g>
   <g id="line2d_56">
    <path d="M 594.960363 261.944689 
L 615.857137 255.585972 
L 699.444233 237.578028 
L 866.618426 213.970741 
L 1033.792619 214.48764 
" clip-path="url(#pb36cccbabe)" style="fill: none; stroke: #b13c6c; stroke-width: 2.8; stroke-linecap: round"/>
    <g clip-path="url(#pb36cccbabe)">
     <use xlink:href="#mad5664a5c0" x="594.960363" y="261.944689" style="fill: #b13c6c; stroke: #ffffff; stroke-width: 0.75"/>
     <use xlink:href="#mad5664a5c0" x="615.857137" y="255.585972" style="fill: #b13c6c; stroke: #ffffff; stroke-width: 0.75"/>
     <use xlink:href="#mad5664a5c0" x="699.444233" y="237.578028" style="fill: #b13c6c; stroke: #ffffff; stroke-width: 0.75"/>
     <use xlink:href="#mad5664a5c0" x="866.618426" y="213.970741" style="fill: #b13c6c; stroke: #ffffff; stroke-width: 0.75"/>
     <use xlink:href="#mad5664a5c0" x="1033.792619" y="214.48764" style="fill: #b13c6c; stroke: #ffffff; stroke-width: 0.75"/>
    </g>
   </g>
   <g id="line2d_57">
    <path d="M 594.960363 241.74397 
L 615.857137 229.430514 
L 699.444233 183.039619 
L 866.618426 145.685254 
L 1033.792619 146.788226 
" clip-path="url(#pb36cccbabe)" style="fill: none; stroke: #8f3371; stroke-width: 2.8; stroke-linecap: round"/>
    <g clip-path="url(#pb36cccbabe)">
     <use xlink:href="#m46f4c1ecbf" x="594.960363" y="241.74397" style="fill: #8f3371; stroke: #ffffff; stroke-width: 0.75"/>
     <use xlink:href="#m46f4c1ecbf" x="615.857137" y="229.430514" style="fill: #8f3371; stroke: #ffffff; stroke-width: 0.75"/>
     <use xlink:href="#m46f4c1ecbf" x="699.444233" y="183.039619" style="fill: #8f3371; stroke: #ffffff; stroke-width: 0.75"/>
     <use xlink:href="#m46f4c1ecbf" x="866.618426" y="145.685254" style="fill: #8f3371; stroke: #ffffff; stroke-width: 0.75"/>
     <use xlink:href="#m46f4c1ecbf" x="1033.792619" y="146.788226" style="fill: #8f3371; stroke: #ffffff; stroke-width: 0.75"/>
    </g>
   </g>
   <g id="line2d_58">
    <path d="M 594.960363 200.593224 
L 615.857137 170.573701 
L 699.444233 100.518001 
L 866.618426 37.146151 
L 1033.792619 44.045461 
" clip-path="url(#pb36cccbabe)" style="fill: none; stroke: #6c2b6d; stroke-width: 2.8; stroke-linecap: round"/>
    <g clip-path="url(#pb36cccbabe)">
     <use xlink:href="#mf7405aea81" x="594.960363" y="200.593224" style="fill: #6c2b6d; stroke: #ffffff; stroke-width: 0.75"/>
     <use xlink:href="#mf7405aea81" x="615.857137" y="170.573701" style="fill: #6c2b6d; stroke: #ffffff; stroke-width: 0.75"/>
     <use xlink:href="#mf7405aea81" x="699.444233" y="100.518001" style="fill: #6c2b6d; stroke: #ffffff; stroke-width: 0.75"/>
     <use xlink:href="#mf7405aea81" x="866.618426" y="37.146151" style="fill: #6c2b6d; stroke: #ffffff; stroke-width: 0.75"/>
     <use xlink:href="#mf7405aea81" x="1033.792619" y="44.045461" style="fill: #6c2b6d; stroke: #ffffff; stroke-width: 0.75"/>
    </g>
   </g>
   <g id="text_26">
    <path d="M 660.64824 278.135161 
L 662.419407 278.079834 
L 662.228365 271.964067 
L 660.312942 272.410807 
L 660.282085 271.423008 
L 662.187201 270.976589 
L 663.271203 270.942728 
L 663.493102 278.046294 
L 665.264269 277.990967 
L 665.292765 278.903178 
L 660.676735 279.047372 
L 660.64824 278.135161 
z
" clip-path="url(#pb36cccbabe)" style="fill: #e98d6b; stroke: #fafafa; stroke-width: 5"/>
    <path d="M 660.64824 278.135161 
L 662.419407 278.079834 
L 662.228365 271.964067 
L 660.312942 272.410807 
L 660.282085 271.423008 
L 662.187201 270.976589 
L 663.271203 270.942728 
L 663.493102 278.046294 
L 665.264269 277.990967 
L 665.292765 278.903178 
L 660.676735 279.047372 
L 660.64824 278.135161 
z
" clip-path="url(#pb36cccbabe)" style="fill: #e98d6b"/>
   </g>
   <g id="text_27">
    <path d="M 723.39815 271.592363 
L 727.18454 271.581353 
L 727.187194 272.494006 
L 722.096278 272.508808 
L 722.093624 271.596156 
Q 722.708794 270.954989 723.771286 269.875958 
Q 724.835492 268.795203 725.107862 268.481597 
Q 725.626942 267.89571 725.832012 267.489487 
Q 726.038801 267.083259 726.037661 266.691386 
Q 726.035802 266.052014 725.586041 265.651132 
Q 725.136275 265.248532 724.416121 265.250626 
Q 723.905655 265.25211 723.338984 265.43079 
Q 722.774033 265.609465 722.130554 265.972275 
L 722.127365 264.875717 
Q 722.781442 264.610845 723.349956 264.475129 
Q 723.920188 264.339408 724.392843 264.338034 
Q 725.638931 264.33441 726.381523 264.95616 
Q 727.124111 265.576191 727.127139 266.617749 
Q 727.128578 267.112747 726.944244 267.556722 
Q 726.761622 267.998974 726.27353 268.601958 
Q 726.139923 268.758754 725.421933 269.505063 
Q 724.705663 270.251368 723.39815 271.592363 
z
" clip-path="url(#pb36cccbabe)" style="fill: #e3685c; stroke: #fafafa; stroke-width: 5"/>
    <path d="M 723.39815 271.592363 
L 727.18454 271.581353 
L 727.187194 272.494006 
L 722.096278 272.508808 
L 722.093624 271.596156 
Q 722.708794 270.954989 723.771286 269.875958 
Q 724.835492 268.795203 725.107862 268.481597 
Q 725.626942 267.89571 725.832012 267.489487 
Q 726.038801 267.083259 726.037661 266.691386 
Q 726.035802 266.052014 725.586041 265.651132 
Q 725.136275 265.248532 724.416121 265.250626 
Q 723.905655 265.25211 723.338984 265.43079 
Q 722.774033 265.609465 722.130554 265.972275 
L 722.127365 264.875717 
Q 722.781442 264.610845 723.349956 264.475129 
Q 723.920188 264.339408 724.392843 264.338034 
Q 725.638931 264.33441 726.381523 264.95616 
Q 727.124111 265.576191 727.127139 266.617749 
Q 727.128578 267.112747 726.944244 267.556722 
Q 726.761622 267.998974 726.27353 268.601958 
Q 726.139923 268.758754 725.421933 269.505063 
Q 724.705663 270.251368 723.39815 271.592363 
z
" clip-path="url(#pb36cccbabe)" style="fill: #e3685c"/>
   </g>
   <g id="text_28">
    <path d="M 787.387586 251.105586 
L 784.768986 255.462106 
L 787.507597 255.38531 
L 787.387586 251.105586 
z
M 787.075888 250.168643 
L 788.440039 250.13039 
L 788.586548 255.355055 
L 789.730785 255.322968 
L 789.756079 256.224957 
L 788.611841 256.257044 
L 788.664837 258.146926 
L 787.585886 258.177182 
L 787.53289 256.2873 
L 783.914625 256.388762 
L 783.885285 255.342454 
L 787.075888 250.168643 
z
" clip-path="url(#pb36cccbabe)" style="fill: #d14a61; stroke: #fafafa; stroke-width: 5"/>
    <path d="M 787.387586 251.105586 
L 784.768986 255.462106 
L 787.507597 255.38531 
L 787.387586 251.105586 
z
M 787.075888 250.168643 
L 788.440039 250.13039 
L 788.586548 255.355055 
L 789.730785 255.322968 
L 789.756079 256.224957 
L 788.611841 256.257044 
L 788.664837 258.146926 
L 787.585886 258.177182 
L 787.53289 256.2873 
L 783.914625 256.388762 
L 783.885285 255.342454 
L 787.075888 250.168643 
z
" clip-path="url(#pb36cccbabe)" style="fill: #d14a61"/>
   </g>
   <g id="text_29">
    <path d="M 848.761647 215.711251 
Q 847.995808 215.819398 847.614645 216.291552 
Q 847.235185 216.763466 847.336362 217.479951 
Q 847.43778 218.198138 847.933078 218.546523 
Q 848.430078 218.894669 849.195917 218.786522 
Q 849.961756 218.678375 850.34438 218.204279 
Q 850.728466 217.728241 850.627769 217.015159 
Q 850.526592 216.298674 850.029592 215.950529 
Q 849.534294 215.602143 848.761647 215.711251 
z
M 847.623362 215.406798 
Q 846.908373 215.334184 846.455238 214.91562 
Q 846.003566 214.495113 845.907435 213.814367 
Q 845.773092 212.863024 846.372329 212.214268 
Q 846.973267 211.565272 848.152659 211.398725 
Q 849.338859 211.231218 850.092606 211.688914 
Q 850.846352 212.146611 850.980695 213.097953 
Q 851.076825 213.778699 850.757553 214.308074 
Q 850.439743 214.835506 849.777924 215.102544 
Q 850.579449 215.173353 851.086224 215.639888 
Q 851.59446 216.104481 851.701646 216.863513 
Q 851.864828 218.019079 851.247494 218.736352 
Q 850.62992 219.451922 849.31608 219.637454 
Q 848.003943 219.822746 847.21067 219.306406 
Q 846.41886 218.788125 846.255678 217.632558 
Q 846.148492 216.873526 846.509909 216.286127 
Q 846.872787 215.696784 847.623362 215.406798 
z
M 846.990626 213.765554 
Q 847.077624 214.381629 847.511032 214.672794 
Q 847.946142 214.963718 848.642204 214.865425 
Q 849.334864 214.767612 849.675804 214.367098 
Q 850.018447 213.966344 849.931449 213.350269 
Q 849.84421 212.732492 849.403995 212.442289 
Q 848.965481 212.151845 848.272822 212.249658 
Q 847.57676 212.347952 847.239223 212.747984 
Q 846.903387 213.147777 846.990626 213.765554 
z
" clip-path="url(#pb36cccbabe)" style="fill: #b13c6c; stroke: #fafafa; stroke-width: 5"/>
    <path d="M 848.761647 215.711251 
Q 847.995808 215.819398 847.614645 216.291552 
Q 847.235185 216.763466 847.336362 217.479951 
Q 847.43778 218.198138 847.933078 218.546523 
Q 848.430078 218.894669 849.195917 218.786522 
Q 849.961756 218.678375 850.34438 218.204279 
Q 850.728466 217.728241 850.627769 217.015159 
Q 850.526592 216.298674 850.029592 215.950529 
Q 849.534294 215.602143 848.761647 215.711251 
z
M 847.623362 215.406798 
Q 846.908373 215.334184 846.455238 214.91562 
Q 846.003566 214.495113 845.907435 213.814367 
Q 845.773092 212.863024 846.372329 212.214268 
Q 846.973267 211.565272 848.152659 211.398725 
Q 849.338859 211.231218 850.092606 211.688914 
Q 850.846352 212.146611 850.980695 213.097953 
Q 851.076825 213.778699 850.757553 214.308074 
Q 850.439743 214.835506 849.777924 215.102544 
Q 850.579449 215.173353 851.086224 215.639888 
Q 851.59446 216.104481 851.701646 216.863513 
Q 851.864828 218.019079 851.247494 218.736352 
Q 850.62992 219.451922 849.31608 219.637454 
Q 848.003943 219.822746 847.21067 219.306406 
Q 846.41886 218.788125 846.255678 217.632558 
Q 846.148492 216.873526 846.509909 216.286127 
Q 846.872787 215.696784 847.623362 215.406798 
z
M 846.990626 213.765554 
Q 847.077624 214.381629 847.511032 214.672794 
Q 847.946142 214.963718 848.642204 214.865425 
Q 849.334864 214.767612 849.675804 214.367098 
Q 850.018447 213.966344 849.931449 213.350269 
Q 849.84421 212.732492 849.403995 212.442289 
Q 848.965481 212.151845 848.272822 212.249658 
Q 847.57676 212.347952 847.239223 212.747984 
Q 846.903387 213.147777 846.990626 213.765554 
z
" clip-path="url(#pb36cccbabe)" style="fill: #b13c6c"/>
   </g>
   <g id="text_30">
    <path d="M 908.822273 148.086406 
L 910.594265 148.098098 
L 910.634634 141.979481 
L 908.703688 142.353468 
L 908.710208 141.365208 
L 910.630842 140.991153 
L 911.71535 140.998308 
L 911.668461 148.105185 
L 913.440454 148.116876 
L 913.434432 149.029512 
L 908.816251 148.999043 
L 908.822273 148.086406 
z
M 918.110918 144.61902 
Q 917.380465 144.614201 916.949206 145.111522 
Q 916.519676 145.607137 916.513939 146.476805 
Q 916.508235 147.341318 916.931153 147.847713 
Q 917.355801 148.3524 918.086254 148.35722 
Q 918.816707 148.362039 919.246259 147.862987 
Q 919.675822 147.362217 919.681526 146.497704 
Q 919.687264 145.628036 919.264311 145.126797 
Q 918.841371 144.623839 918.110918 144.61902 
z
M 920.286906 141.231896 
L 920.280385 142.220156 
Q 919.872602 142.024961 919.457342 141.920813 
Q 919.042094 141.814946 918.633041 141.812247 
Q 917.558845 141.80516 916.986885 142.526715 
Q 916.416643 143.248281 916.326191 144.71381 
Q 916.645519 144.248406 917.124965 144.002345 
Q 917.60613 143.756296 918.18018 143.760083 
Q 919.388435 143.768055 920.084828 144.506572 
Q 920.781232 145.24337 920.772908 146.504905 
Q 920.764755 147.740659 920.02937 148.48348 
Q 919.293995 149.224582 918.080584 149.216576 
Q 916.688427 149.207391 915.959849 148.136936 
Q 915.231282 147.064762 915.24464 145.040119 
Q 915.257181 143.139222 916.166967 142.014263 
Q 917.076752 140.889303 918.596094 140.899327 
Q 919.005148 140.902026 919.420543 140.98555 
Q 919.835939 141.069074 920.286906 141.231896 
z
" clip-path="url(#pb36cccbabe)" style="fill: #8f3371; stroke: #fafafa; stroke-width: 5"/>
    <path d="M 908.822273 148.086406 
L 910.594265 148.098098 
L 910.634634 141.979481 
L 908.703688 142.353468 
L 908.710208 141.365208 
L 910.630842 140.991153 
L 911.71535 140.998308 
L 911.668461 148.105185 
L 913.440454 148.116876 
L 913.434432 149.029512 
L 908.816251 148.999043 
L 908.822273 148.086406 
z
M 918.110918 144.61902 
Q 917.380465 144.614201 916.949206 145.111522 
Q 916.519676 145.607137 916.513939 146.476805 
Q 916.508235 147.341318 916.931153 147.847713 
Q 917.355801 148.3524 918.086254 148.35722 
Q 918.816707 148.362039 919.246259 147.862987 
Q 919.675822 147.362217 919.681526 146.497704 
Q 919.687264 145.628036 919.264311 145.126797 
Q 918.841371 144.623839 918.110918 144.61902 
z
M 920.286906 141.231896 
L 920.280385 142.220156 
Q 919.872602 142.024961 919.457342 141.920813 
Q 919.042094 141.814946 918.633041 141.812247 
Q 917.558845 141.80516 916.986885 142.526715 
Q 916.416643 143.248281 916.326191 144.71381 
Q 916.645519 144.248406 917.124965 144.002345 
Q 917.60613 143.756296 918.18018 143.760083 
Q 919.388435 143.768055 920.084828 144.506572 
Q 920.781232 145.24337 920.772908 146.504905 
Q 920.764755 147.740659 920.02937 148.48348 
Q 919.293995 149.224582 918.080584 149.216576 
Q 916.688427 149.207391 915.959849 148.136936 
Q 915.231282 147.064762 915.24464 145.040119 
Q 915.257181 143.139222 916.166967 142.014263 
Q 917.076752 140.889303 918.596094 140.899327 
Q 919.005148 140.902026 919.420543 140.98555 
Q 919.835939 141.069074 920.286906 141.231896 
z
" clip-path="url(#pb36cccbabe)" style="fill: #8f3371"/>
   </g>
   <g id="text_31">
    <path d="M 974.04799 40.289629 
Q 974.819047 40.488311 975.233481 41.03352 
Q 975.649702 41.577083 975.617809 42.349863 
Q 975.568907 43.534792 974.726334 44.151979 
Q 973.883832 44.767449 972.381205 44.705436 
Q 971.87804 44.68467 971.348074 44.563026 
Q 970.818108 44.441382 970.257907 44.218717 
L 970.301068 43.172889 
Q 970.740154 43.454203 971.27042 43.610264 
Q 971.802403 43.766395 972.387998 43.790563 
Q 973.40635 43.83259 973.957011 43.452786 
Q 974.507672 43.072982 974.539352 42.305355 
Q 974.568623 41.596115 974.088769 41.177221 
Q 973.608986 40.756611 972.724583 40.720112 
L 971.790378 40.681557 
L 971.827161 39.790284 
L 972.804298 39.830611 
Q 973.602837 39.863567 974.040189 39.561657 
Q 974.477542 39.259747 974.502347 38.658696 
Q 974.527791 38.042189 974.10349 37.694398 
Q 973.680977 37.344959 972.865265 37.311295 
Q 972.41877 37.292868 971.904696 37.369704 
Q 971.390692 37.444823 970.770975 37.622232 
L 970.810805 36.657116 
Q 971.436116 36.510902 971.978888 36.447291 
Q 972.521661 36.383681 972.999067 36.403383 
Q 974.233797 36.454341 974.928448 37.045519 
Q 975.624887 37.635051 975.585482 38.589863 
Q 975.557983 39.256171 975.157822 39.698953 
Q 974.757661 40.141735 974.04799 40.289629 
z
M 978.548923 43.890006 
L 982.332109 44.046139 
L 982.294475 44.958019 
L 977.207868 44.748094 
L 977.245501 43.836214 
Q 977.888373 43.222826 978.997458 42.191745 
Q 980.108331 41.159017 980.394278 40.857739 
Q 980.938713 40.295336 981.161514 39.89856 
Q 981.386032 39.501856 981.402191 39.110314 
Q 981.428556 38.471483 980.996928 38.05114 
Q 980.56537 37.629079 979.845827 37.599384 
Q 979.335792 37.578334 978.761787 37.731827 
Q 978.189499 37.885391 977.530633 38.219444 
L 977.57585 37.123814 
Q 978.24098 36.888071 978.814931 36.777582 
Q 979.390599 36.667163 979.862853 36.686653 
Q 981.107887 36.738036 981.822311 37.391958 
Q 982.536806 38.044162 982.493857 39.084839 
Q 982.473446 39.579418 982.269694 40.014824 
Q 982.06773 40.448584 981.553497 41.029436 
Q 981.413099 41.180181 980.662867 41.894071 
Q 979.914353 42.608032 978.548923 43.890006 
z
" clip-path="url(#pb36cccbabe)" style="fill: #6c2b6d; stroke: #fafafa; stroke-width: 5"/>
    <path d="M 974.04799 40.289629 
Q 974.819047 40.488311 975.233481 41.03352 
Q 975.649702 41.577083 975.617809 42.349863 
Q 975.568907 43.534792 974.726334 44.151979 
Q 973.883832 44.767449 972.381205 44.705436 
Q 971.87804 44.68467 971.348074 44.563026 
Q 970.818108 44.441382 970.257907 44.218717 
L 970.301068 43.172889 
Q 970.740154 43.454203 971.27042 43.610264 
Q 971.802403 43.766395 972.387998 43.790563 
Q 973.40635 43.83259 973.957011 43.452786 
Q 974.507672 43.072982 974.539352 42.305355 
Q 974.568623 41.596115 974.088769 41.177221 
Q 973.608986 40.756611 972.724583 40.720112 
L 971.790378 40.681557 
L 971.827161 39.790284 
L 972.804298 39.830611 
Q 973.602837 39.863567 974.040189 39.561657 
Q 974.477542 39.259747 974.502347 38.658696 
Q 974.527791 38.042189 974.10349 37.694398 
Q 973.680977 37.344959 972.865265 37.311295 
Q 972.41877 37.292868 971.904696 37.369704 
Q 971.390692 37.444823 970.770975 37.622232 
L 970.810805 36.657116 
Q 971.436116 36.510902 971.978888 36.447291 
Q 972.521661 36.383681 972.999067 36.403383 
Q 974.233797 36.454341 974.928448 37.045519 
Q 975.624887 37.635051 975.585482 38.589863 
Q 975.557983 39.256171 975.157822 39.698953 
Q 974.757661 40.141735 974.04799 40.289629 
z
M 978.548923 43.890006 
L 982.332109 44.046139 
L 982.294475 44.958019 
L 977.207868 44.748094 
L 977.245501 43.836214 
Q 977.888373 43.222826 978.997458 42.191745 
Q 980.108331 41.159017 980.394278 40.857739 
Q 980.938713 40.295336 981.161514 39.89856 
Q 981.386032 39.501856 981.402191 39.110314 
Q 981.428556 38.471483 980.996928 38.05114 
Q 980.56537 37.629079 979.845827 37.599384 
Q 979.335792 37.578334 978.761787 37.731827 
Q 978.189499 37.885391 977.530633 38.219444 
L 977.57585 37.123814 
Q 978.24098 36.888071 978.814931 36.777582 
Q 979.390599 36.667163 979.862853 36.686653 
Q 981.107887 36.738036 981.822311 37.391958 
Q 982.536806 38.044162 982.493857 39.084839 
Q 982.473446 39.579418 982.269694 40.014824 
Q 982.06773 40.448584 981.553497 41.029436 
Q 981.413099 41.180181 980.662867 41.894071 
Q 979.914353 42.608032 978.548923 43.890006 
z
" clip-path="url(#pb36cccbabe)" style="fill: #6c2b6d"/>
   </g>
   <g id="patch_6">
    <path d="M 573.01875 290.577969 
L 573.01875 25.077969 
" style="fill: none; stroke: #bbbbbb; stroke-linejoin: miter; stroke-linecap: square"/>
   </g>
   <g id="patch_7">
    <path d="M 573.01875 290.577969 
L 1055.734232 290.577969 
" style="fill: none; stroke: #bbbbbb; stroke-linejoin: miter; stroke-linecap: square"/>
   </g>
   <g id="text_32">
    <!-- Read -->
    <g style="fill: #262626" transform="translate(795.9236 17.077969) scale(0.13 -0.13)">
     <defs>
      <path id="DejaVuSans-Bold-52" d="M 2297 2597 
Q 2675 2597 2839 2737 
Q 3003 2878 3003 3200 
Q 3003 3519 2839 3656 
Q 2675 3794 2297 3794 
L 1791 3794 
L 1791 2597 
L 2297 2597 
z
M 1791 1766 
L 1791 0 
L 588 0 
L 588 4666 
L 2425 4666 
Q 3347 4666 3776 4356 
Q 4206 4047 4206 3378 
Q 4206 2916 3982 2619 
Q 3759 2322 3309 2181 
Q 3556 2125 3751 1926 
Q 3947 1728 4147 1325 
L 4800 0 
L 3519 0 
L 2950 1159 
Q 2778 1509 2601 1637 
Q 2425 1766 2131 1766 
L 1791 1766 
z
" transform="scale(0.015625)"/>
      <path id="DejaVuSans-Bold-61" d="M 2106 1575 
Q 1756 1575 1579 1456 
Q 1403 1338 1403 1106 
Q 1403 894 1545 773 
Q 1688 653 1941 653 
Q 2256 653 2472 879 
Q 2688 1106 2688 1447 
L 2688 1575 
L 2106 1575 
z
M 3816 1997 
L 3816 0 
L 2688 0 
L 2688 519 
Q 2463 200 2181 54 
Q 1900 -91 1497 -91 
Q 953 -91 614 226 
Q 275 544 275 1050 
Q 275 1666 698 1953 
Q 1122 2241 2028 2241 
L 2688 2241 
L 2688 2328 
Q 2688 2594 2478 2717 
Q 2269 2841 1825 2841 
Q 1466 2841 1156 2769 
Q 847 2697 581 2553 
L 581 3406 
Q 941 3494 1303 3539 
Q 1666 3584 2028 3584 
Q 2975 3584 3395 3211 
Q 3816 2838 3816 1997 
z
" transform="scale(0.015625)"/>
      <path id="DejaVuSans-Bold-64" d="M 2919 2988 
L 2919 4863 
L 4044 4863 
L 4044 0 
L 2919 0 
L 2919 506 
Q 2688 197 2409 53 
Q 2131 -91 1766 -91 
Q 1119 -91 703 423 
Q 288 938 288 1747 
Q 288 2556 703 3070 
Q 1119 3584 1766 3584 
Q 2128 3584 2408 3439 
Q 2688 3294 2919 2988 
z
M 2181 722 
Q 2541 722 2730 984 
Q 2919 1247 2919 1747 
Q 2919 2247 2730 2509 
Q 2541 2772 2181 2772 
Q 1825 2772 1636 2509 
Q 1447 2247 1447 1747 
Q 1447 1247 1636 984 
Q 1825 722 2181 722 
z
" transform="scale(0.015625)"/>
     </defs>
     <use xlink:href="#DejaVuSans-Bold-52"/>
     <use xlink:href="#DejaVuSans-Bold-65" transform="translate(77.001953 0)"/>
     <use xlink:href="#DejaVuSans-Bold-61" transform="translate(144.824219 0)"/>
     <use xlink:href="#DejaVuSans-Bold-64" transform="translate(212.304688 0)"/>
    </g>
   </g>
  </g>
  <g id="legend_1">
   <g id="patch_8">
    <path d="M 341.98875 389.877969 
L 729.46875 389.877969 
Q 731.86875 389.877969 731.86875 387.477969 
L 731.86875 338.082656 
Q 731.86875 335.682656 729.46875 335.682656 
L 341.98875 335.682656 
Q 339.58875 335.682656 339.58875 338.082656 
L 339.58875 387.477969 
Q 339.58875 389.877969 341.98875 389.877969 
z
" style="fill: #fafafa; opacity: 0.9; stroke: #dddddd; stroke-linejoin: miter"/>
   </g>
   <g id="text_33">
    <!-- Client Nodes -->
    <g style="fill: #262626" transform="translate(494.493359 357.560625) scale(0.13 -0.13)">
     <defs>
      <path id="DejaVuSans-43" d="M 4122 4306 
L 4122 3641 
Q 3803 3938 3442 4084 
Q 3081 4231 2675 4231 
Q 1875 4231 1450 3742 
Q 1025 3253 1025 2328 
Q 1025 1406 1450 917 
Q 1875 428 2675 428 
Q 3081 428 3442 575 
Q 3803 722 4122 1019 
L 4122 359 
Q 3791 134 3420 21 
Q 3050 -91 2638 -91 
Q 1578 -91 968 557 
Q 359 1206 359 2328 
Q 359 3453 968 4101 
Q 1578 4750 2638 4750 
Q 3056 4750 3426 4639 
Q 3797 4528 4122 4306 
z
" transform="scale(0.015625)"/>
      <path id="DejaVuSans-6c" d="M 603 4863 
L 1178 4863 
L 1178 0 
L 603 0 
L 603 4863 
z
" transform="scale(0.015625)"/>
     </defs>
     <use xlink:href="#DejaVuSans-43"/>
     <use xlink:href="#DejaVuSans-6c" transform="translate(69.824219 0)"/>
     <use xlink:href="#DejaVuSans-69" transform="translate(97.607422 0)"/>
     <use xlink:href="#DejaVuSans-65" transform="translate(125.390625 0)"/>
     <use xlink:href="#DejaVuSans-6e" transform="translate(186.914062 0)"/>
     <use xlink:href="#DejaVuSans-74" transform="translate(250.292969 0)"/>
     <use xlink:href="#DejaVuSans-20" transform="translate(289.501953 0)"/>
     <use xlink:href="#DejaVuSans-4e" transform="translate(321.289062 0)"/>
     <use xlink:href="#DejaVuSans-6f" transform="translate(396.09375 0)"/>
     <use xlink:href="#DejaVuSans-64" transform="translate(457.275391 0)"/>
     <use xlink:href="#DejaVuSans-65" transform="translate(520.751953 0)"/>
     <use xlink:href="#DejaVuSans-73" transform="translate(582.275391 0)"/>
    </g>
   </g>
   <g id="line2d_59">
    <path d="M 351.58875 371.182344 
L 363.58875 371.182344 
L 375.58875 371.182344 
" style="fill: none; stroke: #e98d6b; stroke-width: 2.8; stroke-linecap: round"/>
    <defs>
     <path id="ma0be4c54c4" d="M 0 3 
C 0.795609 3 1.55874 2.683901 2.12132 2.12132 
C 2.683901 1.55874 3 0.795609 3 0 
C 3 -0.795609 2.683901 -1.55874 2.12132 -2.12132 
C 1.55874 -2.683901 0.795609 -3 0 -3 
C -0.795609 -3 -1.55874 -2.683901 -2.12132 -2.12132 
C -2.683901 -1.55874 -3 -0.795609 -3 0 
C -3 0.795609 -2.683901 1.55874 -2.12132 2.12132 
C -1.55874 2.683901 -0.795609 3 0 3 
z
" style="stroke: #e98d6b"/>
    </defs>
    <g>
     <use xlink:href="#ma0be4c54c4" x="363.58875" y="371.182344" style="fill: #e98d6b; stroke: #e98d6b"/>
    </g>
   </g>
   <g id="text_34">
    <!-- 1 -->
    <g style="fill: #262626" transform="translate(382.78875 375.382344) scale(0.12 -0.12)">
     <use xlink:href="#DejaVuSans-31"/>
    </g>
   </g>
   <g id="line2d_60">
    <path d="M 414.42375 371.182344 
L 426.42375 371.182344 
L 438.42375 371.182344 
" style="fill: none; stroke: #e3685c; stroke-width: 2.8; stroke-linecap: round"/>
    <defs>
     <path id="m284e4d3ae7" d="M 0 3 
C 0.795609 3 1.55874 2.683901 2.12132 2.12132 
C 2.683901 1.55874 3 0.795609 3 0 
C 3 -0.795609 2.683901 -1.55874 2.12132 -2.12132 
C 1.55874 -2.683901 0.795609 -3 0 -3 
C -0.795609 -3 -1.55874 -2.683901 -2.12132 -2.12132 
C -2.683901 -1.55874 -3 -0.795609 -3 0 
C -3 0.795609 -2.683901 1.55874 -2.12132 2.12132 
C -1.55874 2.683901 -0.795609 3 0 3 
z
" style="stroke: #e3685c"/>
    </defs>
    <g>
     <use xlink:href="#m284e4d3ae7" x="426.42375" y="371.182344" style="fill: #e3685c; stroke: #e3685c"/>
    </g>
   </g>
   <g id="text_35">
    <!-- 2 -->
    <g style="fill: #262626" transform="translate(445.62375 375.382344) scale(0.12 -0.12)">
     <use xlink:href="#DejaVuSans-32"/>
    </g>
   </g>
   <g id="line2d_61">
    <path d="M 477.25875 371.182344 
L 489.25875 371.182344 
L 501.25875 371.182344 
" style="fill: none; stroke: #d14a61; stroke-width: 2.8; stroke-linecap: round"/>
    <defs>
     <path id="me71d31cceb" d="M 0 3 
C 0.795609 3 1.55874 2.683901 2.12132 2.12132 
C 2.683901 1.55874 3 0.795609 3 0 
C 3 -0.795609 2.683901 -1.55874 2.12132 -2.12132 
C 1.55874 -2.683901 0.795609 -3 0 -3 
C -0.795609 -3 -1.55874 -2.683901 -2.12132 -2.12132 
C -2.683901 -1.55874 -3 -0.795609 -3 0 
C -3 0.795609 -2.683901 1.55874 -2.12132 2.12132 
C -1.55874 2.683901 -0.795609 3 0 3 
z
" style="stroke: #d14a61"/>
    </defs>
    <g>
     <use xlink:href="#me71d31cceb" x="489.25875" y="371.182344" style="fill: #d14a61; stroke: #d14a61"/>
    </g>
   </g>
   <g id="text_36">
    <!-- 4 -->
    <g style="fill: #262626" transform="translate(508.45875 375.382344) scale(0.12 -0.12)">
     <use xlink:href="#DejaVuSans-34"/>
    </g>
   </g>
   <g id="line2d_62">
    <path d="M 540.09375 371.182344 
L 552.09375 371.182344 
L 564.09375 371.182344 
" style="fill: none; stroke: #b13c6c; stroke-width: 2.8; stroke-linecap: round"/>
    <defs>
     <path id="mf850380080" d="M 0 3 
C 0.795609 3 1.55874 2.683901 2.12132 2.12132 
C 2.683901 1.55874 3 0.795609 3 0 
C 3 -0.795609 2.683901 -1.55874 2.12132 -2.12132 
C 1.55874 -2.683901 0.795609 -3 0 -3 
C -0.795609 -3 -1.55874 -2.683901 -2.12132 -2.12132 
C -2.683901 -1.55874 -3 -0.795609 -3 0 
C -3 0.795609 -2.683901 1.55874 -2.12132 2.12132 
C -1.55874 2.683901 -0.795609 3 0 3 
z
" style="stroke: #b13c6c"/>
    </defs>
    <g>
     <use xlink:href="#mf850380080" x="552.09375" y="371.182344" style="fill: #b13c6c; stroke: #b13c6c"/>
    </g>
   </g>
   <g id="text_37">
    <!-- 8 -->
    <g style="fill: #262626" transform="translate(571.29375 375.382344) scale(0.12 -0.12)">
     <use xlink:href="#DejaVuSans-38"/>
    </g>
   </g>
   <g id="line2d_63">
    <path d="M 602.92875 371.182344 
L 614.92875 371.182344 
L 626.92875 371.182344 
" style="fill: none; stroke: #8f3371; stroke-width: 2.8; stroke-linecap: round"/>
    <defs>
     <path id="me46802ee86" d="M 0 3 
C 0.795609 3 1.55874 2.683901 2.12132 2.12132 
C 2.683901 1.55874 3 0.795609 3 0 
C 3 -0.795609 2.683901 -1.55874 2.12132 -2.12132 
C 1.55874 -2.683901 0.795609 -3 0 -3 
C -0.795609 -3 -1.55874 -2.683901 -2.12132 -2.12132 
C -2.683901 -1.55874 -3 -0.795609 -3 0 
C -3 0.795609 -2.683901 1.55874 -2.12132 2.12132 
C -1.55874 2.683901 -0.795609 3 0 3 
z
" style="stroke: #8f3371"/>
    </defs>
    <g>
     <use xlink:href="#me46802ee86" x="614.92875" y="371.182344" style="fill: #8f3371; stroke: #8f3371"/>
    </g>
   </g>
   <g id="text_38">
    <!-- 16 -->
    <g style="fill: #262626" transform="translate(634.12875 375.382344) scale(0.12 -0.12)">
     <use xlink:href="#DejaVuSans-31"/>
     <use xlink:href="#DejaVuSans-36" transform="translate(63.623047 0)"/>
    </g>
   </g>
   <g id="line2d_64">
    <path d="M 673.39875 371.182344 
L 685.39875 371.182344 
L 697.39875 371.182344 
" style="fill: none; stroke: #6c2b6d; stroke-width: 2.8; stroke-linecap: round"/>
    <defs>
     <path id="mbcd60ce63f" d="M 0 3 
C 0.795609 3 1.55874 2.683901 2.12132 2.12132 
C 2.683901 1.55874 3 0.795609 3 0 
C 3 -0.795609 2.683901 -1.55874 2.12132 -2.12132 
C 1.55874 -2.683901 0.795609 -3 0 -3 
C -0.795609 -3 -1.55874 -2.683901 -2.12132 -2.12132 
C -2.683901 -1.55874 -3 -0.795609 -3 0 
C -3 0.795609 -2.683901 1.55874 -2.12132 2.12132 
C -1.55874 2.683901 -0.795609 3 0 3 
z
" style="stroke: #6c2b6d"/>
    </defs>
    <g>
     <use xlink:href="#mbcd60ce63f" x="685.39875" y="371.182344" style="fill: #6c2b6d; stroke: #6c2b6d"/>
    </g>
   </g>
   <g id="text_39">
    <!-- 32 -->
    <g style="fill: #262626" transform="translate(704.59875 375.382344) scale(0.12 -0.12)">
     <use xlink:href="#DejaVuSans-33"/>
     <use xlink:href="#DejaVuSans-32" transform="translate(63.623047 0)"/>
    </g>
   </g>
  </g>
 </g>
 <defs>
  <clipPath id="pc413adc16d">
   <rect x="64.30875" y="25.077969" width="482.715482" height="265.5"/>
  </clipPath>
  <clipPath id="pb36cccbabe">
   <rect x="573.01875" y="25.077969" width="482.715482" height="265.5"/>
  </clipPath>
 </defs>
</svg>
