<?xml version="1.0" encoding="utf-8" standalone="no"?>
<!DOCTYPE svg PUBLIC "-//W3C//DTD SVG 1.1//EN"
  "http://www.w3.org/Graphics/SVG/1.1/DTD/svg11.dtd">
<svg xmlns:xlink="http://www.w3.org/1999/xlink" width="1062.934232pt" height="397.077969pt" viewBox="0 0 1062.934232 397.077969" xmlns="http://www.w3.org/2000/svg" version="1.1">
 <metadata>
  <rdf:RDF xmlns:dc="http://purl.org/dc/elements/1.1/" xmlns:cc="http://creativecommons.org/ns#" xmlns:rdf="http://www.w3.org/1999/02/22-rdf-syntax-ns#">
   <cc:Work>
    <dc:type rdf:resource="http://purl.org/dc/dcmitype/StillImage"/>
    <dc:date>2026-03-22T10:34:58.221688</dc:date>
    <dc:format>image/svg+xml</dc:format>
    <dc:creator>
     <cc:Agent>
      <dc:title>Matplotlib v3.10.8, https://matplotlib.org/</dc:title>
     </cc:Agent>
    </dc:creator>
   </cc:Work>
  </rdf:RDF>
 </metadata>
 <defs>
  <style type="text/css">*{stroke-linejoin: round; stroke-linecap: butt}</style>
 </defs>
 <g id="figure_1">
  <g id="patch_1">
   <path d="M 0 397.077969 
L 1062.934232 397.077969 
L 1062.934232 0 
L 0 0 
z
" style="fill: #ffffff"/>
  </g>
  <g id="axes_1">
   <g id="patch_2">
    <path d="M 64.30875 290.577969 
L 547.024232 290.577969 
L 547.024232 25.077969 
L 64.30875 25.077969 
z
" style="fill: #fafafa"/>
   </g>
   <g id="matplotlib.axis_1">
    <g id="xtick_1">
     <g id="line2d_1">
      <path d="M 86.250363 290.577969 
L 86.250363 25.077969 
" clip-path="url(#pba73ba8cce)" style="fill: none; stroke: #e0e0e0; stroke-width: 0.8; stroke-linecap: round"/>
     </g>
     <g id="line2d_2">
      <defs>
       <path id="m8b5adb8239" d="M 0 0 
L 0 4 
" style="stroke: #aaaaaa"/>
      </defs>
      <g>
       <use xlink:href="#m8b5adb8239" x="86.250363" y="290.577969" style="fill: #aaaaaa; stroke: #aaaaaa"/>
      </g>
     </g>
     <g id="text_1">
      <!-- 6 -->
      <g style="fill: #262626" transform="translate(82.750988 306.43625) scale(0.11 -0.11)">
       <defs>
        <path id="DejaVuSans-36" d="M 2113 2584 
Q 1688 2584 1439 2293 
Q 1191 2003 1191 1497 
Q 1191 994 1439 701 
Q 1688 409 2113 409 
Q 2538 409 2786 701 
Q 3034 994 3034 1497 
Q 3034 2003 2786 2293 
Q 2538 2584 2113 2584 
z
M 3366 4563 
L 3366 3988 
Q 3128 4100 2886 4159 
Q 2644 4219 2406 4219 
Q 1781 4219 1451 3797 
Q 1122 3375 1075 2522 
Q 1259 2794 1537 2939 
Q 1816 3084 2150 3084 
Q 2853 3084 3261 2657 
Q 3669 2231 3669 1497 
Q 3669 778 3244 343 
Q 2819 -91 2113 -91 
Q 1303 -91 875 529 
Q 447 1150 447 2328 
Q 447 3434 972 4092 
Q 1497 4750 2381 4750 
Q 2619 4750 2861 4703 
Q 3103 4656 3366 4563 
z
" transform="scale(0.015625)"/>
       </defs>
       <use xlink:href="#DejaVuSans-36"/>
      </g>
     </g>
    </g>
    <g id="xtick_2">
     <g id="line2d_3">
      <path d="M 107.147137 290.577969 
L 107.147137 25.077969 
" clip-path="url(#pba73ba8cce)" style="fill: none; stroke: #e0e0e0; stroke-width: 0.8; stroke-linecap: round"/>
     </g>
     <g id="line2d_4">
      <g>
       <use xlink:href="#m8b5adb8239" x="107.147137" y="290.577969" style="fill: #aaaaaa; stroke: #aaaaaa"/>
      </g>
     </g>
     <g id="text_2">
      <!-- 8 -->
      <g style="fill: #262626" transform="translate(103.647762 306.43625) scale(0.11 -0.11)">
       <defs>
        <path id="DejaVuSans-38" d="M 2034 2216 
Q 1584 2216 1326 1975 
Q 1069 1734 1069 1313 
Q 1069 891 1326 650 
Q 1584 409 2034 409 
Q 2484 409 2743 651 
Q 3003 894 3003 1313 
Q 3003 1734 2745 1975 
Q 2488 2216 2034 2216 
z
M 1403 2484 
Q 997 2584 770 2862 
Q 544 3141 544 3541 
Q 544 4100 942 4425 
Q 1341 4750 2034 4750 
Q 2731 4750 3128 4425 
Q 3525 4100 3525 3541 
Q 3525 3141 3298 2862 
Q 3072 2584 2669 2484 
Q 3125 2378 3379 2068 
Q 3634 1759 3634 1313 
Q 3634 634 3220 271 
Q 2806 -91 2034 -91 
Q 1263 -91 848 271 
Q 434 634 434 1313 
Q 434 1759 690 2068 
Q 947 2378 1403 2484 
z
M 1172 3481 
Q 1172 3119 1398 2916 
Q 1625 2713 2034 2713 
Q 2441 2713 2670 2916 
Q 2900 3119 2900 3481 
Q 2900 3844 2670 4047 
Q 2441 4250 2034 4250 
Q 1625 4250 1398 4047 
Q 1172 3844 1172 3481 
z
" transform="scale(0.015625)"/>
       </defs>
       <use xlink:href="#DejaVuSans-38"/>
      </g>
     </g>
    </g>
    <g id="xtick_3">
     <g id="line2d_5">
      <path d="M 190.734233 290.577969 
L 190.734233 25.077969 
" clip-path="url(#pba73ba8cce)" style="fill: none; stroke: #e0e0e0; stroke-width: 0.8; stroke-linecap: round"/>
     </g>
     <g id="line2d_6">
      <g>
       <use xlink:href="#m8b5adb8239" x="190.734233" y="290.577969" style="fill: #aaaaaa; stroke: #aaaaaa"/>
      </g>
     </g>
     <g id="text_3">
      <!-- 16 -->
      <g style="fill: #262626" transform="translate(183.735483 306.43625) scale(0.11 -0.11)">
       <defs>
        <path id="DejaVuSans-31" d="M 794 531 
L 1825 531 
L 1825 4091 
L 703 3866 
L 703 4441 
L 1819 4666 
L 2450 4666 
L 2450 531 
L 3481 531 
L 3481 0 
L 794 0 
L 794 531 
z
" transform="scale(0.015625)"/>
       </defs>
       <use xlink:href="#DejaVuSans-31"/>
       <use xlink:href="#DejaVuSans-36" transform="translate(63.623047 0)"/>
      </g>
     </g>
    </g>
    <g id="xtick_4">
     <g id="line2d_7">
      <path d="M 357.908426 290.577969 
L 357.908426 25.077969 
" clip-path="url(#pba73ba8cce)" style="fill: none; stroke: #e0e0e0; stroke-width: 0.8; stroke-linecap: round"/>
     </g>
     <g id="line2d_8">
      <g>
       <use xlink:href="#m8b5adb8239" x="357.908426" y="290.577969" style="fill: #aaaaaa; stroke: #aaaaaa"/>
      </g>
     </g>
     <g id="text_4">
      <!-- 32 -->
      <g style="fill: #262626" transform="translate(350.909676 306.43625) scale(0.11 -0.11)">
       <defs>
        <path id="DejaVuSans-33" d="M 2597 2516 
Q 3050 2419 3304 2112 
Q 3559 1806 3559 1356 
Q 3559 666 3084 287 
Q 2609 -91 1734 -91 
Q 1441 -91 1130 -33 
Q 819 25 488 141 
L 488 750 
Q 750 597 1062 519 
Q 1375 441 1716 441 
Q 2309 441 2620 675 
Q 2931 909 2931 1356 
Q 2931 1769 2642 2001 
Q 2353 2234 1838 2234 
L 1294 2234 
L 1294 2753 
L 1863 2753 
Q 2328 2753 2575 2939 
Q 2822 3125 2822 3475 
Q 2822 3834 2567 4026 
Q 2313 4219 1838 4219 
Q 1578 4219 1281 4162 
Q 984 4106 628 3988 
L 628 4550 
Q 988 4650 1302 4700 
Q 1616 4750 1894 4750 
Q 2613 4750 3031 4423 
Q 3450 4097 3450 3541 
Q 3450 3153 3228 2886 
Q 3006 2619 2597 2516 
z
" transform="scale(0.015625)"/>
        <path id="DejaVuSans-32" d="M 1228 531 
L 3431 531 
L 3431 0 
L 469 0 
L 469 531 
Q 828 903 1448 1529 
Q 2069 2156 2228 2338 
Q 2531 2678 2651 2914 
Q 2772 3150 2772 3378 
Q 2772 3750 2511 3984 
Q 2250 4219 1831 4219 
Q 1534 4219 1204 4116 
Q 875 4013 500 3803 
L 500 4441 
Q 881 4594 1212 4672 
Q 1544 4750 1819 4750 
Q 2544 4750 2975 4387 
Q 3406 4025 3406 3419 
Q 3406 3131 3298 2873 
Q 3191 2616 2906 2266 
Q 2828 2175 2409 1742 
Q 1991 1309 1228 531 
z
" transform="scale(0.015625)"/>
       </defs>
       <use xlink:href="#DejaVuSans-33"/>
       <use xlink:href="#DejaVuSans-32" transform="translate(63.623047 0)"/>
      </g>
     </g>
    </g>
    <g id="xtick_5">
     <g id="line2d_9">
      <path d="M 525.082619 290.577969 
L 525.082619 25.077969 
" clip-path="url(#pba73ba8cce)" style="fill: none; stroke: #e0e0e0; stroke-width: 0.8; stroke-linecap: round"/>
     </g>
     <g id="line2d_10">
      <g>
       <use xlink:href="#m8b5adb8239" x="525.082619" y="290.577969" style="fill: #aaaaaa; stroke: #aaaaaa"/>
      </g>
     </g>
     <g id="text_5">
      <!-- 48 -->
      <g style="fill: #262626" transform="translate(518.083869 306.43625) scale(0.11 -0.11)">
       <defs>
        <path id="DejaVuSans-34" d="M 2419 4116 
L 825 1625 
L 2419 1625 
L 2419 4116 
z
M 2253 4666 
L 3047 4666 
L 3047 1625 
L 3713 1625 
L 3713 1100 
L 3047 1100 
L 3047 0 
L 2419 0 
L 2419 1100 
L 313 1100 
L 313 1709 
L 2253 4666 
z
" transform="scale(0.015625)"/>
       </defs>
       <use xlink:href="#DejaVuSans-34"/>
       <use xlink:href="#DejaVuSans-38" transform="translate(63.623047 0)"/>
      </g>
     </g>
    </g>
    <g id="text_6">
     <!-- Tasks per Node -->
     <g style="fill: #262626" transform="translate(260.147116 327.842031) scale(0.12 -0.12)">
      <defs>
       <path id="DejaVuSans-54" d="M -19 4666 
L 3928 4666 
L 3928 4134 
L 2272 4134 
L 2272 0 
L 1638 0 
L 1638 4134 
L -19 4134 
L -19 4666 
z
" transform="scale(0.015625)"/>
       <path id="DejaVuSans-61" d="M 2194 1759 
Q 1497 1759 1228 1600 
Q 959 1441 959 1056 
Q 959 750 1161 570 
Q 1363 391 1709 391 
Q 2188 391 2477 730 
Q 2766 1069 2766 1631 
L 2766 1759 
L 2194 1759 
z
M 3341 1997 
L 3341 0 
L 2766 0 
L 2766 531 
Q 2569 213 2275 61 
Q 1981 -91 1556 -91 
Q 1019 -91 701 211 
Q 384 513 384 1019 
Q 384 1609 779 1909 
Q 1175 2209 1959 2209 
L 2766 2209 
L 2766 2266 
Q 2766 2663 2505 2880 
Q 2244 3097 1772 3097 
Q 1472 3097 1187 3025 
Q 903 2953 641 2809 
L 641 3341 
Q 956 3463 1253 3523 
Q 1550 3584 1831 3584 
Q 2591 3584 2966 3190 
Q 3341 2797 3341 1997 
z
" transform="scale(0.015625)"/>
       <path id="DejaVuSans-73" d="M 2834 3397 
L 2834 2853 
Q 2591 2978 2328 3040 
Q 2066 3103 1784 3103 
Q 1356 3103 1142 2972 
Q 928 2841 928 2578 
Q 928 2378 1081 2264 
Q 1234 2150 1697 2047 
L 1894 2003 
Q 2506 1872 2764 1633 
Q 3022 1394 3022 966 
Q 3022 478 2636 193 
Q 2250 -91 1575 -91 
Q 1294 -91 989 -36 
Q 684 19 347 128 
L 347 722 
Q 666 556 975 473 
Q 1284 391 1588 391 
Q 1994 391 2212 530 
Q 2431 669 2431 922 
Q 2431 1156 2273 1281 
Q 2116 1406 1581 1522 
L 1381 1569 
Q 847 1681 609 1914 
Q 372 2147 372 2553 
Q 372 3047 722 3315 
Q 1072 3584 1716 3584 
Q 2034 3584 2315 3537 
Q 2597 3491 2834 3397 
z
" transform="scale(0.015625)"/>
       <path id="DejaVuSans-6b" d="M 581 4863 
L 1159 4863 
L 1159 1991 
L 2875 3500 
L 3609 3500 
L 1753 1863 
L 3688 0 
L 2938 0 
L 1159 1709 
L 1159 0 
L 581 0 
L 581 4863 
z
" transform="scale(0.015625)"/>
       <path id="DejaVuSans-20" transform="scale(0.015625)"/>
       <path id="DejaVuSans-70" d="M 1159 525 
L 1159 -1331 
L 581 -1331 
L 581 3500 
L 1159 3500 
L 1159 2969 
Q 1341 3281 1617 3432 
Q 1894 3584 2278 3584 
Q 2916 3584 3314 3078 
Q 3713 2572 3713 1747 
Q 3713 922 3314 415 
Q 2916 -91 2278 -91 
Q 1894 -91 1617 61 
Q 1341 213 1159 525 
z
M 3116 1747 
Q 3116 2381 2855 2742 
Q 2594 3103 2138 3103 
Q 1681 3103 1420 2742 
Q 1159 2381 1159 1747 
Q 1159 1113 1420 752 
Q 1681 391 2138 391 
Q 2594 391 2855 752 
Q 3116 1113 3116 1747 
z
" transform="scale(0.015625)"/>
       <path id="DejaVuSans-65" d="M 3597 1894 
L 3597 1613 
L 953 1613 
Q 991 1019 1311 708 
Q 1631 397 2203 397 
Q 2534 397 2845 478 
Q 3156 559 3463 722 
L 3463 178 
Q 3153 47 2828 -22 
Q 2503 -91 2169 -91 
Q 1331 -91 842 396 
Q 353 884 353 1716 
Q 353 2575 817 3079 
Q 1281 3584 2069 3584 
Q 2775 3584 3186 3129 
Q 3597 2675 3597 1894 
z
M 3022 2063 
Q 3016 2534 2758 2815 
Q 2500 3097 2075 3097 
Q 1594 3097 1305 2825 
Q 1016 2553 972 2059 
L 3022 2063 
z
" transform="scale(0.015625)"/>
       <path id="DejaVuSans-72" d="M 2631 2963 
Q 2534 3019 2420 3045 
Q 2306 3072 2169 3072 
Q 1681 3072 1420 2755 
Q 1159 2438 1159 1844 
L 1159 0 
L 581 0 
L 581 3500 
L 1159 3500 
L 1159 2956 
Q 1341 3275 1631 3429 
Q 1922 3584 2338 3584 
Q 2397 3584 2469 3576 
Q 2541 3569 2628 3553 
L 2631 2963 
z
" transform="scale(0.015625)"/>
       <path id="DejaVuSans-4e" d="M 628 4666 
L 1478 4666 
L 3547 763 
L 3547 4666 
L 4159 4666 
L 4159 0 
L 3309 0 
L 1241 3903 
L 1241 0 
L 628 0 
L 628 4666 
z
" transform="scale(0.015625)"/>
       <path id="DejaVuSans-6f" d="M 1959 3097 
Q 1497 3097 1228 2736 
Q 959 2375 959 1747 
Q 959 1119 1226 758 
Q 1494 397 1959 397 
Q 2419 397 2687 759 
Q 2956 1122 2956 1747 
Q 2956 2369 2687 2733 
Q 2419 3097 1959 3097 
z
M 1959 3584 
Q 2709 3584 3137 3096 
Q 3566 2609 3566 1747 
Q 3566 888 3137 398 
Q 2709 -91 1959 -91 
Q 1206 -91 779 398 
Q 353 888 353 1747 
Q 353 2609 779 3096 
Q 1206 3584 1959 3584 
z
" transform="scale(0.015625)"/>
       <path id="DejaVuSans-64" d="M 2906 2969 
L 2906 4863 
L 3481 4863 
L 3481 0 
L 2906 0 
L 2906 525 
Q 2725 213 2448 61 
Q 2172 -91 1784 -91 
Q 1150 -91 751 415 
Q 353 922 353 1747 
Q 353 2572 751 3078 
Q 1150 3584 1784 3584 
Q 2172 3584 2448 3432 
Q 2725 3281 2906 2969 
z
M 947 1747 
Q 947 1113 1208 752 
Q 1469 391 1925 391 
Q 2381 391 2643 752 
Q 2906 1113 2906 1747 
Q 2906 2381 2643 2742 
Q 2381 3103 1925 3103 
Q 1469 3103 1208 2742 
Q 947 2381 947 1747 
z
" transform="scale(0.015625)"/>
      </defs>
      <use xlink:href="#DejaVuSans-54"/>
      <use xlink:href="#DejaVuSans-61" transform="translate(44.583984 0)"/>
      <use xlink:href="#DejaVuSans-73" transform="translate(105.863281 0)"/>
      <use xlink:href="#DejaVuSans-6b" transform="translate(157.962891 0)"/>
      <use xlink:href="#DejaVuSans-73" transform="translate(215.873047 0)"/>
      <use xlink:href="#DejaVuSans-20" transform="translate(267.972656 0)"/>
      <use xlink:href="#DejaVuSans-70" transform="translate(299.759766 0)"/>
      <use xlink:href="#DejaVuSans-65" transform="translate(363.236328 0)"/>
      <use xlink:href="#DejaVuSans-72" transform="translate(424.759766 0)"/>
      <use xlink:href="#DejaVuSans-20" transform="translate(465.873047 0)"/>
      <use xlink:href="#DejaVuSans-4e" transform="translate(497.660156 0)"/>
      <use xlink:href="#DejaVuSans-6f" transform="translate(572.464844 0)"/>
      <use xlink:href="#DejaVuSans-64" transform="translate(633.646484 0)"/>
      <use xlink:href="#DejaVuSans-65" transform="translate(697.123047 0)"/>
     </g>
    </g>
   </g>
   <g id="matplotlib.axis_2">
    <g id="ytick_1">
     <g id="line2d_11">
      <path d="M 64.30875 282.135065 
L 547.024232 282.135065 
" clip-path="url(#pba73ba8cce)" style="fill: none; stroke: #e0e0e0; stroke-width: 0.8; stroke-linecap: round"/>
     </g>
     <g id="line2d_12">
      <defs>
       <path id="m77d3268318" d="M 0 0 
L -4 0 
" style="stroke: #aaaaaa"/>
      </defs>
      <g>
       <use xlink:href="#m77d3268318" x="64.30875" y="282.135065" style="fill: #aaaaaa; stroke: #aaaaaa"/>
      </g>
     </g>
     <g id="text_7">
      <!-- 0 -->
      <g style="fill: #262626" transform="translate(49.81 286.314205) scale(0.11 -0.11)">
       <defs>
        <path id="DejaVuSans-30" d="M 2034 4250 
Q 1547 4250 1301 3770 
Q 1056 3291 1056 2328 
Q 1056 1369 1301 889 
Q 1547 409 2034 409 
Q 2525 409 2770 889 
Q 3016 1369 3016 2328 
Q 3016 3291 2770 3770 
Q 2525 4250 2034 4250 
z
M 2034 4750 
Q 2819 4750 3233 4129 
Q 3647 3509 3647 2328 
Q 3647 1150 3233 529 
Q 2819 -91 2034 -91 
Q 1250 -91 836 529 
Q 422 1150 422 2328 
Q 422 3509 836 4129 
Q 1250 4750 2034 4750 
z
" transform="scale(0.015625)"/>
       </defs>
       <use xlink:href="#DejaVuSans-30"/>
      </g>
     </g>
    </g>
    <g id="ytick_2">
     <g id="line2d_13">
      <path d="M 64.30875 225.644925 
L 547.024232 225.644925 
" clip-path="url(#pba73ba8cce)" style="fill: none; stroke: #e0e0e0; stroke-width: 0.8; stroke-linecap: round"/>
     </g>
     <g id="line2d_14">
      <g>
       <use xlink:href="#m77d3268318" x="64.30875" y="225.644925" style="fill: #aaaaaa; stroke: #aaaaaa"/>
      </g>
     </g>
     <g id="text_8">
      <!-- 500 -->
      <g style="fill: #262626" transform="translate(35.8125 229.824066) scale(0.11 -0.11)">
       <defs>
        <path id="DejaVuSans-35" d="M 691 4666 
L 3169 4666 
L 3169 4134 
L 1269 4134 
L 1269 2991 
Q 1406 3038 1543 3061 
Q 1681 3084 1819 3084 
Q 2600 3084 3056 2656 
Q 3513 2228 3513 1497 
Q 3513 744 3044 326 
Q 2575 -91 1722 -91 
Q 1428 -91 1123 -41 
Q 819 9 494 109 
L 494 744 
Q 775 591 1075 516 
Q 1375 441 1709 441 
Q 2250 441 2565 725 
Q 2881 1009 2881 1497 
Q 2881 1984 2565 2268 
Q 2250 2553 1709 2553 
Q 1456 2553 1204 2497 
Q 953 2441 691 2322 
L 691 4666 
z
" transform="scale(0.015625)"/>
       </defs>
       <use xlink:href="#DejaVuSans-35"/>
       <use xlink:href="#DejaVuSans-30" transform="translate(63.623047 0)"/>
       <use xlink:href="#DejaVuSans-30" transform="translate(127.246094 0)"/>
      </g>
     </g>
    </g>
    <g id="ytick_3">
     <g id="line2d_15">
      <path d="M 64.30875 169.154786 
L 547.024232 169.154786 
" clip-path="url(#pba73ba8cce)" style="fill: none; stroke: #e0e0e0; stroke-width: 0.8; stroke-linecap: round"/>
     </g>
     <g id="line2d_16">
      <g>
       <use xlink:href="#m77d3268318" x="64.30875" y="169.154786" style="fill: #aaaaaa; stroke: #aaaaaa"/>
      </g>
     </g>
     <g id="text_9">
      <!-- 1000 -->
      <g style="fill: #262626" transform="translate(28.81375 173.333927) scale(0.11 -0.11)">
       <use xlink:href="#DejaVuSans-31"/>
       <use xlink:href="#DejaVuSans-30" transform="translate(63.623047 0)"/>
       <use xlink:href="#DejaVuSans-30" transform="translate(127.246094 0)"/>
       <use xlink:href="#DejaVuSans-30" transform="translate(190.869141 0)"/>
      </g>
     </g>
    </g>
    <g id="ytick_4">
     <g id="line2d_17">
      <path d="M 64.30875 112.664647 
L 547.024232 112.664647 
" clip-path="url(#pba73ba8cce)" style="fill: none; stroke: #e0e0e0; stroke-width: 0.8; stroke-linecap: round"/>
     </g>
     <g id="line2d_18">
      <g>
       <use xlink:href="#m77d3268318" x="64.30875" y="112.664647" style="fill: #aaaaaa; stroke: #aaaaaa"/>
      </g>
     </g>
     <g id="text_10">
      <!-- 1500 -->
      <g style="fill: #262626" transform="translate(28.81375 116.843787) scale(0.11 -0.11)">
       <use xlink:href="#DejaVuSans-31"/>
       <use xlink:href="#DejaVuSans-35" transform="translate(63.623047 0)"/>
       <use xlink:href="#DejaVuSans-30" transform="translate(127.246094 0)"/>
       <use xlink:href="#DejaVuSans-30" transform="translate(190.869141 0)"/>
      </g>
     </g>
    </g>
    <g id="ytick_5">
     <g id="line2d_19">
      <path d="M 64.30875 56.174507 
L 547.024232 56.174507 
" clip-path="url(#pba73ba8cce)" style="fill: none; stroke: #e0e0e0; stroke-width: 0.8; stroke-linecap: round"/>
     </g>
     <g id="line2d_20">
      <g>
       <use xlink:href="#m77d3268318" x="64.30875" y="56.174507" style="fill: #aaaaaa; stroke: #aaaaaa"/>
      </g>
     </g>
     <g id="text_11">
      <!-- 2000 -->
      <g style="fill: #262626" transform="translate(28.81375 60.353648) scale(0.11 -0.11)">
       <use xlink:href="#DejaVuSans-32"/>
       <use xlink:href="#DejaVuSans-30" transform="translate(63.623047 0)"/>
       <use xlink:href="#DejaVuSans-30" transform="translate(127.246094 0)"/>
       <use xlink:href="#DejaVuSans-30" transform="translate(190.869141 0)"/>
      </g>
     </g>
    </g>
    <g id="text_12">
     <!-- Bandwidth (GiB/s) -->
     <g style="fill: #262626" transform="translate(16.318125 211.938594) rotate(-90) scale(0.12 -0.12)">
      <defs>
       <path id="DejaVuSans-42" d="M 1259 2228 
L 1259 519 
L 2272 519 
Q 2781 519 3026 730 
Q 3272 941 3272 1375 
Q 3272 1813 3026 2020 
Q 2781 2228 2272 2228 
L 1259 2228 
z
M 1259 4147 
L 1259 2741 
L 2194 2741 
Q 2656 2741 2882 2914 
Q 3109 3088 3109 3444 
Q 3109 3797 2882 3972 
Q 2656 4147 2194 4147 
L 1259 4147 
z
M 628 4666 
L 2241 4666 
Q 2963 4666 3353 4366 
Q 3744 4066 3744 3513 
Q 3744 3084 3544 2831 
Q 3344 2578 2956 2516 
Q 3422 2416 3680 2098 
Q 3938 1781 3938 1306 
Q 3938 681 3513 340 
Q 3088 0 2303 0 
L 628 0 
L 628 4666 
z
" transform="scale(0.015625)"/>
       <path id="DejaVuSans-6e" d="M 3513 2113 
L 3513 0 
L 2938 0 
L 2938 2094 
Q 2938 2591 2744 2837 
Q 2550 3084 2163 3084 
Q 1697 3084 1428 2787 
Q 1159 2491 1159 1978 
L 1159 0 
L 581 0 
L 581 3500 
L 1159 3500 
L 1159 2956 
Q 1366 3272 1645 3428 
Q 1925 3584 2291 3584 
Q 2894 3584 3203 3211 
Q 3513 2838 3513 2113 
z
" transform="scale(0.015625)"/>
       <path id="DejaVuSans-77" d="M 269 3500 
L 844 3500 
L 1563 769 
L 2278 3500 
L 2956 3500 
L 3675 769 
L 4391 3500 
L 4966 3500 
L 4050 0 
L 3372 0 
L 2619 2869 
L 1863 0 
L 1184 0 
L 269 3500 
z
" transform="scale(0.015625)"/>
       <path id="DejaVuSans-69" d="M 603 3500 
L 1178 3500 
L 1178 0 
L 603 0 
L 603 3500 
z
M 603 4863 
L 1178 4863 
L 1178 4134 
L 603 4134 
L 603 4863 
z
" transform="scale(0.015625)"/>
       <path id="DejaVuSans-74" d="M 1172 4494 
L 1172 3500 
L 2356 3500 
L 2356 3053 
L 1172 3053 
L 1172 1153 
Q 1172 725 1289 603 
Q 1406 481 1766 481 
L 2356 481 
L 2356 0 
L 1766 0 
Q 1100 0 847 248 
Q 594 497 594 1153 
L 594 3053 
L 172 3053 
L 172 3500 
L 594 3500 
L 594 4494 
L 1172 4494 
z
" transform="scale(0.015625)"/>
       <path id="DejaVuSans-68" d="M 3513 2113 
L 3513 0 
L 2938 0 
L 2938 2094 
Q 2938 2591 2744 2837 
Q 2550 3084 2163 3084 
Q 1697 3084 1428 2787 
Q 1159 2491 1159 1978 
L 1159 0 
L 581 0 
L 581 4863 
L 1159 4863 
L 1159 2956 
Q 1366 3272 1645 3428 
Q 1925 3584 2291 3584 
Q 2894 3584 3203 3211 
Q 3513 2838 3513 2113 
z
" transform="scale(0.015625)"/>
       <path id="DejaVuSans-28" d="M 1984 4856 
Q 1566 4138 1362 3434 
Q 1159 2731 1159 2009 
Q 1159 1288 1364 580 
Q 1569 -128 1984 -844 
L 1484 -844 
Q 1016 -109 783 600 
Q 550 1309 550 2009 
Q 550 2706 781 3412 
Q 1013 4119 1484 4856 
L 1984 4856 
z
" transform="scale(0.015625)"/>
       <path id="DejaVuSans-47" d="M 3809 666 
L 3809 1919 
L 2778 1919 
L 2778 2438 
L 4434 2438 
L 4434 434 
Q 4069 175 3628 42 
Q 3188 -91 2688 -91 
Q 1594 -91 976 548 
Q 359 1188 359 2328 
Q 359 3472 976 4111 
Q 1594 4750 2688 4750 
Q 3144 4750 3555 4637 
Q 3966 4525 4313 4306 
L 4313 3634 
Q 3963 3931 3569 4081 
Q 3175 4231 2741 4231 
Q 1884 4231 1454 3753 
Q 1025 3275 1025 2328 
Q 1025 1384 1454 906 
Q 1884 428 2741 428 
Q 3075 428 3337 486 
Q 3600 544 3809 666 
z
" transform="scale(0.015625)"/>
       <path id="DejaVuSans-2f" d="M 1625 4666 
L 2156 4666 
L 531 -594 
L 0 -594 
L 1625 4666 
z
" transform="scale(0.015625)"/>
       <path id="DejaVuSans-29" d="M 513 4856 
L 1013 4856 
Q 1481 4119 1714 3412 
Q 1947 2706 1947 2009 
Q 1947 1309 1714 600 
Q 1481 -109 1013 -844 
L 513 -844 
Q 928 -128 1133 580 
Q 1338 1288 1338 2009 
Q 1338 2731 1133 3434 
Q 928 4138 513 4856 
z
" transform="scale(0.015625)"/>
      </defs>
      <use xlink:href="#DejaVuSans-42"/>
      <use xlink:href="#DejaVuSans-61" transform="translate(68.603516 0)"/>
      <use xlink:href="#DejaVuSans-6e" transform="translate(129.882812 0)"/>
      <use xlink:href="#DejaVuSans-64" transform="translate(193.261719 0)"/>
      <use xlink:href="#DejaVuSans-77" transform="translate(256.738281 0)"/>
      <use xlink:href="#DejaVuSans-69" transform="translate(338.525391 0)"/>
      <use xlink:href="#DejaVuSans-64" transform="translate(366.308594 0)"/>
      <use xlink:href="#DejaVuSans-74" transform="translate(429.785156 0)"/>
      <use xlink:href="#DejaVuSans-68" transform="translate(468.994141 0)"/>
      <use xlink:href="#DejaVuSans-20" transform="translate(532.373047 0)"/>
      <use xlink:href="#DejaVuSans-28" transform="translate(564.160156 0)"/>
      <use xlink:href="#DejaVuSans-47" transform="translate(603.173828 0)"/>
      <use xlink:href="#DejaVuSans-69" transform="translate(680.664062 0)"/>
      <use xlink:href="#DejaVuSans-42" transform="translate(708.447266 0)"/>
      <use xlink:href="#DejaVuSans-2f" transform="translate(777.050781 0)"/>
      <use xlink:href="#DejaVuSans-73" transform="translate(810.742188 0)"/>
      <use xlink:href="#DejaVuSans-29" transform="translate(862.841797 0)"/>
     </g>
    </g>
   </g>
   <g id="FillBetweenPolyCollection_1"/>
   <g id="FillBetweenPolyCollection_2"/>
   <g id="FillBetweenPolyCollection_3"/>
   <g id="FillBetweenPolyCollection_4"/>
   <g id="FillBetweenPolyCollection_5"/>
   <g id="FillBetweenPolyCollection_6"/>
   <g id="line2d_21">
    <path d="M 86.250363 278.509787 
L 107.147137 277.263355 
L 190.734233 273.577856 
L 357.908426 268.273544 
L 525.082619 267.593269 
" clip-path="url(#pba73ba8cce)" style="fill: none; stroke: #e98d6b; stroke-width: 2.8; stroke-linecap: round"/>
    <defs>
     <path id="mbc347ca46d" d="M 0 3 
C 0.795609 3 1.55874 2.683901 2.12132 2.12132 
C 2.683901 1.55874 3 0.795609 3 0 
C 3 -0.795609 2.683901 -1.55874 2.12132 -2.12132 
C 1.55874 -2.683901 0.795609 -3 0 -3 
C -0.795609 -3 -1.55874 -2.683901 -2.12132 -2.12132 
C -2.683901 -1.55874 -3 -0.795609 -3 0 
C -3 0.795609 -2.683901 1.55874 -2.12132 2.12132 
C -1.55874 2.683901 -0.795609 3 0 3 
z
" style="stroke: #ffffff; stroke-width: 0.75"/>
    </defs>
    <g clip-path="url(#pba73ba8cce)">
     <use xlink:href="#mbc347ca46d" x="86.250363" y="278.509787" style="fill: #e98d6b; stroke: #ffffff; stroke-width: 0.75"/>
     <use xlink:href="#mbc347ca46d" x="107.147137" y="277.263355" style="fill: #e98d6b; stroke: #ffffff; stroke-width: 0.75"/>
     <use xlink:href="#mbc347ca46d" x="190.734233" y="273.577856" style="fill: #e98d6b; stroke: #ffffff; stroke-width: 0.75"/>
     <use xlink:href="#mbc347ca46d" x="357.908426" y="268.273544" style="fill: #e98d6b; stroke: #ffffff; stroke-width: 0.75"/>
     <use xlink:href="#mbc347ca46d" x="525.082619" y="267.593269" style="fill: #e98d6b; stroke: #ffffff; stroke-width: 0.75"/>
    </g>
   </g>
   <g id="line2d_22">
    <path d="M 86.250363 274.838424 
L 107.147137 272.441284 
L 190.734233 265.786006 
L 357.908426 254.332042 
L 525.082619 253.477483 
" clip-path="url(#pba73ba8cce)" style="fill: none; stroke: #e3685c; stroke-width: 2.8; stroke-linecap: round"/>
    <defs>
     <path id="m1ce2eedf19" d="M 0 3 
C 0.795609 3 1.55874 2.683901 2.12132 2.12132 
C 2.683901 1.55874 3 0.795609 3 0 
C 3 -0.795609 2.683901 -1.55874 2.12132 -2.12132 
C 1.55874 -2.683901 0.795609 -3 0 -3 
C -0.795609 -3 -1.55874 -2.683901 -2.12132 -2.12132 
C -2.683901 -1.55874 -3 -0.795609 -3 0 
C -3 0.795609 -2.683901 1.55874 -2.12132 2.12132 
C -1.55874 2.683901 -0.795609 3 0 3 
z
" style="stroke: #ffffff; stroke-width: 0.75"/>
    </defs>
    <g clip-path="url(#pba73ba8cce)">
     <use xlink:href="#m1ce2eedf19" x="86.250363" y="274.838424" style="fill: #e3685c; stroke: #ffffff; stroke-width: 0.75"/>
     <use xlink:href="#m1ce2eedf19" x="107.147137" y="272.441284" style="fill: #e3685c; stroke: #ffffff; stroke-width: 0.75"/>
     <use xlink:href="#m1ce2eedf19" x="190.734233" y="265.786006" style="fill: #e3685c; stroke: #ffffff; stroke-width: 0.75"/>
     <use xlink:href="#m1ce2eedf19" x="357.908426" y="254.332042" style="fill: #e3685c; stroke: #ffffff; stroke-width: 0.75"/>
     <use xlink:href="#m1ce2eedf19" x="525.082619" y="253.477483" style="fill: #e3685c; stroke: #ffffff; stroke-width: 0.75"/>
    </g>
   </g>
   <g id="line2d_23">
    <path d="M 86.250363 267.542551 
L 107.147137 263.425097 
L 190.734233 251.063119 
L 357.908426 228.800173 
L 525.082619 227.884188 
" clip-path="url(#pba73ba8cce)" style="fill: none; stroke: #d14a61; stroke-width: 2.8; stroke-linecap: round"/>
    <defs>
     <path id="mc565efb47c" d="M 0 3 
C 0.795609 3 1.55874 2.683901 2.12132 2.12132 
C 2.683901 1.55874 3 0.795609 3 0 
C 3 -0.795609 2.683901 -1.55874 2.12132 -2.12132 
C 1.55874 -2.683901 0.795609 -3 0 -3 
C -0.795609 -3 -1.55874 -2.683901 -2.12132 -2.12132 
C -2.683901 -1.55874 -3 -0.795609 -3 0 
C -3 0.795609 -2.683901 1.55874 -2.12132 2.12132 
C -1.55874 2.683901 -0.795609 3 0 3 
z
" style="stroke: #ffffff; stroke-width: 0.75"/>
    </defs>
    <g clip-path="url(#pba73ba8cce)">
     <use xlink:href="#mc565efb47c" x="86.250363" y="267.542551" style="fill: #d14a61; stroke: #ffffff; stroke-width: 0.75"/>
     <use xlink:href="#mc565efb47c" x="107.147137" y="263.425097" style="fill: #d14a61; stroke: #ffffff; stroke-width: 0.75"/>
     <use xlink:href="#mc565efb47c" x="190.734233" y="251.063119" style="fill: #d14a61; stroke: #ffffff; stroke-width: 0.75"/>
     <use xlink:href="#mc565efb47c" x="357.908426" y="228.800173" style="fill: #d14a61; stroke: #ffffff; stroke-width: 0.75"/>
     <use xlink:href="#mc565efb47c" x="525.082619" y="227.884188" style="fill: #d14a61; stroke: #ffffff; stroke-width: 0.75"/>
    </g>
   </g>
   <g id="line2d_24">
    <path d="M 86.250363 253.800269 
L 107.147137 247.875421 
L 190.734233 221.655974 
L 357.908426 181.13078 
L 525.082619 187.159417 
" clip-path="url(#pba73ba8cce)" style="fill: none; stroke: #b13c6c; stroke-width: 2.8; stroke-linecap: round"/>
    <defs>
     <path id="m7a5290a3b4" d="M 0 3 
C 0.795609 3 1.55874 2.683901 2.12132 2.12132 
C 2.683901 1.55874 3 0.795609 3 0 
C 3 -0.795609 2.683901 -1.55874 2.12132 -2.12132 
C 1.55874 -2.683901 0.795609 -3 0 -3 
C -0.795609 -3 -1.55874 -2.683901 -2.12132 -2.12132 
C -2.683901 -1.55874 -3 -0.795609 -3 0 
C -3 0.795609 -2.683901 1.55874 -2.12132 2.12132 
C -1.55874 2.683901 -0.795609 3 0 3 
z
" style="stroke: #ffffff; stroke-width: 0.75"/>
    </defs>
    <g clip-path="url(#pba73ba8cce)">
     <use xlink:href="#m7a5290a3b4" x="86.250363" y="253.800269" style="fill: #b13c6c; stroke: #ffffff; stroke-width: 0.75"/>
     <use xlink:href="#m7a5290a3b4" x="107.147137" y="247.875421" style="fill: #b13c6c; stroke: #ffffff; stroke-width: 0.75"/>
     <use xlink:href="#m7a5290a3b4" x="190.734233" y="221.655974" style="fill: #b13c6c; stroke: #ffffff; stroke-width: 0.75"/>
     <use xlink:href="#m7a5290a3b4" x="357.908426" y="181.13078" style="fill: #b13c6c; stroke: #ffffff; stroke-width: 0.75"/>
     <use xlink:href="#m7a5290a3b4" x="525.082619" y="187.159417" style="fill: #b13c6c; stroke: #ffffff; stroke-width: 0.75"/>
    </g>
   </g>
   <g id="line2d_25">
    <path d="M 86.250363 225.170523 
L 107.147137 209.795516 
L 190.734233 160.722399 
L 357.908426 99.332352 
L 525.082619 95.349478 
" clip-path="url(#pba73ba8cce)" style="fill: none; stroke: #8f3371; stroke-width: 2.8; stroke-linecap: round"/>
    <defs>
     <path id="mcc9130a9e2" d="M 0 3 
C 0.795609 3 1.55874 2.683901 2.12132 2.12132 
C 2.683901 1.55874 3 0.795609 3 0 
C 3 -0.795609 2.683901 -1.55874 2.12132 -2.12132 
C 1.55874 -2.683901 0.795609 -3 0 -3 
C -0.795609 -3 -1.55874 -2.683901 -2.12132 -2.12132 
C -2.683901 -1.55874 -3 -0.795609 -3 0 
C -3 0.795609 -2.683901 1.55874 -2.12132 2.12132 
C -1.55874 2.683901 -0.795609 3 0 3 
z
" style="stroke: #ffffff; stroke-width: 0.75"/>
    </defs>
    <g clip-path="url(#pba73ba8cce)">
     <use xlink:href="#mcc9130a9e2" x="86.250363" y="225.170523" style="fill: #8f3371; stroke: #ffffff; stroke-width: 0.75"/>
     <use xlink:href="#mcc9130a9e2" x="107.147137" y="209.795516" style="fill: #8f3371; stroke: #ffffff; stroke-width: 0.75"/>
     <use xlink:href="#mcc9130a9e2" x="190.734233" y="160.722399" style="fill: #8f3371; stroke: #ffffff; stroke-width: 0.75"/>
     <use xlink:href="#mcc9130a9e2" x="357.908426" y="99.332352" style="fill: #8f3371; stroke: #ffffff; stroke-width: 0.75"/>
     <use xlink:href="#mcc9130a9e2" x="525.082619" y="95.349478" style="fill: #8f3371; stroke: #ffffff; stroke-width: 0.75"/>
    </g>
   </g>
   <g id="line2d_26">
    <path d="M 86.250363 162.387359 
L 107.147137 128.788563 
L 190.734233 87.408196 
L 357.908426 80.014838 
L 525.082619 37.146151 
" clip-path="url(#pba73ba8cce)" style="fill: none; stroke: #6c2b6d; stroke-width: 2.8; stroke-linecap: round"/>
    <defs>
     <path id="ma01b75e42f" d="M 0 3 
C 0.795609 3 1.55874 2.683901 2.12132 2.12132 
C 2.683901 1.55874 3 0.795609 3 0 
C 3 -0.795609 2.683901 -1.55874 2.12132 -2.12132 
C 1.55874 -2.683901 0.795609 -3 0 -3 
C -0.795609 -3 -1.55874 -2.683901 -2.12132 -2.12132 
C -2.683901 -1.55874 -3 -0.795609 -3 0 
C -3 0.795609 -2.683901 1.55874 -2.12132 2.12132 
C -1.55874 2.683901 -0.795609 3 0 3 
z
" style="stroke: #ffffff; stroke-width: 0.75"/>
    </defs>
    <g clip-path="url(#pba73ba8cce)">
     <use xlink:href="#ma01b75e42f" x="86.250363" y="162.387359" style="fill: #6c2b6d; stroke: #ffffff; stroke-width: 0.75"/>
     <use xlink:href="#ma01b75e42f" x="107.147137" y="128.788563" style="fill: #6c2b6d; stroke: #ffffff; stroke-width: 0.75"/>
     <use xlink:href="#ma01b75e42f" x="190.734233" y="87.408196" style="fill: #6c2b6d; stroke: #ffffff; stroke-width: 0.75"/>
     <use xlink:href="#ma01b75e42f" x="357.908426" y="80.014838" style="fill: #6c2b6d; stroke: #ffffff; stroke-width: 0.75"/>
     <use xlink:href="#ma01b75e42f" x="525.082619" y="37.146151" style="fill: #6c2b6d; stroke: #ffffff; stroke-width: 0.75"/>
    </g>
   </g>
   <g id="line2d_27"/>
   <g id="line2d_28"/>
   <g id="line2d_29"/>
   <g id="line2d_30"/>
   <g id="line2d_31"/>
   <g id="line2d_32"/>
   <g id="text_13">
    <path d="M 151.964807 277.411985 
L 153.735118 277.333929 
L 153.465594 271.221118 
L 151.556062 271.692407 
L 151.51253 270.705085 
L 153.411758 270.23425 
L 154.495237 270.186478 
L 154.808294 277.286611 
L 156.578605 277.208555 
L 156.618807 278.120325 
L 152.005008 278.323755 
L 151.964807 277.411985 
z
" clip-path="url(#pba73ba8cce)" style="fill: #e98d6b; stroke: #fafafa; stroke-width: 5"/>
    <path d="M 151.964807 277.411985 
L 153.735118 277.333929 
L 153.465594 271.221118 
L 151.556062 271.692407 
L 151.51253 270.705085 
L 153.411758 270.23425 
L 154.495237 270.186478 
L 154.808294 277.286611 
L 156.578605 277.208555 
L 156.618807 278.120325 
L 152.005008 278.323755 
L 151.964807 277.411985 
z
" clip-path="url(#pba73ba8cce)" style="fill: #e98d6b"/>
   </g>
   <g id="text_14">
    <path d="M 214.822145 266.263252 
L 218.599695 266.004432 
L 218.662079 266.914954 
L 213.583049 267.262944 
L 213.520664 266.352423 
Q 214.092548 265.672366 215.082135 264.526105 
Q 216.073319 263.378011 216.324579 263.04725 
Q 216.804197 262.428644 216.982239 262.009869 
Q 217.161994 261.590977 217.135208 261.200019 
Q 217.091503 260.562139 216.616467 260.191556 
Q 216.141314 259.819258 215.422842 259.868484 
Q 214.913567 259.903377 214.359807 260.118764 
Q 213.807762 260.334034 213.18941 260.738184 
L 213.114455 259.644187 
Q 213.749792 259.337071 214.308204 259.164435 
Q 214.86833 258.991681 215.339881 258.959372 
Q 216.58306 258.874196 217.364756 259.446007 
Q 218.146334 260.016103 218.21753 261.055229 
Q 218.251365 261.549072 218.096486 262.00416 
Q 217.943203 262.457417 217.495625 263.091055 
Q 217.372567 263.25626 216.704966 264.047964 
Q 216.03908 264.839551 214.822145 266.263252 
z
" clip-path="url(#pba73ba8cce)" style="fill: #e3685c; stroke: #fafafa; stroke-width: 5"/>
    <path d="M 214.822145 266.263252 
L 218.599695 266.004432 
L 218.662079 266.914954 
L 213.583049 267.262944 
L 213.520664 266.352423 
Q 214.092548 265.672366 215.082135 264.526105 
Q 216.073319 263.378011 216.324579 263.04725 
Q 216.804197 262.428644 216.982239 262.009869 
Q 217.161994 261.590977 217.135208 261.200019 
Q 217.091503 260.562139 216.616467 260.191556 
Q 216.141314 259.819258 215.422842 259.868484 
Q 214.913567 259.903377 214.359807 260.118764 
Q 213.807762 260.334034 213.18941 260.738184 
L 213.114455 259.644187 
Q 213.749792 259.337071 214.308204 259.164435 
Q 214.86833 258.991681 215.339881 258.959372 
Q 216.58306 258.874196 217.364756 259.446007 
Q 218.146334 260.016103 218.21753 261.055229 
Q 218.251365 261.549072 218.096486 262.00416 
Q 217.943203 262.457417 217.495625 263.091055 
Q 217.372567 263.25626 216.704966 264.047964 
Q 216.03908 264.839551 214.822145 266.263252 
z
" clip-path="url(#pba73ba8cce)" style="fill: #e3685c"/>
   </g>
   <g id="text_15">
    <path d="M 278.22287 235.337348 
L 276.072332 239.942944 
L 278.788044 239.581287 
L 278.22287 235.337348 
z
M 277.815266 234.437972 
L 279.168011 234.257824 
L 279.857973 239.438802 
L 280.992643 239.287696 
L 281.111759 240.182143 
L 279.977089 240.33325 
L 280.226664 242.207329 
L 279.156735 242.349814 
L 278.90716 240.475734 
L 275.319149 240.953558 
L 275.180975 239.915999 
L 277.815266 234.437972 
z
" clip-path="url(#pba73ba8cce)" style="fill: #d14a61; stroke: #fafafa; stroke-width: 5"/>
    <path d="M 278.22287 235.337348 
L 276.072332 239.942944 
L 278.788044 239.581287 
L 278.22287 235.337348 
z
M 277.815266 234.437972 
L 279.168011 234.257824 
L 279.857973 239.438802 
L 280.992643 239.287696 
L 281.111759 240.182143 
L 279.977089 240.33325 
L 280.226664 242.207329 
L 279.156735 242.349814 
L 278.90716 240.475734 
L 275.319149 240.953558 
L 275.180975 239.915999 
L 277.815266 234.437972 
z
" clip-path="url(#pba73ba8cce)" style="fill: #d14a61"/>
   </g>
   <g id="text_16">
    <path d="M 339.913522 184.69714 
Q 339.161855 184.879354 338.828485 185.386383 
Q 338.496785 185.893007 338.667256 186.596233 
Q 338.838132 187.30113 339.365004 187.599625 
Q 339.893545 187.897715 340.645212 187.715502 
Q 341.39688 187.533288 341.731515 187.024183 
Q 342.067417 186.513004 341.897755 185.813118 
Q 341.727284 185.109892 341.198742 184.811802 
Q 340.671871 184.513306 339.913522 184.69714 
z
M 338.750999 184.504985 
Q 338.032337 184.502345 337.540594 184.129898 
Q 337.050118 183.755377 336.88815 183.087228 
Q 336.6618 182.15349 337.195009 181.449461 
Q 337.729888 180.745028 338.887456 180.464418 
Q 340.051705 180.182189 340.846441 180.564307 
Q 341.641178 180.946424 341.867528 181.880162 
Q 342.029496 182.548311 341.763294 183.106261 
Q 341.498358 183.662136 340.86569 183.992356 
Q 341.670301 183.984772 342.2201 184.399738 
Q 342.771165 184.812628 342.95176 185.557614 
Q 343.2267 186.691796 342.682152 187.465778 
Q 342.137199 188.238089 340.847672 188.550687 
Q 339.559816 188.862881 338.720031 188.426248 
Q 337.881511 187.98754 337.60657 186.853357 
Q 337.425976 186.108371 337.728471 185.488567 
Q 338.032231 184.866688 338.750999 184.504985 
z
M 337.961439 182.933161 
Q 338.108019 183.537835 338.567722 183.785409 
Q 339.029095 184.032577 339.712277 183.866965 
Q 340.392119 183.702163 340.692435 183.270351 
Q 340.994422 182.838134 340.847841 182.233459 
Q 340.700855 181.627114 340.234471 181.38116 
Q 339.769757 181.134802 339.089916 181.299604 
Q 338.406734 181.465216 338.109758 181.896218 
Q 337.814453 182.326816 337.961439 182.933161 
z
" clip-path="url(#pba73ba8cce)" style="fill: #b13c6c; stroke: #fafafa; stroke-width: 5"/>
    <path d="M 339.913522 184.69714 
Q 339.161855 184.879354 338.828485 185.386383 
Q 338.496785 185.893007 338.667256 186.596233 
Q 338.838132 187.30113 339.365004 187.599625 
Q 339.893545 187.897715 340.645212 187.715502 
Q 341.39688 187.533288 341.731515 187.024183 
Q 342.067417 186.513004 341.897755 185.813118 
Q 341.727284 185.109892 341.198742 184.811802 
Q 340.671871 184.513306 339.913522 184.69714 
z
M 338.750999 184.504985 
Q 338.032337 184.502345 337.540594 184.129898 
Q 337.050118 183.755377 336.88815 183.087228 
Q 336.6618 182.15349 337.195009 181.449461 
Q 337.729888 180.745028 338.887456 180.464418 
Q 340.051705 180.182189 340.846441 180.564307 
Q 341.641178 180.946424 341.867528 181.880162 
Q 342.029496 182.548311 341.763294 183.106261 
Q 341.498358 183.662136 340.86569 183.992356 
Q 341.670301 183.984772 342.2201 184.399738 
Q 342.771165 184.812628 342.95176 185.557614 
Q 343.2267 186.691796 342.682152 187.465778 
Q 342.137199 188.238089 340.847672 188.550687 
Q 339.559816 188.862881 338.720031 188.426248 
Q 337.881511 187.98754 337.60657 186.853357 
Q 337.425976 186.108371 337.728471 185.488567 
Q 338.032231 184.866688 338.750999 184.504985 
z
M 337.961439 182.933161 
Q 338.108019 183.537835 338.567722 183.785409 
Q 339.029095 184.032577 339.712277 183.866965 
Q 340.392119 183.702163 340.692435 183.270351 
Q 340.994422 182.838134 340.847841 182.233459 
Q 340.700855 181.627114 340.234471 181.38116 
Q 339.769757 181.134802 339.089916 181.299604 
Q 338.406734 181.465216 338.109758 181.896218 
Q 337.814453 182.326816 337.961439 182.933161 
z
" clip-path="url(#pba73ba8cce)" style="fill: #b13c6c"/>
   </g>
   <g id="text_17">
    <path d="M 400.176477 100.448587 
L 401.948006 100.406381 
L 401.80227 94.289367 
L 399.88359 94.721907 
L 399.860051 93.733906 
L 401.768421 93.301611 
L 402.852645 93.27578 
L 403.02192 100.380795 
L 404.793448 100.338589 
L 404.815186 101.250986 
L 400.198215 101.360984 
L 400.176477 100.448587 
z
M 409.355371 96.700308 
Q 408.62511 96.717706 408.209175 97.227914 
Q 407.794918 97.736362 407.815632 98.605803 
Q 407.836223 99.470089 408.274347 99.963387 
Q 408.714148 100.454927 409.444409 100.437528 
Q 410.174671 100.42013 410.588846 99.908245 
Q 411.002981 99.394642 410.982389 98.530356 
Q 410.961675 97.660915 410.523674 97.172771 
Q 410.085633 96.682909 409.355371 96.700308 
z
M 411.427339 93.248572 
L 411.450878 94.236573 
Q 411.037347 94.053871 410.619112 93.9624 
Q 410.200836 93.869211 409.79189 93.878954 
Q 408.717976 93.90454 408.168225 94.643156 
Q 407.620192 95.381731 407.574353 96.849333 
Q 407.879378 96.374433 408.351119 96.113904 
Q 408.824579 95.853335 409.398478 95.839662 
Q 410.606417 95.810883 411.324948 96.527879 
Q 412.043438 97.243156 412.073486 98.504361 
Q 412.10292 99.739791 411.390466 100.504634 
Q 410.677971 101.267758 409.464878 101.29666 
Q 408.073085 101.329819 407.312288 100.282017 
Q 406.55145 99.232497 406.503226 97.208384 
Q 406.457949 95.307986 407.333101 94.155877 
Q 408.208252 93.003768 409.727196 92.96758 
Q 410.136142 92.957837 410.553886 93.028689 
Q 410.971629 93.09954 411.427339 93.248572 
z
" clip-path="url(#pba73ba8cce)" style="fill: #8f3371; stroke: #fafafa; stroke-width: 5"/>
    <path d="M 400.176477 100.448587 
L 401.948006 100.406381 
L 401.80227 94.289367 
L 399.88359 94.721907 
L 399.860051 93.733906 
L 401.768421 93.301611 
L 402.852645 93.27578 
L 403.02192 100.380795 
L 404.793448 100.338589 
L 404.815186 101.250986 
L 400.198215 101.360984 
L 400.176477 100.448587 
z
M 409.355371 96.700308 
Q 408.62511 96.717706 408.209175 97.227914 
Q 407.794918 97.736362 407.815632 98.605803 
Q 407.836223 99.470089 408.274347 99.963387 
Q 408.714148 100.454927 409.444409 100.437528 
Q 410.174671 100.42013 410.588846 99.908245 
Q 411.002981 99.394642 410.982389 98.530356 
Q 410.961675 97.660915 410.523674 97.172771 
Q 410.085633 96.682909 409.355371 96.700308 
z
M 411.427339 93.248572 
L 411.450878 94.236573 
Q 411.037347 94.053871 410.619112 93.9624 
Q 410.200836 93.869211 409.79189 93.878954 
Q 408.717976 93.90454 408.168225 94.643156 
Q 407.620192 95.381731 407.574353 96.849333 
Q 407.879378 96.374433 408.351119 96.113904 
Q 408.824579 95.853335 409.398478 95.839662 
Q 410.606417 95.810883 411.324948 96.527879 
Q 412.043438 97.243156 412.073486 98.504361 
Q 412.10292 99.739791 411.390466 100.504634 
Q 410.677971 101.267758 409.464878 101.29666 
Q 408.073085 101.329819 407.312288 100.282017 
Q 406.55145 99.232497 406.503226 97.208384 
Q 406.457949 95.307986 407.333101 94.155877 
Q 408.208252 93.003768 409.727196 92.96758 
Q 410.136142 92.957837 410.553886 93.028689 
Q 410.971629 93.09954 411.427339 93.248572 
z
" clip-path="url(#pba73ba8cce)" style="fill: #8f3371"/>
   </g>
   <g id="text_18">
    <path d="M 464.828543 51.266408 
Q 465.624146 51.234504 466.178094 51.637183 
Q 466.733279 52.03777 466.925396 52.786968 
Q 467.219976 53.935737 466.590963 54.769518 
Q 465.961522 55.601634 464.50475 55.975196 
Q 464.016939 56.100286 463.474399 56.136498 
Q 462.931859 56.172709 462.331259 56.120896 
L 462.07126 55.106982 
Q 462.572779 55.249854 463.125523 55.246513 
Q 463.679932 55.242746 464.247657 55.097163 
Q 465.234932 54.843995 465.652809 54.321638 
Q 466.070687 53.799281 465.87985 53.055078 
Q 465.703529 52.367482 465.12333 52.104611 
Q 464.542705 51.840076 463.68529 52.059944 
L 462.779594 52.292192 
L 462.558019 51.428118 
L 463.505337 51.185196 
Q 464.279507 50.986675 464.611325 50.571556 
Q 464.943142 50.156436 464.793717 49.573727 
Q 464.64045 48.976034 464.133935 48.765244 
Q 463.628658 48.552361 462.837838 48.755152 
Q 462.404969 48.866153 461.934834 49.087849 
Q 461.464272 49.30788 460.921951 49.656322 
L 460.682017 48.720658 
Q 461.238682 48.400476 461.740109 48.183177 
Q 462.241536 47.965877 462.704373 47.847191 
Q 463.901424 47.54023 464.73695 47.906191 
Q 465.573714 48.27006 465.811086 49.195734 
Q 465.976734 49.841709 465.72112 50.38101 
Q 465.465506 50.920312 464.828543 51.266408 
z
M 470.175964 53.417268 
L 473.843701 52.476745 
L 474.070399 53.360798 
L 469.139017 54.625359 
L 468.912318 53.741306 
Q 469.351194 52.968702 470.116164 51.661791 
Q 470.882373 50.352787 471.069388 49.981897 
Q 471.428692 49.286478 471.527723 48.842334 
Q 471.628419 48.397763 471.531079 48.01817 
Q 471.372262 47.398834 470.837826 47.120679 
Q 470.302964 46.84086 469.605378 47.019743 
Q 469.110908 47.146541 468.60547 47.45891 
Q 468.101698 47.770852 467.567021 48.280575 
L 467.294641 47.21838 
Q 467.863642 46.800994 468.381417 46.52982 
Q 468.900858 46.258219 469.358701 46.140813 
Q 470.565741 45.831291 471.43828 46.251637 
Q 472.310392 46.670319 472.569111 47.679238 
Q 472.692066 48.158724 472.622406 48.634372 
Q 472.553984 49.107928 472.228917 49.812311 
Q 472.137907 49.997116 471.625181 50.896893 
Q 471.11412 51.796243 470.175964 53.417268 
z
" clip-path="url(#pba73ba8cce)" style="fill: #6c2b6d; stroke: #fafafa; stroke-width: 5"/>
    <path d="M 464.828543 51.266408 
Q 465.624146 51.234504 466.178094 51.637183 
Q 466.733279 52.03777 466.925396 52.786968 
Q 467.219976 53.935737 466.590963 54.769518 
Q 465.961522 55.601634 464.50475 55.975196 
Q 464.016939 56.100286 463.474399 56.136498 
Q 462.931859 56.172709 462.331259 56.120896 
L 462.07126 55.106982 
Q 462.572779 55.249854 463.125523 55.246513 
Q 463.679932 55.242746 464.247657 55.097163 
Q 465.234932 54.843995 465.652809 54.321638 
Q 466.070687 53.799281 465.87985 53.055078 
Q 465.703529 52.367482 465.12333 52.104611 
Q 464.542705 51.840076 463.68529 52.059944 
L 462.779594 52.292192 
L 462.558019 51.428118 
L 463.505337 51.185196 
Q 464.279507 50.986675 464.611325 50.571556 
Q 464.943142 50.156436 464.793717 49.573727 
Q 464.64045 48.976034 464.133935 48.765244 
Q 463.628658 48.552361 462.837838 48.755152 
Q 462.404969 48.866153 461.934834 49.087849 
Q 461.464272 49.30788 460.921951 49.656322 
L 460.682017 48.720658 
Q 461.238682 48.400476 461.740109 48.183177 
Q 462.241536 47.965877 462.704373 47.847191 
Q 463.901424 47.54023 464.73695 47.906191 
Q 465.573714 48.27006 465.811086 49.195734 
Q 465.976734 49.841709 465.72112 50.38101 
Q 465.465506 50.920312 464.828543 51.266408 
z
M 470.175964 53.417268 
L 473.843701 52.476745 
L 474.070399 53.360798 
L 469.139017 54.625359 
L 468.912318 53.741306 
Q 469.351194 52.968702 470.116164 51.661791 
Q 470.882373 50.352787 471.069388 49.981897 
Q 471.428692 49.286478 471.527723 48.842334 
Q 471.628419 48.397763 471.531079 48.01817 
Q 471.372262 47.398834 470.837826 47.120679 
Q 470.302964 46.84086 469.605378 47.019743 
Q 469.110908 47.146541 468.60547 47.45891 
Q 468.101698 47.770852 467.567021 48.280575 
L 467.294641 47.21838 
Q 467.863642 46.800994 468.381417 46.52982 
Q 468.900858 46.258219 469.358701 46.140813 
Q 470.565741 45.831291 471.43828 46.251637 
Q 472.310392 46.670319 472.569111 47.679238 
Q 472.692066 48.158724 472.622406 48.634372 
Q 472.553984 49.107928 472.228917 49.812311 
Q 472.137907 49.997116 471.625181 50.896893 
Q 471.11412 51.796243 470.175964 53.417268 
z
" clip-path="url(#pba73ba8cce)" style="fill: #6c2b6d"/>
   </g>
   <g id="patch_3">
    <path d="M 64.30875 290.577969 
L 64.30875 25.077969 
" style="fill: none; stroke: #bbbbbb; stroke-linejoin: miter; stroke-linecap: square"/>
   </g>
   <g id="patch_4">
    <path d="M 64.30875 290.577969 
L 547.024232 290.577969 
" style="fill: none; stroke: #bbbbbb; stroke-linejoin: miter; stroke-linecap: square"/>
   </g>
   <g id="text_19">
    <!-- Write Bandwidth (16M) -->
    <g style="fill: #262626" transform="translate(220.440319 17.077969) scale(0.13 -0.13)">
     <defs>
      <path id="DejaVuSans-Bold-57" d="M 191 4666 
L 1344 4666 
L 2150 1275 
L 2950 4666 
L 4109 4666 
L 4909 1275 
L 5716 4666 
L 6859 4666 
L 5759 0 
L 4372 0 
L 3525 3547 
L 2688 0 
L 1300 0 
L 191 4666 
z
" transform="scale(0.015625)"/>
      <path id="DejaVuSans-Bold-72" d="M 3138 2547 
Q 2991 2616 2845 2648 
Q 2700 2681 2553 2681 
Q 2122 2681 1889 2404 
Q 1656 2128 1656 1613 
L 1656 0 
L 538 0 
L 538 3500 
L 1656 3500 
L 1656 2925 
Q 1872 3269 2151 3426 
Q 2431 3584 2822 3584 
Q 2878 3584 2943 3579 
Q 3009 3575 3134 3559 
L 3138 2547 
z
" transform="scale(0.015625)"/>
      <path id="DejaVuSans-Bold-69" d="M 538 3500 
L 1656 3500 
L 1656 0 
L 538 0 
L 538 3500 
z
M 538 4863 
L 1656 4863 
L 1656 3950 
L 538 3950 
L 538 4863 
z
" transform="scale(0.015625)"/>
      <path id="DejaVuSans-Bold-74" d="M 1759 4494 
L 1759 3500 
L 2913 3500 
L 2913 2700 
L 1759 2700 
L 1759 1216 
Q 1759 972 1856 886 
Q 1953 800 2241 800 
L 2816 800 
L 2816 0 
L 1856 0 
Q 1194 0 917 276 
Q 641 553 641 1216 
L 641 2700 
L 84 2700 
L 84 3500 
L 641 3500 
L 641 4494 
L 1759 4494 
z
" transform="scale(0.015625)"/>
      <path id="DejaVuSans-Bold-65" d="M 4031 1759 
L 4031 1441 
L 1416 1441 
Q 1456 1047 1700 850 
Q 1944 653 2381 653 
Q 2734 653 3104 758 
Q 3475 863 3866 1075 
L 3866 213 
Q 3469 63 3072 -14 
Q 2675 -91 2278 -91 
Q 1328 -91 801 392 
Q 275 875 275 1747 
Q 275 2603 792 3093 
Q 1309 3584 2216 3584 
Q 3041 3584 3536 3087 
Q 4031 2591 4031 1759 
z
M 2881 2131 
Q 2881 2450 2695 2645 
Q 2509 2841 2209 2841 
Q 1884 2841 1681 2658 
Q 1478 2475 1428 2131 
L 2881 2131 
z
" transform="scale(0.015625)"/>
      <path id="DejaVuSans-Bold-20" transform="scale(0.015625)"/>
      <path id="DejaVuSans-Bold-42" d="M 2456 2859 
Q 2741 2859 2887 2984 
Q 3034 3109 3034 3353 
Q 3034 3594 2887 3720 
Q 2741 3847 2456 3847 
L 1791 3847 
L 1791 2859 
L 2456 2859 
z
M 2497 819 
Q 2859 819 3042 972 
Q 3225 1125 3225 1434 
Q 3225 1738 3044 1889 
Q 2863 2041 2497 2041 
L 1791 2041 
L 1791 819 
L 2497 819 
z
M 3616 2497 
Q 4003 2384 4215 2081 
Q 4428 1778 4428 1338 
Q 4428 663 3972 331 
Q 3516 0 2584 0 
L 588 0 
L 588 4666 
L 2394 4666 
Q 3366 4666 3802 4372 
Q 4238 4078 4238 3431 
Q 4238 3091 4078 2852 
Q 3919 2613 3616 2497 
z
" transform="scale(0.015625)"/>
      <path id="DejaVuSans-Bold-61" d="M 2106 1575 
Q 1756 1575 1579 1456 
Q 1403 1338 1403 1106 
Q 1403 894 1545 773 
Q 1688 653 1941 653 
Q 2256 653 2472 879 
Q 2688 1106 2688 1447 
L 2688 1575 
L 2106 1575 
z
M 3816 1997 
L 3816 0 
L 2688 0 
L 2688 519 
Q 2463 200 2181 54 
Q 1900 -91 1497 -91 
Q 953 -91 614 226 
Q 275 544 275 1050 
Q 275 1666 698 1953 
Q 1122 2241 2028 2241 
L 2688 2241 
L 2688 2328 
Q 2688 2594 2478 2717 
Q 2269 2841 1825 2841 
Q 1466 2841 1156 2769 
Q 847 2697 581 2553 
L 581 3406 
Q 941 3494 1303 3539 
Q 1666 3584 2028 3584 
Q 2975 3584 3395 3211 
Q 3816 2838 3816 1997 
z
" transform="scale(0.015625)"/>
      <path id="DejaVuSans-Bold-6e" d="M 4056 2131 
L 4056 0 
L 2931 0 
L 2931 347 
L 2931 1631 
Q 2931 2084 2911 2256 
Q 2891 2428 2841 2509 
Q 2775 2619 2662 2680 
Q 2550 2741 2406 2741 
Q 2056 2741 1856 2470 
Q 1656 2200 1656 1722 
L 1656 0 
L 538 0 
L 538 3500 
L 1656 3500 
L 1656 2988 
Q 1909 3294 2193 3439 
Q 2478 3584 2822 3584 
Q 3428 3584 3742 3212 
Q 4056 2841 4056 2131 
z
" transform="scale(0.015625)"/>
      <path id="DejaVuSans-Bold-64" d="M 2919 2988 
L 2919 4863 
L 4044 4863 
L 4044 0 
L 2919 0 
L 2919 506 
Q 2688 197 2409 53 
Q 2131 -91 1766 -91 
Q 1119 -91 703 423 
Q 288 938 288 1747 
Q 288 2556 703 3070 
Q 1119 3584 1766 3584 
Q 2128 3584 2408 3439 
Q 2688 3294 2919 2988 
z
M 2181 722 
Q 2541 722 2730 984 
Q 2919 1247 2919 1747 
Q 2919 2247 2730 2509 
Q 2541 2772 2181 2772 
Q 1825 2772 1636 2509 
Q 1447 2247 1447 1747 
Q 1447 1247 1636 984 
Q 1825 722 2181 722 
z
" transform="scale(0.015625)"/>
      <path id="DejaVuSans-Bold-77" d="M 225 3500 
L 1313 3500 
L 1900 1088 
L 2491 3500 
L 3425 3500 
L 4013 1113 
L 4603 3500 
L 5691 3500 
L 4769 0 
L 3547 0 
L 2956 2406 
L 2369 0 
L 1147 0 
L 225 3500 
z
" transform="scale(0.015625)"/>
      <path id="DejaVuSans-Bold-68" d="M 4056 2131 
L 4056 0 
L 2931 0 
L 2931 347 
L 2931 1625 
Q 2931 2084 2911 2256 
Q 2891 2428 2841 2509 
Q 2775 2619 2662 2680 
Q 2550 2741 2406 2741 
Q 2056 2741 1856 2470 
Q 1656 2200 1656 1722 
L 1656 0 
L 538 0 
L 538 4863 
L 1656 4863 
L 1656 2988 
Q 1909 3294 2193 3439 
Q 2478 3584 2822 3584 
Q 3428 3584 3742 3212 
Q 4056 2841 4056 2131 
z
" transform="scale(0.015625)"/>
      <path id="DejaVuSans-Bold-28" d="M 2413 -844 
L 1484 -844 
Q 1006 -72 778 623 
Q 550 1319 550 2003 
Q 550 2688 779 3389 
Q 1009 4091 1484 4856 
L 2413 4856 
Q 2013 4116 1813 3408 
Q 1613 2700 1613 2009 
Q 1613 1319 1811 609 
Q 2009 -100 2413 -844 
z
" transform="scale(0.015625)"/>
      <path id="DejaVuSans-Bold-31" d="M 750 831 
L 1813 831 
L 1813 3847 
L 722 3622 
L 722 4441 
L 1806 4666 
L 2950 4666 
L 2950 831 
L 4013 831 
L 4013 0 
L 750 0 
L 750 831 
z
" transform="scale(0.015625)"/>
      <path id="DejaVuSans-Bold-36" d="M 2316 2303 
Q 2000 2303 1842 2098 
Q 1684 1894 1684 1484 
Q 1684 1075 1842 870 
Q 2000 666 2316 666 
Q 2634 666 2792 870 
Q 2950 1075 2950 1484 
Q 2950 1894 2792 2098 
Q 2634 2303 2316 2303 
z
M 3803 4544 
L 3803 3681 
Q 3506 3822 3243 3889 
Q 2981 3956 2731 3956 
Q 2194 3956 1894 3657 
Q 1594 3359 1544 2772 
Q 1750 2925 1990 3001 
Q 2231 3078 2516 3078 
Q 3231 3078 3670 2659 
Q 4109 2241 4109 1563 
Q 4109 813 3618 361 
Q 3128 -91 2303 -91 
Q 1394 -91 895 523 
Q 397 1138 397 2266 
Q 397 3422 980 4083 
Q 1563 4744 2578 4744 
Q 2900 4744 3203 4694 
Q 3506 4644 3803 4544 
z
" transform="scale(0.015625)"/>
      <path id="DejaVuSans-Bold-4d" d="M 588 4666 
L 2119 4666 
L 3181 2169 
L 4250 4666 
L 5778 4666 
L 5778 0 
L 4641 0 
L 4641 3413 
L 3566 897 
L 2803 897 
L 1728 3413 
L 1728 0 
L 588 0 
L 588 4666 
z
" transform="scale(0.015625)"/>
      <path id="DejaVuSans-Bold-29" d="M 513 -844 
Q 913 -100 1113 609 
Q 1313 1319 1313 2009 
Q 1313 2700 1113 3408 
Q 913 4116 513 4856 
L 1441 4856 
Q 1916 4091 2145 3389 
Q 2375 2688 2375 2003 
Q 2375 1319 2147 623 
Q 1919 -72 1441 -844 
L 513 -844 
z
" transform="scale(0.015625)"/>
     </defs>
     <use xlink:href="#DejaVuSans-Bold-57"/>
     <use xlink:href="#DejaVuSans-Bold-72" transform="translate(108.552734 0)"/>
     <use xlink:href="#DejaVuSans-Bold-69" transform="translate(157.869141 0)"/>
     <use xlink:href="#DejaVuSans-Bold-74" transform="translate(192.146484 0)"/>
     <use xlink:href="#DejaVuSans-Bold-65" transform="translate(239.949219 0)"/>
     <use xlink:href="#DejaVuSans-Bold-20" transform="translate(307.771484 0)"/>
     <use xlink:href="#DejaVuSans-Bold-42" transform="translate(342.585938 0)"/>
     <use xlink:href="#DejaVuSans-Bold-61" transform="translate(418.806641 0)"/>
     <use xlink:href="#DejaVuSans-Bold-6e" transform="translate(486.287109 0)"/>
     <use xlink:href="#DejaVuSans-Bold-64" transform="translate(557.478516 0)"/>
     <use xlink:href="#DejaVuSans-Bold-77" transform="translate(629.060547 0)"/>
     <use xlink:href="#DejaVuSans-Bold-69" transform="translate(721.443359 0)"/>
     <use xlink:href="#DejaVuSans-Bold-64" transform="translate(755.720703 0)"/>
     <use xlink:href="#DejaVuSans-Bold-74" transform="translate(827.302734 0)"/>
     <use xlink:href="#DejaVuSans-Bold-68" transform="translate(875.105469 0)"/>
     <use xlink:href="#DejaVuSans-Bold-20" transform="translate(946.296875 0)"/>
     <use xlink:href="#DejaVuSans-Bold-28" transform="translate(981.111328 0)"/>
     <use xlink:href="#DejaVuSans-Bold-31" transform="translate(1026.814453 0)"/>
     <use xlink:href="#DejaVuSans-Bold-36" transform="translate(1096.394531 0)"/>
     <use xlink:href="#DejaVuSans-Bold-4d" transform="translate(1165.974609 0)"/>
     <use xlink:href="#DejaVuSans-Bold-29" transform="translate(1265.486328 0)"/>
    </g>
   </g>
  </g>
  <g id="axes_2">
   <g id="patch_5">
    <path d="M 573.01875 290.577969 
L 1055.734232 290.577969 
L 1055.734232 25.077969 
L 573.01875 25.077969 
z
" style="fill: #fafafa"/>
   </g>
   <g id="matplotlib.axis_3">
    <g id="xtick_6">
     <g id="line2d_33">
      <path d="M 594.960363 290.577969 
L 594.960363 25.077969 
" clip-path="url(#pdc898d6658)" style="fill: none; stroke: #e0e0e0; stroke-width: 0.8; stroke-linecap: round"/>
     </g>
     <g id="line2d_34">
      <g>
       <use xlink:href="#m8b5adb8239" x="594.960363" y="290.577969" style="fill: #aaaaaa; stroke: #aaaaaa"/>
      </g>
     </g>
     <g id="text_20">
      <!-- 6 -->
      <g style="fill: #262626" transform="translate(591.460988 306.43625) scale(0.11 -0.11)">
       <use xlink:href="#DejaVuSans-36"/>
      </g>
     </g>
    </g>
    <g id="xtick_7">
     <g id="line2d_35">
      <path d="M 615.857137 290.577969 
L 615.857137 25.077969 
" clip-path="url(#pdc898d6658)" style="fill: none; stroke: #e0e0e0; stroke-width: 0.8; stroke-linecap: round"/>
     </g>
     <g id="line2d_36">
      <g>
       <use xlink:href="#m8b5adb8239" x="615.857137" y="290.577969" style="fill: #aaaaaa; stroke: #aaaaaa"/>
      </g>
     </g>
     <g id="text_21">
      <!-- 8 -->
      <g style="fill: #262626" transform="translate(612.357762 306.43625) scale(0.11 -0.11)">
       <use xlink:href="#DejaVuSans-38"/>
      </g>
     </g>
    </g>
    <g id="xtick_8">
     <g id="line2d_37">
      <path d="M 699.444233 290.577969 
L 699.444233 25.077969 
" clip-path="url(#pdc898d6658)" style="fill: none; stroke: #e0e0e0; stroke-width: 0.8; stroke-linecap: round"/>
     </g>
     <g id="line2d_38">
      <g>
       <use xlink:href="#m8b5adb8239" x="699.444233" y="290.577969" style="fill: #aaaaaa; stroke: #aaaaaa"/>
      </g>
     </g>
     <g id="text_22">
      <!-- 16 -->
      <g style="fill: #262626" transform="translate(692.445483 306.43625) scale(0.11 -0.11)">
       <use xlink:href="#DejaVuSans-31"/>
       <use xlink:href="#DejaVuSans-36" transform="translate(63.623047 0)"/>
      </g>
     </g>
    </g>
    <g id="xtick_9">
     <g id="line2d_39">
      <path d="M 866.618426 290.577969 
L 866.618426 25.077969 
" clip-path="url(#pdc898d6658)" style="fill: none; stroke: #e0e0e0; stroke-width: 0.8; stroke-linecap: round"/>
     </g>
     <g id="line2d_40">
      <g>
       <use xlink:href="#m8b5adb8239" x="866.618426" y="290.577969" style="fill: #aaaaaa; stroke: #aaaaaa"/>
      </g>
     </g>
     <g id="text_23">
      <!-- 32 -->
      <g style="fill: #262626" transform="translate(859.619676 306.43625) scale(0.11 -0.11)">
       <use xlink:href="#DejaVuSans-33"/>
       <use xlink:href="#DejaVuSans-32" transform="translate(63.623047 0)"/>
      </g>
     </g>
    </g>
    <g id="xtick_10">
     <g id="line2d_41">
      <path d="M 1033.792619 290.577969 
L 1033.792619 25.077969 
" clip-path="url(#pdc898d6658)" style="fill: none; stroke: #e0e0e0; stroke-width: 0.8; stroke-linecap: round"/>
     </g>
     <g id="line2d_42">
      <g>
       <use xlink:href="#m8b5adb8239" x="1033.792619" y="290.577969" style="fill: #aaaaaa; stroke: #aaaaaa"/>
      </g>
     </g>
     <g id="text_24">
      <!-- 48 -->
      <g style="fill: #262626" transform="translate(1026.793869 306.43625) scale(0.11 -0.11)">
       <use xlink:href="#DejaVuSans-34"/>
       <use xlink:href="#DejaVuSans-38" transform="translate(63.623047 0)"/>
      </g>
     </g>
    </g>
    <g id="text_25">
     <!-- Tasks per Node -->
     <g style="fill: #262626" transform="translate(768.857116 327.842031) scale(0.12 -0.12)">
      <use xlink:href="#DejaVuSans-54"/>
      <use xlink:href="#DejaVuSans-61" transform="translate(44.583984 0)"/>
      <use xlink:href="#DejaVuSans-73" transform="translate(105.863281 0)"/>
      <use xlink:href="#DejaVuSans-6b" transform="translate(157.962891 0)"/>
      <use xlink:href="#DejaVuSans-73" transform="translate(215.873047 0)"/>
      <use xlink:href="#DejaVuSans-20" transform="translate(267.972656 0)"/>
      <use xlink:href="#DejaVuSans-70" transform="translate(299.759766 0)"/>
      <use xlink:href="#DejaVuSans-65" transform="translate(363.236328 0)"/>
      <use xlink:href="#DejaVuSans-72" transform="translate(424.759766 0)"/>
      <use xlink:href="#DejaVuSans-20" transform="translate(465.873047 0)"/>
      <use xlink:href="#DejaVuSans-4e" transform="translate(497.660156 0)"/>
      <use xlink:href="#DejaVuSans-6f" transform="translate(572.464844 0)"/>
      <use xlink:href="#DejaVuSans-64" transform="translate(633.646484 0)"/>
      <use xlink:href="#DejaVuSans-65" transform="translate(697.123047 0)"/>
     </g>
    </g>
   </g>
   <g id="matplotlib.axis_4">
    <g id="ytick_6">
     <g id="line2d_43">
      <path d="M 573.01875 282.135065 
L 1055.734232 282.135065 
" clip-path="url(#pdc898d6658)" style="fill: none; stroke: #e0e0e0; stroke-width: 0.8; stroke-linecap: round"/>
     </g>
     <g id="line2d_44">
      <g>
       <use xlink:href="#m77d3268318" x="573.01875" y="282.135065" style="fill: #aaaaaa; stroke: #aaaaaa"/>
      </g>
     </g>
    </g>
    <g id="ytick_7">
     <g id="line2d_45">
      <path d="M 573.01875 225.644925 
L 1055.734232 225.644925 
" clip-path="url(#pdc898d6658)" style="fill: none; stroke: #e0e0e0; stroke-width: 0.8; stroke-linecap: round"/>
     </g>
     <g id="line2d_46">
      <g>
       <use xlink:href="#m77d3268318" x="573.01875" y="225.644925" style="fill: #aaaaaa; stroke: #aaaaaa"/>
      </g>
     </g>
    </g>
    <g id="ytick_8">
     <g id="line2d_47">
      <path d="M 573.01875 169.154786 
L 1055.734232 169.154786 
" clip-path="url(#pdc898d6658)" style="fill: none; stroke: #e0e0e0; stroke-width: 0.8; stroke-linecap: round"/>
     </g>
     <g id="line2d_48">
      <g>
       <use xlink:href="#m77d3268318" x="573.01875" y="169.154786" style="fill: #aaaaaa; stroke: #aaaaaa"/>
      </g>
     </g>
    </g>
    <g id="ytick_9">
     <g id="line2d_49">
      <path d="M 573.01875 112.664647 
L 1055.734232 112.664647 
" clip-path="url(#pdc898d6658)" style="fill: none; stroke: #e0e0e0; stroke-width: 0.8; stroke-linecap: round"/>
     </g>
     <g id="line2d_50">
      <g>
       <use xlink:href="#m77d3268318" x="573.01875" y="112.664647" style="fill: #aaaaaa; stroke: #aaaaaa"/>
      </g>
     </g>
    </g>
    <g id="ytick_10">
     <g id="line2d_51">
      <path d="M 573.01875 56.174507 
L 1055.734232 56.174507 
" clip-path="url(#pdc898d6658)" style="fill: none; stroke: #e0e0e0; stroke-width: 0.8; stroke-linecap: round"/>
     </g>
     <g id="line2d_52">
      <g>
       <use xlink:href="#m77d3268318" x="573.01875" y="56.174507" style="fill: #aaaaaa; stroke: #aaaaaa"/>
      </g>
     </g>
    </g>
   </g>
   <g id="FillBetweenPolyCollection_7"/>
   <g id="FillBetweenPolyCollection_8"/>
   <g id="FillBetweenPolyCollection_9"/>
   <g id="FillBetweenPolyCollection_10"/>
   <g id="FillBetweenPolyCollection_11"/>
   <g id="FillBetweenPolyCollection_12"/>
   <g id="line2d_53">
    <path d="M 594.960363 277.039839 
L 615.857137 275.405405 
L 699.444233 277.130456 
L 866.618426 278.493728 
L 1033.792619 278.205532 
" clip-path="url(#pdc898d6658)" style="fill: none; stroke: #e98d6b; stroke-width: 2.8; stroke-linecap: round"/>
    <g clip-path="url(#pdc898d6658)">
     <use xlink:href="#mbc347ca46d" x="594.960363" y="277.039839" style="fill: #e98d6b; stroke: #ffffff; stroke-width: 0.75"/>
     <use xlink:href="#mbc347ca46d" x="615.857137" y="275.405405" style="fill: #e98d6b; stroke: #ffffff; stroke-width: 0.75"/>
     <use xlink:href="#mbc347ca46d" x="699.444233" y="277.130456" style="fill: #e98d6b; stroke: #ffffff; stroke-width: 0.75"/>
     <use xlink:href="#mbc347ca46d" x="866.618426" y="278.493728" style="fill: #e98d6b; stroke: #ffffff; stroke-width: 0.75"/>
     <use xlink:href="#mbc347ca46d" x="1033.792619" y="278.205532" style="fill: #e98d6b; stroke: #ffffff; stroke-width: 0.75"/>
    </g>
   </g>
   <g id="line2d_54">
    <path d="M 594.960363 272.096818 
L 615.857137 268.750984 
L 699.444233 272.957563 
L 866.618426 275.726845 
L 1033.792619 275.373642 
" clip-path="url(#pdc898d6658)" style="fill: none; stroke: #e3685c; stroke-width: 2.8; stroke-linecap: round"/>
    <g clip-path="url(#pdc898d6658)">
     <use xlink:href="#m1ce2eedf19" x="594.960363" y="272.096818" style="fill: #e3685c; stroke: #ffffff; stroke-width: 0.75"/>
     <use xlink:href="#m1ce2eedf19" x="615.857137" y="268.750984" style="fill: #e3685c; stroke: #ffffff; stroke-width: 0.75"/>
     <use xlink:href="#m1ce2eedf19" x="699.444233" y="272.957563" style="fill: #e3685c; stroke: #ffffff; stroke-width: 0.75"/>
     <use xlink:href="#m1ce2eedf19" x="866.618426" y="275.726845" style="fill: #e3685c; stroke: #ffffff; stroke-width: 0.75"/>
     <use xlink:href="#m1ce2eedf19" x="1033.792619" y="275.373642" style="fill: #e3685c; stroke: #ffffff; stroke-width: 0.75"/>
    </g>
   </g>
   <g id="line2d_55">
    <path d="M 594.960363 262.204475 
L 615.857137 257.461033 
L 699.444233 265.274244 
L 866.618426 271.531995 
L 1033.792619 268.406278 
" clip-path="url(#pdc898d6658)" style="fill: none; stroke: #d14a61; stroke-width: 2.8; stroke-linecap: round"/>
    <g clip-path="url(#pdc898d6658)">
     <use xlink:href="#mc565efb47c" x="594.960363" y="262.204475" style="fill: #d14a61; stroke: #ffffff; stroke-width: 0.75"/>
     <use xlink:href="#mc565efb47c" x="615.857137" y="257.461033" style="fill: #d14a61; stroke: #ffffff; stroke-width: 0.75"/>
     <use xlink:href="#mc565efb47c" x="699.444233" y="265.274244" style="fill: #d14a61; stroke: #ffffff; stroke-width: 0.75"/>
     <use xlink:href="#mc565efb47c" x="866.618426" y="271.531995" style="fill: #d14a61; stroke: #ffffff; stroke-width: 0.75"/>
     <use xlink:href="#mc565efb47c" x="1033.792619" y="268.406278" style="fill: #d14a61; stroke: #ffffff; stroke-width: 0.75"/>
    </g>
   </g>
   <g id="line2d_56">
    <path d="M 594.960363 243.086568 
L 615.857137 233.051539 
L 699.444233 259.592004 
L 866.618426 261.436583 
L 1033.792619 258.562859 
" clip-path="url(#pdc898d6658)" style="fill: none; stroke: #b13c6c; stroke-width: 2.8; stroke-linecap: round"/>
    <g clip-path="url(#pdc898d6658)">
     <use xlink:href="#m7a5290a3b4" x="594.960363" y="243.086568" style="fill: #b13c6c; stroke: #ffffff; stroke-width: 0.75"/>
     <use xlink:href="#m7a5290a3b4" x="615.857137" y="233.051539" style="fill: #b13c6c; stroke: #ffffff; stroke-width: 0.75"/>
     <use xlink:href="#m7a5290a3b4" x="699.444233" y="259.592004" style="fill: #b13c6c; stroke: #ffffff; stroke-width: 0.75"/>
     <use xlink:href="#m7a5290a3b4" x="866.618426" y="261.436583" style="fill: #b13c6c; stroke: #ffffff; stroke-width: 0.75"/>
     <use xlink:href="#m7a5290a3b4" x="1033.792619" y="258.562859" style="fill: #b13c6c; stroke: #ffffff; stroke-width: 0.75"/>
    </g>
   </g>
   <g id="line2d_57">
    <path d="M 594.960363 205.416072 
L 615.857137 183.318066 
L 699.444233 205.503455 
L 866.618426 246.314424 
L 1033.792619 251.284421 
" clip-path="url(#pdc898d6658)" style="fill: none; stroke: #8f3371; stroke-width: 2.8; stroke-linecap: round"/>
    <g clip-path="url(#pdc898d6658)">
     <use xlink:href="#mcc9130a9e2" x="594.960363" y="205.416072" style="fill: #8f3371; stroke: #ffffff; stroke-width: 0.75"/>
     <use xlink:href="#mcc9130a9e2" x="615.857137" y="183.318066" style="fill: #8f3371; stroke: #ffffff; stroke-width: 0.75"/>
     <use xlink:href="#mcc9130a9e2" x="699.444233" y="205.503455" style="fill: #8f3371; stroke: #ffffff; stroke-width: 0.75"/>
     <use xlink:href="#mcc9130a9e2" x="866.618426" y="246.314424" style="fill: #8f3371; stroke: #ffffff; stroke-width: 0.75"/>
     <use xlink:href="#mcc9130a9e2" x="1033.792619" y="251.284421" style="fill: #8f3371; stroke: #ffffff; stroke-width: 0.75"/>
    </g>
   </g>
   <g id="line2d_58">
    <path d="M 594.960363 131.34995 
L 615.857137 91.628763 
L 699.444233 57.418994 
L 866.618426 227.426939 
L 1033.792619 220.342123 
" clip-path="url(#pdc898d6658)" style="fill: none; stroke: #6c2b6d; stroke-width: 2.8; stroke-linecap: round"/>
    <g clip-path="url(#pdc898d6658)">
     <use xlink:href="#ma01b75e42f" x="594.960363" y="131.34995" style="fill: #6c2b6d; stroke: #ffffff; stroke-width: 0.75"/>
     <use xlink:href="#ma01b75e42f" x="615.857137" y="91.628763" style="fill: #6c2b6d; stroke: #ffffff; stroke-width: 0.75"/>
     <use xlink:href="#ma01b75e42f" x="699.444233" y="57.418994" style="fill: #6c2b6d; stroke: #ffffff; stroke-width: 0.75"/>
     <use xlink:href="#ma01b75e42f" x="866.618426" y="227.426939" style="fill: #6c2b6d; stroke: #ffffff; stroke-width: 0.75"/>
     <use xlink:href="#ma01b75e42f" x="1033.792619" y="220.342123" style="fill: #6c2b6d; stroke: #ffffff; stroke-width: 0.75"/>
    </g>
   </g>
   <g id="text_26">
    <path d="M 660.538543 278.450638 
L 662.310197 278.4872 
L 662.436447 272.369753 
L 660.500441 272.716599 
L 660.520832 271.728529 
L 662.446528 271.381469 
L 663.530829 271.403847 
L 663.384187 278.509365 
L 665.155841 278.545928 
L 665.137009 279.45839 
L 660.519711 279.363099 
L 660.538543 278.450638 
z
" clip-path="url(#pdc898d6658)" style="fill: #e98d6b; stroke: #fafafa; stroke-width: 5"/>
    <path d="M 660.538543 278.450638 
L 662.310197 278.4872 
L 662.436447 272.369753 
L 660.500441 272.716599 
L 660.520832 271.728529 
L 662.446528 271.381469 
L 663.530829 271.403847 
L 663.384187 278.509365 
L 665.155841 278.545928 
L 665.137009 279.45839 
L 660.519711 279.363099 
L 660.538543 278.450638 
z
" clip-path="url(#pdc898d6658)" style="fill: #e98d6b"/>
   </g>
   <g id="text_27">
    <path d="M 723.35654 275.476624 
L 727.142427 275.539338 
L 727.127311 276.451869 
L 722.037072 276.367548 
L 722.052188 275.455017 
Q 722.679724 274.825949 723.763024 273.767809 
Q 724.848071 272.707979 725.126495 272.399736 
Q 725.656884 271.824067 725.869824 271.421914 
Q 726.084483 271.019789 726.090973 270.627968 
Q 726.101563 269.98868 725.659693 269.579118 
Q 725.21785 269.167837 724.497793 269.155909 
Q 723.987394 269.147454 723.417352 269.315067 
Q 722.849029 269.482708 722.198608 269.832921 
L 722.21677 268.736509 
Q 722.87588 268.484422 723.446928 268.359801 
Q 724.019696 268.235208 724.492287 268.243037 
Q 725.73821 268.263676 726.468556 268.899766 
Q 727.19893 269.534137 727.181679 270.575557 
Q 727.17348 271.070489 726.980536 271.510791 
Q 726.789339 271.949403 726.289598 272.54277 
Q 726.152964 272.696934 725.42058 273.429123 
Q 724.689914 274.16134 723.35654 275.476624 
z
" clip-path="url(#pdc898d6658)" style="fill: #e3685c; stroke: #fafafa; stroke-width: 5"/>
    <path d="M 723.35654 275.476624 
L 727.142427 275.539338 
L 727.127311 276.451869 
L 722.037072 276.367548 
L 722.052188 275.455017 
Q 722.679724 274.825949 723.763024 273.767809 
Q 724.848071 272.707979 725.126495 272.399736 
Q 725.656884 271.824067 725.869824 271.421914 
Q 726.084483 271.019789 726.090973 270.627968 
Q 726.101563 269.98868 725.659693 269.579118 
Q 725.21785 269.167837 724.497793 269.155909 
Q 723.987394 269.147454 723.417352 269.315067 
Q 722.849029 269.482708 722.198608 269.832921 
L 722.21677 268.736509 
Q 722.87588 268.484422 723.446928 268.359801 
Q 724.019696 268.235208 724.492287 268.243037 
Q 725.73821 268.263676 726.468556 268.899766 
Q 727.19893 269.534137 727.181679 270.575557 
Q 727.17348 271.070489 726.980536 271.510791 
Q 726.789339 271.949403 726.289598 272.54277 
Q 726.152964 272.696934 725.42058 273.429123 
Q 724.689914 274.16134 723.35654 275.476624 
z
" clip-path="url(#pdc898d6658)" style="fill: #e3685c"/>
   </g>
   <g id="text_28">
    <path d="M 787.650614 264.53414 
L 784.752692 268.710068 
L 787.490463 268.81255 
L 787.650614 264.53414 
z
M 787.400862 263.578816 
L 788.764594 263.629864 
L 788.569082 268.852925 
L 789.712969 268.895744 
L 789.679215 269.797456 
L 788.535329 269.754637 
L 788.464607 271.643939 
L 787.385988 271.603564 
L 787.456709 269.714262 
L 783.839555 269.578863 
L 783.878709 268.532876 
L 787.400862 263.578816 
z
" clip-path="url(#pdc898d6658)" style="fill: #d14a61; stroke: #fafafa; stroke-width: 5"/>
    <path d="M 787.650614 264.53414 
L 784.752692 268.710068 
L 787.490463 268.81255 
L 787.650614 264.53414 
z
M 787.400862 263.578816 
L 788.764594 263.629864 
L 788.569082 268.852925 
L 789.712969 268.895744 
L 789.679215 269.797456 
L 788.535329 269.754637 
L 788.464607 271.643939 
L 787.385988 271.603564 
L 787.456709 269.714262 
L 783.839555 269.578863 
L 783.878709 268.532876 
L 787.400862 263.578816 
z
" clip-path="url(#pdc898d6658)" style="fill: #d14a61"/>
   </g>
   <g id="text_29">
    <path d="M 848.912459 260.467733 
Q 848.139068 260.459199 847.691087 260.8685 
Q 847.244825 261.27782 847.236842 262.00137 
Q 847.228839 262.726638 847.665961 263.145705 
Q 848.104801 263.564791 848.878192 263.573325 
Q 849.651582 263.581858 850.101301 263.170858 
Q 850.552756 262.758157 850.560702 262.038045 
Q 850.568686 261.314495 850.129845 260.895409 
Q 849.692724 260.476342 848.912459 260.467733 
z
M 847.833075 259.99517 
Q 847.137202 259.815606 846.752341 259.333518 
Q 846.369218 258.84973 846.376803 258.162272 
Q 846.387404 257.201549 847.077588 256.650537 
Q 847.76949 256.099544 848.960512 256.112685 
Q 850.158407 256.125903 850.834547 256.691991 
Q 851.510686 257.258079 851.500085 258.218802 
Q 851.4925 258.90626 851.097077 259.381457 
Q 850.703391 259.854955 850.008881 260.019177 
Q 850.790573 260.210001 851.22123 260.747598 
Q 851.653625 261.283495 851.645167 262.050011 
Q 851.632291 263.216971 850.913888 263.832988 
Q 850.195504 264.447287 848.86871 264.432647 
Q 847.543635 264.418027 846.837261 263.788007 
Q 846.132626 263.156288 846.145502 261.989328 
Q 846.15396 261.222812 846.599793 260.696605 
Q 847.047363 260.168699 847.833075 259.99517 
z
M 847.454975 258.2773 
Q 847.44811 258.899449 847.832674 259.25262 
Q 848.218957 259.60581 848.921883 259.613566 
Q 849.621372 259.621284 850.018791 259.276741 
Q 850.417929 258.932218 850.424794 258.310068 
Q 850.431678 257.6862 850.040239 257.332954 
Q 849.650519 256.979726 848.95103 256.972008 
Q 848.248104 256.964252 847.854122 257.308832 
Q 847.461858 257.653431 847.454975 258.2773 
z
" clip-path="url(#pdc898d6658)" style="fill: #b13c6c; stroke: #fafafa; stroke-width: 5"/>
    <path d="M 848.912459 260.467733 
Q 848.139068 260.459199 847.691087 260.8685 
Q 847.244825 261.27782 847.236842 262.00137 
Q 847.228839 262.726638 847.665961 263.145705 
Q 848.104801 263.564791 848.878192 263.573325 
Q 849.651582 263.581858 850.101301 263.170858 
Q 850.552756 262.758157 850.560702 262.038045 
Q 850.568686 261.314495 850.129845 260.895409 
Q 849.692724 260.476342 848.912459 260.467733 
z
M 847.833075 259.99517 
Q 847.137202 259.815606 846.752341 259.333518 
Q 846.369218 258.84973 846.376803 258.162272 
Q 846.387404 257.201549 847.077588 256.650537 
Q 847.76949 256.099544 848.960512 256.112685 
Q 850.158407 256.125903 850.834547 256.691991 
Q 851.510686 257.258079 851.500085 258.218802 
Q 851.4925 258.90626 851.097077 259.381457 
Q 850.703391 259.854955 850.008881 260.019177 
Q 850.790573 260.210001 851.22123 260.747598 
Q 851.653625 261.283495 851.645167 262.050011 
Q 851.632291 263.216971 850.913888 263.832988 
Q 850.195504 264.447287 848.86871 264.432647 
Q 847.543635 264.418027 846.837261 263.788007 
Q 846.132626 263.156288 846.145502 261.989328 
Q 846.15396 261.222812 846.599793 260.696605 
Q 847.047363 260.168699 847.833075 259.99517 
z
M 847.454975 258.2773 
Q 847.44811 258.899449 847.832674 259.25262 
Q 848.218957 259.60581 848.921883 259.613566 
Q 849.621372 259.621284 850.018791 259.276741 
Q 850.417929 258.932218 850.424794 258.310068 
Q 850.431678 257.6862 850.040239 257.332954 
Q 849.650519 256.979726 848.95103 256.972008 
Q 848.248104 256.964252 847.854122 257.308832 
Q 847.461858 257.653431 847.454975 258.2773 
z
" clip-path="url(#pdc898d6658)" style="fill: #b13c6c"/>
   </g>
   <g id="text_30">
    <path d="M 908.772627 249.691239 
L 910.543875 249.743897 
L 910.725702 243.62785 
L 908.786624 243.957091 
L 908.815992 242.969247 
L 910.744762 242.639698 
L 911.828815 242.671927 
L 911.61762 249.775819 
L 913.388868 249.828477 
L 913.361748 250.740731 
L 908.745506 250.603492 
L 908.772627 249.691239 
z
M 918.138958 246.439542 
Q 917.408812 246.417835 916.966169 246.905053 
Q 916.525296 247.390604 916.499452 248.259907 
Q 916.473761 249.124057 916.884858 249.640095 
Q 917.297724 250.154466 918.02787 250.176173 
Q 918.758016 250.197879 919.198992 249.708893 
Q 919.640019 249.218188 919.665709 248.354038 
Q 919.691553 247.484735 919.280303 246.973851 
Q 918.869104 246.461249 918.138958 246.439542 
z
M 920.392678 243.103635 
L 920.36331 244.09148 
Q 919.960148 243.886909 919.547408 243.773187 
Q 919.134719 243.657748 918.725837 243.645592 
Q 917.652092 243.61367 917.063602 244.321808 
Q 916.476829 245.029996 916.352517 246.493042 
Q 916.682519 246.035146 917.167527 245.800236 
Q 917.654252 245.565377 918.228061 245.582437 
Q 919.435809 245.618342 920.11494 246.372763 
Q 920.794122 247.125466 920.756633 248.386471 
Q 920.719911 249.621706 919.967547 250.347326 
Q 919.215234 251.071227 918.002333 251.035168 
Q 916.61076 250.993797 915.907126 249.906783 
Q 915.203544 248.81805 915.26371 246.794257 
Q 915.320199 244.894159 916.255751 243.790535 
Q 917.191304 242.686912 918.710008 242.732062 
Q 919.11889 242.744218 919.532243 242.837323 
Q 919.945596 242.930429 920.392678 243.103635 
z
" clip-path="url(#pdc898d6658)" style="fill: #8f3371; stroke: #fafafa; stroke-width: 5"/>
    <path d="M 908.772627 249.691239 
L 910.543875 249.743897 
L 910.725702 243.62785 
L 908.786624 243.957091 
L 908.815992 242.969247 
L 910.744762 242.639698 
L 911.828815 242.671927 
L 911.61762 249.775819 
L 913.388868 249.828477 
L 913.361748 250.740731 
L 908.745506 250.603492 
L 908.772627 249.691239 
z
M 918.138958 246.439542 
Q 917.408812 246.417835 916.966169 246.905053 
Q 916.525296 247.390604 916.499452 248.259907 
Q 916.473761 249.124057 916.884858 249.640095 
Q 917.297724 250.154466 918.02787 250.176173 
Q 918.758016 250.197879 919.198992 249.708893 
Q 919.640019 249.218188 919.665709 248.354038 
Q 919.691553 247.484735 919.280303 246.973851 
Q 918.869104 246.461249 918.138958 246.439542 
z
M 920.392678 243.103635 
L 920.36331 244.09148 
Q 919.960148 243.886909 919.547408 243.773187 
Q 919.134719 243.657748 918.725837 243.645592 
Q 917.652092 243.61367 917.063602 244.321808 
Q 916.476829 245.029996 916.352517 246.493042 
Q 916.682519 246.035146 917.167527 245.800236 
Q 917.654252 245.565377 918.228061 245.582437 
Q 919.435809 245.618342 920.11494 246.372763 
Q 920.794122 247.125466 920.756633 248.386471 
Q 920.719911 249.621706 919.967547 250.347326 
Q 919.215234 251.071227 918.002333 251.035168 
Q 916.61076 250.993797 915.907126 249.906783 
Q 915.203544 248.81805 915.26371 246.794257 
Q 915.320199 244.894159 916.255751 243.790535 
Q 917.191304 242.686912 918.710008 242.732062 
Q 919.11889 242.744218 919.532243 242.837323 
Q 919.945596 242.930429 920.392678 243.103635 
z
" clip-path="url(#pdc898d6658)" style="fill: #8f3371"/>
   </g>
   <g id="text_31">
    <path d="M 973.940048 221.588446 
Q 974.725003 221.722048 975.183515 222.230746 
Q 975.643673 222.737655 975.676422 223.510398 
Q 975.726636 224.695272 974.938544 225.380663 
Q 974.150379 226.064336 972.647821 226.128014 
Q 972.144679 226.149337 971.606406 226.072372 
Q 971.068134 225.995407 970.491296 225.820299 
L 970.446976 224.774519 
Q 970.908019 225.018185 971.449464 225.129421 
Q 971.992627 225.240585 972.578195 225.215769 
Q 973.5965 225.172613 974.113523 224.748153 
Q 974.630545 224.323693 974.598015 223.556101 
Q 974.567959 222.846894 974.054801 222.469534 
Q 973.541572 222.090456 972.657209 222.127935 
L 971.723048 222.167525 
L 971.685277 221.276293 
L 972.662369 221.234884 
Q 973.460871 221.201044 973.871485 220.863668 
Q 974.2821 220.526292 974.256629 219.925269 
Q 974.230502 219.308791 973.778641 218.997644 
Q 973.328425 218.684708 972.512751 218.719276 
Q 972.066276 218.738198 971.560414 218.857693 
Q 971.054478 218.97547 970.451739 219.204009 
L 970.41084 218.238938 
Q 971.021757 218.041018 971.557322 217.932306 
Q 972.092887 217.823594 972.570271 217.803363 
Q 973.804944 217.751038 974.546534 218.282145 
Q 975.28977 218.811462 975.330232 219.76623 
Q 975.358469 220.432507 974.99668 220.907158 
Q 974.63489 221.381809 973.940048 221.588446 
z
M 978.725907 224.800403 
L 982.508917 224.64008 
L 982.547561 225.551918 
L 977.461189 225.767477 
L 977.422545 224.85564 
Q 978.011951 224.190712 979.031063 223.070619 
Q 980.05182 221.948736 980.311611 221.624632 
Q 980.807181 221.018731 980.996071 220.604736 
Q 981.186679 220.190669 981.170086 219.799146 
Q 981.143014 219.160344 980.677793 218.777512 
Q 980.212499 218.392962 979.492989 218.423455 
Q 978.982978 218.445069 978.423795 218.645957 
Q 977.866329 218.846773 977.237659 219.234677 
L 977.191228 218.139098 
Q 977.83435 217.848638 978.39707 217.690607 
Q 978.961507 217.532503 979.433739 217.51249 
Q 980.678715 217.459728 981.445249 218.051709 
Q 982.211711 218.641972 982.255813 219.682601 
Q 982.276772 220.177157 982.110089 220.628056 
Q 981.945051 221.077166 981.481118 221.69893 
Q 981.353798 221.860872 980.665799 222.634916 
Q 979.979518 223.408888 978.725907 224.800403 
z
" clip-path="url(#pdc898d6658)" style="fill: #6c2b6d; stroke: #fafafa; stroke-width: 5"/>
    <path d="M 973.940048 221.588446 
Q 974.725003 221.722048 975.183515 222.230746 
Q 975.643673 222.737655 975.676422 223.510398 
Q 975.726636 224.695272 974.938544 225.380663 
Q 974.150379 226.064336 972.647821 226.128014 
Q 972.144679 226.149337 971.606406 226.072372 
Q 971.068134 225.995407 970.491296 225.820299 
L 970.446976 224.774519 
Q 970.908019 225.018185 971.449464 225.129421 
Q 971.992627 225.240585 972.578195 225.215769 
Q 973.5965 225.172613 974.113523 224.748153 
Q 974.630545 224.323693 974.598015 223.556101 
Q 974.567959 222.846894 974.054801 222.469534 
Q 973.541572 222.090456 972.657209 222.127935 
L 971.723048 222.167525 
L 971.685277 221.276293 
L 972.662369 221.234884 
Q 973.460871 221.201044 973.871485 220.863668 
Q 974.2821 220.526292 974.256629 219.925269 
Q 974.230502 219.308791 973.778641 218.997644 
Q 973.328425 218.684708 972.512751 218.719276 
Q 972.066276 218.738198 971.560414 218.857693 
Q 971.054478 218.97547 970.451739 219.204009 
L 970.41084 218.238938 
Q 971.021757 218.041018 971.557322 217.932306 
Q 972.092887 217.823594 972.570271 217.803363 
Q 973.804944 217.751038 974.546534 218.282145 
Q 975.28977 218.811462 975.330232 219.76623 
Q 975.358469 220.432507 974.99668 220.907158 
Q 974.63489 221.381809 973.940048 221.588446 
z
M 978.725907 224.800403 
L 982.508917 224.64008 
L 982.547561 225.551918 
L 977.461189 225.767477 
L 977.422545 224.85564 
Q 978.011951 224.190712 979.031063 223.070619 
Q 980.05182 221.948736 980.311611 221.624632 
Q 980.807181 221.018731 980.996071 220.604736 
Q 981.186679 220.190669 981.170086 219.799146 
Q 981.143014 219.160344 980.677793 218.777512 
Q 980.212499 218.392962 979.492989 218.423455 
Q 978.982978 218.445069 978.423795 218.645957 
Q 977.866329 218.846773 977.237659 219.234677 
L 977.191228 218.139098 
Q 977.83435 217.848638 978.39707 217.690607 
Q 978.961507 217.532503 979.433739 217.51249 
Q 980.678715 217.459728 981.445249 218.051709 
Q 982.211711 218.641972 982.255813 219.682601 
Q 982.276772 220.177157 982.110089 220.628056 
Q 981.945051 221.077166 981.481118 221.69893 
Q 981.353798 221.860872 980.665799 222.634916 
Q 979.979518 223.408888 978.725907 224.800403 
z
" clip-path="url(#pdc898d6658)" style="fill: #6c2b6d"/>
   </g>
   <g id="patch_6">
    <path d="M 573.01875 290.577969 
L 573.01875 25.077969 
" style="fill: none; stroke: #bbbbbb; stroke-linejoin: miter; stroke-linecap: square"/>
   </g>
   <g id="patch_7">
    <path d="M 573.01875 290.577969 
L 1055.734232 290.577969 
" style="fill: none; stroke: #bbbbbb; stroke-linejoin: miter; stroke-linecap: square"/>
   </g>
   <g id="text_32">
    <!-- Read Bandwidth (16M) -->
    <g style="fill: #262626" transform="translate(730.702194 17.077969) scale(0.13 -0.13)">
     <defs>
      <path id="DejaVuSans-Bold-52" d="M 2297 2597 
Q 2675 2597 2839 2737 
Q 3003 2878 3003 3200 
Q 3003 3519 2839 3656 
Q 2675 3794 2297 3794 
L 1791 3794 
L 1791 2597 
L 2297 2597 
z
M 1791 1766 
L 1791 0 
L 588 0 
L 588 4666 
L 2425 4666 
Q 3347 4666 3776 4356 
Q 4206 4047 4206 3378 
Q 4206 2916 3982 2619 
Q 3759 2322 3309 2181 
Q 3556 2125 3751 1926 
Q 3947 1728 4147 1325 
L 4800 0 
L 3519 0 
L 2950 1159 
Q 2778 1509 2601 1637 
Q 2425 1766 2131 1766 
L 1791 1766 
z
" transform="scale(0.015625)"/>
     </defs>
     <use xlink:href="#DejaVuSans-Bold-52"/>
     <use xlink:href="#DejaVuSans-Bold-65" transform="translate(77.001953 0)"/>
     <use xlink:href="#DejaVuSans-Bold-61" transform="translate(144.824219 0)"/>
     <use xlink:href="#DejaVuSans-Bold-64" transform="translate(212.304688 0)"/>
     <use xlink:href="#DejaVuSans-Bold-20" transform="translate(283.886719 0)"/>
     <use xlink:href="#DejaVuSans-Bold-42" transform="translate(318.701172 0)"/>
     <use xlink:href="#DejaVuSans-Bold-61" transform="translate(394.921875 0)"/>
     <use xlink:href="#DejaVuSans-Bold-6e" transform="translate(462.402344 0)"/>
     <use xlink:href="#DejaVuSans-Bold-64" transform="translate(533.59375 0)"/>
     <use xlink:href="#DejaVuSans-Bold-77" transform="translate(605.175781 0)"/>
     <use xlink:href="#DejaVuSans-Bold-69" transform="translate(697.558594 0)"/>
     <use xlink:href="#DejaVuSans-Bold-64" transform="translate(731.835938 0)"/>
     <use xlink:href="#DejaVuSans-Bold-74" transform="translate(803.417969 0)"/>
     <use xlink:href="#DejaVuSans-Bold-68" transform="translate(851.220703 0)"/>
     <use xlink:href="#DejaVuSans-Bold-20" transform="translate(922.412109 0)"/>
     <use xlink:href="#DejaVuSans-Bold-28" transform="translate(957.226562 0)"/>
     <use xlink:href="#DejaVuSans-Bold-31" transform="translate(1002.929688 0)"/>
     <use xlink:href="#DejaVuSans-Bold-36" transform="translate(1072.509766 0)"/>
     <use xlink:href="#DejaVuSans-Bold-4d" transform="translate(1142.089844 0)"/>
     <use xlink:href="#DejaVuSans-Bold-29" transform="translate(1241.601562 0)"/>
    </g>
   </g>
  </g>
  <g id="legend_1">
   <g id="patch_8">
    <path d="M 341.98875 389.877969 
L 729.46875 389.877969 
Q 731.86875 389.877969 731.86875 387.477969 
L 731.86875 338.082656 
Q 731.86875 335.682656 729.46875 335.682656 
L 341.98875 335.682656 
Q 339.58875 335.682656 339.58875 338.082656 
L 339.58875 387.477969 
Q 339.58875 389.877969 341.98875 389.877969 
z
" style="fill: #fafafa; opacity: 0.9; stroke: #dddddd; stroke-linejoin: miter"/>
   </g>
   <g id="text_33">
    <!-- Client Nodes -->
    <g style="fill: #262626" transform="translate(494.493359 357.560625) scale(0.13 -0.13)">
     <defs>
      <path id="DejaVuSans-43" d="M 4122 4306 
L 4122 3641 
Q 3803 3938 3442 4084 
Q 3081 4231 2675 4231 
Q 1875 4231 1450 3742 
Q 1025 3253 1025 2328 
Q 1025 1406 1450 917 
Q 1875 428 2675 428 
Q 3081 428 3442 575 
Q 3803 722 4122 1019 
L 4122 359 
Q 3791 134 3420 21 
Q 3050 -91 2638 -91 
Q 1578 -91 968 557 
Q 359 1206 359 2328 
Q 359 3453 968 4101 
Q 1578 4750 2638 4750 
Q 3056 4750 3426 4639 
Q 3797 4528 4122 4306 
z
" transform="scale(0.015625)"/>
      <path id="DejaVuSans-6c" d="M 603 4863 
L 1178 4863 
L 1178 0 
L 603 0 
L 603 4863 
z
" transform="scale(0.015625)"/>
     </defs>
     <use xlink:href="#DejaVuSans-43"/>
     <use xlink:href="#DejaVuSans-6c" transform="translate(69.824219 0)"/>
     <use xlink:href="#DejaVuSans-69" transform="translate(97.607422 0)"/>
     <use xlink:href="#DejaVuSans-65" transform="translate(125.390625 0)"/>
     <use xlink:href="#DejaVuSans-6e" transform="translate(186.914062 0)"/>
     <use xlink:href="#DejaVuSans-74" transform="translate(250.292969 0)"/>
     <use xlink:href="#DejaVuSans-20" transform="translate(289.501953 0)"/>
     <use xlink:href="#DejaVuSans-4e" transform="translate(321.289062 0)"/>
     <use xlink:href="#DejaVuSans-6f" transform="translate(396.09375 0)"/>
     <use xlink:href="#DejaVuSans-64" transform="translate(457.275391 0)"/>
     <use xlink:href="#DejaVuSans-65" transform="translate(520.751953 0)"/>
     <use xlink:href="#DejaVuSans-73" transform="translate(582.275391 0)"/>
    </g>
   </g>
   <g id="line2d_59">
    <path d="M 351.58875 371.182344 
L 363.58875 371.182344 
L 375.58875 371.182344 
" style="fill: none; stroke: #e98d6b; stroke-width: 2.8; stroke-linecap: round"/>
    <defs>
     <path id="m3a31cad9f7" d="M 0 3 
C 0.795609 3 1.55874 2.683901 2.12132 2.12132 
C 2.683901 1.55874 3 0.795609 3 0 
C 3 -0.795609 2.683901 -1.55874 2.12132 -2.12132 
C 1.55874 -2.683901 0.795609 -3 0 -3 
C -0.795609 -3 -1.55874 -2.683901 -2.12132 -2.12132 
C -2.683901 -1.55874 -3 -0.795609 -3 0 
C -3 0.795609 -2.683901 1.55874 -2.12132 2.12132 
C -1.55874 2.683901 -0.795609 3 0 3 
z
" style="stroke: #e98d6b"/>
    </defs>
    <g>
     <use xlink:href="#m3a31cad9f7" x="363.58875" y="371.182344" style="fill: #e98d6b; stroke: #e98d6b"/>
    </g>
   </g>
   <g id="text_34">
    <!-- 1 -->
    <g style="fill: #262626" transform="translate(382.78875 375.382344) scale(0.12 -0.12)">
     <use xlink:href="#DejaVuSans-31"/>
    </g>
   </g>
   <g id="line2d_60">
    <path d="M 414.42375 371.182344 
L 426.42375 371.182344 
L 438.42375 371.182344 
" style="fill: none; stroke: #e3685c; stroke-width: 2.8; stroke-linecap: round"/>
    <defs>
     <path id="ma64791dd2f" d="M 0 3 
C 0.795609 3 1.55874 2.683901 2.12132 2.12132 
C 2.683901 1.55874 3 0.795609 3 0 
C 3 -0.795609 2.683901 -1.55874 2.12132 -2.12132 
C 1.55874 -2.683901 0.795609 -3 0 -3 
C -0.795609 -3 -1.55874 -2.683901 -2.12132 -2.12132 
C -2.683901 -1.55874 -3 -0.795609 -3 0 
C -3 0.795609 -2.683901 1.55874 -2.12132 2.12132 
C -1.55874 2.683901 -0.795609 3 0 3 
z
" style="stroke: #e3685c"/>
    </defs>
    <g>
     <use xlink:href="#ma64791dd2f" x="426.42375" y="371.182344" style="fill: #e3685c; stroke: #e3685c"/>
    </g>
   </g>
   <g id="text_35">
    <!-- 2 -->
    <g style="fill: #262626" transform="translate(445.62375 375.382344) scale(0.12 -0.12)">
     <use xlink:href="#DejaVuSans-32"/>
    </g>
   </g>
   <g id="line2d_61">
    <path d="M 477.25875 371.182344 
L 489.25875 371.182344 
L 501.25875 371.182344 
" style="fill: none; stroke: #d14a61; stroke-width: 2.8; stroke-linecap: round"/>
    <defs>
     <path id="m24c70a14c6" d="M 0 3 
C 0.795609 3 1.55874 2.683901 2.12132 2.12132 
C 2.683901 1.55874 3 0.795609 3 0 
C 3 -0.795609 2.683901 -1.55874 2.12132 -2.12132 
C 1.55874 -2.683901 0.795609 -3 0 -3 
C -0.795609 -3 -1.55874 -2.683901 -2.12132 -2.12132 
C -2.683901 -1.55874 -3 -0.795609 -3 0 
C -3 0.795609 -2.683901 1.55874 -2.12132 2.12132 
C -1.55874 2.683901 -0.795609 3 0 3 
z
" style="stroke: #d14a61"/>
    </defs>
    <g>
     <use xlink:href="#m24c70a14c6" x="489.25875" y="371.182344" style="fill: #d14a61; stroke: #d14a61"/>
    </g>
   </g>
   <g id="text_36">
    <!-- 4 -->
    <g style="fill: #262626" transform="translate(508.45875 375.382344) scale(0.12 -0.12)">
     <use xlink:href="#DejaVuSans-34"/>
    </g>
   </g>
   <g id="line2d_62">
    <path d="M 540.09375 371.182344 
L 552.09375 371.182344 
L 564.09375 371.182344 
" style="fill: none; stroke: #b13c6c; stroke-width: 2.8; stroke-linecap: round"/>
    <defs>
     <path id="m5a60d9fb3e" d="M 0 3 
C 0.795609 3 1.55874 2.683901 2.12132 2.12132 
C 2.683901 1.55874 3 0.795609 3 0 
C 3 -0.795609 2.683901 -1.55874 2.12132 -2.12132 
C 1.55874 -2.683901 0.795609 -3 0 -3 
C -0.795609 -3 -1.55874 -2.683901 -2.12132 -2.12132 
C -2.683901 -1.55874 -3 -0.795609 -3 0 
C -3 0.795609 -2.683901 1.55874 -2.12132 2.12132 
C -1.55874 2.683901 -0.795609 3 0 3 
z
" style="stroke: #b13c6c"/>
    </defs>
    <g>
     <use xlink:href="#m5a60d9fb3e" x="552.09375" y="371.182344" style="fill: #b13c6c; stroke: #b13c6c"/>
    </g>
   </g>
   <g id="text_37">
    <!-- 8 -->
    <g style="fill: #262626" transform="translate(571.29375 375.382344) scale(0.12 -0.12)">
     <use xlink:href="#DejaVuSans-38"/>
    </g>
   </g>
   <g id="line2d_63">
    <path d="M 602.92875 371.182344 
L 614.92875 371.182344 
L 626.92875 371.182344 
" style="fill: none; stroke: #8f3371; stroke-width: 2.8; stroke-linecap: round"/>
    <defs>
     <path id="m79c0ff2462" d="M 0 3 
C 0.795609 3 1.55874 2.683901 2.12132 2.12132 
C 2.683901 1.55874 3 0.795609 3 0 
C 3 -0.795609 2.683901 -1.55874 2.12132 -2.12132 
C 1.55874 -2.683901 0.795609 -3 0 -3 
C -0.795609 -3 -1.55874 -2.683901 -2.12132 -2.12132 
C -2.683901 -1.55874 -3 -0.795609 -3 0 
C -3 0.795609 -2.683901 1.55874 -2.12132 2.12132 
C -1.55874 2.683901 -0.795609 3 0 3 
z
" style="stroke: #8f3371"/>
    </defs>
    <g>
     <use xlink:href="#m79c0ff2462" x="614.92875" y="371.182344" style="fill: #8f3371; stroke: #8f3371"/>
    </g>
   </g>
   <g id="text_38">
    <!-- 16 -->
    <g style="fill: #262626" transform="translate(634.12875 375.382344) scale(0.12 -0.12)">
     <use xlink:href="#DejaVuSans-31"/>
     <use xlink:href="#DejaVuSans-36" transform="translate(63.623047 0)"/>
    </g>
   </g>
   <g id="line2d_64">
    <path d="M 673.39875 371.182344 
L 685.39875 371.182344 
L 697.39875 371.182344 
" style="fill: none; stroke: #6c2b6d; stroke-width: 2.8; stroke-linecap: round"/>
    <defs>
     <path id="m782a7224b9" d="M 0 3 
C 0.795609 3 1.55874 2.683901 2.12132 2.12132 
C 2.683901 1.55874 3 0.795609 3 0 
C 3 -0.795609 2.683901 -1.55874 2.12132 -2.12132 
C 1.55874 -2.683901 0.795609 -3 0 -3 
C -0.795609 -3 -1.55874 -2.683901 -2.12132 -2.12132 
C -2.683901 -1.55874 -3 -0.795609 -3 0 
C -3 0.795609 -2.683901 1.55874 -2.12132 2.12132 
C -1.55874 2.683901 -0.795609 3 0 3 
z
" style="stroke: #6c2b6d"/>
    </defs>
    <g>
     <use xlink:href="#m782a7224b9" x="685.39875" y="371.182344" style="fill: #6c2b6d; stroke: #6c2b6d"/>
    </g>
   </g>
   <g id="text_39">
    <!-- 32 -->
    <g style="fill: #262626" transform="translate(704.59875 375.382344) scale(0.12 -0.12)">
     <use xlink:href="#DejaVuSans-33"/>
     <use xlink:href="#DejaVuSans-32" transform="translate(63.623047 0)"/>
    </g>
   </g>
  </g>
 </g>
 <defs>
  <clipPath id="pba73ba8cce">
   <rect x="64.30875" y="25.077969" width="482.715482" height="265.5"/>
  </clipPath>
  <clipPath id="pdc898d6658">
   <rect x="573.01875" y="25.077969" width="482.715482" height="265.5"/>
  </clipPath>
 </defs>
</svg>
